<svg width="332" height="332" viewBox="0 0 332 332" fill="none" xmlns="http://www.w3.org/2000/svg">
<g clip-path="url(#clip0_1_33781)">
<path d="M149.774 0.0456543H182.222C182.367 1.01089 183.119 0.889287 183.81 0.972891C187.618 1.44791 191.453 1.78232 195.224 2.47775C213.781 5.89788 231.32 12.1225 247.802 21.3493C266.031 31.5527 281.616 44.8722 294.885 60.8708C305.558 73.7419 313.874 88.0837 320.14 103.562C325.894 117.778 329.821 132.473 331.023 147.811C331.077 148.472 331.142 149.049 331.954 149.152V151.459C329.382 152.268 326.963 153.397 324.635 154.773C319.85 157.6 315.751 161.263 311.603 164.915C305.379 170.391 299.258 175.97 293.935 182.324C292.874 183.593 291.046 184.547 291.126 186.622C288.279 183.543 284.574 183.41 280.815 183.802C276.552 184.243 272.305 184.824 268.073 185.489C266.352 185.759 265.26 185.649 264.551 183.749C262.757 178.972 260.452 174.434 256.712 170.828C254.026 168.24 251.645 165.348 248.741 162.977C247.542 162 246.34 161.153 244.711 161.149C240.708 161.134 236.708 161.225 232.709 160.735C231.347 160.568 230.481 160.302 230.488 158.782C230.488 157.98 230.103 157.577 229.24 157.444C225.504 156.866 221.788 156.904 218.021 157.269C213.93 157.661 209.809 157.699 205.039 157.923C207.66 156.471 206.222 155.669 205.107 154.879C209.443 153.1 211.37 146.416 210.316 142.327C209.843 140.488 208.717 139.036 206.5 138.983C206.092 138.971 205.291 139.093 205.489 138.474C206.042 136.733 203.997 135.681 204.558 133.758C204.928 132.488 203.123 131.067 203.501 129.35C203.623 128.802 202.89 128.559 202.547 128.544C200.975 128.472 201.238 127.377 201.238 126.42C201.234 121.419 201.253 116.418 201.23 111.417C201.219 108.859 199.628 106.442 197.533 106.302C195.842 106.184 194.178 105.91 192.499 105.743C188.412 105.333 184.325 104.892 180.249 104.379C176.765 103.938 173.144 105.39 172.663 107.548C171.694 111.926 170.808 116.315 170.171 120.75C169.919 122.494 170.69 124.694 169.404 125.888C168.065 127.13 167.828 128.358 167.866 129.878C167.885 130.672 167.626 131.041 166.866 131.379C164.058 132.625 164.042 132.804 165.893 135.076C164.233 136.125 164.058 138.113 165.664 138.949C166.496 139.382 167.347 139.701 166.843 140.697C166.386 141.601 167.011 143.148 164.977 143.277C163.268 143.383 162.253 144.691 161.657 146.564C160.856 149.065 161.978 151.037 162.638 153.165C163.245 155.13 163.955 156.954 166.412 157.588C167.588 157.892 166.893 159.602 167.214 160.64C167.473 161.484 166.187 161.066 165.603 161.138C161.497 161.647 157.372 162.046 153.277 162.631C152.445 162.749 150.969 162.867 151.217 164.277C151.491 165.842 150.408 165.983 149.526 166.078C145.561 166.504 141.581 166.785 137.612 167.165C136.532 167.267 135.933 166.83 135.464 165.907C132.331 159.762 129.514 153.484 127.32 146.94C127.103 146.291 126.962 145.827 127.48 145.291C128.889 143.839 129.488 141.879 130.636 140.264C133.136 136.745 130.842 129.258 128.931 126.929C128.503 126.408 127.484 126.796 127.469 125.572C127.446 123.919 127.08 122.232 126.61 120.632C125.561 117.041 124.279 113.514 123.977 109.71C125.53 110.22 126.443 109.646 127.29 108.228C125.862 108.228 125.252 107.438 124.744 106.469C122.909 102.98 120.226 100.039 118.513 96.4326C117.524 94.3501 115.712 92.5717 112.861 92.8377C106 93.4761 99.1193 93.9777 92.2732 94.7606C90.7392 94.9354 88.7853 94.4908 87.7168 96.5846C87.0834 97.8273 87.7283 98.7925 87.7321 99.8452C87.7741 106.746 87.2856 113.659 87.9916 120.548C85.6485 119.587 83.2863 118.663 80.9623 117.656C71.7083 113.643 62.3703 110.987 51.9448 112.051C42.7709 112.986 33.9405 114.951 25.1711 117.512C18.2945 119.522 11.727 122.357 5.15186 125.154C5.22436 124.702 5.26252 124.242 5.37319 123.797C8.71227 110.797 13.6885 98.4467 20.0575 86.6206C26.8349 74.0346 35.2036 62.5999 44.9155 52.1533C50.6778 45.9553 57.0202 40.3614 63.7098 35.1438C77.7263 24.207 93.0861 15.7175 109.827 9.72843C122.329 5.25566 135.166 2.16994 148.423 0.976691C149.08 0.915888 149.671 0.862686 149.778 0.0532546L149.774 0.0456543ZM208.756 123.931C210.183 124.322 211.064 124.512 211.755 125.177C215.327 128.608 219.715 130.881 223.822 133.556C225.714 134.791 227.943 135.688 229.446 137.277C230.267 138.143 230.881 138.067 231.614 138.025C232.53 137.972 232.663 137.071 232.74 136.342C232.831 135.46 233.461 134.837 233.717 134.069C234.14 132.796 235.361 131.725 234.781 130.163C234.228 128.673 232.911 128.969 231.774 128.818C231.633 128.798 231.5 128.692 231.37 128.612C226.695 125.884 221.486 124.584 216.285 123.478C214.087 123.011 211.534 122.585 208.756 123.931ZM164.741 101.16C165.611 101.118 166.244 101.274 166.702 100.666C167.008 100.263 166.87 99.9934 166.603 99.6742C163.768 96.3186 162.558 92.0131 159.967 88.4789C159.082 87.2705 158.536 87.0805 157.528 87.7683C155.887 88.8817 154.38 90.189 152.724 91.2682C151.228 92.2411 151.106 92.8795 152.766 93.8333C156.532 95.9956 160.597 97.7133 163.718 100.886C163.981 101.156 164.565 101.114 164.745 101.16H164.741ZM219.521 119.614C220.513 119.614 221.131 119.614 221.749 119.614C225.653 119.602 225.863 119.355 225.386 115.449C225.329 114.993 225.306 114.525 225.348 114.069C225.455 112.899 224.84 112.663 223.81 112.667C222.081 112.674 220.612 113.518 219.013 113.951C215.289 114.966 211.534 115.886 207.786 116.817C207.317 116.934 206.79 116.969 206.821 117.554C206.844 117.938 207.244 118.188 207.66 118.207C211.77 118.413 215.724 119.944 219.517 119.614H219.521ZM165.596 109.904C161.89 109.27 158.398 108.528 154.865 108.122C153.018 107.909 151.259 106.811 149.305 107.51C148.732 107.715 147.713 108.095 148.137 108.513C149.278 109.642 148.671 110.953 148.927 112.142C149.469 114.673 149.835 114.939 152.495 114.282C155.586 113.514 158.723 112.963 161.734 111.854C162.978 111.394 164.451 111.55 165.599 109.912L165.596 109.904Z" fill="#E3E6EF"/>
<path d="M5.14398 125.147C11.7191 122.346 18.2866 119.515 25.1632 117.504C33.9326 114.939 42.763 112.978 51.9369 112.044C62.3625 110.98 71.7004 113.632 80.9545 117.649C83.2785 118.656 85.6406 119.579 87.9837 120.541C88.4073 122.578 88.1669 124.66 88.3615 126.724C88.6515 129.764 89.7353 132.686 89.5407 135.787C89.3919 138.158 90.5787 138.816 92.7653 137.706C93.2385 137.467 93.7956 137.265 94.1124 136.878C94.9901 135.81 95.738 136.099 96.5508 136.916C100.039 140.419 104.9 141.696 108.884 144.417C111.228 146.017 114.174 146.154 116.856 146.921C117.99 149.171 118.135 151.877 120.031 153.777C120.363 155.966 120.638 158.162 121.043 160.336C122.409 167.716 123.592 175.153 127.331 181.849C126.442 182.293 126.687 183.129 126.595 183.87C126.206 186.975 125.874 190.091 125.362 193.181C124.584 197.878 123.057 202.396 121.836 206.987C121.52 208.187 121.626 208.928 122.981 208.647C127.438 207.724 131.945 207.431 136.475 207.135C140.249 206.884 143.973 206.819 147.748 207.135C150.503 207.363 152.842 208.849 155.517 209.206C151.476 217.399 147.011 225.387 143.405 233.793C142.89 234.997 142.336 236.179 143.325 237.418C143.546 237.696 143.878 238.019 143.508 238.41C143.218 238.718 142.84 238.737 142.447 238.623C140.001 237.939 137.513 237.703 134.975 237.764C133.838 237.791 132.014 237.642 131.712 237.221C130.075 234.963 128.121 235.776 125.946 235.685C122.451 235.533 121.699 235.412 119.291 240.394C118.444 242.146 120.699 242.94 121.829 243.954C122.161 244.255 122.569 244.475 122.947 244.722C128.381 248.249 134.105 251.3 139.398 255.074C144.187 258.486 144.508 258.319 148.774 255.837C149.53 255.4 149.934 254.846 150.312 254.021C151.873 250.631 152.304 246.903 153.796 243.438C154.471 243.647 155.242 243.924 156.036 244.118C158.284 244.665 161.478 243.046 162.233 240.922C164.294 235.123 166.435 229.35 168.29 223.487C169.079 220.982 170.198 219.618 172.949 220.203C173.208 220.789 173.663 221.188 174.185 221.537C178.063 224.133 181.196 227.5 184.096 231.095C186.263 233.778 187.236 237.038 188.366 240.215C188.874 241.636 189.377 242.184 190.969 240.998C194.086 238.668 197.071 236.088 200.734 234.56C203.844 239.668 207.015 244.741 210.041 249.898C213.09 255.096 216.426 260.105 220.559 264.483C221.887 265.893 223.291 268.063 225.993 267.36C226.496 267.23 226.989 267.139 227.492 266.945C231.286 265.471 234.289 263.331 236.956 259.991C240.318 255.78 243.589 251.521 246.809 247.204C250.622 242.096 252.969 235.864 258.571 232.094C259.658 231.365 260.353 230.954 261.574 231.691C263.848 233.067 266.23 234.199 268.286 235.985C271.179 238.497 274.686 237.479 274.884 234.165C275.049 231.452 274.617 228.708 274.621 225.98C274.621 222.742 272.999 219.797 273.06 216.563C275.919 210.372 279.139 204.368 282.414 198.394C282.948 198.406 283.482 198.413 284.013 198.429C286.119 198.478 286.97 196.529 288.481 195.7C290.71 194.473 290.664 191.775 292.496 190.372C292.778 190.156 292.45 189.559 292.21 189.13C291.767 188.343 291.484 187.465 291.137 186.629C291.057 184.558 292.881 183.6 293.946 182.331C299.269 175.977 305.39 170.403 311.614 164.923C315.762 161.271 319.861 157.611 324.646 154.78C326.974 153.404 329.39 152.28 331.966 151.466V182.856C331.008 183.004 331.095 183.737 331.031 184.433C330.87 186.105 330.71 187.781 330.447 189.437C329.134 197.604 327.424 205.687 324.963 213.587C321.967 223.198 318.121 232.455 313.522 241.427C310.927 246.485 307.783 251.205 305.085 256.191C304.639 256.506 304.173 256.685 303.601 256.719C297.407 257.099 291.317 258.3 285.31 259.668C275.014 262.013 264.749 264.502 254.522 267.162C241.486 270.552 228.347 273.516 216.269 279.756C215.621 280.09 215.01 280.132 214.197 279.839C202.921 275.822 191.522 272.182 179.986 268.959C170.476 266.303 161.058 263.343 151.392 261.245C143.851 259.607 136.307 258.011 128.736 256.51C119.848 254.743 110.953 253.037 101.996 251.695C95.8449 250.776 89.6857 249.86 83.4807 249.24C76.772 248.568 70.1168 247.401 63.4233 246.573C56.5582 245.721 49.6854 244.916 42.7974 244.274C34.7416 243.521 26.6629 242.966 18.5957 242.324C18.6568 241.598 18.3515 240.979 18.0424 240.359C13.5737 231.349 9.74619 222.088 6.93373 212.417C4.04876 202.491 1.84306 192.44 0.988255 182.122C0.931014 181.423 1.00734 180.697 0.0571289 180.545V150.079C0.694416 149.977 0.992071 149.582 0.969175 148.958C0.862324 146.108 1.51869 143.338 1.93846 140.552C2.72458 135.365 3.54504 130.17 5.15543 125.15L5.14398 125.147ZM288.382 211.258C288.565 210.475 288.363 209.419 287.39 208.913C286.192 208.29 285.081 209.118 284.284 209.837C281.879 212.018 280.452 214.944 278.72 217.627C278.235 218.376 278.743 218.695 279.479 218.854C282.772 219.569 288.382 214.978 288.382 211.254V211.258ZM289.035 225.341C290.534 225.121 291.973 224.699 292.896 223.323C293.278 222.753 293.683 222.115 293.37 221.401C293.034 220.633 292.278 220.762 291.587 220.679C290.107 220.5 288.905 221.021 287.779 221.879C287.027 222.453 286.192 223.061 286.691 224.133C287.107 225.033 288.035 225.288 289.035 225.341Z" fill="#F5F7FA"/>
<path d="M176.197 331.955H156.265C155.914 331.175 155.193 331.483 154.647 331.483C149.488 331.472 144.386 330.742 139.326 329.929C128.904 328.253 118.7 325.646 108.759 322.055C96.6464 317.677 85.1676 312.019 74.41 304.97C61.0957 296.245 49.1551 285.965 38.8478 273.801C33.0245 266.926 27.701 259.729 22.9996 252.049C21.9845 250.392 22.6104 250.213 24.03 250.251C33.7381 250.51 43.4462 249.981 53.1696 250.624C62.7366 251.255 72.315 251.741 81.8743 252.528C88.2624 253.052 94.6353 253.668 101.012 254.333C108.885 255.15 116.54 257.012 124.286 258.422C129.373 259.349 134.437 260.63 139.684 260.356C141.077 260.546 142.493 260.633 143.859 260.945C156.742 263.89 169.476 267.405 182.119 271.236C191.774 274.162 201.368 277.282 210.98 280.341C211.541 280.519 212.377 280.85 212.476 281.261C212.717 282.245 213.323 282.169 213.98 282.1C215.571 281.937 216.998 282.507 218.422 283.047C231.503 288.025 244.604 292.95 257.628 298.072C259.635 298.863 262.097 298.753 263.616 300.679C263.368 300.972 263.173 301.333 262.868 301.542C250.481 310.157 237.266 317.187 222.997 322.203C210.049 326.756 196.792 329.857 183.088 331.118C180.814 331.327 178.383 330.837 176.2 331.962L176.197 331.955Z" fill="#849D3F"/>
<path d="M172.941 220.2C170.19 219.614 169.072 220.979 168.282 223.483C166.431 229.347 164.286 235.119 162.226 240.918C161.47 243.042 158.28 244.661 156.028 244.114C155.235 243.92 154.464 243.643 153.788 243.434C152.296 246.9 151.865 250.624 150.304 254.017C149.923 254.842 149.522 255.397 148.766 255.834C144.5 258.315 144.176 258.482 139.39 255.07C134.097 251.296 128.373 248.245 122.939 244.718C122.557 244.471 122.153 244.251 121.821 243.951C120.691 242.936 118.436 242.142 119.283 240.39C121.691 235.408 122.443 235.53 125.939 235.682C128.114 235.777 130.071 234.959 131.705 237.217C132.01 237.639 133.83 237.787 134.967 237.76C137.505 237.699 139.993 237.935 142.439 238.619C142.836 238.729 143.21 238.714 143.5 238.406C143.867 238.015 143.538 237.692 143.317 237.414C142.329 236.176 142.882 234.994 143.397 233.789C147.003 225.383 151.464 217.395 155.509 209.202C155.952 208.423 156.41 207.655 156.837 206.869C158.738 203.399 161.211 200.336 163.523 197.144C164.748 195.453 165.965 195.028 167.69 195.525C168.381 195.723 169.034 195.731 169.709 195.784C173.239 196.073 176.78 196.217 180.173 197.479C181.089 197.821 182.077 198.474 183.195 198.052C183.184 198.159 183.168 198.265 183.157 198.372C183.252 198.353 183.352 198.334 183.447 198.315C183.344 198.239 183.241 198.163 183.142 198.087C179.726 193.614 176.059 189.312 173.64 184.163C173.311 183.464 172.899 182.707 171.93 182.958C169.48 183.597 166.931 183.315 164.451 184.003C159.234 185.447 158.711 185.162 156.288 181.51C155.948 180.88 155.609 180.253 155.269 179.622C153.689 175.917 151.781 172.314 151.586 168.164C151.548 167.381 151.06 167.036 150.346 167.176C146.584 167.91 142.718 167.716 138.967 168.388C135.112 169.076 134.193 168.746 132.445 165.272C129.98 160.374 127.801 155.354 125.855 150.231C124.275 146.066 124.053 145.956 126.801 142.456C129.888 138.523 129.709 134.476 128.072 130.167C127.881 129.665 127.759 128.958 127.183 128.947C126.366 128.932 126.316 129.882 126.309 130.338C126.29 131.998 126.374 133.678 126.625 135.32C126.988 137.691 125.587 137.983 123.927 137.546C120.405 136.615 117.127 136.946 113.987 138.797C112.075 139.922 110.335 139.602 108.751 138.094C107.308 136.718 105.851 135.358 104.37 134.024C103.946 133.644 103.454 133.017 102.897 133.917C102.195 133.955 101.004 133.731 102.035 134.993C103.004 136.178 104.141 137.235 105.248 138.307C107.492 140.484 109.518 142.958 112.601 144.056C114.746 144.82 117.005 145.086 119.226 145.534C120.359 145.762 122.199 145.458 122.382 147.324C122.775 151.345 122.909 155.396 123.389 159.405C123.817 162.981 124.237 166.591 125.671 169.969L125.637 169.905C125.759 170.399 125.431 171.041 126.114 171.353L126.091 171.315C126.549 175.495 128.331 179.162 130.754 182.495C131.407 183.388 132.357 184.516 133.952 184.076C141.275 182.054 148.751 181.309 156.334 181.476C155.986 183.057 154.521 182.81 153.586 182.802C147.381 182.745 141.333 183.851 135.353 185.235C131.64 186.093 129.213 184.843 127.328 181.856C123.592 175.164 122.405 167.723 121.039 160.344C120.634 158.17 120.363 155.97 120.027 153.785C120.05 152.568 120.149 151.349 120.085 150.14C119.966 147.883 118.905 146.872 116.852 146.933C114.17 146.165 111.224 146.028 108.881 144.429C104.897 141.708 100.035 140.431 96.547 136.927C95.7341 136.11 94.9862 135.825 94.1085 136.889C93.7918 137.273 93.2346 137.478 92.7614 137.717C90.571 138.827 89.388 138.17 89.5368 135.798C89.7314 132.694 88.6477 129.775 88.3576 126.735C88.163 124.672 88.4034 122.589 87.9798 120.552C87.2777 113.659 87.7623 106.75 87.7203 99.849C87.7127 98.7964 87.0716 97.8311 87.7051 96.5885C88.7736 94.4908 90.7274 94.9392 92.2615 94.7644C99.1076 93.9816 105.984 93.4837 112.849 92.8415C115.7 92.5755 117.513 94.354 118.501 96.4365C120.214 100.043 122.901 102.984 124.733 106.473C125.24 107.442 125.855 108.228 127.278 108.232C126.431 109.653 125.519 110.223 123.966 109.714C124.267 113.518 125.549 117.045 126.599 120.636C127.068 122.236 127.431 123.923 127.457 125.576C127.476 126.8 128.491 126.412 128.919 126.933C130.835 129.266 133.124 136.748 130.625 140.267C129.476 141.882 128.877 143.847 127.469 145.295C126.95 145.827 127.091 146.294 127.308 146.944C129.503 153.492 132.319 159.766 135.452 165.911C135.925 166.838 136.524 167.271 137.6 167.169C141.569 166.789 145.549 166.507 149.514 166.082C150.396 165.987 151.483 165.842 151.205 164.281C150.957 162.871 152.434 162.753 153.266 162.635C157.36 162.05 161.485 161.651 165.592 161.142C166.175 161.069 167.461 161.487 167.202 160.644C166.881 159.603 167.58 157.892 166.401 157.592C163.943 156.958 163.233 155.134 162.626 153.169C161.97 151.041 160.844 149.069 161.646 146.568C162.245 144.698 163.256 143.391 164.966 143.281C167 143.155 166.374 141.605 166.832 140.701C167.335 139.705 166.484 139.386 165.653 138.953C164.046 138.116 164.222 136.125 165.882 135.08C164.027 132.804 164.042 132.629 166.855 131.383C167.614 131.044 167.874 130.676 167.854 129.882C167.816 128.365 168.053 127.134 169.392 125.891C170.678 124.698 169.908 122.498 170.159 120.754C170.797 116.315 171.682 111.93 172.651 107.552C173.128 105.393 176.75 103.942 180.238 104.383C184.313 104.896 188.4 105.336 192.487 105.747C194.166 105.914 195.826 106.188 197.521 106.305C199.616 106.45 201.203 108.863 201.219 111.42C201.241 116.421 201.222 121.422 201.226 126.423C201.226 127.381 200.963 128.476 202.535 128.548C202.882 128.563 203.611 128.806 203.489 129.353C203.108 131.071 204.913 132.492 204.546 133.762C203.985 135.684 206.031 136.737 205.477 138.478C205.279 139.101 206.08 138.979 206.489 138.987C208.706 139.04 209.831 140.492 210.305 142.331C211.358 146.42 209.435 153.104 205.096 154.883C206.21 155.673 207.652 156.471 205.027 157.927C209.793 157.702 213.919 157.668 218.009 157.273C221.776 156.912 225.493 156.87 229.229 157.448C230.091 157.581 230.48 157.98 230.477 158.786C230.473 160.309 231.335 160.572 232.698 160.739C236.693 161.229 240.696 161.138 244.699 161.153C246.329 161.157 247.531 162.004 248.729 162.981C251.633 165.352 254.014 168.24 256.701 170.832C260.437 174.438 262.745 178.976 264.539 183.752C265.249 185.649 266.344 185.763 268.061 185.493C272.293 184.824 276.544 184.247 280.803 183.806C284.566 183.414 288.271 183.547 291.114 186.625C291.462 187.465 291.744 188.339 292.187 189.126C292.427 189.555 292.755 190.152 292.473 190.369C290.641 191.771 290.687 194.469 288.458 195.696C286.951 196.529 286.096 198.478 283.99 198.425C283.455 198.413 282.921 198.402 282.391 198.391C279.437 194.933 276.209 192.451 271.148 193.853C266.47 195.153 266.027 196.046 269.004 199.839C270.572 201.834 270.236 203.399 268.084 204.71C266.291 205.805 264.398 205.717 262.543 205.185C260.421 204.577 258.777 201.887 259.238 199.994C259.685 198.159 260.2 196.335 260.784 194.537C261.143 193.428 261.036 192.538 260.368 191.539C259.292 189.939 258.055 188.506 256.739 187.097C254.102 184.273 250.515 182.643 247.821 179.911C246.725 178.797 245.451 178.007 243.886 177.817C236.91 176.973 229.931 177.665 222.955 177.866C221.761 177.9 221.883 178.599 222.421 179.219C225.477 182.726 228.294 186.508 231.732 189.601C235.556 193.04 235.808 192.763 232.938 196.958C232.724 197.273 232.518 197.604 232.247 197.866C231.9 198.204 231.915 198.459 232.262 198.767C234.048 200.352 234.277 202.647 234.869 204.733C236.517 210.536 236.773 216.282 233.686 221.781C232.694 223.548 231.759 225.345 230.797 227.127C226.271 231.342 225.905 232.828 228.328 237.73C229.16 235.853 231.362 235.568 232.346 234.412C234.216 232.212 236.174 229.917 237.387 227.192C238.777 225.227 240.33 223.35 241.482 221.252C242.024 220.264 244.779 219.295 242.085 217.616C241.81 217.445 242.318 217 242.635 216.776C244.554 215.412 246.481 214.116 248.702 213.204C250.557 212.44 251.702 212.622 252.32 214.655C254.266 213.071 256.22 211.744 258.33 210.688C261.631 209.031 264.203 209.909 265.611 213.196C267.306 217.156 269.538 220.907 270.412 225.201C270.519 225.733 270.797 226.512 271.61 226.322C272.427 226.132 272.278 225.372 272.179 224.79C271.973 223.605 271.767 222.404 271.408 221.256C270.122 217.148 270.336 212.691 268.443 208.719C268.275 208.362 268.386 207.849 268.859 207.838C269.485 207.823 270.404 207.37 270.683 208.206C271.11 209.487 272.026 210.483 272.274 211.938C272.534 213.466 272.144 215.142 273.041 216.563C272.98 219.793 274.606 222.738 274.602 225.98C274.602 228.708 275.029 231.452 274.865 234.165C274.667 237.479 271.16 238.501 268.267 235.986C266.21 234.199 263.825 233.071 261.555 231.691C260.334 230.95 259.639 231.361 258.552 232.094C252.95 235.864 250.599 242.096 246.79 247.204C243.57 251.521 240.295 255.78 236.937 259.991C234.27 263.335 231.263 265.471 227.473 266.945C226.97 267.143 226.477 267.23 225.974 267.36C223.268 268.063 221.867 265.893 220.539 264.483C216.407 260.105 213.071 255.096 210.022 249.898C206.996 244.741 203.825 239.668 200.715 234.56C200.188 233.477 199.7 232.387 199.288 231.247C198.879 230.126 198.631 228.784 197.28 228.169C190.827 225.231 184.401 222.248 177.765 219.713C175.945 219.018 174.361 218.17 172.93 220.204L172.941 220.2ZM243.455 247.956L243.44 247.975C244.073 247.705 244.466 247.276 244.405 246.542C244.539 246.383 244.676 246.223 244.81 246.064C246.115 244.95 246.92 243.495 247.611 241.967H247.615C248.324 240.789 249.801 239.987 249.427 238.281C249.328 237.255 250.202 236.837 250.755 236.244C251.656 235.279 251.908 234.161 251.186 233.109C248.87 229.715 247.435 225.904 245.798 222.187C244.962 220.291 244.276 220.762 243.371 222.164C240.593 226.481 237.998 230.928 234.617 234.834C233.774 235.811 233.976 237.031 234.38 238.121C234.754 239.121 235.3 240.063 235.834 240.998C236.254 241.731 237.006 242.564 235.918 243.137C234.907 243.673 234.025 243.278 233.629 242.016C233.144 240.485 232.282 239.143 231.064 237.787C230.217 238.896 229.801 240.021 229.358 241.161C228.988 242.111 228.164 242.526 227.107 242.366C226.084 242.21 226.393 241.386 226.248 240.755C225.676 238.311 225.123 235.856 224.165 233.493C221.89 234.31 219.658 234.264 217.353 233.713C213.705 232.839 210.018 232.106 206.351 231.311C204.832 230.384 203.127 230.19 201.394 229.947C202.382 232.022 203.237 234.047 204.287 235.967C207.214 241.332 210.495 246.482 213.85 251.593C216.853 256.168 219.704 260.819 223.478 264.84C224.527 265.957 225.512 266.315 226.893 265.547C228.198 264.821 229.622 264.289 230.877 263.491C233.747 261.671 235.441 258.718 237.647 256.259C237.876 256.035 238.101 255.807 238.33 255.583C238.639 255.245 238.948 254.906 238.834 254.386C239.65 254.029 239.784 253.185 240.177 252.524C241.467 251.623 242.436 250.521 242.539 248.86L242.493 248.906C243.501 249.275 243.386 248.522 243.455 247.952V247.956ZM259.582 186.093C259.353 186.61 259.651 186.853 260.07 187.032C262.497 189.962 264.879 192.873 262.516 197.004C262.215 197.528 262.455 198.36 262.448 199.052C262.394 200.165 261.978 201.435 262.383 202.347C262.833 203.369 263.875 204.22 265.352 204.114C266.321 204.045 267.061 203.707 267.382 202.882C267.886 201.583 266.97 200.77 266.13 199.934C263.734 197.555 264.089 195.252 267.054 193.694C272.629 190.76 278.681 191.801 283.39 196.51C283.707 196.825 283.986 197.285 284.531 196.969C284.963 196.722 285.127 196.335 285.081 195.807C284.894 193.705 281.631 190.703 279.483 190.699C277.262 190.699 275.041 190.699 272.82 190.699C275.77 188.864 278.998 189.263 282.139 189.377C283.913 189.438 284.757 191.083 285.718 192.371C286.085 192.861 286.539 193.298 286.863 193.815C287.577 194.948 288.023 194.165 288.287 193.564C288.668 192.694 288.138 191.919 287.668 191.227C285.673 188.271 282.906 187.23 279.25 188.145C277.968 188.465 276.773 188.419 275.247 188.221C279.517 185.295 285.489 186.185 289.508 190.076C289.698 190.213 289.794 190.692 290.111 190.391C290.328 190.186 290.168 189.852 289.916 189.65C289.863 188.837 289.355 188.294 288.878 187.674C286.317 184.338 282.761 185.003 279.357 185.349C274.884 185.797 270.431 186.428 265.974 187.021C264.234 187.252 263.306 186.53 262.703 184.919C259.387 176.08 253.499 169.202 246.042 163.551C245.432 163.087 244.844 162.54 244.016 162.559C239.883 162.65 235.762 162.456 231.263 161.921C232.854 166.097 232.946 170.102 232.839 174.131C232.537 175.438 232.873 175.882 234.396 175.989C239.311 176.327 244.39 175.795 248.973 178.269L248.954 178.254C249.248 178.82 249.649 179.23 250.351 179.2L250.343 179.192C252.549 181.746 255.506 183.315 258.227 185.197C258.555 185.713 258.819 186.325 259.624 186.139L259.59 186.093H259.582ZM95.1121 133.91L95.074 133.952C96.0814 133.184 96.94 132.184 98.4779 132.485C99.3442 132.656 99.7754 131.873 100.123 131.181C99.0389 125.333 98.0238 119.473 96.8523 113.64C95.9288 109.045 94.1352 104.793 91.2464 101.042C90.9411 100.666 90.9411 99.9896 90.0711 99.9972C89.6284 111.983 90.3344 123.877 92.3073 135.692C92.5553 135.692 92.7461 135.753 92.853 135.681C93.4636 135.27 94.0512 134.829 94.6466 134.396L94.6198 134.415L95.1083 133.91H95.1121ZM174.357 135.825C173.575 135.825 172.792 135.829 172.01 135.833C170.858 135.81 169.701 135.798 168.549 135.764C167.816 135.741 166.996 135.84 167.011 136.691C167.026 137.657 167.786 138.162 168.77 138.052C169.736 137.945 170.694 137.725 171.651 137.554C172.552 137.398 173.456 137.242 174.357 137.087H181.005C178.635 135.787 176.399 136.277 174.357 135.825ZM129.312 238.691C127.831 237.369 125.839 237.49 124.103 236.882C123.462 236.658 122.92 237.072 122.619 237.699C121.657 238.923 122.073 240.036 123.073 240.907C124.389 242.054 125.82 243.077 127.232 244.106C128.106 244.745 128.686 244.585 129.045 243.445C129.545 241.861 129.358 240.28 129.308 238.687L129.312 238.691ZM165.023 198.539L165.061 198.497C164.13 198.159 163.993 198.987 163.691 199.474C162.153 201.959 160.6 204.437 159.15 206.975C155.563 213.264 152.212 219.675 149.095 226.208C148.774 226.877 148.209 227.713 149.717 227.587C153.949 228.526 157.188 231.471 161.058 233.154C162.081 233.599 162.436 233.705 162.821 232.478C164.015 228.678 165.519 224.973 166.607 221.146C167.19 219.098 168.11 218.303 170.182 218.786C171.632 219.124 172.293 218.398 171.987 217.034C171.487 214.807 170.873 212.603 170.209 210.418C170.014 209.776 169.339 209.145 170.396 208.784C171.209 208.507 171.827 208.761 172.136 209.742C172.712 211.562 173.434 213.34 174.124 215.222C174.788 213.937 175.193 212.744 175.403 211.429C175.532 210.616 175.571 209.012 176.994 209.392C178.093 209.685 177.574 210.939 177.368 211.775C177.04 213.112 176.597 214.42 176.219 215.742C176.036 216.392 175.7 217.049 176.693 217.441C177.975 217.946 179.188 218.615 180.47 219.117C184.336 220.637 188.366 221.792 192.014 223.795C200.616 228.511 210.072 230.532 219.509 232.626C220.31 232.805 221.368 233.078 221.963 232.429C223.642 230.597 226.103 229.784 227.668 227.808C234.239 219.512 235.273 210.498 231.431 200.754C230.923 199.47 230.465 199.709 229.633 200.298C228.195 201.313 226.763 202.331 225.241 203.24C222.012 205.17 218.49 206.413 214.689 207.849C217.784 209.092 220.929 208.7 223.577 210.255C217.216 210.247 211.053 208.932 204.878 207.519C209.358 210.023 214.334 211.319 219.223 213.485C217.521 214.123 217.513 214.135 216.968 213.96C208.847 211.315 201.161 207.663 193.548 203.855C192.369 203.266 191.129 202.613 189.938 202.943C188.347 203.38 187.282 203.091 186.416 201.777C186.355 201.56 186.351 201.203 186.225 201.153C179.963 198.717 173.544 196.95 166.775 196.688C165.454 196.639 164.95 197.304 165.011 198.531L165.023 198.539ZM188.145 133.07C186.332 133.066 184.516 133.062 182.703 133.055C179.139 133.591 175.578 133.613 172.014 133.039C170.835 132.967 169.747 132.226 168.511 132.557C168.103 132.667 167.461 132.58 167.519 133.199C167.564 133.667 168.133 133.777 168.553 133.925C171.346 134.97 174.338 134.582 177.17 134.693C184.825 134.989 192.499 134.955 200.165 135.274C200.951 135.308 201.875 135.654 202.535 134.837C202.623 134.495 202.856 133.803 202.646 133.853C201.386 134.172 200.703 132.891 199.494 132.948C196.372 133.1 193.239 133.036 190.11 133.059L188.141 133.07H188.145ZM178.501 161.605C181.905 160.845 185.073 159.527 187.988 157.611C188.427 157.322 189.129 157.148 188.969 156.509C188.805 155.863 188.087 155.719 187.488 155.647C184.752 155.335 182.027 155.274 179.356 156.129C177.41 156.76 176.99 158.288 177.376 159.994C177.482 160.469 176.849 162.012 178.498 161.601L178.501 161.605ZM198.91 129.376C193.689 129.471 188.515 128.795 183.344 128.282C180.436 127.997 177.544 128.13 174.662 127.883C171.125 127.579 170.953 127.613 169.816 130.995C170.709 131.174 171.598 131.352 172.483 131.531C181.52 131.557 190.556 131.592 199.593 131.584C200.28 131.584 201.417 132.177 201.585 131.151C201.757 130.117 200.814 129.654 199.753 129.665C199.471 129.665 199.188 129.471 198.906 129.369L198.91 129.376ZM149.289 229.472C147.019 228.454 147.602 231.125 146.488 231.688C146.011 231.931 145.591 232.957 146.503 233.538C146.725 233.679 147.095 233.58 147.396 233.591C147.9 233.766 148.537 233.804 148.892 234.139C151.617 236.696 155.326 237.764 158.108 240.23C159.192 241.192 159.997 241.458 160.585 239.542C161.733 235.803 161.848 235.86 158.509 234.017C156.689 233.014 154.884 231.976 153.124 230.878C151.93 230.133 150.735 229.483 149.289 229.468V229.472ZM170.491 139.542C169.472 138.896 169.228 139.887 169.308 140.347C169.45 141.172 168.263 141.898 169.087 142.585C169.549 142.969 169.923 142.103 170.427 141.996C172.739 141.468 174.872 141.753 176.616 143.49C177.265 144.136 177.925 144.208 178.665 143.783C180.551 142.707 182.604 142.585 184.695 142.688C186.088 142.756 187.481 142.711 188.79 142.205C190.553 141.521 189.351 139.785 189.911 138.595C190.232 137.911 188.854 138.052 188.301 138.113C183.928 138.569 179.539 138.603 175.151 138.527C173.498 138.5 171.964 138.861 170.484 139.545L170.491 139.542ZM253.636 232.744C253.701 232.949 253.755 233.329 253.835 233.333C254.495 233.386 257.655 230.795 257.632 230.152C257.624 229.905 257.128 229.677 256.853 229.442C255.335 224.684 253.026 220.291 250.572 215.963C250.198 215.301 249.786 214.45 248.836 214.841C247.714 215.301 246.519 215.704 245.634 216.593C245.355 216.875 245.714 217.144 245.867 217.388C248.935 222.267 250.812 227.743 253.64 232.74L253.636 232.744ZM259.174 228.142C261.211 230.042 264.047 230.506 266.306 232.033C266.634 232.258 267.13 231.532 267.058 230.916C269.042 229.415 269.313 227.675 268.382 225.334C267.34 222.715 266.233 220.128 265.134 217.536C262.051 210.278 262.558 209.457 254.88 214.701C254.69 214.83 254.522 214.986 254.346 215.134C253.701 215.689 253.476 216.24 253.911 217.125C255.712 220.774 257.426 224.463 259.174 228.138V228.142ZM148.438 236.404C147.946 235.94 147.438 235.514 146.698 235.549C146.294 238.942 145.481 240.192 142.966 239.831C139.814 239.379 136.616 239.455 133.498 238.801C132.311 238.554 132.063 238.649 131.64 239.527C131.388 241.674 132.395 244.319 129.323 245.364C129.415 245.478 129.487 245.615 129.598 245.706C134.399 249.601 140.184 251.79 145.538 254.72C146.721 255.366 148.152 255.089 148.625 253.136C149.446 249.738 150.632 246.428 151.476 243.035C152.548 238.733 152.468 238.714 148.442 236.407L148.438 236.404ZM173.865 126.005C176.628 127.016 179.52 126.241 182.329 126.625C187.179 127.286 192.041 127.746 196.933 127.94C198.414 127.997 198.963 127.556 198.933 126.013C198.841 121.567 198.944 117.117 198.872 112.671C198.849 111.177 198.891 109.574 197.509 108.479C197.307 108.057 197.051 107.681 196.536 107.624C193.663 107.309 190.766 107.138 187.927 106.647C185.183 106.172 182.398 106.53 179.696 106.051C176.555 105.492 175.941 105.716 175.116 108.726C174.899 109.52 174.647 110.315 174.51 111.124C173.815 115.156 173.071 119.184 172.544 123.235C172.419 124.193 171.796 125.872 173.861 126.009L173.865 126.005ZM102.019 126.047C101.55 127.628 102.664 129.015 102.576 130.577C102.534 131.307 103.328 131.12 103.843 131.098C105.011 131.576 105.912 132.409 106.766 133.298C107.423 133.982 108.117 134.567 109.174 134.385C112.876 133.743 116.662 134.031 120.367 133.328C122.42 132.937 124.366 132.675 123.916 129.813C123.855 129.429 124.168 128.913 124.443 128.563C125.713 126.971 125.252 125.283 124.87 123.551C124.633 122.483 124.217 122.391 123.286 122.813C121.47 123.638 119.65 124.501 117.749 125.078C115.75 125.686 113.845 126.834 111.632 126.606C115.292 124.808 119.112 123.456 122.653 121.483C123.302 121.122 124.114 121.122 123.786 119.948C123.031 117.235 122.443 114.472 121.714 111.751C121.531 111.067 121.481 110.22 120.501 109.961C119.008 109.57 115.845 110.881 115.46 112.412C114.811 114.977 113.12 115.262 110.945 115C109.506 114.829 108.743 114.297 109.484 112.77C110.022 111.656 109.663 111.303 108.468 111.284C105.923 111.246 103.45 111.759 100.947 112.047C99.0083 112.272 98.8519 113.556 99.3861 114.848C100.874 118.455 100.813 122.391 102.019 126.043V126.047ZM169.759 149.707C169.656 150.535 169.499 151.356 169.453 152.188C169.24 155.833 168.412 159.549 170.625 162.931C170.839 163.232 171.117 163.509 171.258 163.84C173.105 168.179 175.254 169.407 179.864 168.016C183.416 166.944 186.885 165.485 189.965 163.334C190.972 162.631 191.907 162.331 193.159 162.745C192.117 164.319 191.129 165.759 189.557 166.697C189.129 166.952 188.507 167.256 188.896 167.932C189.255 168.552 189.911 168.753 190.495 168.362C193.086 166.629 196.189 165.645 198.215 163.057C198.94 162.13 199.314 161.624 197.879 161.096C196.937 160.75 196.151 160.066 196.147 158.881C196.136 155.882 198.879 153.477 201.814 153.918C204.306 154.29 204.821 153.891 204.993 151.444C205.023 150.984 205.374 150.82 205.683 150.608C208.336 148.818 208.87 147.073 207.736 143.657C205.359 146.313 203.833 149.867 199.49 151.193C200.348 149.604 200.795 148.537 201.837 147.727C203.489 146.446 204.859 144.85 205.714 142.924C206.034 142.205 207.324 141.343 206.16 140.613C205.229 140.028 203.733 139.971 203.066 141.176C201.749 143.558 199.299 145.253 198.86 148.175C198.746 148.943 198.2 149.623 197.242 149.452C196.372 149.3 195.922 148.715 195.979 147.807C196.021 147.115 196.086 146.427 196.124 145.736C196.162 145.04 195.983 144.505 195.128 144.55C192.651 144.679 190.179 143.741 187.668 144.801C186.004 145.504 184.149 145.747 182.382 146.207C180.871 146.602 178.791 146.165 177.91 146.933C176.834 147.871 176.799 149.981 176.292 151.577C175.998 152.496 175.17 153.45 175.983 154.362C176.822 155.305 177.956 155.21 179.184 154.921C182.642 154.104 186.141 153.8 189.667 154.651C190.629 154.883 191.571 155.255 191.739 156.217C191.9 157.129 190.938 157.562 190.247 158.025C186.519 160.526 182.314 161.913 178.07 163.205C176.41 163.711 175.662 162.939 175.265 161.427C174.876 159.956 175.33 158.539 175.376 157.094C175.441 156.996 175.506 156.901 175.571 156.802L175.101 156.821C172.712 156.403 171.869 154.871 172.987 152.747C173.8 151.204 174.914 149.806 175.071 147.993C174.273 147.769 173.445 147.605 172.67 147.305C169.293 146.006 169.297 145.99 169.576 149.589C169.576 149.635 169.698 149.673 169.763 149.711L169.759 149.707ZM169.404 176.213C169.606 176.384 169.812 176.555 170.014 176.73C170.255 176.342 170.156 176.069 169.736 175.905C169.682 174.499 169.129 173.253 168.339 172.135C167.9 171.512 167.648 170.84 167.935 170.216C168.183 169.673 168.908 169.939 169.427 169.939C170.293 169.943 170.4 170.577 170.671 171.277C172.296 175.487 173.827 179.759 175.784 183.817C178.372 189.179 182.199 193.747 186.027 198.277C186.965 199.39 188.076 200.139 189.53 200.591C194.254 202.065 198.879 203.874 203.638 205.223C206.256 205.964 208.771 207.363 211.663 206.99C216.891 206.314 221.463 203.977 225.829 201.264C228.435 199.645 230.736 197.581 232.201 194.765C232.843 193.53 232.972 192.588 231.53 191.725C229.668 190.616 228.282 188.959 226.916 187.275C224.89 184.782 222.757 182.369 220.536 180.051C219.12 178.577 217.433 177.874 215.38 179.181C213.793 180.192 212.033 180.933 210.419 181.906C209.381 182.529 208.431 182.586 207.057 182.099C209.412 180.773 211.476 179.614 213.609 178.413C211.949 177.779 210.526 178.862 209.015 178.683C208.545 178.626 207.927 178.611 207.901 178.094C207.866 177.475 208.446 177.334 209.019 177.307C211.846 177.167 214.678 176.81 217.498 176.897C221.596 177.019 225.642 176.209 229.729 176.399C230.606 176.441 230.839 176.19 230.885 175.244C231.106 170.543 230.015 166.025 229.271 161.442C228.87 158.983 227.618 158.443 225.416 158.352C220.173 158.139 214.979 158.919 209.748 158.949C207.355 158.964 204.573 159.12 202.707 160.914C199.791 163.714 196.964 166.469 193.331 168.472C190.24 170.178 189.644 170.593 186.599 168.601C185.512 167.891 184.432 167.416 183.252 168.168C181.715 169.152 180.062 169.392 178.265 169.548C173.311 169.981 170.682 169.088 168.633 164.091C168.152 162.92 167.542 162.494 166.252 162.513C162.504 162.563 158.871 163.391 155.185 163.821C153.552 164.011 153.308 164.535 153.464 165.911C154.151 171.858 156.2 177.288 159.486 182.297C159.978 183.046 160.432 183.505 161.291 183.289C164.901 182.384 168.545 181.75 172.46 181.925C172.201 181.028 172.064 180.154 171.346 179.838C169.347 178.957 167.946 177.285 166.149 176.148C164.618 175.179 163.6 173.724 163.046 172.014C162.89 171.535 162.382 170.794 163.29 170.452C164.015 170.178 164.431 170.672 164.756 171.239C165.916 173.256 167.656 174.739 169.396 176.221L169.404 176.213ZM118.547 108.912C119.363 108.361 120.39 108.498 121.382 108.536C122.733 108.589 123.076 108.149 122.359 106.959C120.153 103.307 117.516 99.9364 115.433 96.1933C114.91 95.2508 114.067 94.0462 112.38 94.2286C106.003 94.9088 99.6189 95.494 93.2308 96.0451C92.0592 96.1477 91.6509 96.3985 92.2729 97.5347C94.4748 101.54 96.6386 105.568 98.8481 109.57C99.4281 110.619 100.249 110.934 101.546 110.66C103.626 110.22 105.748 109.737 107.9 109.927C109.518 110.071 110.548 109.593 111.495 108.156C113.067 105.773 116.177 106.066 117.471 108.544C117.715 109.007 118.066 108.905 118.543 108.909L118.547 108.912ZM197.257 143.117C199.074 143.65 199.978 142.43 200.665 140.978C201.104 140.047 200.112 137.501 199.459 137.702C197.422 138.333 195.349 137.938 193.3 138.097C192.041 138.196 191.648 139.131 191.537 140.146C191.465 140.83 191.255 142.186 192.125 142.038C194.044 141.711 195.319 143.57 197.257 143.117ZM166.866 155.837C166.866 154.784 166.74 153.712 166.893 152.686C167.236 150.364 165.973 148.312 165.904 146.07C165.889 145.565 166.805 144.847 165.767 144.588C164.889 144.368 164.71 145.185 164.508 145.865C163.393 149.585 164.92 152.743 166.87 155.837H166.866ZM109.632 136C110.67 136.969 111.727 138.208 113.036 137.482C116.219 135.719 119.558 135.483 123.046 135.745C123.55 135.783 124.248 135.852 124.111 134.989C124 134.297 123.714 134.012 122.836 134.221C121.283 134.594 119.615 134.522 118.081 134.947C115.356 135.707 112.433 134.715 109.636 136H109.632ZM204.058 156.821C203.127 156.502 202.535 156.346 201.982 156.099C199.833 155.13 199.192 156.604 198.593 158.147C198.418 158.603 198.456 159.048 198.83 159.409C199.261 159.827 199.639 159.591 200.051 159.325C201.261 158.546 202.489 157.797 204.058 156.821ZM174.781 145.021C174.395 143.988 173.376 143.494 172.254 143.193C171.724 143.053 170.839 143.254 170.949 143.756C171.255 145.124 172.716 145.276 173.762 145.827C174.208 146.063 174.674 145.861 174.781 145.021ZM157.559 242.902C157.624 242.727 157.692 242.552 157.757 242.377C157.021 241.773 156.303 241.142 155.54 240.576C155.048 240.208 154.605 239.919 154.189 240.831C153.804 241.682 154.143 241.895 154.819 242.089C155.735 242.351 156.643 242.632 157.555 242.902H157.559ZM187.656 136.581C184.115 135.962 183.012 136.091 181.821 137.318C183.928 136.809 185.84 137.596 187.656 136.581ZM270.225 234.792C270.557 233.424 270.16 232.303 269.561 231.049C268.92 232.524 268.252 233.835 270.225 234.792ZM184.439 144.174C183.229 144.448 181.795 143.486 180.596 144.786C182.069 145.306 183.252 144.74 184.439 144.174Z" fill="#2C2665"/>
<path d="M208.755 123.931C211.533 122.585 214.083 123.011 216.285 123.478C221.482 124.584 226.691 125.884 231.37 128.612C231.499 128.688 231.633 128.799 231.774 128.818C232.911 128.97 234.228 128.673 234.781 130.163C235.361 131.725 234.14 132.796 233.716 134.069C233.461 134.837 232.831 135.456 232.74 136.342C232.663 137.071 232.533 137.972 231.614 138.025C230.885 138.067 230.267 138.143 229.446 137.277C227.943 135.688 225.714 134.791 223.821 133.556C219.719 130.881 215.327 128.609 211.755 125.177C211.064 124.512 210.183 124.322 208.755 123.931ZM214.785 124.808C215.353 126.317 216.754 126.91 217.922 127.655C220.997 129.608 224.256 131.291 227.248 133.363C231.06 136.004 230.98 136.121 232.278 131.759C232.301 131.687 232.278 131.595 232.316 131.535C232.732 130.851 232.53 130.501 231.774 130.235C227.515 128.73 223.302 127.088 219.005 125.709C217.693 125.287 216.399 124.383 214.781 124.812L214.785 124.808Z" fill="#2B2564"/>
<path d="M164.74 101.156C164.561 101.114 163.981 101.156 163.714 100.883C160.592 97.7056 156.528 95.9918 152.762 93.8295C151.102 92.8757 151.224 92.2372 152.72 91.2644C154.38 90.1852 155.887 88.8779 157.524 87.7645C158.532 87.0804 159.077 87.2666 159.963 88.4751C162.55 92.0092 163.764 96.3148 166.599 99.6703C166.87 99.9895 167.003 100.259 166.698 100.662C166.24 101.27 165.607 101.111 164.737 101.156H164.74ZM160.921 95.8512C160.848 94.3197 160.161 93.3241 159.505 92.3246C158.273 90.4499 156.82 90.1928 155.143 91.5532C155.082 91.6026 155.017 91.6444 154.956 91.69C154.235 92.2296 154.319 92.5488 155.151 92.9365C157.032 93.8181 158.864 94.8023 160.921 95.8512Z" fill="#2C2665"/>
<path d="M219.52 119.61C215.727 119.94 211.774 118.409 207.664 118.204C207.248 118.181 206.843 117.93 206.824 117.55C206.79 116.965 207.32 116.931 207.79 116.813C211.537 115.882 215.288 114.962 219.017 113.948C220.612 113.514 222.081 112.667 223.814 112.663C224.844 112.663 225.462 112.895 225.351 114.065C225.31 114.521 225.332 114.989 225.39 115.445C225.867 119.351 225.657 119.598 221.753 119.61C221.135 119.61 220.516 119.61 219.524 119.61H219.52ZM212.407 117.147C214.953 117.945 217.235 118.268 219.597 118.234C223.306 118.181 223.31 118.219 222.986 114.594C222.974 114.461 222.863 114.335 222.783 114.172C219.417 115.137 216.048 116.102 212.407 117.147Z" fill="#2C2665"/>
<path d="M165.595 109.9C164.45 111.542 162.974 111.386 161.729 111.842C158.719 112.956 155.582 113.503 152.491 114.271C149.835 114.928 149.465 114.662 148.923 112.131C148.667 110.938 149.274 109.631 148.133 108.502C147.713 108.088 148.728 107.708 149.3 107.499C151.254 106.799 153.017 107.898 154.86 108.11C158.39 108.521 161.886 109.258 165.591 109.893L165.595 109.9ZM151.811 113.142C154.7 112.139 157.768 112.028 160.592 110.607C158.684 110.25 156.975 109.904 155.257 109.619C154.002 109.41 152.731 109.289 151.468 109.125C151.529 110.223 151.586 111.322 151.651 112.416C151.659 112.564 151.716 112.709 151.815 113.142H151.811Z" fill="#2C2665"/>
<path d="M273.052 216.555C272.156 215.138 272.545 213.462 272.285 211.931C272.037 210.475 271.121 209.479 270.694 208.199C270.416 207.367 269.496 207.815 268.87 207.83C268.397 207.842 268.286 208.358 268.454 208.712C270.347 212.679 270.133 217.137 271.419 221.248C271.778 222.396 271.984 223.597 272.19 224.783C272.293 225.364 272.442 226.124 271.621 226.314C270.809 226.504 270.53 225.725 270.423 225.193C269.549 220.899 267.317 217.148 265.623 213.188C264.214 209.901 261.642 209.023 258.341 210.68C256.231 211.741 254.277 213.063 252.331 214.648C251.717 212.615 250.568 212.436 248.713 213.196C246.492 214.108 244.565 215.404 242.646 216.768C242.329 216.992 241.822 217.437 242.096 217.608C244.79 219.288 242.035 220.257 241.493 221.245C240.341 223.342 238.788 225.216 237.399 227.184C236.739 226.447 235.857 226.759 235.056 226.698C233.617 226.588 232.27 227.412 230.808 227.12C231.77 225.337 232.705 223.54 233.697 221.773C236.784 216.27 236.529 210.528 234.88 204.725C234.289 202.639 234.06 200.344 232.274 198.759C231.926 198.451 231.907 198.193 232.258 197.859C232.529 197.596 232.735 197.266 232.949 196.95C235.819 192.751 235.567 193.029 231.743 189.593C228.305 186.5 225.489 182.719 222.432 179.211C221.894 178.592 221.772 177.893 222.966 177.858C229.942 177.657 236.918 176.965 243.898 177.809C245.462 177.999 246.737 178.789 247.832 179.903C250.526 182.635 254.113 184.265 256.75 187.089C258.063 188.495 259.299 189.931 260.379 191.531C261.051 192.527 261.158 193.42 260.795 194.53C260.211 196.327 259.696 198.151 259.25 199.987C258.788 201.875 260.433 204.57 262.554 205.178C264.405 205.71 266.298 205.797 268.095 204.703C270.248 203.392 270.583 201.83 269.015 199.831C266.038 196.038 266.481 195.145 271.16 193.846C276.22 192.44 279.452 194.925 282.402 198.383C279.128 204.361 275.907 210.365 273.049 216.551L273.052 216.555Z" fill="#E3E5EF"/>
<path d="M156.284 181.514C158.707 185.166 159.23 185.451 164.447 184.007C166.931 183.319 169.476 183.6 171.926 182.962C172.896 182.711 173.308 183.464 173.636 184.167C176.055 189.316 179.723 193.618 183.138 198.09L183.191 198.052C182.073 198.474 181.085 197.821 180.169 197.479C176.777 196.213 173.235 196.069 169.705 195.784C169.03 195.727 168.377 195.723 167.687 195.525C165.962 195.027 164.744 195.453 163.519 197.144C161.207 200.332 158.734 203.399 156.834 206.869C156.402 207.655 155.948 208.423 155.506 209.202C152.831 208.845 150.495 207.359 147.736 207.131C143.962 206.816 140.238 206.884 136.463 207.131C131.934 207.431 127.427 207.72 122.97 208.643C121.615 208.925 121.508 208.184 121.825 206.983C123.042 202.392 124.572 197.874 125.351 193.177C125.862 190.091 126.194 186.975 126.584 183.866C126.675 183.125 126.435 182.289 127.32 181.845C129.205 184.832 131.632 186.082 135.345 185.223C141.325 183.84 147.374 182.734 153.579 182.791C154.514 182.799 155.979 183.046 156.326 181.465L156.277 181.514H156.284ZM151.094 200.146C151.319 200.811 150.8 201.564 151.785 201.773C152.876 202.005 153.102 201.237 153.269 200.522C153.67 198.797 154.54 197.311 155.487 195.852C155.719 195.491 156.624 195.282 155.891 194.632C155.364 194.165 154.815 194.556 154.449 194.868C152.762 196.312 151.518 198.049 151.094 200.15V200.146ZM151.865 194.066C150.758 193.678 149.957 194.104 149.32 194.989C148.473 196.167 147.885 197.482 147.496 198.862C147.374 199.295 146.58 200.063 147.679 200.31C148.404 200.473 149.534 200.534 149.64 199.652C149.888 197.558 151.403 196.042 151.865 194.066Z" fill="#E3E5EF"/>
<path d="M265.302 299.646C266.627 300.995 268.641 301.128 270.427 302.42C267.42 303.678 265.852 300.854 263.612 300.672C262.097 298.741 259.632 298.851 257.628 298.061C244.604 292.942 231.503 288.013 218.422 283.035C216.994 282.492 215.571 281.922 213.98 282.089C213.323 282.157 212.717 282.233 212.476 281.249C212.377 280.842 211.541 280.508 210.98 280.329C201.368 277.27 191.774 274.15 182.119 271.224C169.476 267.394 156.742 263.879 143.859 260.933C142.493 260.622 141.077 260.538 139.684 260.344C134.868 258.84 129.854 258.232 124.931 257.213C118.291 255.834 111.609 254.648 104.92 253.542C100.218 252.763 95.471 252.284 90.7505 251.623C85.5835 250.901 80.4471 249.905 75.261 249.438C70.861 249.039 66.4992 248.427 62.1184 247.922C57.5352 247.394 52.9712 246.664 48.3843 246.162C44.446 245.729 40.4888 245.478 36.5391 245.17C30.3876 244.692 24.2322 244.239 18.0845 243.742C17.6685 243.707 17.2755 243.392 16.8862 243.213C17.1228 242.206 17.9586 242.469 18.5882 242.32C26.6554 242.963 34.7303 243.517 42.7899 244.27C49.6779 244.912 56.5507 245.718 63.4158 246.569C70.1093 247.397 76.7645 248.564 83.4732 249.237C89.6782 249.856 95.8374 250.772 101.989 251.691C110.941 253.029 119.837 254.739 128.728 256.506C136.299 258.011 143.844 259.607 151.384 261.241C161.051 263.339 170.469 266.303 179.978 268.956C191.514 272.178 202.913 275.819 214.19 279.835C215.002 280.124 215.613 280.086 216.262 279.752C228.34 273.512 241.479 270.548 254.514 267.158C264.741 264.498 275.007 262.009 285.303 259.664C291.309 258.296 297.4 257.095 303.593 256.715C304.165 256.681 304.635 256.499 305.078 256.187C309.405 256.145 313.721 255.359 318.09 256.172C313.763 257.969 309.004 256.48 304.6 257.7C299.636 258.532 294.656 259.269 289.714 260.223C280.792 261.944 271.996 264.202 263.173 266.356C251 269.332 238.769 272.11 227.019 276.556C223.829 277.761 220.746 279.235 217.128 280.797C219.784 281.64 221.646 282.902 223.894 283.081C227.39 285.034 231.282 286.011 234.972 287.474C241.246 289.963 247.645 292.129 253.82 294.876C257.605 296.56 261.471 298.061 265.302 299.646Z" fill="#2B2564"/>
<path d="M172.941 220.2C174.372 218.167 175.956 219.014 177.776 219.709C184.409 222.244 190.839 225.227 197.292 228.165C198.643 228.78 198.891 230.118 199.299 231.243C199.711 232.383 200.2 233.474 200.726 234.557C197.063 236.081 194.079 238.661 190.961 240.994C189.37 242.184 188.866 241.636 188.358 240.211C187.225 237.034 186.256 233.774 184.088 231.091C181.188 227.496 178.051 224.129 174.178 221.534C173.655 221.184 173.201 220.785 172.941 220.2Z" fill="#E3E6EF"/>
<path d="M288.382 211.254C288.382 214.974 282.772 219.569 279.479 218.854C278.742 218.695 278.235 218.379 278.719 217.627C280.452 214.94 281.879 212.018 284.283 209.837C285.077 209.115 286.188 208.29 287.39 208.913C288.363 209.419 288.565 210.471 288.382 211.258V211.254ZM285.321 211.581C284.272 213.052 283.035 214.404 282.07 216.643C284.142 215.259 285.512 214.112 285.745 212.067C286.077 211.828 286.119 211.524 285.943 211.174C285.737 211.311 285.527 211.444 285.321 211.581ZM281.883 216.407C281.799 216.544 281.715 216.692 281.627 216.836C281.742 216.882 281.913 217 281.955 216.962C282.081 216.855 282.154 216.688 282.245 216.548C282.142 216.51 282.039 216.468 281.883 216.407Z" fill="#2C2665"/>
<path d="M289.035 225.337C288.035 225.284 287.107 225.03 286.692 224.129C286.192 223.057 287.031 222.449 287.779 221.876C288.905 221.017 290.111 220.492 291.588 220.675C292.278 220.758 293.034 220.629 293.37 221.397C293.683 222.111 293.278 222.746 292.896 223.32C291.973 224.695 290.534 225.117 289.035 225.337ZM291.095 222.191C290.061 222.039 289.206 221.887 288.886 222.966C288.79 223.297 288.756 223.795 289.237 223.874C290.424 224.072 290.721 223.179 291.091 222.191H291.095Z" fill="#2C2665"/>
<path d="M116.853 146.921C118.906 146.864 119.97 147.871 120.085 150.129C120.146 151.341 120.05 152.557 120.028 153.773C118.131 151.873 117.986 149.171 116.853 146.918V146.921Z" fill="#E3E5EF"/>
<path d="M265.302 299.646C261.471 298.061 257.605 296.56 253.82 294.876C247.642 292.129 241.246 289.963 234.972 287.474C231.282 286.011 227.386 285.034 223.894 283.081C224.921 282.564 225.917 281.983 226.977 281.542C234.934 278.228 243.028 275.256 251.259 272.71C266.302 268.059 281.361 263.381 297.003 261.074C299.193 260.751 301.338 259.318 303.689 260.363C300.132 265.741 296.079 270.73 291.828 275.579C288.184 279.737 284.314 283.677 280.269 287.424C275.549 291.798 270.74 296.115 265.306 299.642L265.302 299.646Z" fill="#5A6A2C"/>
<path d="M303.68 260.367C301.33 259.322 299.185 260.755 296.995 261.078C281.356 263.385 266.298 268.059 251.251 272.714C243.02 275.26 234.93 278.236 226.969 281.545C225.912 281.986 224.912 282.568 223.886 283.085C221.634 282.91 219.776 281.644 217.116 280.804C220.73 279.246 223.817 277.772 227.008 276.563C238.757 272.117 250.988 269.343 263.161 266.364C271.984 264.205 280.784 261.952 289.702 260.23C294.644 259.277 299.624 258.539 304.589 257.707C304.44 258.65 304.959 259.816 303.677 260.371L303.68 260.367Z" fill="#849D3F"/>
<path d="M169.404 176.209C167.664 174.727 165.924 173.249 164.764 171.227C164.439 170.661 164.023 170.167 163.298 170.441C162.39 170.783 162.901 171.524 163.054 172.002C163.607 173.716 164.626 175.168 166.156 176.137C167.958 177.277 169.354 178.949 171.354 179.827C172.071 180.142 172.209 181.016 172.468 181.913C168.553 181.738 164.909 182.373 161.299 183.277C160.44 183.494 159.982 183.03 159.494 182.286C156.208 177.277 154.159 171.847 153.472 165.899C153.312 164.524 153.56 163.999 155.193 163.809C158.879 163.38 162.512 162.548 166.259 162.502C167.549 162.487 168.16 162.912 168.641 164.079C170.69 169.076 173.319 169.969 178.273 169.536C180.07 169.38 181.718 169.141 183.26 168.157C184.439 167.404 185.519 167.879 186.607 168.59C189.652 170.581 190.247 170.167 193.338 168.461C196.968 166.458 199.795 163.703 202.715 160.902C204.581 159.112 207.363 158.953 209.755 158.937C214.987 158.907 220.181 158.128 225.424 158.341C227.626 158.432 228.878 158.972 229.278 161.43C230.023 166.013 231.114 170.532 230.893 175.233C230.847 176.175 230.614 176.426 229.736 176.388C225.649 176.202 221.604 177.011 217.506 176.886C214.686 176.802 211.854 177.159 209.026 177.296C208.454 177.323 207.874 177.463 207.908 178.083C207.939 178.603 208.557 178.618 209.023 178.672C210.534 178.854 211.953 177.771 213.617 178.402C211.48 179.603 209.419 180.766 207.065 182.088C208.443 182.574 209.393 182.517 210.427 181.894C212.041 180.921 213.8 180.18 215.388 179.169C217.441 177.862 219.128 178.565 220.543 180.04C222.764 182.358 224.901 184.771 226.924 187.264C228.294 188.947 229.679 190.604 231.538 191.714C232.98 192.576 232.85 193.519 232.209 194.754C230.744 197.57 228.443 199.633 225.836 201.252C221.471 203.965 216.899 206.306 211.671 206.979C208.778 207.351 206.264 205.953 203.646 205.212C198.887 203.863 194.262 202.058 189.538 200.579C188.084 200.123 186.973 199.379 186.034 198.265C182.207 193.735 178.379 189.168 175.792 183.806C173.834 179.743 172.304 175.476 170.679 171.265C170.408 170.566 170.301 169.931 169.434 169.927C168.919 169.927 168.194 169.661 167.942 170.205C167.656 170.828 167.904 171.497 168.347 172.124C169.137 173.241 169.686 174.488 169.744 175.894C169.629 175.993 169.518 176.095 169.412 176.205L169.404 176.209Z" fill="#FEFEFE"/>
<path d="M186.431 201.78C187.298 203.099 188.362 203.388 189.954 202.947C191.144 202.62 192.384 203.27 193.564 203.859C201.177 207.667 208.862 211.319 216.983 213.964C217.529 214.142 217.532 214.127 219.238 213.489C214.35 211.322 209.374 210.027 204.894 207.522C211.072 208.936 217.235 210.247 223.592 210.258C220.944 208.704 217.8 209.096 214.705 207.853C218.509 206.416 222.028 205.17 225.256 203.243C226.779 202.335 228.21 201.317 229.649 200.302C230.48 199.717 230.938 199.474 231.446 200.758C235.289 210.498 234.255 219.512 227.683 227.811C226.119 229.787 223.657 230.601 221.978 232.432C221.383 233.082 220.322 232.805 219.524 232.63C210.087 230.536 200.631 228.514 192.029 223.798C188.377 221.796 184.348 220.644 180.486 219.12C179.204 218.615 177.99 217.95 176.708 217.445C175.716 217.053 176.048 216.392 176.235 215.746C176.612 214.42 177.055 213.112 177.383 211.778C177.589 210.942 178.108 209.688 177.009 209.396C175.586 209.016 175.552 210.623 175.418 211.433C175.204 212.748 174.8 213.941 174.14 215.225C173.449 213.344 172.728 211.569 172.151 209.745C171.842 208.765 171.224 208.51 170.411 208.788C169.35 209.149 170.026 209.78 170.224 210.422C170.888 212.607 171.503 214.811 172.003 217.038C172.308 218.398 171.644 219.128 170.198 218.79C168.129 218.307 167.206 219.101 166.622 221.15C165.534 224.976 164.031 228.682 162.836 232.482C162.451 233.709 162.096 233.603 161.073 233.158C157.204 231.475 153.96 228.53 149.732 227.591C152.907 220.796 156.395 214.161 160.009 207.587C161.68 204.547 163.794 201.754 165.073 198.497L165.034 198.539C169.11 197.372 173.041 198.55 177.017 199.215C180.253 199.759 183.149 201.465 186.439 201.78H186.431Z" fill="#5C5C8D"/>
<path d="M206.351 231.307C210.018 232.102 213.705 232.835 217.353 233.709C219.658 234.26 221.89 234.306 224.165 233.489C225.122 235.852 225.672 238.307 226.248 240.751C226.397 241.382 226.088 242.206 227.107 242.362C228.164 242.526 228.992 242.111 229.358 241.157C229.801 240.017 230.217 238.893 231.064 237.783C232.281 239.14 233.144 240.481 233.628 242.012C234.025 243.274 234.907 243.669 235.918 243.134C237.006 242.56 236.254 241.727 235.834 240.994C235.3 240.059 234.754 239.117 234.38 238.117C233.976 237.027 233.77 235.807 234.617 234.83C237.998 230.92 240.593 226.477 243.371 222.161C244.275 220.754 244.966 220.287 245.798 222.183C247.435 225.9 248.87 229.711 251.186 233.105C251.904 234.158 251.652 235.275 250.755 236.24C250.202 236.837 249.332 237.255 249.427 238.277C248.874 239.531 247.252 240.261 247.614 241.959H247.611C245.535 242.548 245.432 244.479 244.81 246.056C244.676 246.215 244.539 246.375 244.405 246.535C243.833 246.842 243.1 247.048 243.44 247.967L243.455 247.948C242.738 247.872 242.684 248.454 242.493 248.902L242.539 248.857C241.058 249.636 240.616 251.076 240.177 252.52C239.784 253.181 239.654 254.025 238.834 254.382C238.376 254.659 237.628 254.815 238.33 255.579C238.101 255.803 237.876 256.031 237.647 256.255C236.395 255.48 236.132 256.848 235.655 257.331C233.277 259.733 230.476 261.321 227.202 262.096C226.592 262.241 225.882 262.64 225.359 261.834C223.966 259.679 222.05 257.969 220.272 256.168C217.483 253.341 216.082 249.662 213.968 246.432C210.873 241.712 207.164 237.201 206.351 231.304V231.307Z" fill="#5C5C8D"/>
<path d="M102.901 133.914C103.458 133.017 103.95 133.64 104.374 134.02C105.851 135.358 107.312 136.718 108.755 138.09C110.338 139.599 112.082 139.918 113.99 138.793C117.131 136.942 120.409 136.612 123.931 137.543C125.591 137.983 126.992 137.687 126.629 135.316C126.377 133.674 126.294 131.994 126.313 130.334C126.316 129.882 126.37 128.928 127.186 128.943C127.763 128.954 127.885 129.665 128.076 130.163C129.713 134.468 129.896 138.519 126.805 142.452C124.057 145.952 124.275 146.063 125.858 150.228C127.805 155.354 129.984 160.37 132.449 165.269C134.197 168.742 135.116 169.073 138.971 168.385C142.722 167.716 146.587 167.906 150.35 167.172C151.06 167.036 151.552 167.381 151.59 168.16C151.785 172.31 153.689 175.909 155.273 179.618C148.656 179.588 142.256 180.952 135.906 182.609C133.739 183.175 132.247 182.65 131.19 180.598C129.568 177.459 127.805 174.393 126.099 171.299L126.122 171.337C126.255 170.76 126.122 170.27 125.645 169.89L125.679 169.954C125.679 169.111 125.767 168.255 125.664 167.423C124.775 160.226 123.531 153.059 123.836 145.766C123.882 144.676 123.267 144.657 122.416 144.489C114.807 143.003 107.427 141.05 102.905 133.906L102.901 133.914Z" fill="#C88F66"/>
<path d="M175.372 157.091C175.326 158.531 174.872 159.948 175.262 161.423C175.662 162.935 176.41 163.703 178.066 163.201C182.314 161.909 186.519 160.526 190.244 158.022C190.934 157.558 191.896 157.125 191.736 156.213C191.568 155.255 190.625 154.879 189.664 154.647C186.137 153.8 182.638 154.1 179.181 154.917C177.952 155.206 176.819 155.301 175.979 154.358C175.166 153.446 175.994 152.492 176.288 151.573C176.796 149.977 176.834 147.868 177.906 146.929C178.784 146.161 180.864 146.598 182.379 146.203C184.145 145.743 186.004 145.5 187.664 144.797C190.175 143.737 192.644 144.675 195.124 144.546C195.979 144.501 196.159 145.036 196.12 145.732C196.082 146.424 196.017 147.111 195.975 147.803C195.918 148.711 196.368 149.296 197.238 149.448C198.196 149.616 198.742 148.939 198.857 148.172C199.295 145.249 201.745 143.558 203.062 141.172C203.726 139.967 205.222 140.024 206.157 140.609C207.321 141.339 206.031 142.202 205.71 142.92C204.855 144.846 203.485 146.439 201.833 147.723C200.791 148.533 200.345 149.6 199.486 151.189C203.829 149.863 205.355 146.31 207.733 143.653C208.866 147.07 208.336 148.814 205.68 150.604C205.371 150.813 205.02 150.98 204.989 151.44C204.821 153.887 204.302 154.286 201.81 153.914C198.876 153.473 196.132 155.878 196.143 158.877C196.147 160.062 196.933 160.746 197.876 161.092C199.311 161.62 198.937 162.13 198.212 163.053C196.185 165.645 193.087 166.625 190.492 168.358C189.908 168.746 189.251 168.548 188.893 167.929C188.503 167.252 189.125 166.944 189.553 166.694C191.129 165.759 192.113 164.315 193.155 162.741C191.904 162.323 190.969 162.624 189.961 163.33C186.882 165.481 183.413 166.944 179.86 168.012C175.25 169.403 173.102 168.176 171.255 163.836C171.114 163.505 170.835 163.228 170.621 162.928C170.625 158.626 170.865 154.313 170.186 150.034C170.415 150.045 170.648 150.075 170.877 150.068C171.613 150.034 172.476 150.285 172.846 149.331C172.896 149.201 172.705 148.829 172.579 148.802C171.835 148.662 171.052 148.464 170.446 149.152C170.297 149.319 170.205 149.532 170.083 149.726C169.973 149.749 169.866 149.741 169.759 149.703C169.694 149.661 169.576 149.623 169.572 149.578C169.293 145.979 169.286 145.994 172.667 147.294C173.441 147.59 174.266 147.757 175.067 147.982C174.914 149.794 173.796 151.193 172.983 152.736C171.865 154.86 172.705 156.395 175.098 156.809C175.189 156.904 175.281 156.996 175.372 157.083V157.091ZM182.638 148.65C182.692 147.731 182.089 147.784 181.551 147.773C180.81 147.754 180.12 147.887 179.971 148.757C179.852 149.433 180.215 149.764 180.902 149.695C181.673 149.619 182.482 149.574 182.638 148.65Z" fill="#C88F66"/>
<path d="M232.827 174.127C232.934 170.102 232.842 166.093 231.251 161.917C235.75 162.453 239.872 162.646 244.004 162.555C244.832 162.536 245.42 163.083 246.031 163.547C253.487 169.198 259.376 176.072 262.692 184.915C263.295 186.527 264.222 187.249 265.962 187.017C270.419 186.424 274.873 185.793 279.345 185.345C282.749 185.003 286.306 184.334 288.866 187.67C289.343 188.29 289.851 188.833 289.904 189.646C289.767 189.787 289.633 189.931 289.496 190.072C285.478 186.177 279.509 185.291 275.235 188.218C276.766 188.415 277.96 188.461 279.238 188.142C282.894 187.226 285.657 188.267 287.657 191.224C288.126 191.915 288.656 192.694 288.275 193.561C288.012 194.161 287.565 194.944 286.851 193.811C286.527 193.295 286.073 192.861 285.707 192.367C284.745 191.079 283.902 189.434 282.127 189.373C278.99 189.263 275.758 188.86 272.808 190.695C275.029 190.695 277.25 190.695 279.471 190.695C281.62 190.695 284.886 193.701 285.069 195.803C285.115 196.331 284.951 196.715 284.52 196.966C283.974 197.281 283.696 196.821 283.379 196.506C278.67 191.797 272.617 190.756 267.042 193.69C264.077 195.248 263.722 197.551 266.119 199.93C266.958 200.762 267.874 201.579 267.37 202.879C267.05 203.703 266.309 204.038 265.34 204.11C263.863 204.216 262.818 203.365 262.371 202.343C261.971 201.431 262.383 200.161 262.436 199.048C263.631 197.463 264.18 195.567 264.657 193.724C265.321 191.151 262.772 187.667 260.062 187.032C260.562 186.375 260.04 186.249 259.574 186.093L259.608 186.139C259.54 185.242 259.135 184.835 258.212 185.193C256.456 182.054 253.598 180.355 250.328 179.188L250.335 179.196C250.335 178.197 249.725 178.098 248.939 178.25L248.958 178.265C247.637 176.034 245.439 174.97 243.081 174.617C239.7 174.108 236.265 173.819 232.823 174.127H232.827Z" fill="#C88F66"/>
<path d="M102.023 126.043C100.817 122.391 100.878 118.455 99.3899 114.848C98.8557 113.552 99.016 112.272 100.951 112.047C103.454 111.755 105.927 111.242 108.472 111.284C109.667 111.303 110.025 111.656 109.487 112.769C108.747 114.297 109.51 114.829 110.949 115C113.124 115.259 114.815 114.977 115.463 112.412C115.849 110.881 119.016 109.57 120.504 109.961C121.481 110.22 121.535 111.067 121.718 111.751C122.447 114.472 123.034 117.235 123.79 119.948C124.118 121.122 123.305 121.122 122.657 121.483C119.115 123.455 115.295 124.808 111.636 126.606C113.849 126.834 115.757 125.686 117.753 125.078C119.653 124.501 121.474 123.638 123.29 122.813C124.221 122.391 124.637 122.483 124.874 123.551C125.255 125.283 125.717 126.971 124.446 128.563C124.168 128.909 123.859 129.429 123.92 129.813C124.37 132.675 122.424 132.937 120.371 133.328C116.665 134.035 112.88 133.743 109.178 134.385C108.125 134.567 107.427 133.982 106.77 133.298C105.915 132.409 105.015 131.576 103.847 131.098C103.24 129.414 102.63 127.731 102.023 126.047V126.043ZM122.222 120.263C116.807 121.396 111.269 121.411 105.801 122.057C111.346 122.103 117.005 123.338 122.222 120.263Z" fill="#8E6F65"/>
<path d="M197.517 108.471C198.898 109.566 198.857 111.17 198.879 112.663C198.948 117.109 198.849 121.559 198.94 126.005C198.971 127.548 198.421 127.989 196.941 127.932C192.049 127.742 187.183 127.278 182.337 126.617C179.528 126.233 176.635 127.009 173.873 125.998C174.399 119.955 175.849 114.084 177.231 108.202C177.441 107.301 178.101 107.141 178.975 107.115C180.829 107.058 182.646 107.586 184.447 107.54C188.526 107.438 189.244 108.327 189.389 112.975C189.477 115.848 188.98 118.747 188.637 121.62C188.553 122.323 188.145 123.03 189.137 123.231C189.904 123.387 190.717 123.22 191.045 122.338C191.259 121.768 191.396 121.168 191.499 120.567C191.965 117.862 192.316 115.129 192.881 112.443C193.636 108.832 193.98 108.608 197.525 108.46L197.517 108.471Z" fill="#A04D40"/>
<path d="M118.547 108.909C118.07 108.905 117.719 109.007 117.475 108.544C116.177 106.066 113.067 105.773 111.499 108.156C110.552 109.593 109.522 110.071 107.904 109.927C105.752 109.737 103.63 110.22 101.55 110.66C100.253 110.934 99.4322 110.619 98.8521 109.57C96.6426 105.568 94.4789 101.54 92.277 97.5347C91.6511 96.3985 92.0633 96.1477 93.2348 96.0451C99.623 95.494 106.011 94.9088 112.384 94.2286C114.071 94.05 114.914 95.2546 115.437 96.1933C117.517 99.9364 120.154 103.307 122.363 106.959C123.08 108.145 122.737 108.589 121.386 108.536C120.394 108.498 119.367 108.361 118.551 108.912L118.547 108.909Z" fill="#8E6F65"/>
<path d="M148.438 236.4C152.464 238.706 152.544 238.729 151.472 243.027C150.625 246.421 149.438 249.731 148.621 253.128C148.152 255.081 146.721 255.359 145.534 254.713C140.18 251.787 134.395 249.594 129.594 245.699C129.484 245.608 129.411 245.471 129.323 245.357C132.391 244.312 131.384 241.671 131.636 239.524C135.448 239.573 139.146 240.755 142.996 240.588C146.477 240.439 147.32 239.915 148.438 236.396V236.4Z" fill="#C88F66"/>
<path d="M259.174 228.142C257.426 224.467 255.712 220.777 253.911 217.129C253.472 216.244 253.701 215.693 254.346 215.138C254.522 214.99 254.69 214.834 254.881 214.705C262.555 209.46 262.051 210.278 265.134 217.54C266.233 220.131 267.34 222.719 268.382 225.337C269.313 227.678 269.046 229.419 267.058 230.916C265.016 228.34 262.349 227.523 259.174 228.142Z" fill="#C88F66"/>
<path d="M91.2465 101.042C94.1314 104.793 95.9288 109.045 96.8523 113.64C98.0238 119.469 99.0389 125.333 100.123 131.181C95.9708 131.041 95.6693 131.208 95.074 133.952L95.1122 133.91C94.8221 133.959 94.4367 133.91 94.6237 134.415L94.6504 134.396C93.5056 134.202 93.4064 133.184 93.2804 132.393C92.0974 125.063 90.7237 117.755 91.3037 110.25C91.5403 107.202 91.2808 104.113 91.2503 101.042H91.2465Z" fill="#8E6F65"/>
<path d="M206.351 231.307C207.164 237.202 210.873 241.716 213.968 246.436C216.086 249.662 217.486 253.341 220.272 256.172C222.047 257.973 223.962 259.687 225.359 261.838C225.882 262.644 226.592 262.245 227.202 262.1C230.476 261.325 233.274 259.736 235.655 257.335C236.132 256.856 236.395 255.488 237.647 256.259C235.441 258.718 233.747 261.671 230.877 263.491C229.622 264.289 228.198 264.821 226.893 265.547C225.512 266.314 224.527 265.957 223.478 264.84C219.704 260.819 216.853 256.172 213.85 251.593C210.492 246.478 207.214 241.332 204.287 235.966C203.237 234.044 202.382 232.018 201.394 229.947C203.123 230.186 204.832 230.38 206.351 231.311V231.307Z" fill="#FAFAFA"/>
<path d="M197.517 108.472C193.972 108.62 193.629 108.84 192.873 112.454C192.312 115.141 191.957 117.869 191.492 120.579C191.389 121.179 191.251 121.783 191.037 122.35C190.709 123.231 189.896 123.402 189.129 123.243C188.141 123.037 188.546 122.334 188.63 121.631C188.973 118.759 189.469 115.859 189.381 112.986C189.236 108.339 188.519 107.449 184.439 107.552C182.638 107.597 180.818 107.065 178.967 107.126C178.097 107.153 177.437 107.312 177.223 108.213C175.842 114.096 174.392 119.967 173.865 126.009C171.801 125.872 172.423 124.193 172.549 123.235C173.075 119.18 173.819 115.156 174.514 111.124C174.655 110.315 174.903 109.52 175.121 108.726C175.945 105.716 176.559 105.496 179.7 106.051C182.402 106.53 185.187 106.172 187.931 106.647C190.77 107.138 193.671 107.309 196.54 107.624C197.055 107.681 197.311 108.054 197.513 108.479L197.517 108.472Z" fill="#FAFAFA"/>
<path d="M253.636 232.74C250.809 227.743 248.935 222.263 245.863 217.387C245.71 217.144 245.352 216.871 245.63 216.593C246.516 215.7 247.71 215.301 248.832 214.841C249.786 214.45 250.194 215.305 250.568 215.962C253.022 220.287 255.331 224.68 256.85 229.442C256.06 230.817 254.617 231.558 253.633 232.744L253.636 232.74Z" fill="#5C5C8D"/>
<path d="M170.491 139.542C171.972 138.858 173.502 138.496 175.158 138.523C179.547 138.595 183.932 138.565 188.309 138.109C188.862 138.052 190.24 137.911 189.919 138.592C189.362 139.781 190.56 141.518 188.797 142.202C187.488 142.707 186.095 142.753 184.703 142.684C182.608 142.585 180.554 142.703 178.673 143.779C177.929 144.204 177.273 144.132 176.624 143.486C174.88 141.749 172.747 141.464 170.438 141.989C170.831 141.179 170.541 140.355 170.495 139.538L170.491 139.542Z" fill="#C88F66"/>
<path d="M149.293 229.472C150.743 229.487 151.938 230.137 153.128 230.882C154.891 231.98 156.696 233.018 158.513 234.021C161.852 235.864 161.734 235.807 160.589 239.546C160.001 241.462 159.2 241.196 158.112 240.234C155.33 237.768 151.621 236.7 148.896 234.142C148.541 233.808 147.904 233.77 147.4 233.595C148.064 232.239 148.228 230.65 149.293 229.476V229.472Z" fill="#5C5C8D"/>
<path d="M102.901 133.913C107.427 141.058 114.803 143.011 122.412 144.497C123.263 144.664 123.878 144.679 123.832 145.774C123.527 153.066 124.771 160.233 125.66 167.431C125.763 168.263 125.675 169.118 125.675 169.962C124.24 166.587 123.821 162.977 123.393 159.397C122.912 155.388 122.779 151.337 122.386 147.317C122.203 145.451 120.363 145.755 119.23 145.527C117.009 145.078 114.75 144.812 112.605 144.048C109.522 142.95 107.495 140.476 105.251 138.299C104.149 137.227 103.008 136.175 102.038 134.985C101.008 133.723 102.199 133.948 102.901 133.91V133.913Z" fill="#FAFAFA"/>
<path d="M230.812 227.131C232.27 227.424 233.621 226.599 235.06 226.709C235.861 226.77 236.742 226.458 237.403 227.196C236.189 229.92 234.232 232.216 232.362 234.416C231.381 235.571 229.175 235.856 228.343 237.734C225.92 232.831 226.283 231.345 230.812 227.131Z" fill="#F5F7FA"/>
<path d="M198.91 129.376C199.192 129.479 199.475 129.676 199.757 129.672C200.822 129.661 201.761 130.125 201.589 131.158C201.421 132.184 200.284 131.588 199.597 131.592C190.56 131.595 181.524 131.561 172.487 131.538C173.151 130.68 172.422 128.859 174.342 128.867C176.181 128.874 178.04 128.715 179.856 128.924C185.531 129.581 191.221 129.973 196.922 130.208C197.616 130.235 198.719 130.759 198.91 129.384V129.376Z" fill="#EAC95F"/>
<path d="M126.091 171.307C127.793 174.404 129.56 177.467 131.182 180.606C132.239 182.658 133.731 183.179 135.899 182.616C142.249 180.959 148.652 179.595 155.265 179.626C155.605 180.253 155.945 180.883 156.284 181.514L156.334 181.465C148.755 181.298 141.276 182.042 133.952 184.064C132.357 184.505 131.407 183.38 130.755 182.483C128.328 179.151 126.549 175.483 126.091 171.303V171.307Z" fill="#FAFAFA"/>
<path d="M91.2463 101.042C91.2807 104.113 91.5363 107.198 91.2997 110.25C90.7197 117.755 92.0935 125.063 93.2765 132.393C93.4024 133.184 93.5016 134.202 94.6465 134.396C94.0511 134.829 93.4635 135.27 92.8529 135.681C92.7499 135.749 92.5552 135.692 92.3072 135.692C90.3343 123.881 89.6283 111.987 90.071 99.9971C90.941 99.9895 90.9372 100.666 91.2463 101.042Z" fill="#F5F7FA"/>
<path d="M179.36 156.133C182.027 155.278 184.756 155.335 187.492 155.65C188.095 155.719 188.812 155.863 188.973 156.513C189.133 157.151 188.427 157.326 187.992 157.615C185.076 159.53 181.909 160.849 178.505 161.609C178.2 159.694 177.99 157.794 179.364 156.137L179.36 156.133Z" fill="#8E6F65"/>
<path d="M197.258 143.117C195.319 143.57 194.044 141.711 192.125 142.038C191.255 142.186 191.465 140.83 191.537 140.146C191.648 139.131 192.037 138.192 193.3 138.097C195.35 137.938 197.418 138.333 199.459 137.702C200.116 137.501 201.104 140.047 200.665 140.978C199.978 142.43 199.074 143.646 197.258 143.117Z" fill="#8E6F65"/>
<path d="M172.018 133.039C175.578 133.617 179.143 133.59 182.707 133.055C184.134 133.655 185.622 133.948 187.175 133.921C187.771 133.913 188.236 133.818 188.149 133.066C188.805 133.066 189.461 133.058 190.118 133.055C189.946 134.271 190.682 134.362 191.636 134.396C193.999 134.484 196.326 133.526 198.738 134.335C199.925 134.734 201.268 134.681 202.543 134.829C201.883 135.65 200.955 135.301 200.173 135.266C192.51 134.947 184.832 134.981 177.177 134.685C174.346 134.575 171.35 134.962 168.561 133.917C169.511 132.834 171.079 134.149 172.018 133.032V133.039Z" fill="#A04D40"/>
<path d="M165.061 198.497C163.783 201.75 161.665 204.547 159.997 207.587C156.387 214.161 152.895 220.792 149.72 227.591C148.213 227.716 148.778 226.88 149.098 226.211C152.216 219.679 155.567 213.268 159.154 206.979C160.6 204.44 162.157 201.963 163.695 199.477C163.996 198.991 164.134 198.159 165.065 198.501L165.061 198.497Z" fill="#FAFAFA"/>
<path d="M198.91 129.376C198.719 130.752 197.616 130.227 196.922 130.201C191.22 129.969 185.531 129.578 179.856 128.916C178.04 128.707 176.181 128.867 174.342 128.859C172.422 128.852 173.151 130.672 172.487 131.531C171.598 131.352 170.709 131.174 169.82 130.995C170.953 127.609 171.125 127.579 174.666 127.883C177.547 128.13 180.44 127.993 183.348 128.282C188.515 128.791 193.693 129.471 198.914 129.376H198.91Z" fill="#FAFAFA"/>
<path d="M129.312 238.691C129.361 240.283 129.545 241.864 129.049 243.449C128.69 244.589 128.11 244.749 127.236 244.11C125.82 243.08 124.393 242.054 123.076 240.91C122.077 240.04 121.661 238.927 122.622 237.703C124.782 238.516 127.102 238.239 129.316 238.695L129.312 238.691Z" fill="#C88F66"/>
<path d="M232.827 174.127C236.269 173.819 239.704 174.108 243.085 174.617C245.443 174.974 247.641 176.034 248.962 178.265C244.378 175.791 239.299 176.323 234.384 175.985C232.862 175.879 232.526 175.434 232.827 174.127Z" fill="#FAFAFA"/>
<path d="M186.431 201.78C183.146 201.465 180.245 199.759 177.009 199.215C173.033 198.546 169.102 197.372 165.027 198.539C164.966 197.308 165.47 196.643 166.79 196.696C173.56 196.954 179.978 198.725 186.241 201.161C186.366 201.21 186.37 201.571 186.431 201.784V201.78Z" fill="#FAFAFA"/>
<path d="M166.866 155.836C164.916 152.743 163.39 149.581 164.504 145.865C164.71 145.185 164.885 144.368 165.763 144.588C166.801 144.85 165.885 145.565 165.901 146.07C165.969 148.312 167.232 150.364 166.889 152.686C166.736 153.716 166.862 154.788 166.862 155.836H166.866Z" fill="#E3E5EF"/>
<path d="M109.632 136C112.433 134.715 115.356 135.703 118.077 134.947C119.608 134.522 121.275 134.594 122.832 134.221C123.71 134.012 123.996 134.297 124.107 134.989C124.248 135.855 123.546 135.783 123.042 135.745C119.558 135.483 116.219 135.722 113.032 137.482C111.723 138.208 110.666 136.969 109.628 136H109.632Z" fill="#E3E5EF"/>
<path d="M148.438 236.4C147.32 239.915 146.473 240.439 142.996 240.591C139.146 240.758 135.448 239.577 131.636 239.527C132.063 238.646 132.307 238.551 133.494 238.801C136.612 239.455 139.81 239.379 142.962 239.831C145.481 240.192 146.29 238.942 146.694 235.548C147.434 235.51 147.946 235.94 148.434 236.404L148.438 236.4Z" fill="#FAFAFA"/>
<path d="M202.543 134.837C201.268 134.685 199.925 134.742 198.738 134.343C196.326 133.533 194.002 134.491 191.636 134.404C190.678 134.37 189.946 134.278 190.117 133.062C193.247 133.039 196.38 133.104 199.501 132.952C200.711 132.891 201.394 134.172 202.653 133.856C202.859 133.803 202.63 134.495 202.543 134.841V134.837Z" fill="#FAFAFA"/>
<path d="M170.186 150.034C170.869 154.313 170.625 158.626 170.621 162.928C168.408 159.545 169.24 155.829 169.45 152.185C169.499 151.356 169.652 150.532 169.755 149.707C169.862 149.745 169.969 149.753 170.079 149.73C170.098 149.836 170.133 149.939 170.182 150.034H170.186Z" fill="#FAFAFA"/>
<path d="M260.074 187.036C262.784 187.67 265.333 191.159 264.669 193.728C264.192 195.571 263.642 197.467 262.448 199.052C262.459 198.36 262.219 197.528 262.516 197.004C264.879 192.873 262.501 189.962 260.07 187.036H260.074Z" fill="#FAFAFA"/>
<path d="M259.173 228.142C262.348 227.523 265.016 228.34 267.057 230.916C267.134 231.532 266.638 232.258 266.306 232.033C264.046 230.506 261.211 230.042 259.173 228.142Z" fill="#FAFAFA"/>
<path d="M204.058 156.821C202.49 157.797 201.261 158.55 200.051 159.325C199.639 159.587 199.265 159.827 198.83 159.409C198.456 159.048 198.414 158.603 198.593 158.147C199.192 156.604 199.837 155.133 201.982 156.099C202.532 156.346 203.127 156.502 204.058 156.821Z" fill="#8E6F65"/>
<path d="M171.651 137.554C170.69 137.725 169.736 137.945 168.77 138.052C167.786 138.162 167.026 137.657 167.011 136.691C166.996 135.836 167.816 135.741 168.549 135.764C169.701 135.798 170.858 135.81 172.01 135.833C171.892 136.406 171.77 136.98 171.651 137.554Z" fill="#FEFEFE"/>
<path d="M250.332 179.192C253.602 180.359 256.464 182.054 258.216 185.196C255.495 183.315 252.537 181.746 250.332 179.192Z" fill="#FAFAFA"/>
<path d="M174.777 145.021C174.666 145.861 174.204 146.062 173.758 145.827C172.712 145.276 171.251 145.124 170.946 143.756C170.835 143.254 171.72 143.053 172.251 143.193C173.373 143.494 174.391 143.988 174.777 145.021Z" fill="#8E6F65"/>
<path d="M149.293 229.472C148.232 230.65 148.068 232.235 147.4 233.591C147.099 233.58 146.725 233.679 146.507 233.538C145.591 232.957 146.011 231.931 146.492 231.688C147.61 231.125 147.026 228.454 149.293 229.472Z" fill="#FAFAFA"/>
<path d="M179.36 156.133C177.986 157.786 178.196 159.69 178.501 161.605C176.849 162.012 177.486 160.469 177.379 159.998C176.994 158.291 177.414 156.764 179.36 156.133Z" fill="#E3E5EF"/>
<path d="M174.357 135.825C176.399 136.277 178.631 135.787 181.005 137.087C178.459 137.087 176.41 137.087 174.357 137.087C174.357 136.665 174.357 136.247 174.357 135.825Z" fill="#F5F7FA"/>
<path d="M95.0703 133.951C95.6656 131.204 95.9671 131.041 100.119 131.181C99.7717 131.873 99.3405 132.656 98.4743 132.485C96.9364 132.184 96.0778 133.184 95.0703 133.951Z" fill="#FAFAFA"/>
<path d="M129.312 238.691C127.099 238.239 124.779 238.516 122.619 237.699C122.92 237.072 123.462 236.658 124.103 236.882C125.836 237.49 127.831 237.369 129.312 238.691Z" fill="#F5F7FA"/>
<path d="M253.636 232.74C254.621 231.555 256.063 230.814 256.853 229.438C257.128 229.673 257.624 229.901 257.632 230.148C257.655 230.791 254.495 233.386 253.835 233.329C253.751 233.322 253.701 232.945 253.636 232.74Z" fill="#F5F7FA"/>
<path d="M157.555 242.902C156.643 242.628 155.731 242.351 154.819 242.089C154.143 241.895 153.804 241.682 154.189 240.831C154.601 239.919 155.048 240.207 155.54 240.576C156.303 241.146 157.021 241.773 157.757 242.377C157.692 242.552 157.624 242.727 157.559 242.902H157.555Z" fill="#E3E5EF"/>
<path d="M187.652 136.581C185.84 137.596 183.924 136.809 181.817 137.318C183.008 136.087 184.111 135.962 187.652 136.581Z" fill="#F5F7FA"/>
<path d="M170.492 139.542C170.537 140.359 170.827 141.183 170.434 141.993C169.923 142.099 169.549 142.969 169.087 142.582C168.263 141.894 169.45 141.172 169.309 140.343C169.228 139.884 169.473 138.896 170.492 139.538V139.542Z" fill="#F5F7FA"/>
<path d="M102.023 126.043C102.63 127.727 103.24 129.41 103.847 131.094C103.332 131.113 102.538 131.303 102.58 130.569C102.668 129.007 101.554 127.62 102.023 126.04V126.043Z" fill="#F5F7FA"/>
<path d="M172.018 133.039C171.075 134.153 169.511 132.838 168.561 133.925C168.137 133.781 167.568 133.667 167.523 133.199C167.465 132.58 168.106 132.667 168.515 132.557C169.751 132.226 170.839 132.963 172.018 133.039Z" fill="#E3E6EF"/>
<path d="M188.148 133.07C188.236 133.822 187.77 133.914 187.175 133.925C185.622 133.948 184.134 133.659 182.707 133.058C184.519 133.062 186.336 133.066 188.148 133.074V133.07Z" fill="#FAFAFA"/>
<path d="M174.357 135.825C174.357 136.247 174.357 136.665 174.357 137.087C173.456 137.242 172.552 137.398 171.651 137.554C171.77 136.98 171.892 136.406 172.01 135.833C172.792 135.833 173.575 135.829 174.357 135.825Z" fill="#A04D40"/>
<path d="M270.218 234.792C268.245 233.835 268.916 232.524 269.554 231.049C270.149 232.303 270.55 233.424 270.218 234.792Z" fill="#E3E5EF"/>
<path d="M244.81 246.063C245.435 244.486 245.535 242.556 247.611 241.967C246.916 243.495 246.111 244.95 244.81 246.063Z" fill="#F5F7FA"/>
<path d="M240.173 252.528C240.612 251.084 241.055 249.643 242.536 248.864C242.432 250.521 241.463 251.627 240.173 252.528Z" fill="#F5F7FA"/>
<path d="M184.436 144.174C183.245 144.74 182.066 145.306 180.593 144.786C181.791 143.49 183.23 144.448 184.436 144.174Z" fill="#8E6F65"/>
<path d="M247.619 241.963C247.256 240.264 248.878 239.535 249.431 238.281C249.805 239.987 248.332 240.789 247.619 241.963Z" fill="#F5F7FA"/>
<path d="M248.942 178.25C249.725 178.098 250.343 178.197 250.339 179.196C249.637 179.223 249.236 178.816 248.942 178.25Z" fill="#FAFAFA"/>
<path d="M258.216 185.193C259.143 184.832 259.544 185.242 259.612 186.139C258.803 186.325 258.54 185.713 258.216 185.193Z" fill="#FAFAFA"/>
<path d="M243.44 247.971C243.104 247.052 243.833 246.85 244.405 246.539C244.463 247.272 244.073 247.701 243.44 247.971Z" fill="#F5F7FA"/>
<path d="M125.641 169.901C126.118 170.281 126.252 170.771 126.118 171.349C125.435 171.037 125.767 170.395 125.641 169.901Z" fill="#FAFAFA"/>
<path d="M242.49 248.91C242.681 248.461 242.734 247.876 243.451 247.956C243.383 248.526 243.497 249.278 242.49 248.91Z" fill="#F5F7FA"/>
<path d="M169.736 175.901C170.156 176.065 170.255 176.338 170.014 176.726C169.812 176.555 169.606 176.384 169.404 176.209C169.511 176.099 169.621 175.996 169.736 175.897V175.901Z" fill="#FEFEFE"/>
<path d="M289.908 189.65C290.164 189.852 290.32 190.186 290.103 190.391C289.786 190.692 289.695 190.213 289.5 190.076C289.637 189.935 289.771 189.791 289.908 189.65Z" fill="#C88F66"/>
<path d="M259.578 186.093C260.044 186.249 260.566 186.375 260.066 187.032C259.647 186.853 259.349 186.61 259.578 186.093Z" fill="#FAFAFA"/>
<path d="M238.33 255.583C237.628 254.819 238.376 254.663 238.834 254.386C238.952 254.903 238.639 255.241 238.33 255.583Z" fill="#FAFAFA"/>
<path d="M175.094 156.813L175.563 156.794C175.498 156.893 175.433 156.988 175.369 157.087C175.273 156.999 175.182 156.904 175.094 156.813Z" fill="#C88F66"/>
<path d="M94.6197 134.415C94.4327 133.91 94.822 133.955 95.1082 133.91L94.6197 134.415Z" fill="#F5F7FA"/>
<path d="M183.142 198.09C183.245 198.166 183.348 198.242 183.447 198.318C183.351 198.337 183.252 198.356 183.157 198.375C183.168 198.269 183.184 198.163 183.195 198.056L183.142 198.094V198.09Z" fill="#E3E5EF"/>
<path d="M214.789 124.808C216.407 124.379 217.7 125.287 219.013 125.705C223.31 127.085 227.523 128.726 231.782 130.231C232.537 130.497 232.736 130.851 232.324 131.531C232.285 131.592 232.308 131.683 232.285 131.755C230.988 136.118 231.068 136 227.256 133.359C224.264 131.288 221.005 129.604 217.929 127.651C216.758 126.91 215.361 126.313 214.792 124.805L214.789 124.808Z" fill="#EAC95F"/>
<path d="M160.921 95.855C158.864 94.8061 157.032 93.8219 155.151 92.9403C154.323 92.5526 154.235 92.2296 154.956 91.6938C155.017 91.6482 155.082 91.6064 155.143 91.557C156.815 90.1965 158.269 90.4537 159.505 92.3284C160.161 93.3279 160.848 94.3235 160.921 95.855Z" fill="#EAC95F"/>
<path d="M212.403 117.147C216.044 116.102 219.413 115.137 222.779 114.172C222.859 114.335 222.97 114.461 222.982 114.594C223.306 118.219 223.302 118.181 219.593 118.234C217.231 118.268 214.949 117.945 212.403 117.147Z" fill="#EAC95F"/>
<path d="M151.812 113.146C151.712 112.712 151.659 112.568 151.648 112.42C151.583 111.322 151.525 110.227 151.464 109.129C152.727 109.292 153.998 109.414 155.254 109.623C156.971 109.908 158.681 110.254 160.589 110.611C157.765 112.028 154.7 112.142 151.808 113.146H151.812Z" fill="#EAC95F"/>
<path d="M151.094 200.146C151.518 198.049 152.762 196.308 154.449 194.864C154.811 194.553 155.361 194.161 155.891 194.628C156.624 195.278 155.723 195.487 155.487 195.848C154.54 197.311 153.67 198.793 153.269 200.519C153.102 201.237 152.876 202.005 151.785 201.769C150.8 201.56 151.319 200.808 151.094 200.143V200.146Z" fill="#2B2564"/>
<path d="M151.865 194.066C151.403 196.042 149.885 197.562 149.64 199.652C149.537 200.534 148.404 200.473 147.679 200.31C146.58 200.063 147.374 199.295 147.496 198.862C147.885 197.482 148.473 196.167 149.32 194.989C149.957 194.104 150.759 193.678 151.865 194.066Z" fill="#2C2665"/>
<path d="M285.745 212.067C285.509 214.108 284.139 215.256 282.07 216.643C283.036 214.404 284.276 213.052 285.322 211.581L285.745 212.067Z" fill="#E3E5EF"/>
<path d="M285.321 211.581C285.527 211.444 285.737 211.311 285.943 211.174C286.115 211.524 286.077 211.828 285.745 212.067C285.604 211.904 285.462 211.741 285.321 211.581Z" fill="#E3E5EF"/>
<path d="M281.883 216.407C282.04 216.468 282.143 216.506 282.246 216.548C282.154 216.692 282.082 216.856 281.956 216.962C281.914 216.996 281.742 216.882 281.627 216.837C281.715 216.692 281.799 216.548 281.883 216.407Z" fill="#E3E5EF"/>
<path d="M291.091 222.195C290.721 223.183 290.42 224.076 289.237 223.878C288.756 223.798 288.786 223.297 288.886 222.97C289.202 221.891 290.057 222.043 291.095 222.195H291.091Z" fill="#E3E6EF"/>
<path d="M182.638 148.651C182.481 149.574 181.672 149.616 180.901 149.696C180.215 149.764 179.852 149.433 179.97 148.757C180.123 147.887 180.81 147.754 181.55 147.773C182.088 147.788 182.691 147.731 182.638 148.651Z" fill="#2B2564"/>
<path d="M170.186 150.034C170.136 149.939 170.102 149.836 170.083 149.73C170.201 149.536 170.297 149.323 170.446 149.156C171.052 148.464 171.835 148.662 172.579 148.806C172.705 148.829 172.895 149.202 172.846 149.335C172.48 150.288 171.617 150.038 170.877 150.072C170.648 150.083 170.419 150.049 170.186 150.038V150.034Z" fill="#2B2564"/>
<path d="M122.218 120.263C117.001 123.338 111.342 122.099 105.797 122.057C111.266 121.415 116.803 121.396 122.218 120.263Z" fill="#2C2665"/>
</g>
<defs>
<clipPath id="clip0_1_33781">
<rect width="332" height="332" fill="white"/>
</clipPath>
</defs>
</svg>
