<svg width="332" height="332" viewBox="0 0 332 332" fill="none" xmlns="http://www.w3.org/2000/svg">
<path d="M149.776 0.0357666H182.224C182.369 1.00192 183.128 0.894572 183.814 0.96614C189.74 1.39554 195.522 2.50483 201.303 3.72147C220.49 7.83659 238.34 15.1007 254.89 25.5137C269.199 34.5311 281.882 45.4093 292.831 58.3272C300.889 67.8456 307.79 78.0797 313.572 89.0653C318.63 98.6911 322.641 108.782 325.604 119.231C328.206 128.391 330.193 137.695 331.024 147.214C331.097 147.893 330.988 148.645 331.964 148.788V179.562C330.988 179.705 331.097 180.457 331.024 181.136C330.338 189.653 328.676 197.991 326.471 206.221C326.327 206.793 326.363 207.473 325.532 207.58C324.593 203.966 322.858 200.638 321.63 197.167C319.172 190.225 316.535 183.391 313.427 176.735C309.886 169.185 305.261 162.35 299.154 156.625C292.361 150.219 284.339 145.818 275.703 142.347C274.511 141.882 272.849 141.488 274.005 139.52C274.258 139.091 273.969 138.554 273.68 138.053C272.596 135.978 271.728 133.759 270.608 131.719C269.38 129.537 269.705 127.282 270.138 125.064C270.428 123.453 271.548 122.702 273.282 122.666C276.715 122.594 280.184 122.881 283.653 122.272C289.904 121.199 293.3 117.012 293.084 111.931C293.011 110.106 292.975 108.245 292.505 106.528C290.988 100.874 288.675 97.546 281.304 99.2278C278.269 99.9077 275.667 101.267 273.246 103.379C273.246 99.0847 273.21 95.0054 273.246 90.8903C273.282 87.4193 273.643 84.1629 277.185 82.0517C278.919 81.014 279.678 79.1532 278.883 77.042C278.088 75.0381 276.426 74.1793 274.402 74.0362C273.029 73.9646 271.656 74.1078 270.283 74.4298C269.38 74.6445 268.223 74.6803 268.657 73.1416C269.524 70.1 268.874 67.0584 268.368 64.1241C267.862 61.0468 265.477 59.4365 262.297 59.3649C257.419 59.2218 253.3 60.8678 250.12 64.482C248.819 65.9849 248.097 65.6628 246.977 64.4462C242.821 59.8301 237.654 57.8262 231.403 58.4346C227.717 58.8282 224.754 60.9394 224.031 64.3388C223.815 65.305 223.309 65.3408 222.586 65.3408C219.768 65.3408 216.913 65.2692 214.094 65.7702C211.095 66.3069 208.096 66.7721 205.422 68.4897C204.049 69.3843 203.399 70.4578 203.579 72.1039C204.013 76.2548 206.217 79.2964 209.542 81.6939C207.735 82.4096 207.301 83.5188 208.313 85.0933C208.566 85.4869 208.891 85.809 209.108 86.2026C209.614 87.0972 211.059 88.1707 208.674 88.6359C208.168 88.7432 208.06 89.28 208.096 89.781C208.313 91.7848 207.735 93.8961 209.397 95.721C210.3 96.6872 210.879 97.9038 212.36 97.9396C213.263 97.9754 213.733 98.4764 213.733 99.1563C213.769 100.981 213.914 102.842 214.347 105.096C213.48 104.309 212.974 103.808 212.468 103.379C209.686 101.089 203.76 101.482 202.568 104.488C200.653 109.247 200.074 117.728 204.627 122.201C207.446 124.956 210.842 126.459 214.347 127.926C215.287 128.32 215.829 128.678 216.226 129.859C218.25 136.156 221.683 141.274 228.584 143.134C231.728 143.993 234.908 144.745 238.16 144.172C240.834 143.671 243.435 142.741 246.073 142.025C247.41 141.667 247.88 142.669 248.35 143.528C248.928 144.601 247.771 144.78 247.229 145.102C246.037 145.782 244.989 146.641 243.977 147.536C241.159 149.289 238.666 151.436 236.245 153.619C231.981 157.483 227.789 161.599 225.694 166.966C221.863 176.628 216.515 185.502 211.384 194.484C209.469 197.847 207.626 201.39 206.759 205.398C206.326 204.933 205.892 204.503 205.531 204.038C201.99 199.422 198.99 194.412 196.027 189.402C193.751 185.574 191.8 181.602 189.74 177.665C188.475 175.232 188.331 173.014 190.463 170.795C192.811 168.326 193.209 164.998 192.45 161.956C191.041 156.589 190.716 151.186 190.716 145.711C190.716 143.814 190.463 141.918 190.065 140.057C189.668 138.16 188.15 137.48 186.271 137.373C184.284 137.266 184.139 138.697 183.814 140.021C183.489 141.381 183.164 142.741 182.73 144.458C180.273 141.381 178.972 138.196 177.816 134.904C176.912 132.328 176.298 129.644 175.395 127.067C174.853 125.493 173.444 125.099 171.854 125.278C170.3 125.457 168.674 126.101 168.746 127.747C168.818 130.002 168.638 132.292 169.18 134.582C169.722 136.765 171.023 138.84 170.625 141.775C169.397 139.484 167.987 137.946 166.976 136.049C165.783 133.831 165.241 131.326 163.543 129.358C161.917 127.533 160.002 128.034 158.05 128.606C156.027 129.179 156.316 130.825 156.677 132.149C157.039 133.437 156.424 133.687 155.521 134.009C153.498 134.725 152.63 135.834 153.859 138.017C154.509 139.162 154.726 140.522 155.16 141.882C150.173 142.061 149.74 142.669 150.932 147.214C151.185 148.108 151.691 148.86 152.016 149.718C153.678 153.762 156.388 157.233 158.448 161.026C160.616 165.105 162.242 169.614 165.783 172.799C169.108 175.805 170.3 179.705 171.203 183.713C172.107 187.542 173.805 191.084 174.708 194.913C175.431 197.955 176.804 200.853 177.78 203.859C179.875 210.229 182.333 216.455 185.549 222.359C187.933 226.725 190.246 231.09 193.57 234.955C192.848 235.134 192.342 235.313 191.836 235.384C191.222 235.492 190.607 235.563 189.993 235.563C183.959 235.599 179.153 238.14 175.25 242.613C174.13 243.901 174.961 244.545 175.973 244.652C178.936 244.867 181.899 245.261 184.501 243.042C186.488 241.324 188.692 239.786 191.583 239.714C192.739 239.678 193.354 239.786 193.209 241.324C192.703 246.263 189.993 249.912 186.56 253.169C185.982 253.706 185.223 253.598 184.609 253.383C179.261 251.666 173.949 249.948 168.421 248.839C167.445 248.66 166.903 248.016 167.265 246.835C168.999 241.289 170.661 235.742 172.36 230.232C174.419 223.576 174.781 216.884 173.407 210.014C172.938 207.616 171.781 206.936 169.469 207.08C166.867 207.258 164.229 207.115 161.411 207.115C162.64 204.539 164.88 203.108 165.494 200.674C165.892 199.171 165.386 198.42 163.832 198.348C163.687 198.205 163.507 198.026 163.362 197.883C160.652 196.917 157.906 197.346 155.196 197.704C152.594 198.062 149.884 198.635 148.367 201.247C148.15 201.605 147.68 201.712 147.319 201.569C145.151 200.746 142.91 201.247 140.706 201.139C136.189 200.925 131.673 200.782 127.3 202.07C125.313 202.678 124.807 202.714 124.337 200.352C123.47 196.058 122.205 194.269 117.436 194.627C114.798 194.806 112.738 196.201 110.281 197.132C110.064 195.915 109.884 194.806 109.631 193.732C108.222 188.007 106.054 182.711 101.501 178.596C98.6822 176.019 94.2738 176.485 91.9613 179.204C90.7327 180.671 89.7209 182.282 88.8537 183.963C87.2638 187.041 86.3605 190.333 85.6016 194.233C82.8193 190.44 80.5067 187.005 77.6883 183.892C72.485 178.131 66.5951 173.371 58.754 172.012C54.4541 171.26 50.0096 171.368 46.0348 173.801C44.9147 174.481 44.3004 175.483 44.0836 176.485C43.7584 178.095 43.9752 179.777 43.9752 181.423C43.6138 185.788 45.7096 189.725 46.1794 194.269C44.4449 193.625 42.9996 193.088 41.5542 192.551C39.8198 191.442 37.8685 190.834 35.9534 190.154C30.461 188.222 24.7519 188.723 19.1511 188.866C15.8629 188.937 12.7553 190.047 10.0091 191.979C7.76883 193.589 7.51589 196.917 9.50326 198.456C9.97301 201.39 12.1772 202.964 14.4536 204.324C15.5377 204.968 16.4771 205.577 17.0914 206.614C16.7301 208.94 18.3561 208.475 19.6931 208.439C19.8015 209.012 20.0544 209.62 20.0183 210.193C19.7292 214.057 19.2956 217.886 19.7653 221.751C20.0183 223.934 20.4158 226.081 20.5603 228.263C20.9578 234.49 22.6199 240.43 24.7519 246.227C25.4745 248.159 25.9804 250.091 26.3417 252.095C24.2098 251.129 23.6317 248.946 22.5838 247.157C17.525 238.569 13.2973 229.623 9.90074 220.248C5.70918 209.37 2.99913 198.241 1.33696 186.79C1.08402 185.144 1.77057 183.14 0.0361328 181.816V146.927C0.831083 146.82 0.903351 146.247 0.975619 145.568C2.13191 134.475 4.62516 123.632 8.13017 113.04C11.599 102.556 16.1881 92.5721 21.6443 82.9821C28.0762 71.7103 35.7366 61.333 44.7701 51.9577C49.5398 46.9838 54.5263 42.2246 59.8742 37.7874C68.2573 30.8812 77.2547 24.8696 86.8302 19.7167C97.2368 14.1345 108.113 9.66155 119.495 6.44103C128.89 3.79304 138.43 1.71759 148.186 0.930356C148.872 0.894572 149.631 1.00192 149.776 0.0357666Z" fill="#E3E6EF"/>
<path d="M69.5583 297.612C69.2692 297.576 68.9801 297.54 68.6911 297.505C69.5221 292.924 72.7742 290.062 76.496 286.984C69.3776 287.485 62.7651 286.591 56.1525 287.342C54.3458 286.913 52.5391 286.447 50.624 286.519C50.3349 286.519 49.7568 286.77 49.8652 286.125C49.9013 285.911 50.2988 285.732 50.5156 285.553C52.3946 284.587 54.2736 285.624 56.1887 285.624C63.1264 285.624 70.1003 285.624 77.038 285.624C78.1943 285.624 79.0977 285.302 80.0372 284.658C87.4446 279.362 95.7194 275.963 104.5 273.637C115.557 270.667 126.831 270.774 138.105 270.953C140.995 270.989 143.922 271.418 146.741 271.991C155.702 273.78 164.374 276.392 172.649 280.257C174.961 281.33 175.395 281.008 175.25 278.396C174.961 274.388 174.528 270.273 175.431 266.373C176.118 263.403 174.492 264.047 172.974 264.047C129.035 264.047 85.0959 264.047 41.1207 264.083C38.23 264.083 35.3032 264.476 32.4124 264.691C30.3528 264.906 29.9192 263.975 29.5578 261.971C28.9074 258.572 27.7873 255.173 26.1612 252.059C25.7999 250.056 25.2579 248.123 24.5713 246.191C22.4033 240.394 20.7773 234.454 20.3798 228.228C20.2352 226.045 19.8378 223.898 19.5848 221.715C19.1151 217.85 19.5487 214.021 19.8378 210.157C19.8739 209.584 19.621 208.976 19.5126 208.403C19.2235 207.938 18.5008 207.652 19.0428 206.901C19.5126 206.256 19.9462 206.328 20.5966 206.507C21.7167 206.793 22.873 207.115 23.9932 207.079C31.1116 207.008 38.1939 207.258 45.3123 207.223C55.6467 207.151 65.981 206.4 76.3153 206.579C78.5918 206.614 80.1094 207.187 81.1573 209.155C82.675 211.982 84.9875 213.127 88.3119 213.127C97.0925 213.127 105.729 211.588 114.509 211.552C117.906 211.552 119.965 208.618 121.302 205.684C122.35 203.358 121.122 198.456 119.351 196.881C118.881 196.452 118.412 196.13 117.725 196.094C115.268 195.915 110.607 198.957 110.028 201.354C109.559 203.251 108.439 204.038 106.56 203.859C106.054 203.823 105.331 204.109 105.078 203.573C104.753 202.964 105.295 202.392 105.692 201.962C106.415 201.175 106.776 200.352 106.74 199.279C106.596 191.8 103.958 185.323 98.7546 179.884C97.0202 178.095 95.8639 178.202 94.2379 180.17C93.2622 181.351 92.4312 182.604 91.7085 183.963C89.3598 188.436 88.3119 193.231 87.7337 198.169C87.6253 199.171 87.4085 199.708 86.2884 199.78C85.1321 199.851 84.843 199.35 84.8069 198.313C84.7707 197.74 84.4817 197.132 84.1203 196.666C79.5674 190.44 75.1952 184.178 69.1608 179.133C63.9936 174.838 58.3206 172.656 51.5996 173.157C48.203 173.407 46.6854 174.731 45.9627 177.773C45.6014 179.311 46.1795 180.957 45.4207 182.425C45.2762 182.389 45.1316 182.389 44.9871 182.353C44.7703 181.745 44.3728 181.423 43.7224 181.387C43.7224 179.741 43.5056 178.023 43.8308 176.449C44.0476 175.483 44.698 174.445 45.782 173.765C49.7929 171.332 54.2374 171.224 58.5012 171.976C66.3423 173.336 72.2683 178.095 77.4355 183.856C80.254 186.969 82.5665 190.44 85.3489 194.197C86.1077 190.333 87.011 187.005 88.6009 183.928C89.4682 182.246 90.4438 180.635 91.7085 179.168C94.0211 176.449 98.4294 175.984 101.248 178.56C105.765 182.675 107.969 187.971 109.378 193.696C109.631 194.77 109.776 195.879 110.028 197.096C112.486 196.165 114.509 194.77 117.183 194.591C121.989 194.233 123.217 196.022 124.085 200.316C124.554 202.642 125.06 202.607 127.048 202.034C131.42 200.71 135.937 200.889 140.453 201.104C142.658 201.211 144.898 200.71 147.066 201.533C147.427 201.676 147.897 201.569 148.114 201.211C149.631 198.599 152.341 198.026 154.943 197.668C157.653 197.311 160.399 196.881 163.109 197.847C162.604 198.277 162.604 199.386 161.447 199.028C158.34 197.99 155.341 198.599 152.414 199.78C151.727 200.066 150.643 200.316 150.752 201.139C151.149 203.573 148.945 204.288 147.969 205.791C147.68 206.221 146.668 206.042 146.921 207.044C150.173 207.044 153.426 207.044 156.641 207.044C157.256 207.044 157.942 207.115 158.34 206.507C160.183 203.823 162.965 201.712 163.579 198.277C165.133 198.348 165.639 199.1 165.241 200.603C164.627 203.036 162.387 204.431 161.158 207.044C163.941 207.044 166.578 207.187 169.216 207.008C171.529 206.829 172.685 207.545 173.155 209.942C174.528 216.813 174.13 223.504 172.107 230.16C170.409 235.706 168.746 241.253 167.012 246.763C166.651 247.944 167.193 248.553 168.168 248.767C173.697 249.877 179.008 251.594 184.356 253.312C185.007 253.527 185.766 253.634 186.308 253.097C189.74 249.805 192.45 246.191 192.956 241.253C193.101 239.714 192.523 239.643 191.33 239.643C188.476 239.714 186.235 241.289 184.248 242.97C181.646 245.189 178.683 244.795 175.72 244.581C174.708 244.509 173.877 243.865 174.998 242.541C178.9 238.032 183.67 235.527 189.74 235.492C190.355 235.492 190.969 235.42 191.583 235.313C192.089 235.241 192.595 235.062 193.318 234.883C189.993 231.054 187.681 226.653 185.296 222.288C182.08 216.383 179.623 210.157 177.527 203.787C176.551 200.782 175.142 197.883 174.456 194.841C173.552 191.013 171.854 187.47 170.951 183.641C170.011 179.633 168.855 175.697 165.53 172.727C161.989 169.543 160.399 165.034 158.195 160.954C156.136 157.126 153.426 153.69 151.763 149.647C151.438 148.824 150.932 148.037 150.679 147.142C149.487 142.597 149.921 141.989 154.907 141.81C154.473 140.486 154.257 139.126 153.606 137.946C152.414 135.799 153.281 134.654 155.268 133.938C156.172 133.616 156.786 133.365 156.425 132.077C156.063 130.717 155.81 129.107 157.798 128.535C159.749 127.998 161.664 127.461 163.29 129.286C165.025 131.218 165.53 133.759 166.723 135.978C167.735 137.838 169.18 139.413 170.372 141.703C170.77 138.769 169.469 136.693 168.927 134.51C168.385 132.22 168.566 129.93 168.493 127.676C168.421 126.03 170.047 125.386 171.601 125.207C173.191 125.028 174.6 125.386 175.142 126.996C176.045 129.572 176.66 132.256 177.563 134.832C178.719 138.089 180.056 141.309 182.477 144.387C182.911 142.669 183.2 141.309 183.561 139.95C183.887 138.626 184.031 137.194 186.018 137.302C187.897 137.409 189.379 138.053 189.813 139.985C190.21 141.846 190.463 143.743 190.463 145.639C190.463 151.114 190.824 156.517 192.197 161.885C192.992 164.926 192.595 168.254 190.21 170.723C188.078 172.942 188.223 175.161 189.487 177.594C191.547 181.53 193.498 185.502 195.775 189.331C198.738 194.341 201.737 199.35 205.278 203.966C205.639 204.431 206.073 204.825 206.506 205.326C207.374 201.318 209.217 197.776 211.132 194.412C216.263 185.43 221.611 176.592 225.441 166.895C227.573 161.527 231.728 157.412 235.992 153.547C238.413 151.329 240.906 149.217 243.725 147.464C243.725 147.965 243.688 148.502 244.158 148.824C243.11 149.718 241.99 150.506 241.051 151.472C236.931 155.658 232.234 159.344 229.271 164.604C226.814 168.934 225.405 173.729 223.164 178.131C220.418 183.462 217.202 188.544 214.059 193.625C213.191 195.056 213.155 196.201 214.926 196.917C217.347 199.458 220.599 200.782 223.598 202.463C227.031 204.324 230.789 205.541 233.824 208.117C234.836 208.94 235.269 208.26 235.739 207.437C237.04 205.04 238.449 202.642 239.714 200.209C240.111 199.422 240.725 198.599 240.328 197.633C239.352 195.271 238.594 192.766 237.184 190.583L237.22 190.619C235.414 185.502 233.607 180.385 231.8 175.232C231.62 174.66 230.861 174.051 231.728 173.443C232.415 172.978 233.029 173.157 233.571 173.729C234.005 174.767 234.547 175.805 234.872 176.878C237.329 184.786 241.268 192.015 244.592 199.529C246.109 202.964 248.169 206.185 249.614 209.62C251.24 213.377 253.698 216.884 254.131 221.142C254.529 219.926 255.613 219.031 255.685 217.671C258.503 210.837 261.322 204.038 264.104 197.203C266.345 191.657 268.874 186.182 270.681 180.421C271.006 179.347 270.97 178.381 270.861 177.308C270.355 173.443 270.464 169.578 270.681 165.678C270.717 164.855 271.223 164.103 272.126 164.211C272.993 164.318 272.921 165.213 272.921 165.893C272.921 167.789 272.921 169.686 272.921 172.012C274.836 169.972 273.499 165.857 277.691 166.537C276.823 171.475 275.27 176.27 273.571 180.957C271.765 185.967 269.777 190.977 267.609 195.879C266.67 198.062 267.067 199.064 269.199 199.672C270.5 200.638 271.981 201.211 273.463 201.891C277.365 203.716 281.629 204.503 285.568 206.113C286.616 206.543 286.58 205.72 286.796 205.326C288.386 201.712 290.735 198.384 291.349 194.376C291.53 193.195 291.349 191.979 291.964 190.798C293.192 188.508 294.276 186.146 295.288 183.784C297.853 177.809 299.877 171.797 295.974 165.535C295.649 165.034 295.541 164.533 296.155 164.175C296.697 163.889 297.348 163.924 297.601 164.461C298.215 166 299.407 167.252 299.877 168.863C300.925 172.441 299.805 175.984 299.805 179.526C299.732 179.598 299.66 179.669 299.552 179.705C299.588 179.705 299.66 179.705 299.696 179.705C299.732 179.669 299.769 179.598 299.769 179.526C300.202 179.419 300.672 179.24 300.708 180.027C300.78 181.315 300.058 182.174 299.263 183.033C298.54 183.82 297.42 184.5 297.167 185.43C295.794 190.583 293.554 195.414 291.602 200.352C289.145 206.507 286.291 212.483 283.581 218.494C279.714 227.047 274.222 234.776 270.5 243.4C270.175 244.151 269.669 244.724 268.766 244.724C267.139 244.724 265.622 245.368 264.068 245.726C261.683 246.262 261.394 247.121 262.948 248.946C263.49 249.59 264.249 250.02 265.08 250.27C266.923 250.807 268.802 251.236 270.717 251.236C277.438 251.236 284.159 251.415 290.843 251.165C295.107 250.986 299.443 251.165 303.671 250.306C305.261 249.984 304.574 251.093 304.791 251.666C300.816 252.632 296.697 252.381 292.686 252.489C282.858 252.739 272.993 252.918 263.165 252.131C261.575 251.523 260.924 249.877 259.19 248.767C262.225 257.785 266.236 265.979 269.127 274.961C270.645 272.742 269.597 270.953 269.344 269.164C270.934 268.663 270.861 267.303 271.006 266.015C271.367 263.081 271.584 260.111 272.921 257.427C273.174 256.962 273.029 255.745 274.077 256.139C274.836 256.425 274.692 257.284 274.511 257.964C273.897 260.433 274.619 262.973 273.86 265.442C274.583 264.834 275.197 264.297 275.595 263.546C276.86 261.113 278.197 258.751 279.497 256.353C280.148 255.208 281.16 254.6 282.352 255.065C283.508 255.495 282.135 256.532 282.533 257.248C281.376 257.033 281.412 258.143 281.087 258.679C277.835 264.297 274.8 270.023 271.439 275.605C267.429 282.297 263.201 288.881 259.009 295.465C256.805 298.972 254.493 302.371 252.216 305.842C251.349 307.166 250.12 307.488 248.639 307.345C248.422 306.486 249.036 305.985 249.47 305.341C254.131 298.471 258.973 291.743 263.056 284.515C264.791 281.438 268.079 278.897 265.947 274.281C264.682 271.49 264.285 268.198 262.948 265.299C260.346 259.646 258.034 253.884 256.155 247.944C255.866 247.05 255.685 247.05 254.89 247.121C250.554 247.515 246.326 248.41 241.954 248.588C237.329 248.767 232.704 249.376 228.115 250.127C223.453 250.914 218.792 251.773 213.986 251.523C210.915 251.38 210.409 251.809 209.903 254.922C209.18 255.101 208.494 255.244 207.771 255.423C207.952 251.916 208.964 250.7 212.432 250.413C218.142 249.912 223.887 249.555 229.524 248.553C233.968 247.765 238.485 247.443 242.966 247.05C249.036 246.549 255.107 245.618 261.141 244.831C263.851 244.473 266.381 243.937 267.934 241.253C269.091 239.213 270.608 237.352 271.765 235.313C275.378 228.907 279.1 222.538 281.991 215.739C283.039 213.306 284.195 210.908 285.315 208.547C284.231 208.117 283.328 207.688 282.388 207.402C277.763 205.899 273.138 204.432 268.621 202.607C267.32 202.392 266.164 198.992 264.755 202.463C262.767 207.366 260.78 212.232 258.829 217.17C257.311 221.071 255.396 224.47 250.518 224.9C249.036 225.043 247.627 225.651 246.182 226.045C238.413 228.049 230.752 230.697 222.803 232.056C217.672 232.951 212.577 233.953 207.446 234.74C201.665 235.635 195.883 236.601 190.065 236.995C184.79 237.388 180.454 238.998 177.382 243.364C178.358 243.829 179.008 243.185 179.623 242.684C183.092 239.893 187.066 238.39 191.475 237.746C193.715 237.424 195.739 238.14 195.341 240.931C195.197 241.825 195.269 242.72 194.98 243.615C193.823 247.479 191.692 250.664 188.765 253.419C188.295 253.849 187.572 254.242 188.403 254.958C188.187 255.137 187.97 255.316 187.789 255.495C186.813 255.28 186.091 255.53 185.368 256.282C184.537 257.141 183.597 258.143 182.513 258.465C180.707 258.966 179.984 260.54 178.828 261.614C178.213 262.186 177.599 263.689 179.442 264.118C180.02 264.083 180.671 264.154 180.562 263.26L180.598 263.295C181.574 263.546 182.188 262.83 182.875 262.401C185.657 260.755 188.006 258.608 190.463 256.532C192.089 255.137 193.823 253.92 195.558 252.668C196.172 252.238 196.895 252.024 197.365 252.739C197.762 253.348 196.931 253.598 196.606 253.92C195.955 254.636 195.197 255.28 194.474 255.924C190.897 258.143 188.078 261.363 184.356 263.403C184.031 263.582 183.634 263.832 183.814 264.262C184.031 264.763 184.609 264.512 185.043 264.619C186.813 265.514 188.548 265.12 189.957 264.011C191.872 262.508 193.823 261.041 195.413 259.145C196.859 257.391 198.412 255.674 199.352 253.562C199.786 252.632 200.508 252.489 201.231 252.775C202.351 253.169 201.484 253.992 201.303 254.421C200.111 257.033 198.196 259.145 196.281 261.22C195.991 261.327 195.702 261.399 195.811 261.828L195.847 261.793C193.715 262.687 192.595 264.87 189.813 265.908H192.595C193.028 266.087 193.426 266.409 193.823 266.409C196.064 266.409 197.328 264.727 198.557 263.295C200.436 261.148 202.64 259.216 203.869 256.568C204.158 255.924 204.808 255.316 205.712 255.495C206.47 255.638 206.398 256.21 206.362 256.747C205.567 257.534 205.603 258.679 205.025 259.574C203.869 259.86 203.146 260.54 202.785 261.649C202.062 262.437 201.339 263.224 200.58 263.975C198.34 266.158 196.136 268.448 192.486 267.804C188.656 267.089 184.862 266.409 180.996 265.872C177.744 265.407 177.238 265.979 177.238 269.271C177.238 273.243 177.31 277.215 177.238 281.187C177.238 282.297 177.491 282.905 178.503 283.477C183.2 286.125 187.897 288.845 192.089 292.28C198.196 297.29 203.833 302.693 207.988 309.528C209.144 311.389 209.506 313.607 211.132 315.289C212.216 316.363 212.541 318.187 211.457 320.12C209.759 317.4 208.602 314.752 207.049 312.283C199.677 300.582 189.632 291.851 177.635 285.123C177.238 284.873 176.949 284.909 176.696 285.302C176.082 285.159 175.106 285.768 174.998 284.73C174.853 283.298 173.697 283.12 172.793 282.654C171.493 281.975 170.156 281.402 168.819 280.865C157.22 275.712 144.898 272.313 131.817 272.313C127.915 272.313 124.012 272.313 120.074 272.671C111.076 273.458 102.44 275.319 94.1295 278.754C89.8656 280.543 85.7825 282.654 81.338 285.624H111.835C113.208 285.338 112.522 284.157 112.811 283.406C113.064 283.37 113.317 283.37 113.57 283.334C114.401 285.267 115.882 285.66 117.942 285.66C137.454 285.624 157.003 285.696 176.551 285.768C176.949 287.771 175.359 286.913 174.672 286.948C164.157 287.127 153.606 287.306 143.091 287.414C136.587 287.485 130.083 287.27 123.579 287.449C121.049 287.521 118.412 286.913 115.918 287.95C114.979 287.771 114.039 287.306 113.028 287.557C102.549 287.127 92.0337 287.986 81.5548 287.056C79.8565 286.913 78.5918 287.593 77.2548 288.738C74.1834 291.242 71.6902 294.248 69.5583 297.612ZM161.339 131.361C161.411 130.896 161.194 130.574 160.797 130.324C160.436 130.037 160.074 129.501 159.641 129.751C159.062 130.109 159.099 130.789 159.207 131.397C159.93 134.51 161.772 137.158 163.109 139.985C164.88 144.1 167.084 148.001 169.325 151.83C169.686 152.438 170.589 153.011 169.65 153.762C168.819 154.406 167.807 154.549 166.867 153.905C166.434 153.583 166.145 153.118 165.856 152.688C164.121 150.04 162.278 147.5 160.869 144.637C160.978 144.1 160.869 143.635 160.472 143.242C159.496 140.88 158.557 138.482 157.509 136.156C157.328 135.727 157.003 134.904 156.244 135.333C155.594 135.691 155.991 136.264 156.172 136.729C156.822 138.339 157.328 140.021 158.159 141.56C158.882 142.92 159.315 144.53 160.725 145.46C161.736 149.289 163.254 152.867 165.711 156.016C166.145 156.553 166.759 157.054 166.217 157.806C165.675 158.557 164.916 158.342 164.121 158.163C162.893 157.877 162.134 157.126 161.52 156.124C160.436 154.227 159.532 152.187 157.689 150.828C156.28 148.681 154.871 146.534 153.136 143.886C152.811 146.605 153.678 148.287 154.726 149.862C158.737 155.766 162.098 161.992 164.735 168.612C165.53 170.652 167.373 172.012 169.614 172.548C170.987 172.513 170.228 174.445 171.493 174.516C172.974 175.769 172.974 175.769 171.818 176.878C171.529 177.164 171.637 177.415 171.745 177.701C172.793 181.244 173.299 185.037 174.708 188.365C176.262 192.05 177.491 195.843 178.792 199.565C182.911 211.195 187.5 222.574 194.582 232.772C195.305 233.774 194.98 234.239 194.221 235.026C195.522 234.812 196.497 234.669 197.473 234.525C203.724 234.025 209.759 232.343 215.974 231.555C217.455 231.377 218.973 231.448 220.057 229.945C223.742 225.007 227.934 220.463 231.258 215.238C234.763 209.727 234.583 210.801 229.307 207.652C224.248 204.646 218.684 202.499 213.914 198.992C212.974 197.382 212.216 197.311 211.457 199.171C210.662 201.247 209.939 203.394 208.711 205.219C207.735 206.686 207.807 207.545 209.072 208.547C209.036 209.441 209.542 210.121 209.903 210.873C210.987 213.27 211.132 215.846 210.987 218.423C210.951 219.067 211.204 220.14 210.048 220.069C209.108 219.997 208.602 219.317 208.602 218.316C208.602 217.779 208.675 217.242 208.566 216.705C207.988 213.198 207.229 209.763 204.772 206.901C202.604 204.36 200.4 201.748 198.665 198.921C194.329 191.907 190.21 184.822 186.669 177.379C185.693 175.304 185.657 173.622 186.994 171.654C189.162 168.397 190.535 164.998 189.234 160.811C187.97 156.768 187.572 152.51 187.753 148.18C187.861 145.532 187.319 142.848 187.066 139.95C186.199 140.665 185.946 141.345 185.946 141.989C185.91 145.639 185.513 149.325 186.163 152.939C186.38 154.191 186.163 154.907 185.115 155.623C183.019 157.126 181.899 159.344 180.815 161.599C178.864 163.424 178.936 165.928 178.539 168.29C178.539 168.433 178.466 168.612 178.503 168.755C178.647 169.614 179.298 170.509 178.177 171.189C177.852 171.403 177.527 171.582 177.129 171.332C176.262 170.759 176.226 169.972 176.118 168.97C175.648 163.817 178.466 159.953 181.429 156.338C182.947 154.478 182.73 153.118 181.646 151.436C180.96 150.363 179.984 149.432 179.803 148.037C179.478 145.174 178.177 142.669 176.66 140.272C176.154 139.484 175.865 138.661 175.54 137.802C174.275 134.439 173.733 130.896 172.902 127.425C172.757 126.853 172.577 126.352 171.89 126.459C171.312 126.566 170.806 127.139 171.095 127.604C171.637 128.499 170.914 129.214 171.059 130.002C170.987 131.54 171.312 133.043 171.854 134.475C171.493 136.085 172.577 137.373 172.902 138.84C173.697 142.383 174.456 145.961 176.118 149.253C176.732 150.506 176.407 150.899 175.178 151.078C174.058 151.221 173.299 150.828 172.649 149.897C170.192 146.426 167.554 143.063 165.494 139.305C164.049 136.657 162.64 134.009 161.194 131.361H161.339ZM121.519 210.801C120.905 211.016 120.182 211.087 119.64 211.445C116.786 213.413 113.642 213.664 110.281 213.592C107.86 213.556 105.403 213.127 103.055 213.878C97.3815 214.379 91.7085 214.451 86.0354 214.487C83.6506 214.487 81.2296 214.057 80.254 211.982C78.1582 207.58 74.4364 207.974 70.6423 208.117C69.8835 208.153 69.0885 208.117 68.3297 208.153C57.7063 208.403 47.0829 208.94 36.4595 208.833C32.0511 208.797 27.6066 209.334 23.2344 208.618C22.5117 208.475 21.8251 208.439 21.8613 209.477C21.8974 210.372 21.8613 211.266 21.8974 212.161C21.5722 214.666 21.7167 217.135 21.8974 219.64C22.6924 231.198 25.5831 242.255 29.6662 253.061C30.2083 254.457 30.8948 254.886 32.4124 254.886C74.7977 254.815 117.147 254.851 159.532 254.851C160.146 254.851 160.761 254.886 161.375 254.815C161.917 254.743 161.772 254.314 161.736 253.956C162.206 253.276 162.64 252.596 163.001 251.845C163.796 250.234 163.832 248.445 164.446 246.763C166.651 240.716 168.132 234.382 170.119 228.228C172.035 222.323 171.493 216.455 170.409 210.55C170.119 208.976 169.18 208.511 167.662 208.511C163.579 208.582 159.46 208.511 155.377 208.582C151.005 208.654 146.668 208.833 142.296 208.904C136.298 208.976 130.3 208.976 124.265 208.976C123.579 208.976 122.856 208.904 122.459 209.692H122.495C122.061 209.978 121.627 210.228 121.519 210.801ZM182.333 256.389H30.9671C31.6175 260.111 33.7855 262.723 36.8931 262.687C44.3367 262.58 51.7803 262.651 59.2601 262.651C65.6558 262.651 72.0154 262.544 78.4111 262.687C83.8674 262.83 89.2875 262.15 94.7799 262.401C98.6462 262.58 102.585 262.616 106.523 262.329C111.51 261.971 116.533 262.544 121.555 262.58C127.59 262.651 133.588 262.365 139.622 262.508C151.185 262.759 162.784 262.58 174.347 262.58C174.925 262.58 175.648 262.83 176.045 262.222C177.563 259.86 180.092 258.536 182.333 256.389ZM222.514 230.124C222.658 230.267 222.803 230.41 222.911 230.589C224.357 230.267 225.838 229.981 227.284 229.587C234.836 227.512 242.388 225.472 249.94 223.325C250.337 223.218 251.493 223.611 251.096 222.252C250.518 220.248 250.482 218.101 249.687 216.097C247.627 210.908 244.881 206.078 242.062 200.603C237.112 211.767 230.536 221.429 222.514 230.124ZM123.759 207.509C128.168 207.509 132.612 207.903 136.912 207.366C139.586 207.044 142.658 208.117 144.97 205.648C145.548 205.004 146.813 204.825 146.56 203.716C146.271 202.535 145.115 202.535 144.139 202.535C140.128 202.535 136.117 202.213 132.143 202.607C128.818 202.929 124.482 202.177 123.759 207.509ZM164.41 254.707H183.128C179.008 253.24 174.889 251.952 170.734 250.807C166.687 249.662 166.651 249.698 164.988 253.67C164.844 253.992 164.627 254.278 164.41 254.707Z" fill="#2D2765"/>
<path d="M244.339 148.788C243.833 148.43 243.905 147.929 243.905 147.428C244.917 146.498 245.965 145.675 247.157 144.995C247.699 144.673 248.892 144.53 248.278 143.421C247.808 142.562 247.338 141.56 246.001 141.918C243.363 142.633 240.762 143.564 238.088 144.065C234.836 144.673 231.656 143.886 228.512 143.027C221.611 141.13 218.178 136.013 216.154 129.751C215.793 128.57 215.215 128.213 214.275 127.819C210.77 126.388 207.338 124.885 204.555 122.094C200.002 117.621 200.581 109.14 202.496 104.381C203.724 101.339 209.65 100.981 212.396 103.271C212.902 103.701 213.408 104.166 214.275 104.989C213.842 102.735 213.697 100.91 213.661 99.0489C213.661 98.369 213.191 97.8323 212.288 97.8323C210.806 97.7965 210.228 96.5799 209.325 95.6137C207.663 93.7887 208.241 91.6775 208.024 89.6736C207.952 89.2084 208.096 88.6359 208.602 88.5286C210.951 88.0634 209.542 87.0257 209.036 86.0953C208.819 85.7017 208.494 85.3438 208.241 84.986C207.229 83.4115 207.663 82.3022 209.47 81.5865C206.145 79.189 203.941 76.1474 203.507 71.9965C203.327 70.3505 203.977 69.277 205.35 68.3824C207.988 66.6648 210.987 66.1996 214.022 65.6629C216.841 65.1619 219.695 65.2335 222.514 65.2335C223.237 65.2335 223.742 65.1977 223.959 64.2315C224.682 60.8679 227.645 58.7208 231.331 58.3272C237.582 57.6831 242.749 59.687 246.904 64.3389C248.025 65.5555 248.711 65.8776 250.048 64.3746C253.228 60.7605 257.347 59.1145 262.225 59.2576C265.405 59.3649 267.754 60.9394 268.296 64.0168C268.802 66.9868 269.452 69.9927 268.585 73.0343C268.151 74.573 269.308 74.5372 270.211 74.3225C271.584 74.0004 272.957 73.8573 274.33 73.9289C276.39 74.072 278.052 74.9308 278.811 76.9347C279.642 79.0459 278.847 80.9067 277.113 81.9444C273.608 84.0556 273.21 87.2761 273.174 90.7829C273.138 94.8623 273.174 98.9774 273.174 103.271C275.595 101.16 278.197 99.8362 281.232 99.1205C288.639 97.4387 290.916 100.767 292.433 106.42C292.903 108.174 292.939 109.999 293.012 111.824C293.192 116.905 289.832 121.092 283.581 122.165C280.112 122.773 276.679 122.451 273.21 122.559C271.476 122.595 270.355 123.346 270.066 124.956C269.669 127.175 269.344 129.429 270.536 131.612C271.692 133.652 272.523 135.87 273.608 137.946C273.86 138.447 274.186 138.983 273.933 139.413C272.776 141.417 274.439 141.775 275.631 142.24C284.267 145.675 292.325 150.112 299.082 156.517C305.189 162.278 309.814 169.077 313.355 176.628C316.463 183.283 319.1 190.154 321.557 197.06C322.786 200.531 324.52 203.859 325.46 207.473C325.424 208.654 325.352 209.835 325.315 211.016C324.087 212.018 323.689 211.23 323.545 210.157C323.22 207.258 322.28 204.503 321.16 201.855C319.787 198.563 318.161 195.343 316.896 192.015C313.897 184.071 311.042 176.055 306.2 168.934C302.009 162.744 296.986 157.34 291.024 152.796C286.038 149.003 280.365 146.498 274.872 143.599C273.174 142.705 272.415 143.027 271.873 144.601C270.211 149.325 266.959 152.438 262.406 154.442C259.082 155.909 255.613 156.374 252.035 155.981C248.494 155.587 247.013 152.438 247.952 147.715C247.952 147.285 248.097 146.641 247.88 146.426C247.446 145.997 247.157 146.641 246.832 146.856C246.037 147.571 245.206 148.18 244.339 148.788ZM254.529 147.428C254.565 147.786 254.456 148.216 254.998 148.359C254.998 149.039 255.577 149.969 254.312 150.148C253.445 150.291 252.686 150.184 252.18 149.217C251.746 148.394 251.602 147.357 250.554 146.677C250.409 147.464 250.301 148.108 250.193 148.752C249.506 153.333 251.927 155.408 256.624 154.871C259.19 154.585 260.852 152.867 262.948 151.937C267.284 150.076 268.838 145.925 270.825 142.168C271.981 139.95 271.331 138.125 270.103 136.264C269.524 135.369 269.018 134.403 268.513 133.473C266.923 130.574 266.417 127.533 268.007 124.491C268.549 123.418 268.26 122.845 267.176 122.308C267.826 122.058 268.26 121.879 268.657 121.7C272.451 120.269 276.354 121.378 280.22 121.092C286.327 120.662 289.832 118.086 290.229 113.148C290.482 109.748 289.904 106.456 288.531 103.343C287.483 100.981 284.99 99.8362 282.496 100.337C277.907 101.232 274.728 103.772 273.102 108.102C272.668 109.247 271.945 109.319 270.934 109.319C269.741 109.319 269.994 108.46 269.741 107.78C269.308 106.671 269.199 105.49 269.38 104.381C270.175 99.5857 267.501 96.8661 263.671 94.7549C261.466 93.5383 259.732 91.427 259.877 89.1369C260.057 85.9521 259.009 85.8448 256.372 86.2384C251.71 86.9899 246.977 87.2403 242.243 87.8129C236.931 88.457 231.656 89.2084 226.38 89.9957C223.851 90.3893 221.249 90.5682 218.792 91.427C217.853 91.3555 216.841 91.105 216.01 91.8564C214.962 91.5702 214.059 92.2143 213.083 92.2858C212.433 92.3216 211.674 92.5005 211.565 93.0731C211.421 93.753 211.71 94.5402 212.685 94.8623C212.685 92.8942 213.914 92.6079 215.468 92.751C215.612 95.1127 215.757 97.4745 216.443 99.7288C216.443 100.158 216.443 100.552 216.443 100.981C217.455 108.854 218.864 116.654 218.648 124.67C218.864 124.312 219.081 123.919 219.298 123.561C220.671 122.165 222.225 121.127 224.176 120.805C224.827 120.698 225.26 120.555 225.079 119.839C224.682 118.551 225.152 117.477 225.802 116.404C226.344 115.474 226.163 114.615 224.935 114.794C222.658 115.116 221.394 113.828 220.165 112.325C219.732 111.716 219.515 111.072 219.768 110.321C220.888 109.927 221.574 110.106 222.333 111.287C224.14 114.042 225.513 113.971 227.211 111.287C227.356 111.036 227.573 110.786 227.789 110.571C228.223 110.213 228.584 109.534 229.307 109.891C229.958 110.213 230.03 110.893 229.849 111.466C229.416 113.04 228.874 114.579 228.404 116.118C227.573 117.835 226.669 119.732 228.259 121.235C229.921 122.845 232.126 123.131 234.33 122.129C235.775 122.058 237.112 121.879 238.485 121.306C239.967 120.734 241.484 119.803 243.255 120.376C243.255 120.626 243.255 120.877 243.255 121.127C241.231 122.237 239.099 123.06 236.931 123.74C234.619 124.491 233.896 126.423 235.161 128.463C237.112 131.612 245.531 131.862 247.555 128.749C248.205 127.747 248.856 127.318 250.012 127.032C252.758 126.352 253.806 124.634 252.975 122.595C252.975 122.058 252.975 121.485 252.939 120.948C253.625 121.306 254.348 121.557 254.962 122.022C255.793 122.666 256.444 123.561 255.757 124.563C254.854 125.815 253.987 127.211 252.288 127.712C251.096 128.069 250.084 128.714 249.289 129.715C248.603 130.574 247.627 131.004 246.579 131.326C238.666 133.652 230.572 132.471 222.55 132.471C221.755 132.22 220.96 131.97 220.201 131.719C220.165 131.54 220.129 131.29 219.876 131.433C219.84 131.469 219.948 131.755 220.021 131.934C223.562 141.56 235.161 144.494 243.436 140.916H243.399C243.797 140.916 244.23 140.951 244.375 140.451C247.916 139.628 250.915 137.194 255.107 136.622C253.914 138.339 252.397 138.697 251.277 139.556C250.409 139.806 248.783 139.556 249.94 141.238C251.421 143.421 253.011 145.389 254.529 147.428ZM264.755 79.8689C263.815 79.8689 262.876 79.9047 261.936 79.9047C261.936 79.3322 263.309 78.7239 262.225 78.2945C261.322 77.9366 260.166 77.2925 259.154 77.7577C256.263 79.1175 253.228 78.4734 250.265 78.7954C246.579 79.189 242.821 78.9386 239.208 80.0121C237.112 80.7635 234.763 79.7974 232.704 80.8709C232.089 80.9067 231.511 80.9067 230.897 80.9424C226.561 81.4792 222.189 82.0159 217.853 82.5527C217.094 82.6243 216.335 82.6958 215.576 82.7674C213.95 82.3738 212.469 83.1968 210.879 83.2684C210.192 83.3042 210.554 83.8767 210.915 84.163C211.096 84.4492 211.276 84.7355 211.421 85.0576C212.252 86.8467 213.661 87.2046 215.468 86.7752C216.299 86.632 217.094 86.4889 217.925 86.3458C219.117 86.2026 220.346 86.2026 221.538 85.9164C224.321 85.2723 227.211 85.8806 229.958 84.9502C235.197 84.8071 240.473 84.6639 245.712 84.485C248.205 84.5208 250.735 84.5924 253.228 84.5208C255.107 84.4492 257.022 85.0218 258.829 84.1272C260.382 84.485 260.635 83.2326 261.141 82.3022C261.864 82.3022 262.587 82.338 263.345 82.338C263.165 83.5904 263.598 84.1987 264.971 84.0914C265.875 84.0198 266.814 84.0914 267.718 84.0914C269.561 84.0556 271.945 84.5208 270.789 81.2645C270.717 81.0856 270.789 80.7993 270.897 80.6204C271.223 80.1194 271.729 79.69 271.078 79.0817C270.428 78.4734 269.705 78.5092 268.946 78.8312C268.404 79.0459 267.682 79.69 267.284 79.2964C265.983 77.8651 265.441 79.0459 264.755 79.8689ZM204.953 107.959C204.122 106.957 203.76 107.565 203.688 108.424C203.616 109.927 203.652 111.466 203.616 112.969C204.555 119.624 209.217 124.67 215.504 125.815V122.595C215.576 120.197 214.853 117.835 215.432 115.33C214.456 115.581 213.661 115.939 212.902 115.295C211.746 114.329 211.096 115.187 211.096 116.118C211.096 117.978 210.012 118.408 208.53 118.587C208.53 118.3 208.458 117.978 208.53 117.692C209.831 113.541 208.747 110.249 204.953 107.959ZM227.717 123.525C226.742 122.917 225.802 121.879 224.754 121.807C222.514 121.628 219.985 126.996 221.141 129.107C221.647 130.145 222.622 130.538 223.634 130.896C225.874 131.755 228.187 131.254 230.427 131.362C231.981 131.433 233.426 131.827 232.342 129.107C230.861 125.35 231.15 125.243 227.717 123.525ZM215.143 113.076C215.323 108.496 212.722 106.063 209.686 103.88C208.819 103.271 207.807 103.343 206.796 103.379C205.82 103.415 205.242 103.951 204.989 104.846C204.7 105.848 205.35 106.134 206.217 106.313C206.615 106.385 206.868 106.921 207.229 107.208C209.795 109.068 212.36 110.965 215.143 113.076ZM266.2 90.4251C266.345 89.9957 266.67 90.0315 266.959 90.0315C267.826 90.0315 268.368 89.8525 268.549 88.8148C268.729 87.7413 268.007 87.5266 267.356 87.1688C265.73 86.31 265.55 86.9541 264.61 88.4212C263.056 90.8187 264.357 91.9638 265.875 93.2878C266.597 93.9319 267.465 93.753 268.26 93.5383C268.693 93.4309 268.946 93.0015 268.946 92.4647C268.946 91.3197 268.043 91.4986 267.32 91.3197C266.85 91.2123 266.236 91.0692 266.2 90.4251Z" fill="#2B2565"/>
<path d="M45.4207 182.389C46.1795 180.922 45.6013 179.276 45.9627 177.737C46.6854 174.695 48.203 173.371 51.5996 173.121C58.3205 172.584 63.9936 174.767 69.1608 179.097C75.1952 184.106 79.6035 190.404 84.1203 196.595C84.4816 197.06 84.7707 197.704 84.8068 198.241C84.843 199.279 85.1682 199.78 86.2883 199.708C87.4085 199.637 87.5892 199.1 87.7337 198.098C88.3118 193.16 89.3597 188.365 91.7084 183.892C92.4311 182.532 93.2622 181.28 94.2378 180.099C95.8639 178.131 97.0201 178.023 98.7546 179.812C103.958 185.252 106.596 191.728 106.74 199.207C106.776 200.281 106.379 201.104 105.692 201.891C105.295 202.32 104.753 202.893 105.078 203.501C105.367 204.038 106.054 203.752 106.56 203.787C108.439 203.931 109.559 203.179 110.028 201.283C110.643 198.885 115.304 195.808 117.725 196.022C118.412 196.094 118.881 196.38 119.351 196.81C121.122 198.42 122.35 203.322 121.302 205.612C119.965 208.547 117.87 211.445 114.509 211.481C105.728 211.517 97.0563 213.055 88.3118 213.055C84.9875 213.055 82.6749 211.875 81.1573 209.083C80.1094 207.08 78.5918 206.543 76.3153 206.507C65.981 206.328 55.6466 207.08 45.3123 207.151C38.1939 207.187 31.1116 206.936 24.0293 207.008C22.9091 207.008 21.7528 206.722 20.6327 206.435C19.9461 206.257 19.5125 206.185 19.0789 206.829C18.5369 207.616 19.2596 207.867 19.5487 208.332C18.2117 208.404 16.5857 208.833 16.947 206.507C18.4285 207.258 18.4646 206.364 17.9949 205.469C17.5252 204.646 16.7663 203.931 16.0075 203.286C13.9117 201.533 11.9605 199.637 10.3706 197.418C10.479 194.627 11.0933 192.015 14.2008 191.048C19.7655 189.331 25.4385 189.796 31.0754 190.44C34.9057 190.87 38.3384 192.838 41.9518 194.126C43.1804 194.734 44.4089 195.378 45.6375 195.987C47.4442 197.06 48.745 198.635 50.082 200.173C51.0215 201.247 52.25 201.855 53.3702 202.571C54.3458 203.179 55.5382 202.75 56.0802 202.034C56.7668 201.139 55.5021 200.782 54.9601 200.424C52.7559 198.814 50.6601 197.096 48.8173 195.092C48.3475 193.446 47.6249 191.8 47.4442 190.118C47.1912 187.935 46.5047 185.931 45.5652 183.963C45.4207 183.498 45.4207 182.926 45.4207 182.389Z" fill="#869E44"/>
<path d="M163.615 198.348C163.001 201.784 160.254 203.895 158.376 206.579C157.978 207.151 157.292 207.115 156.677 207.115C153.425 207.115 150.173 207.115 146.957 207.115C146.668 206.113 147.716 206.292 148.005 205.863C148.981 204.36 151.185 203.644 150.787 201.211C150.643 200.388 151.727 200.102 152.45 199.851C155.376 198.67 158.376 198.062 161.483 199.1C162.639 199.493 162.639 198.384 163.145 197.919C163.326 198.026 163.47 198.169 163.615 198.348Z" fill="#AA958F"/>
<path d="M41.7712 194.162C38.1578 192.873 34.7612 190.941 30.9309 190.476C25.294 189.832 19.621 189.402 14.0563 191.084C10.9488 192.05 10.3345 194.627 10.2261 197.454C9.90091 197.776 9.5757 198.098 9.2505 198.384C7.22699 196.845 7.47992 193.518 9.75637 191.907C12.4664 189.939 15.6101 188.866 18.8983 188.794C24.5352 188.687 30.2444 188.15 35.7368 190.082C37.6519 190.762 39.6031 191.335 41.3376 192.48C41.446 193.052 41.6266 193.589 41.7712 194.162Z" fill="#2D2765"/>
<path d="M41.771 194.162C41.6265 193.589 41.4458 193.052 41.3013 192.48C42.7828 193.017 44.2281 193.553 45.9264 194.197C45.4567 189.653 43.3609 185.717 43.7223 181.351C44.3727 181.387 44.7701 181.709 44.9869 182.317C44.5895 182.532 44.1197 182.747 44.2281 183.283C44.3365 183.892 44.8424 184.035 45.4206 184.035C46.36 186.003 47.0466 187.971 47.2995 190.19C47.5163 191.871 48.2029 193.518 48.6726 195.164C47.5525 195.271 46.071 194.054 45.4567 196.058C44.2643 195.414 43.0357 194.806 41.771 194.162Z" fill="#3D3873"/>
<path d="M9.25049 198.42C9.5757 198.098 9.9009 197.776 10.2261 197.49C11.8521 199.708 13.7673 201.605 15.863 203.358C16.6218 204.002 17.3807 204.718 17.8504 205.541C18.3563 206.435 18.284 207.33 16.8025 206.579C16.1882 205.505 15.2487 204.932 14.1647 204.288C11.9244 202.929 9.72023 201.318 9.25049 198.42Z" fill="#3D3873"/>
<path d="M115.882 287.879C118.375 286.877 120.977 287.449 123.542 287.378C130.047 287.235 136.551 287.414 143.055 287.342C153.57 287.235 164.121 287.092 174.636 286.877C175.359 286.877 176.949 287.7 176.515 285.696C176.696 285.481 176.876 285.267 177.057 285.052C177.31 284.658 177.599 284.658 177.997 284.873C189.993 291.6 200.074 300.332 207.41 312.033C208.963 314.502 210.12 317.15 211.818 319.869C212.902 317.937 212.541 316.112 211.493 315.039C209.867 313.357 209.469 311.138 208.349 309.277C204.194 302.443 198.557 297.039 192.45 292.03C188.259 288.594 183.561 285.911 178.864 283.227C177.852 282.654 177.563 282.046 177.599 280.937C177.671 276.965 177.635 272.993 177.599 269.021C177.599 265.729 178.105 265.156 181.357 265.621C185.187 266.158 189.017 266.874 192.848 267.554C196.497 268.234 198.701 265.908 200.942 263.725C201.7 262.973 202.423 262.186 203.146 261.399C203.399 262.329 202.857 263.152 202.821 264.047C202.784 264.727 202.532 265.729 203.146 265.943C204.483 266.48 205.928 266.409 207.374 265.872C208.674 265.407 209.578 264.727 209.686 263.188C209.831 260.361 210.084 257.534 210.3 254.672C210.842 251.558 211.312 251.129 214.384 251.272C219.153 251.523 223.815 250.628 228.512 249.877C233.101 249.125 237.726 248.517 242.351 248.338C246.724 248.159 250.951 247.3 255.287 246.871C256.082 246.799 256.263 246.799 256.552 247.694C258.431 253.634 260.744 259.395 263.345 265.049C264.682 267.947 265.044 271.239 266.344 274.031C268.44 278.647 265.188 281.152 263.454 284.265C259.37 291.493 254.529 298.22 249.867 305.091C249.434 305.735 248.819 306.236 249.036 307.095C247.229 307.381 245.856 308.633 244.303 309.456C229.018 317.508 212.83 323.018 195.847 326.203C190.282 327.241 184.609 327.813 178.936 328.278C171.926 328.887 164.916 328.601 157.906 328.601C154.148 328.601 150.426 328.064 146.668 327.742C146.235 327.312 145.837 326.847 145.404 326.418C146.632 323.77 147.861 321.122 149.089 318.51C149.92 317.293 150.788 316.04 151.619 314.824C151.33 313.715 150.354 314.752 149.884 314.287C149.125 315.647 147.174 316.47 147.969 318.51C145.982 320.585 144.067 322.696 144.717 325.917C144.283 325.595 143.85 325.308 143.452 324.951C139.658 321.623 133.19 322.41 129.902 324.521C126.505 324.629 123.398 323.34 120.254 322.446C102.621 317.436 86.2521 309.707 71.1841 299.365C70.4615 298.864 69.7388 298.471 69.6304 297.505C71.7261 294.141 74.2194 291.135 77.2908 288.559C78.6278 287.449 79.8925 286.734 81.5908 286.877C92.0696 287.843 102.585 286.948 113.064 287.378L114.148 289.596C114.148 290.384 114.401 291.028 115.123 291.421C116.243 295.572 118.231 299.33 120.543 303.051C122.205 301.477 121.736 300.045 120.724 298.685C120.218 298.006 119.965 297.254 119.604 296.61C118.484 294.642 118.484 292.244 116.894 290.527L116.207 288.702C116.063 288.523 115.954 288.201 115.882 287.879ZM151.763 313.571C151.763 313.679 151.799 313.822 151.799 313.929C151.908 313.822 151.98 313.715 152.088 313.607C152.992 311.746 154.076 310.029 155.304 308.347C155.413 308.168 155.413 307.918 155.449 307.703C157.075 306.558 157.581 304.697 158.448 303.087C159.424 301.226 161.122 299.723 161.375 297.469C162.17 297.576 162.423 296.86 162.676 296.395C163.218 295.465 164.121 294.606 163.724 293.389C163.687 293.211 163.362 292.996 163.218 293.032C162.025 293.389 161.953 294.606 161.411 295.465C161.339 295.572 161.375 295.751 161.339 295.894C159.135 297.862 158.05 300.475 156.966 303.087C156.786 303.803 156.027 303.981 155.63 304.447C154.907 305.341 153.714 306.272 155.015 307.596C154.979 307.918 154.871 308.598 154.582 308.347C153.534 307.417 153.281 308.275 152.847 308.884C152.341 309.671 151.872 310.53 151.33 311.281C150.679 312.247 150.968 312.963 151.763 313.571ZM124.337 309.921C125.205 312.892 127.409 315.039 129.035 317.543C129.215 317.83 129.577 317.687 129.83 317.472C130.842 317.543 130.95 318.152 130.625 318.903C130.3 319.619 130.661 319.977 131.203 320.012C131.853 320.048 131.745 319.368 131.745 318.975C131.781 317.007 130.227 316.005 129.143 314.716C128.565 312.426 127.409 310.458 125.638 308.848C125.71 307.023 123.832 306.522 123.073 305.234C122.856 304.876 122.35 304.983 122.025 305.234C121.7 305.484 121.447 305.95 121.808 306.2C123.145 307.13 123.073 308.955 124.337 309.921ZM162.712 325.559L163.001 326.811C174.275 324.772 185.585 322.839 196.064 317.758C185.151 321.086 173.986 323.591 162.712 325.559Z" fill="#E3E6EF"/>
<path d="M247.988 147.822C247.085 152.545 248.567 155.694 252.072 156.088C255.613 156.482 259.118 156.016 262.442 154.549C266.995 152.545 270.283 149.396 271.909 144.709C272.451 143.098 273.246 142.812 274.908 143.707C280.401 146.605 286.074 149.11 291.06 152.903C297.059 157.448 302.045 162.851 306.237 169.042C311.079 176.163 313.897 184.178 316.932 192.122C318.197 195.45 319.859 198.67 321.196 201.962C322.316 204.646 323.256 207.366 323.581 210.264C323.689 211.338 324.123 212.125 325.352 211.123C326.905 211.982 326.472 213.27 326.074 214.487C322.172 226.904 316.824 238.641 310.103 249.841C309.489 250.879 308.658 251.594 307.357 251.523C306.562 251.559 305.767 251.558 305.008 251.594C304.755 251.058 305.478 249.912 303.888 250.235C299.66 251.058 295.324 250.914 291.06 251.093C284.375 251.344 277.618 251.165 270.934 251.165C268.982 251.165 267.14 250.735 265.297 250.199C264.466 249.984 263.707 249.555 263.165 248.875C261.611 247.014 261.9 246.191 264.285 245.654C265.839 245.296 267.356 244.652 268.982 244.652C269.85 244.652 270.392 244.116 270.717 243.328C274.402 234.704 279.931 226.975 283.797 218.423C286.544 212.411 289.398 206.435 291.819 200.281C293.77 195.343 296.047 190.548 297.384 185.359C297.637 184.464 298.757 183.749 299.48 182.997C300.274 182.138 300.997 181.28 300.925 179.991C300.889 179.24 300.419 179.419 299.985 179.49C299.949 175.948 301.106 172.405 300.058 168.827C299.588 167.181 298.432 165.964 297.781 164.426C297.564 163.889 296.878 163.853 296.336 164.139C295.685 164.497 295.83 164.998 296.155 165.499C300.058 171.725 298.034 177.737 295.469 183.749C294.457 186.146 293.337 188.472 292.144 190.762C291.53 191.943 291.711 193.16 291.53 194.341C290.916 198.384 288.567 201.676 286.977 205.29C286.796 205.72 286.796 206.543 285.749 206.078C281.81 204.432 277.546 203.644 273.644 201.855C272.198 201.175 270.681 200.603 269.38 199.637C270.897 194.555 272.234 189.438 273.897 184.429C275.92 178.381 278.305 172.441 280.401 166.429C280.545 166 281.485 165.105 280.473 164.712C279.75 164.426 278.775 164.497 278.233 165.392C278.052 165.714 277.98 166.107 277.835 166.465C273.644 165.821 274.981 169.9 273.066 171.94C273.066 169.614 273.066 167.718 273.066 165.821C273.066 165.141 273.138 164.247 272.271 164.139C271.367 164.032 270.861 164.748 270.825 165.606C270.608 169.471 270.5 173.371 271.006 177.236C271.15 178.31 271.187 179.311 270.825 180.349C269.019 186.075 266.489 191.549 264.249 197.096C261.466 203.931 258.648 210.765 255.83 217.564C254.131 213.843 252.505 210.085 250.771 206.364C248.82 202.249 248.458 197.382 245.17 193.875C240.147 188.472 237.401 182.031 235.956 174.91C235.703 173.693 235.125 172.942 233.715 173.586C233.173 173.014 232.559 172.835 231.873 173.3C231.005 173.908 231.728 174.516 231.945 175.089C233.716 180.206 235.558 185.323 237.365 190.44C235.739 189.975 234.655 188.83 233.571 187.649C231.728 185.681 229.849 183.784 227.934 181.888C227.5 181.423 226.922 181.101 226.272 181.387C225.838 181.566 225.73 181.959 225.983 182.317C228.621 186.003 231.439 189.546 235.269 192.015C236.57 192.838 237.654 192.194 237.329 190.404C238.738 192.587 239.497 195.056 240.473 197.454C240.87 198.42 240.256 199.243 239.858 200.03C238.594 202.463 237.184 204.825 235.884 207.258C235.45 208.081 234.98 208.797 233.968 207.938C230.933 205.398 227.139 204.181 223.742 202.285C220.743 200.638 217.491 199.314 215.07 196.738C215.215 196.416 215.287 196.022 215.54 195.736C219.081 191.621 220.707 186.432 223.417 181.816C223.851 181.065 224.032 180.134 224.393 179.311C226.958 173.515 228.295 167.145 233.101 162.422C237.871 157.734 242.207 152.581 247.121 147.965C247.338 147.929 247.699 147.929 247.988 147.822ZM259.515 159.273C259.479 159.058 259.443 158.843 259.371 158.629C258.576 158.772 257.745 158.915 256.986 159.094C254.746 159.631 252.505 160.096 250.301 158.915C249.831 158.664 249.072 158.128 248.675 158.915C248.241 159.774 249.036 160.203 249.723 160.346C253.156 161.169 256.444 160.99 259.515 159.273ZM304.032 177.308C304.141 176.699 303.816 176.306 303.454 176.485C302.479 176.95 301.901 177.88 301.467 178.811C301.286 179.168 301.756 179.598 302.117 179.526C303.274 179.168 303.454 177.987 304.032 177.308Z" fill="#9F4D3F"/>
<path d="M32.4121 264.691C35.3028 264.476 38.2297 264.083 41.1204 264.083C85.0595 264.047 128.999 264.047 172.974 264.047C174.491 264.047 176.117 263.403 175.431 266.373C174.527 270.273 174.997 274.388 175.25 278.396C175.431 280.973 174.961 281.33 172.649 280.257C164.374 276.392 155.702 273.78 146.74 271.991C143.886 271.418 140.995 271.025 138.104 270.953C126.83 270.774 115.557 270.667 104.463 273.637C95.6829 275.999 87.4082 279.362 80.0007 284.658C79.0974 285.302 78.1579 285.624 77.0016 285.624C70.0638 285.589 63.09 285.624 56.1522 285.624C54.2732 285.624 52.3943 284.623 50.4792 285.553C47.733 282.762 44.9506 280.078 42.2767 277.215C38.9524 273.673 35.8087 269.987 32.8819 266.122C32.6289 265.657 32.4482 265.228 32.4121 264.691Z" fill="#B7977D"/>
<path d="M305.044 251.594C305.839 251.558 306.634 251.558 307.393 251.523C306.49 255.065 303.816 257.57 301.864 260.433C298.287 265.657 294.168 270.488 289.904 275.211C286.905 278.575 283.725 281.796 280.437 284.873C273.499 291.421 265.839 297.111 257.961 302.514C257.709 302.693 257.311 302.729 256.661 302.944C258.359 300.296 259.804 297.898 261.394 295.572C264.574 290.813 267.356 285.839 270.247 280.901C274.583 273.386 278.955 265.908 282.569 258C282.677 257.749 282.713 257.427 282.786 257.141C282.388 256.425 283.761 255.387 282.605 254.958C281.412 254.493 280.365 255.101 279.75 256.246C278.45 258.644 277.076 261.005 275.848 263.439C275.45 264.226 274.836 264.727 274.113 265.335C274.872 262.866 274.15 260.325 274.764 257.856C274.945 257.176 275.089 256.318 274.33 256.031C273.282 255.638 273.391 256.854 273.174 257.32C271.801 260.003 271.584 262.973 271.259 265.908C271.114 267.196 271.187 268.556 269.597 269.057C268.332 266.731 267.754 264.154 266.887 261.685C265.766 258.465 264.574 255.244 263.382 252.024C273.21 252.811 283.075 252.668 292.903 252.381C296.95 252.346 301.069 252.56 305.044 251.594Z" fill="#5C5C8E"/>
<path d="M56.1886 287.342C62.8011 286.591 69.4137 287.485 76.5321 286.984C72.8103 290.062 69.5582 292.924 68.7271 297.505C67.3179 298.149 67.1372 296.646 66.4868 296.145C63.2347 293.747 59.9465 291.421 57.0197 288.63C56.6222 288.237 56.1163 287.986 56.1886 287.342Z" fill="#E3E6EF"/>
<path d="M129.866 324.629C133.154 322.517 139.622 321.73 143.416 325.058C143.813 325.416 144.247 325.702 144.681 326.024C144.789 326.346 145.006 326.525 145.367 326.561C145.801 326.99 146.198 327.455 146.632 327.885C144.934 330.211 143.85 327.706 142.477 327.384C139.694 324.557 136.514 323.269 132.612 325.022C131.672 325.022 130.661 325.523 129.866 324.629Z" fill="#2D2765"/>
<path d="M132.612 324.951C136.515 323.197 139.695 324.521 142.477 327.312C139.658 326.847 136.804 326.418 133.985 325.953C133.299 325.881 132.829 325.595 132.612 324.951Z" fill="#E3E6EF"/>
<path d="M122.531 209.656C122.892 208.869 123.615 208.94 124.338 208.94C130.336 208.904 136.334 208.94 142.368 208.869C146.741 208.797 151.077 208.618 155.449 208.547C159.532 208.475 163.651 208.547 167.735 208.475C169.252 208.439 170.192 208.904 170.481 210.515C171.565 216.419 172.107 222.288 170.192 228.192C168.204 234.347 166.723 240.644 164.519 246.728C163.904 248.41 163.868 250.199 163.073 251.809C162.712 252.56 162.278 253.24 161.809 253.92C120.435 253.92 79.0616 253.92 37.688 253.92C37.0737 253.92 36.4595 253.992 35.8452 253.92C33.5687 253.634 31.2561 252.131 30.7503 250.306C29.883 247.157 28.9074 244.044 28.0402 240.895C26.5587 235.635 26.0528 230.16 23.8848 225.079C23.7041 224.685 23.8125 224.184 23.7764 223.719C23.4512 219.962 24.2461 216.276 24.2461 212.519C24.2461 211.374 24.3184 209.835 26.4503 209.835C42.3493 209.906 58.2483 209.871 74.1473 209.871C74.8339 209.871 75.7372 209.656 76.0263 210.407C76.6767 212.268 79.6397 212.769 79.0254 215.381C78.9893 215.489 79.2783 215.739 79.459 215.775C81.0128 216.097 82.2775 217.421 84.0119 217.278C82.3497 220.176 82.964 221.286 86.2884 221.321C89.7572 221.393 93.1538 220.713 96.6227 220.82C101.573 220.964 106.56 221.429 111.51 220.856C112.341 220.785 113.136 220.713 113.967 220.534C115.34 220.248 115.665 219.425 115.882 218.316C116.171 216.92 114.979 216.813 114.184 216.347C117.4 216.419 120.399 216.133 122.639 213.27C123.796 211.767 125.675 211.624 127.626 211.624C140.309 211.696 152.956 211.66 165.639 211.66C166.904 211.66 168.24 211.803 169.252 210.443C168.493 210.264 167.807 209.906 167.156 209.942C160.688 210.193 154.22 210.014 147.752 209.835C142.188 209.692 136.623 209.906 131.095 209.763C128.204 209.727 125.385 208.94 122.531 209.656Z" fill="#ECCA5F"/>
<path d="M157.761 150.828C159.604 152.187 160.471 154.227 161.591 156.124C162.206 157.161 162.965 157.913 164.193 158.163C164.988 158.342 165.711 158.557 166.289 157.806C166.831 157.054 166.217 156.553 165.783 156.016C163.29 152.867 161.808 149.289 160.796 145.46C160.833 145.174 160.905 144.888 160.977 144.601C162.386 147.428 164.229 150.005 165.964 152.653C166.253 153.082 166.578 153.583 166.975 153.869C167.879 154.549 168.927 154.37 169.758 153.726C170.697 153.011 169.794 152.402 169.433 151.794C167.156 147.929 164.952 144.065 163.217 139.949C163.507 138.84 162.892 137.91 162.531 136.944C161.917 135.119 161.122 133.33 161.339 131.29C162.784 133.938 164.193 136.586 165.638 139.234C167.698 142.991 170.336 146.355 172.793 149.826C173.443 150.756 174.202 151.15 175.322 151.007C176.551 150.828 176.876 150.434 176.262 149.182C174.6 145.89 173.841 142.311 173.046 138.769C172.721 137.302 171.637 136.013 171.998 134.403C171.998 132.864 173.227 131.111 171.203 129.93C171.059 129.143 171.781 128.427 171.239 127.533C170.95 127.032 171.42 126.459 172.034 126.388C172.721 126.28 172.901 126.781 173.046 127.354C173.913 130.825 174.455 134.367 175.684 137.731C176.009 138.59 176.298 139.413 176.804 140.2C178.322 142.597 179.622 145.102 179.948 147.965C180.092 149.361 181.068 150.255 181.79 151.364C182.874 153.011 183.055 154.406 181.574 156.267C178.611 159.881 175.792 163.746 176.262 168.898C176.334 169.865 176.406 170.688 177.274 171.26C177.671 171.511 177.996 171.332 178.322 171.117C179.442 170.437 178.791 169.543 178.647 168.684C178.611 168.541 178.683 168.397 178.683 168.219C180.2 166.25 180.345 163.817 180.959 161.527C182.007 159.273 183.127 157.018 185.259 155.551C186.307 154.835 186.524 154.084 186.307 152.867C185.657 149.253 186.054 145.568 186.09 141.918C186.09 141.273 186.343 140.594 187.211 139.878C187.463 142.776 188.005 145.46 187.897 148.108C187.716 152.402 188.114 156.66 189.379 160.74C190.679 164.926 189.306 168.326 187.138 171.582C185.801 173.55 185.837 175.268 186.813 177.308C190.354 184.751 194.473 191.871 198.81 198.849C200.58 201.676 202.748 204.288 204.916 206.829C207.373 209.692 208.096 213.127 208.71 216.634C208.783 217.17 208.746 217.707 208.746 218.244C208.71 219.246 209.216 219.926 210.192 219.997C211.384 220.069 211.095 219.031 211.131 218.351C211.276 215.775 211.131 213.234 210.047 210.801C209.686 210.05 209.18 209.334 209.216 208.475C212.143 205.934 212.504 202.141 214.094 198.921C218.864 202.428 224.429 204.61 229.487 207.58C234.763 210.694 234.944 209.656 231.439 215.167C228.114 220.391 223.923 224.936 220.237 229.874C219.153 231.341 217.635 231.269 216.154 231.484C209.975 232.271 203.904 233.953 197.653 234.454C197.509 232.522 195.774 231.591 194.907 230.088C190.896 223.003 187.283 215.775 184.284 208.225C181.899 202.177 179.586 196.094 178.141 189.76C177.274 185.86 176.37 181.959 175.322 178.095C174.853 176.306 174.383 174.23 171.709 174.481C170.444 174.409 171.203 172.477 169.83 172.513C169.577 171.904 169.396 171.224 169.035 170.688C167.192 168.04 165.205 165.499 163.47 162.744C161.013 159.094 158.99 155.122 157.761 150.828Z" fill="#BA855A"/>
<path d="M196.569 261.149C198.485 259.073 200.4 256.926 201.592 254.35C201.809 253.884 202.676 253.097 201.52 252.704C200.797 252.453 200.075 252.56 199.641 253.491C198.701 255.602 197.184 257.32 195.702 259.073C194.149 260.97 192.161 262.473 190.246 263.94C188.801 265.049 187.102 265.443 185.332 264.548C186.163 263.904 187.102 263.367 187.861 262.616C190.21 260.361 193.281 258.858 194.763 255.817C195.485 255.137 196.244 254.529 196.895 253.813C197.22 253.455 198.015 253.24 197.654 252.632C197.184 251.916 196.461 252.095 195.847 252.56C194.149 253.813 192.378 255.065 190.752 256.425C188.331 258.501 185.946 260.648 183.164 262.294C182.477 262.687 181.863 263.403 180.887 263.188C180.743 262.687 181.032 262.365 181.285 261.972C183.019 259.216 185.838 257.57 188.15 255.387C188.367 255.208 188.584 255.03 188.765 254.851C189.198 254.564 189.632 254.242 190.065 253.956C195.341 250.127 198.593 245.332 197.617 238.498C197.437 237.102 197.87 236.458 199.316 236.494C199.93 236.494 200.544 236.529 201.159 236.422C206.47 235.527 211.782 234.633 217.094 233.738C222.55 232.808 228.042 231.913 233.499 230.983C239.099 230.053 244.736 229.086 250.373 228.228C254.565 227.584 258.034 226.152 259.985 221.966C262.442 216.705 265.333 211.588 268.043 206.471C268.693 205.219 268.946 203.931 268.982 202.535C273.499 204.36 278.124 205.827 282.749 207.33C283.689 207.616 284.556 208.046 285.676 208.475C284.592 210.873 283.4 213.234 282.352 215.668C279.461 222.466 275.739 228.836 272.126 235.241C270.97 237.281 269.452 239.142 268.296 241.181C266.778 243.865 264.213 244.402 261.502 244.76C255.432 245.547 249.398 246.477 243.327 246.978C238.81 247.336 234.33 247.694 229.885 248.481C224.212 249.483 218.503 249.841 212.794 250.342C209.325 250.628 208.277 251.845 208.132 255.352C207.988 255.853 207.843 256.354 207.735 256.89C207.41 256.819 207.048 256.747 206.723 256.64C206.759 256.103 206.832 255.531 206.073 255.387C205.169 255.208 204.519 255.817 204.23 256.461C203.001 259.145 200.797 261.041 198.918 263.188C197.69 264.584 196.425 266.266 194.185 266.301C193.787 266.301 193.354 265.979 192.956 265.8C193.823 264.262 195.883 263.653 196.208 261.685L196.172 261.721C196.461 261.685 196.533 261.435 196.569 261.149Z" fill="#BA855A"/>
<path d="M182.333 256.389C180.092 258.536 177.563 259.896 176.045 262.258C175.648 262.902 174.925 262.616 174.347 262.616C162.784 262.616 151.185 262.795 139.622 262.544C133.588 262.401 127.553 262.651 121.555 262.616C116.532 262.58 111.51 262.007 106.523 262.365C102.585 262.651 98.6459 262.616 94.7796 262.437C89.2872 262.15 83.8671 262.83 78.4109 262.723C72.0151 262.544 65.6555 262.687 59.2598 262.687C51.8162 262.687 44.3725 262.616 36.8928 262.723C33.7853 262.759 31.5811 260.182 30.9668 256.425L182.333 256.389Z" fill="#C7A991"/>
<path d="M177.057 285.088C176.876 285.302 176.696 285.517 176.515 285.732C157.003 285.696 137.454 285.589 117.906 285.625C115.846 285.625 114.364 285.267 113.533 283.299C113.497 282.762 113.353 282.332 112.666 282.368C112.485 281.867 112.233 281.366 112.16 280.865C112.052 280.114 111.763 279.506 111.004 279.362C110.715 279.291 110.209 279.541 110.028 279.792C109.595 280.472 109.992 281.008 110.462 281.581C111.365 282.726 111.943 284.014 111.799 285.553H81.3018C85.7463 282.583 89.7933 280.472 94.0571 278.682C102.368 275.211 111.04 273.351 120.001 272.599C123.94 272.277 127.842 272.277 131.745 272.241C144.825 272.241 157.147 275.641 169.108 280.579C170.445 281.152 171.818 281.724 173.082 282.368C173.986 282.833 175.142 283.012 175.287 284.444C175.431 285.553 176.443 284.945 177.057 285.088Z" fill="#B7977D"/>
<path d="M83.9754 217.278C82.241 217.421 81.0124 216.133 79.4225 215.775C79.2418 215.739 78.9528 215.489 78.9889 215.381C79.6032 212.769 76.6402 212.304 75.9898 210.407C75.7007 209.62 74.7973 209.871 74.1108 209.871C58.2118 209.871 42.3128 209.906 26.4138 209.835C24.2458 209.835 24.2096 211.374 24.2096 212.519C24.2096 216.276 23.4147 219.962 23.7399 223.719C23.776 224.184 23.6676 224.685 23.8483 225.079C26.0525 230.16 26.5222 235.671 28.0037 240.895C28.9071 244.044 29.8465 247.157 30.7138 250.306C31.2196 252.131 33.5322 253.598 35.8087 253.92C36.4229 253.992 37.0372 253.92 37.6515 253.92C79.025 253.92 120.399 253.92 161.772 253.92C161.808 254.278 161.953 254.743 161.411 254.779C160.796 254.851 160.182 254.815 159.568 254.815C117.183 254.815 74.7973 254.815 32.4482 254.851C30.9306 254.851 30.2079 254.421 29.702 253.026C25.6189 242.219 22.7281 231.162 21.9332 219.604C21.7525 217.099 21.608 214.63 21.9332 212.125C24.7155 211.803 23.2701 209.906 23.2701 208.582C27.6785 209.298 32.0869 208.761 36.4952 208.797C47.1186 208.904 57.7421 208.368 68.3655 208.117C69.1243 208.117 69.9192 208.117 70.6781 208.081C74.436 207.938 78.1578 207.545 80.2897 211.946C81.2653 214.022 83.6863 214.451 86.0712 214.451C91.7442 214.451 97.4173 214.344 103.09 213.843C106.523 213.914 109.956 214.2 113.389 214.773C117.472 215.453 120.109 213.95 121.591 210.729C122.53 210.908 122.422 210.157 122.603 209.62C122.603 209.62 122.639 209.549 122.639 209.584C125.493 208.869 128.276 209.692 131.094 209.763C136.659 209.906 142.224 209.692 147.752 209.835C154.22 210.014 160.688 210.228 167.156 209.942C167.807 209.906 168.457 210.228 169.252 210.443C168.24 211.767 166.903 211.66 165.638 211.66C152.955 211.66 140.308 211.696 127.625 211.624C125.674 211.624 123.795 211.767 122.639 213.27C120.435 216.133 117.399 216.419 114.184 216.347C105.909 216.312 97.598 216.312 89.3232 216.24C87.4081 216.24 85.6737 216.598 83.9754 217.278Z" fill="#FAF9FA"/>
<path d="M222.514 230.124C230.535 221.429 237.076 211.767 242.098 200.603C244.917 206.078 247.663 210.908 249.723 216.097C250.518 218.101 250.554 220.248 251.132 222.252C251.529 223.611 250.337 223.218 249.976 223.325C242.46 225.472 234.872 227.548 227.32 229.587C225.874 229.981 224.393 230.267 222.947 230.589C222.803 230.446 222.658 230.267 222.514 230.124Z" fill="#E3E6EF"/>
<path d="M268.982 202.499C268.946 203.859 268.693 205.183 268.043 206.435C265.333 211.588 262.442 216.67 259.985 221.93C258.034 226.152 254.565 227.548 250.373 228.192C244.736 229.086 239.135 230.017 233.499 230.947C228.042 231.842 222.55 232.772 217.094 233.703C211.782 234.597 206.47 235.492 201.159 236.386C200.544 236.494 199.93 236.458 199.316 236.458C197.87 236.422 197.437 237.066 197.617 238.462C198.593 245.261 195.377 250.091 190.065 253.92C189.632 254.242 189.198 254.529 188.765 254.815C187.897 254.099 188.656 253.706 189.126 253.276C192.017 250.521 194.149 247.3 195.341 243.471C195.63 242.577 195.594 241.682 195.702 240.788C196.1 237.997 194.076 237.281 191.836 237.603C187.464 238.247 183.453 239.75 179.984 242.541C179.334 243.042 178.683 243.722 177.744 243.221C180.851 238.855 185.187 237.245 190.463 236.851C196.28 236.422 202.062 235.456 207.843 234.597C212.974 233.81 218.069 232.808 223.2 231.913C231.15 230.554 238.774 227.906 246.579 225.902C248.024 225.544 249.434 224.9 250.915 224.757C255.793 224.327 257.708 220.964 259.226 217.027C261.141 212.125 263.165 207.223 265.152 202.32C266.525 198.885 267.718 202.285 268.982 202.499Z" fill="#FEFEFE"/>
<path d="M171.601 174.552C174.275 174.338 174.744 176.377 175.214 178.166C176.262 182.031 177.165 185.931 178.032 189.832C179.478 196.201 181.79 202.249 184.175 208.296C187.138 215.882 190.788 223.075 194.799 230.16C195.63 231.663 197.4 232.593 197.545 234.526C196.569 234.669 195.594 234.848 194.293 235.026C195.052 234.239 195.377 233.774 194.654 232.772C187.608 222.538 182.983 211.195 178.864 199.565C177.563 195.843 176.334 192.05 174.78 188.365C173.371 185.037 172.865 181.244 171.817 177.701C171.745 177.415 171.601 177.164 171.89 176.878C173.082 175.805 173.082 175.805 171.601 174.552Z" fill="#FAF9FA"/>
<path d="M247.988 147.822C247.699 147.929 247.338 147.929 247.157 148.108C242.279 152.724 237.943 157.877 233.137 162.565C228.295 167.324 226.958 173.658 224.429 179.455C224.067 180.278 223.887 181.208 223.453 181.959C220.743 186.54 219.117 191.728 215.576 195.879C215.359 196.166 215.251 196.523 215.106 196.881C213.335 196.166 213.372 195.02 214.239 193.589C217.382 188.472 220.598 183.427 223.345 178.059C225.585 173.658 227.03 168.863 229.451 164.533C232.414 159.273 237.112 155.587 241.231 151.4C242.17 150.434 243.291 149.647 244.339 148.752C245.17 148.144 246.037 147.536 246.868 146.927C247.193 146.713 247.482 146.069 247.916 146.498C248.133 146.748 247.988 147.393 247.988 147.822Z" fill="#FAF9FA"/>
<path d="M233.788 173.693C235.197 173.049 235.775 173.837 236.028 175.017C237.473 182.103 240.219 188.579 245.242 193.947C248.53 197.454 248.892 202.32 250.843 206.435C252.577 210.121 254.203 213.914 255.902 217.636C255.829 218.96 254.782 219.854 254.348 221.107C253.914 216.813 251.457 213.342 249.831 209.584C248.35 206.149 246.326 202.929 244.808 199.493C241.484 191.979 237.509 184.751 235.088 176.842C234.727 175.769 234.221 174.767 233.788 173.693Z" fill="#FAF9FA"/>
<path d="M123.759 207.509C124.482 202.177 128.818 202.964 132.106 202.607C136.081 202.213 140.092 202.499 144.103 202.535C145.115 202.535 146.271 202.535 146.524 203.716C146.777 204.861 145.512 205.04 144.934 205.648C142.621 208.081 139.514 207.008 136.876 207.366C132.576 207.903 128.168 207.509 123.759 207.509Z" fill="#AA958F"/>
<path d="M277.871 166.537C278.015 166.179 278.088 165.785 278.268 165.463C278.774 164.569 279.786 164.497 280.509 164.783C281.52 165.177 280.617 166.036 280.436 166.501C278.304 172.513 275.956 178.453 273.932 184.5C272.234 189.51 270.897 194.627 269.415 199.708C267.32 199.1 266.886 198.098 267.826 195.915C269.994 191.013 271.981 186.039 273.788 180.993C275.45 176.306 276.968 171.475 277.871 166.537Z" fill="#FAF9FA"/>
<path d="M263.418 252.059C264.574 255.28 265.802 258.465 266.923 261.721C267.754 264.19 268.368 266.767 269.633 269.092C269.886 270.882 270.934 272.671 269.416 274.889C266.525 265.908 262.514 257.713 259.479 248.696C261.177 249.841 261.864 251.451 263.418 252.059Z" fill="#FAF9FA"/>
<path d="M164.41 254.707C164.663 254.278 164.88 253.992 164.988 253.67C166.65 249.698 166.65 249.662 170.734 250.807C174.889 251.988 179.008 253.24 183.128 254.707H164.41Z" fill="#B7977D"/>
<path d="M157.761 150.828C158.99 155.122 161.014 159.058 163.362 162.815C165.061 165.535 167.084 168.075 168.927 170.759C169.288 171.296 169.469 171.976 169.722 172.584C167.445 172.047 165.639 170.652 164.844 168.648C162.206 162.028 158.845 155.802 154.835 149.897C153.751 148.323 152.919 146.641 153.245 143.922C154.943 146.534 156.352 148.681 157.761 150.828Z" fill="#FAF9FA"/>
<path d="M207.699 256.819C207.843 256.318 207.988 255.817 208.096 255.28C208.819 255.101 209.505 254.958 210.228 254.779C210.011 257.606 209.758 260.433 209.614 263.296C209.541 264.834 208.638 265.514 207.301 265.979C205.892 266.48 204.446 266.552 203.073 266.051C202.459 265.8 202.748 264.798 202.748 264.154C202.784 263.26 203.326 262.437 203.073 261.506C203.435 260.397 204.157 259.717 205.314 259.431C205.35 260.719 205.314 262.007 205.422 263.26C205.458 263.797 204.916 264.798 206 264.87C206.867 264.906 207.229 264.19 207.373 263.367C207.807 261.184 207.771 259.002 207.699 256.819Z" fill="#3D3873"/>
<path d="M213.95 199.028C212.36 202.249 211.999 206.042 209.072 208.582C207.843 207.581 207.735 206.722 208.71 205.255C209.939 203.43 210.662 201.283 211.457 199.207C212.252 197.346 213.01 197.454 213.95 199.028Z" fill="#FAF9FA"/>
<path d="M121.519 210.765C120.037 213.986 117.399 215.489 113.316 214.809C109.884 214.236 106.487 213.95 103.018 213.878C105.403 213.091 107.86 213.521 110.245 213.592C113.569 213.664 116.749 213.413 119.604 211.445C120.182 211.052 120.904 210.98 121.519 210.765Z" fill="#ECCA5F"/>
<path d="M188.15 255.387C185.838 257.534 183.055 259.216 181.285 261.971C181.032 262.365 180.743 262.687 180.887 263.188L180.851 263.152C180.237 263.152 179.948 263.546 179.731 264.011C177.888 263.546 178.502 262.079 179.117 261.506C180.273 260.433 180.996 258.858 182.802 258.357C183.886 258.035 184.826 257.033 185.657 256.175C186.452 255.423 187.175 255.137 188.15 255.387Z" fill="#FAF9FA"/>
<path d="M207.699 256.819C207.771 259.002 207.771 261.149 207.41 263.331C207.265 264.154 206.904 264.906 206.037 264.834C204.953 264.763 205.495 263.797 205.458 263.224C205.35 261.972 205.386 260.683 205.35 259.395C205.928 258.501 205.892 257.32 206.687 256.568C207.012 256.676 207.374 256.747 207.699 256.819Z" fill="#FAF9FA"/>
<path d="M160.905 144.637C160.869 144.923 160.797 145.21 160.725 145.496C159.279 144.566 158.882 142.955 158.159 141.596C157.364 140.057 156.822 138.375 156.172 136.765C155.991 136.3 155.594 135.691 156.244 135.369C157.003 134.976 157.328 135.763 157.509 136.192C158.557 138.518 159.496 140.916 160.472 143.277C160.544 143.778 160.219 144.351 160.905 144.637Z" fill="#E3E6EF"/>
<path d="M194.799 255.817C193.281 258.858 190.21 260.361 187.897 262.616C187.139 263.331 186.235 263.904 185.368 264.548C184.934 264.441 184.356 264.691 184.139 264.19C183.959 263.761 184.356 263.51 184.681 263.331C188.367 261.256 191.222 258.035 194.799 255.817Z" fill="#FAF9FA"/>
<path d="M161.303 131.361C161.086 133.365 161.881 135.154 162.495 137.015C162.82 137.981 163.434 138.912 163.182 140.021C161.845 137.158 160.002 134.546 159.279 131.433C159.134 130.825 159.134 130.109 159.713 129.787C160.146 129.536 160.508 130.073 160.869 130.359C160.869 130.789 160.761 131.29 161.411 131.397L161.303 131.361Z" fill="#E3E6EF"/>
<path d="M111.799 285.624C111.979 284.122 111.401 282.798 110.462 281.652C109.992 281.08 109.595 280.543 110.028 279.863C110.209 279.613 110.715 279.362 111.004 279.434C111.763 279.577 112.052 280.185 112.16 280.937C112.232 281.438 112.485 281.939 112.666 282.44L112.702 282.404C112.341 282.332 111.943 282.297 111.943 282.798C111.943 283.227 112.341 283.334 112.702 283.37L112.774 283.442C112.521 284.157 113.172 285.302 111.799 285.624Z" fill="#3D3873"/>
<path d="M196.136 261.685C195.811 263.653 193.751 264.262 192.884 265.8C192.197 265.8 191.511 265.8 190.102 265.8C192.884 264.763 194.004 262.58 196.136 261.685Z" fill="#FAF9FA"/>
<path d="M180.887 161.67C180.309 163.96 180.128 166.358 178.611 168.362C179.008 165.964 178.936 163.495 180.887 161.67Z" fill="#FAF9FA"/>
<path d="M23.2343 208.582C23.1982 209.942 24.6797 211.803 21.8974 212.125C21.8974 211.23 21.8974 210.336 21.8612 209.441C21.8251 208.403 22.5116 208.475 23.2343 208.582Z" fill="#E3E6EF"/>
<path d="M115.882 287.879C115.954 288.201 116.063 288.523 116.135 288.809C115.232 288.666 114.762 289.382 114.075 289.704L112.991 287.485C114.003 287.235 114.942 287.7 115.882 287.879Z" fill="#3D3873"/>
<path d="M171.167 130.073C173.191 131.254 171.962 133.007 171.962 134.546C171.42 133.079 171.095 131.612 171.167 130.073Z" fill="#E3E6EF"/>
<path d="M45.4207 184.035C44.8425 184.035 44.3728 183.892 44.2282 183.283C44.1198 182.747 44.5896 182.532 44.987 182.317C45.1316 182.317 45.2761 182.353 45.4207 182.389C45.4207 182.926 45.4207 183.498 45.4207 184.035Z" fill="#5C5C8E"/>
<path d="M112.666 282.404C113.353 282.368 113.497 282.798 113.533 283.334C113.28 283.37 113.027 283.37 112.774 283.406L112.702 283.334C112.702 283.012 112.702 282.69 112.666 282.404Z" fill="#3D3873"/>
<path d="M179.767 264.011C179.984 263.546 180.273 263.117 180.887 263.152C180.996 264.047 180.345 263.975 179.767 264.011Z" fill="#BA855A"/>
<path d="M160.941 144.673C160.219 144.351 160.58 143.778 160.544 143.277C160.941 143.671 161.05 144.136 160.941 144.673Z" fill="#BA855A"/>
<path d="M122.495 209.692C122.35 210.229 122.459 210.944 121.483 210.801C121.627 210.229 122.097 209.978 122.495 209.692Z" fill="#ECCA5F"/>
<path d="M161.339 131.361C160.688 131.254 160.797 130.753 160.797 130.324C161.194 130.574 161.447 130.896 161.339 131.361Z" fill="#BA855A"/>
<path d="M196.57 261.148C196.57 261.435 196.461 261.685 196.1 261.757C195.955 261.327 196.281 261.22 196.57 261.148Z" fill="#FAF9FA"/>
<path d="M299.985 179.562C299.949 179.634 299.949 179.705 299.913 179.741C299.877 179.777 299.805 179.741 299.769 179.741C299.841 179.669 299.913 179.634 299.985 179.562Z" fill="#9F4D3F"/>
<path d="M228.548 116.189C229.054 114.651 229.56 113.112 229.994 111.537C230.174 110.965 230.102 110.285 229.452 109.963C228.729 109.605 228.368 110.285 227.934 110.643C227.717 110.822 227.5 111.072 227.356 111.358C225.694 114.042 224.284 114.15 222.478 111.358C221.719 110.178 221.032 109.999 219.912 110.392C219.117 107.315 218.069 104.309 217.961 101.089C221.285 101.267 224.465 100.588 227.609 99.5141C228.62 99.192 229.307 98.4764 229.849 97.6533C230.102 97.2955 229.813 96.4367 229.632 96.6156C228.693 97.546 228.006 96.2936 227.103 96.5441C224.104 97.4029 220.96 97.7607 218.033 98.8342C217.889 96.3294 218.611 93.9319 218.864 91.4628C221.321 90.6398 223.923 90.4251 226.452 90.0314C231.728 89.2442 237.004 88.4928 242.315 87.8486C247.013 87.2761 251.746 86.9898 256.444 86.2742C259.082 85.8448 260.129 85.9521 259.949 89.1726C259.804 91.4628 261.539 93.574 263.743 94.7907C267.573 96.9019 270.247 99.6214 269.452 104.416C269.271 105.526 269.38 106.671 269.813 107.816C270.066 108.496 269.813 109.355 271.006 109.355C271.981 109.355 272.74 109.283 273.174 108.138C274.8 103.808 277.98 101.267 282.569 100.373C285.062 99.8719 287.555 101.017 288.603 103.379C289.976 106.528 290.554 109.82 290.301 113.183C289.904 118.157 286.399 120.698 280.292 121.127C276.426 121.414 272.523 120.304 268.729 121.736C268.296 121.915 267.898 122.058 267.248 122.344C268.332 122.881 268.657 123.453 268.079 124.527C266.525 127.568 267.031 130.574 268.585 133.508C269.091 134.439 269.597 135.405 270.175 136.3C271.403 138.16 272.054 139.985 270.897 142.204C268.91 145.997 267.356 150.112 263.02 151.973C260.888 152.867 259.262 154.585 256.697 154.907C252.035 155.444 249.578 153.333 250.265 148.788C250.373 148.144 250.482 147.5 250.626 146.713C251.674 147.393 251.819 148.43 252.252 149.253C252.758 150.219 253.517 150.327 254.384 150.184C255.649 150.005 255.071 149.074 255.071 148.394C255.071 148.001 255.251 147.536 254.601 147.464L254.637 147.5C254.818 146.641 254.565 145.89 254.131 145.138C253.192 143.349 252.288 141.524 251.349 139.699C252.505 138.876 253.987 138.482 255.179 136.765C250.987 137.337 247.988 139.771 244.447 140.594C244.086 140.665 243.508 140.307 243.472 141.059H243.508C240.653 140.808 237.799 140.88 234.908 140.701C229.054 140.307 225.513 137.087 222.658 132.578C230.68 132.578 238.774 133.723 246.688 131.433C247.772 131.111 248.711 130.682 249.398 129.823C250.193 128.821 251.204 128.177 252.397 127.819C254.095 127.318 254.962 125.922 255.866 124.67C256.588 123.704 255.938 122.773 255.071 122.129C254.456 121.664 253.734 121.414 253.047 121.056C249.903 119.446 246.651 119.517 243.363 120.483C241.593 119.911 240.075 120.841 238.593 121.414C237.22 121.986 235.847 122.165 234.438 122.237C231.041 121.807 228.873 119.624 228.548 116.189ZM244.953 98.2617V98.2975C246.579 98.2975 248.169 98.3332 249.795 98.2975C250.771 98.2975 251.963 98.3332 252.252 97.1524C252.577 95.9 251.566 95.0769 250.554 94.7549C247.88 93.8603 245.098 93.3593 242.243 93.9676C240.978 94.2539 239.714 94.5044 238.702 95.4348C238.088 96.0073 237.69 96.5798 237.943 97.4386C238.196 98.2617 238.955 98.2617 239.641 98.2975C241.412 98.2617 243.183 98.2617 244.953 98.2617ZM270.644 114.901C272.126 115.438 272.921 115.187 273.788 114.4C274.764 113.47 275.992 112.79 277.04 111.895C277.799 111.251 278.305 111.323 278.919 112.038C279.678 112.969 280.509 113.899 281.376 114.758C282.063 115.438 283.002 115.545 283.689 114.973C284.556 114.257 283.689 113.613 283.219 113.112C282.605 112.432 282.027 111.609 281.232 111.18C278.919 109.927 280.22 109.283 281.449 108.317C283.219 106.921 285.351 105.884 286.543 103.737C280.365 106.098 275.956 110.786 270.644 114.901ZM244.158 113.004C247.627 112.933 250.987 112.289 254.023 110.5C254.456 110.249 255.251 109.712 254.782 109.068C254.42 108.567 253.589 108.746 253.119 109.211C251.421 110.893 249.072 111.001 246.977 111.466C244.447 112.003 241.846 111.43 240.328 109.39C239.461 108.245 238.666 108.21 237.943 108.639C236.751 109.319 237.618 110.321 238.124 110.965C239.641 112.897 241.882 113.112 244.158 113.004Z" fill="#BA855A"/>
<path d="M253.119 122.702C253.95 124.777 252.902 126.495 250.156 127.139C249 127.425 248.349 127.855 247.699 128.857C245.676 132.006 237.256 131.719 235.305 128.57C234.04 126.531 234.763 124.598 237.076 123.847C239.244 123.131 241.376 122.308 243.399 121.235C246.76 120.984 250.12 120.662 253.119 122.702Z" fill="#AA958F"/>
<path d="M215.576 82.7316C216.335 82.66 217.093 82.5884 217.852 82.5169C218.105 83.3041 218.828 83.161 219.37 83.1968C222.188 83.2683 225.007 83.0894 227.789 83.3399C229.849 83.5188 230.824 82.9105 230.861 80.9066C231.475 80.8708 232.053 80.8708 232.667 80.835C232.27 83.3399 233.535 83.9124 235.775 83.6262C237.582 83.3757 239.388 83.2325 241.195 83.161C242.207 83.1252 242.496 82.7674 242.496 81.837C242.496 80.7993 242.279 80.2625 241.123 80.3699C240.472 80.4414 239.75 80.5846 239.171 80.012C242.785 78.9743 246.543 79.2248 250.228 78.7954C253.191 78.4733 256.263 79.1174 259.117 77.7577C260.129 77.2925 261.285 77.9008 262.189 78.2944C263.309 78.7238 261.9 79.3321 261.9 79.9047C260.021 80.1909 261.285 81.4434 261.141 82.2664C260.635 83.1968 260.346 84.4492 258.792 84.0914C254.384 82.9105 250.048 84.0914 245.676 84.485C240.436 84.6281 235.161 84.7712 229.921 84.9502C226.199 84.1271 222.405 84.7355 218.647 84.5923C217.346 84.5565 218.069 85.7016 217.888 86.3099C217.057 86.4531 216.262 86.5962 215.431 86.7393C215.612 85.4153 215.178 84.7355 213.697 84.9502C212.938 85.0575 212.179 84.9859 211.384 85.0217C211.204 84.7355 211.023 84.4492 210.878 84.1271C211.746 83.4472 212.757 83.6262 213.769 83.5546C214.456 83.5188 215.504 84.0556 215.576 82.7316ZM258.648 81.9801C258.033 81.3718 258.864 79.9047 257.202 79.9047C253.444 79.9047 249.686 79.9047 245.928 80.3341C244.555 80.4772 244.989 81.4792 244.881 82.2306C244.772 82.9821 245.17 83.161 245.82 83.0894C250.012 82.7316 254.167 82.3737 258.648 81.9801Z" fill="#9F4D3F"/>
<path d="M227.717 123.525C231.15 125.243 230.825 125.35 232.378 129.107C233.499 131.827 232.017 131.433 230.463 131.362C228.187 131.254 225.874 131.755 223.67 130.896C222.658 130.503 221.683 130.145 221.177 129.107C221.105 127.747 221.647 126.853 222.694 125.851C224.176 124.419 226.091 124.384 227.717 123.525Z" fill="#AA958F"/>
<path d="M220.274 112.396C221.502 113.899 222.767 115.187 225.043 114.865C226.272 114.686 226.452 115.545 225.91 116.476C225.26 117.549 224.79 118.623 225.188 119.911C225.405 120.626 224.935 120.77 224.284 120.877C222.333 121.199 220.779 122.237 219.406 123.632C219.226 119.839 219.334 116.082 220.274 112.396Z" fill="#BA855A"/>
<path d="M222.622 132.542C225.477 137.051 229.018 140.272 234.872 140.665C237.726 140.844 240.617 140.737 243.472 141.023C235.197 144.601 223.598 141.667 220.057 132.041C220.129 131.97 220.201 131.898 220.273 131.827C221.068 132.041 221.827 132.292 222.622 132.542Z" fill="#FAF9FA"/>
<path d="M215.142 113.076C212.324 110.965 209.794 109.068 207.229 107.172C206.868 106.886 206.578 106.385 206.217 106.277C205.35 106.098 204.699 105.812 204.989 104.81C205.241 103.951 205.82 103.379 206.795 103.343C207.807 103.307 208.819 103.236 209.686 103.844C212.721 106.063 215.359 108.496 215.142 113.076Z" fill="#BA855A"/>
<path d="M215.54 122.63V125.851C209.253 124.706 204.591 119.66 203.652 113.004C203.905 112.861 204.194 112.682 204.447 112.539C204.88 112.933 204.808 113.505 204.989 114.006C205.675 115.903 206.362 117.835 208.566 118.623C210.192 121.127 212.938 121.771 215.54 122.63Z" fill="#FAF9FA"/>
<path d="M217.997 98.8343C220.924 97.725 224.068 97.3671 227.067 96.5441C227.97 96.2936 228.657 97.5461 229.596 96.6157C229.777 96.4368 230.03 97.2956 229.813 97.6534C229.271 98.5122 228.584 99.1921 227.573 99.5142C224.429 100.552 221.249 101.268 217.925 101.089C217.455 101.089 217.022 101.053 216.552 101.053C216.552 100.623 216.552 100.23 216.552 99.8004C217.022 99.4784 217.527 99.1563 217.997 98.8343Z" fill="#2D2765"/>
<path d="M216.552 101.053C217.022 101.053 217.455 101.089 217.925 101.089C218.033 104.309 219.081 107.315 219.876 110.392C219.623 111.144 219.84 111.788 220.274 112.396C219.334 116.082 219.19 119.839 219.406 123.632C219.19 123.99 218.973 124.384 218.756 124.742C218.973 116.726 217.564 108.925 216.552 101.053Z" fill="#FAF9FA"/>
<path d="M215.54 122.63C212.938 121.771 210.192 121.127 208.566 118.587C210.047 118.408 211.131 117.978 211.131 116.118C211.131 115.187 211.782 114.328 212.938 115.295C213.697 115.939 214.492 115.581 215.468 115.33C214.889 117.871 215.612 120.233 215.54 122.63Z" fill="#BA855A"/>
<path d="M208.566 118.587C206.362 117.835 205.675 115.903 204.988 113.971C204.808 113.47 204.88 112.897 204.446 112.503C204.157 110.929 205.241 109.533 204.952 107.959C208.746 110.249 209.794 113.541 208.566 117.656C208.493 117.943 208.566 118.265 208.566 118.587Z" fill="#BA855A"/>
<path d="M239.208 80.0121C239.786 80.5846 240.508 80.4415 241.159 80.3699C242.315 80.2626 242.568 80.7993 242.532 81.837C242.532 82.8032 242.243 83.161 241.231 83.161C239.424 83.1968 237.581 83.3757 235.811 83.6262C233.571 83.9483 232.306 83.34 232.703 80.8351C234.763 79.7616 237.076 80.7635 239.208 80.0121Z" fill="#E3E6EF"/>
<path d="M264.754 79.8331C265.441 79.0101 265.983 77.865 267.32 79.2248C267.717 79.6184 268.44 79.0101 268.982 78.7596C269.741 78.4376 270.427 78.4018 271.114 79.0101C271.801 79.6184 271.259 80.0478 270.933 80.5488C270.825 80.7277 270.753 81.014 270.825 81.1929C271.945 84.4492 269.596 83.984 267.754 84.0198C266.85 84.0556 265.911 83.984 265.007 84.0198C263.67 84.1271 263.201 83.483 263.381 82.2664C264.14 82.2306 264.899 82.1233 265.658 82.2306C267.32 82.4453 268.079 81.8012 267.898 80.012C266.85 79.9763 265.802 79.9047 264.754 79.8331Z" fill="#9F4D3F"/>
<path d="M266.2 90.4251C266.236 91.0692 266.85 91.1766 267.32 91.3197C268.042 91.5344 268.946 91.3197 268.946 92.4648C268.946 93.0015 268.729 93.4309 268.259 93.5383C267.464 93.753 266.597 93.9319 265.874 93.2878C264.393 91.928 263.056 90.8187 264.61 88.4212C265.549 86.9899 265.73 86.31 267.356 87.1688C268.006 87.5266 268.729 87.7413 268.548 88.8148C268.368 89.8168 267.826 90.0315 266.958 90.0315C266.669 90.0315 266.344 89.9957 266.2 90.4251Z" fill="#E3E6EF"/>
<path d="M230.897 80.9066C230.825 82.9463 229.849 83.5546 227.826 83.3399C225.043 83.0894 222.189 83.2325 219.406 83.1968C218.828 83.1968 218.142 83.3399 217.889 82.5169C222.189 81.9801 226.561 81.4434 230.897 80.9066Z" fill="#E3E6EF"/>
<path d="M217.997 98.8342C217.491 99.1563 217.022 99.4783 216.516 99.7646C215.829 97.4744 215.685 95.1127 215.54 92.7868C215.721 92.5005 215.901 92.1785 216.082 91.8922C216.913 91.1407 217.889 91.3912 218.864 91.4628C218.611 93.9319 217.889 96.3294 217.997 98.8342Z" fill="#FAF9FA"/>
<path d="M227.717 123.525C226.091 124.384 224.176 124.455 222.658 125.851C221.611 126.853 221.032 127.747 221.141 129.107C219.985 126.996 222.514 121.628 224.754 121.807C225.802 121.879 226.742 122.917 227.717 123.525Z" fill="#FAF9FA"/>
<path d="M264.754 79.8331C265.802 79.9047 266.85 79.9405 267.898 80.012C268.079 81.8012 267.32 82.4453 265.658 82.2306C264.899 82.1591 264.14 82.2664 263.381 82.2664C262.659 82.2664 261.936 82.2306 261.177 82.2306C261.358 81.4076 260.057 80.1194 261.936 79.8689C262.875 79.8689 263.815 79.8689 264.754 79.8331Z" fill="#E3E6EF"/>
<path d="M217.961 86.2742C218.141 85.6659 217.419 84.4851 218.719 84.5566C222.477 84.6998 226.235 84.0914 229.993 84.9145C227.247 85.8448 224.356 85.2365 221.574 85.8806C220.382 86.1311 219.153 86.1669 217.961 86.2742Z" fill="#E3E6EF"/>
<path d="M228.548 116.189C228.873 119.589 231.041 121.771 234.474 122.201C232.234 123.203 230.03 122.917 228.404 121.306C226.814 119.803 227.717 117.907 228.548 116.189Z" fill="#FAF9FA"/>
<path d="M253.119 122.702C250.12 120.698 246.76 120.984 243.399 121.235C243.399 120.984 243.399 120.734 243.399 120.483C246.688 119.517 249.94 119.446 253.083 121.056C253.12 121.593 253.119 122.129 253.119 122.702Z" fill="#3D3873"/>
<path d="M251.277 139.663C252.18 141.488 253.083 143.313 254.059 145.102C254.456 145.854 254.745 146.605 254.565 147.464C253.047 145.424 251.457 143.456 249.976 141.345C248.783 139.663 250.446 139.914 251.277 139.663Z" fill="#FAF9FA"/>
<path d="M245.712 84.4493C250.084 84.0556 254.42 82.8748 258.829 84.0556C257.022 84.9502 255.107 84.3777 253.228 84.4493C250.735 84.5924 248.241 84.485 245.712 84.4493Z" fill="#E3E6EF"/>
<path d="M204.953 107.959C205.242 109.533 204.158 110.929 204.447 112.504C204.194 112.647 203.905 112.826 203.652 112.969C203.652 111.466 203.616 109.927 203.724 108.424C203.76 107.601 204.122 106.993 204.953 107.959Z" fill="#E3E6EF"/>
<path d="M211.457 85.0218C212.215 85.0218 213.01 85.0576 213.769 84.9502C215.251 84.7355 215.684 85.3796 215.504 86.7394C213.697 87.2046 212.288 86.811 211.457 85.0218Z" fill="#E3E6EF"/>
<path d="M216.082 91.8922C215.901 92.1784 215.721 92.5005 215.54 92.7868C213.986 92.6436 212.722 92.9299 212.758 94.898C211.782 94.576 211.493 93.7887 211.638 93.1088C211.746 92.5363 212.541 92.3932 213.155 92.3216C214.131 92.25 215.034 91.6417 216.082 91.8922Z" fill="#BA855A"/>
<path d="M215.576 82.7316C215.504 84.0198 214.492 83.5188 213.841 83.5546C212.866 83.6262 211.818 83.4473 210.951 84.1272C210.553 83.8409 210.192 83.2683 210.915 83.2326C212.468 83.161 213.95 82.338 215.576 82.7316Z" fill="#E3E6EF"/>
<path d="M254.528 147.428C255.179 147.5 254.998 147.965 254.998 148.359C254.456 148.216 254.564 147.786 254.528 147.428Z" fill="#FAF9FA"/>
<path d="M243.436 141.023C243.436 140.272 244.05 140.629 244.411 140.558C244.267 141.095 243.833 141.023 243.436 141.023Z" fill="#FAF9FA"/>
<path d="M220.057 132.006C220.02 131.827 219.876 131.54 219.912 131.505C220.201 131.361 220.201 131.576 220.237 131.791C220.201 131.862 220.129 131.934 220.057 132.006Z" fill="#FAF9FA"/>
<path d="M45.4927 196.022C46.0708 194.019 47.5885 195.271 48.7086 195.128C50.5876 197.132 52.6472 198.849 54.8514 200.46C55.3573 200.853 56.6581 201.175 55.9716 202.07C55.4295 202.786 54.2371 203.215 53.2615 202.607C52.1052 201.891 50.8767 201.247 49.9733 200.209C48.6002 198.706 47.2994 197.096 45.4927 196.022Z" fill="#2D2765"/>
<path d="M162.712 325.559C173.986 323.591 185.115 321.05 196.064 317.758C185.585 322.839 174.275 324.772 163.001 326.811L162.712 325.559Z" fill="#2D2765"/>
<path d="M116.857 290.67C118.447 292.388 118.447 294.785 119.568 296.753C119.929 297.397 120.218 298.149 120.688 298.829C121.663 300.188 122.169 301.62 120.507 303.194C118.194 299.473 116.207 295.715 115.087 291.565C115.665 291.242 116.279 290.956 116.857 290.67Z" fill="#3D3873"/>
<path d="M129.866 317.472C129.613 317.651 129.288 317.83 129.071 317.543C127.445 315.039 125.241 312.892 124.374 309.922C125.168 309.993 125.494 309.456 125.674 308.848C127.445 310.458 128.565 312.426 129.179 314.717C128.637 315.79 130.047 316.434 129.866 317.472Z" fill="#3D3873"/>
<path d="M145.368 326.525C145.006 326.525 144.826 326.31 144.681 325.988C144.031 322.768 145.946 320.657 147.933 318.581C148.294 318.581 148.692 318.581 149.053 318.581C147.825 321.265 146.596 323.877 145.368 326.525Z" fill="#5C5C8E"/>
<path d="M156.966 303.123C158.05 300.51 159.17 297.898 161.339 295.93C161.339 296.467 161.375 296.968 161.375 297.469C161.122 299.723 159.423 301.19 158.448 303.087C157.978 303.087 157.472 303.087 156.966 303.123Z" fill="#5C5C8E"/>
<path d="M155.449 307.703C155.413 307.918 155.413 308.168 155.304 308.347C154.076 309.993 152.992 311.746 152.088 313.607C151.98 313.571 151.871 313.536 151.763 313.571C150.968 312.963 150.679 312.247 151.329 311.317C151.871 310.53 152.341 309.707 152.847 308.92C153.245 308.311 153.534 307.417 154.582 308.383C154.871 308.633 154.979 307.953 155.015 307.631C155.16 307.596 155.34 307.631 155.449 307.703Z" fill="#3D3873"/>
<path d="M125.674 308.812C125.457 309.456 125.132 309.957 124.373 309.886C123.109 308.955 123.145 307.13 121.88 306.164C121.555 305.914 121.772 305.449 122.097 305.198C122.422 304.948 122.928 304.84 123.145 305.198C123.867 306.486 125.746 306.987 125.674 308.812Z" fill="#AA958F"/>
<path d="M155.449 307.703C155.304 307.631 155.16 307.596 155.015 307.596C153.714 306.272 154.907 305.341 155.629 304.447C156.027 303.981 156.786 303.802 156.966 303.087C157.472 303.087 157.978 303.087 158.448 303.051C157.581 304.697 157.075 306.558 155.449 307.703Z" fill="#2D2765"/>
<path d="M149.053 318.617C148.692 318.617 148.294 318.617 147.933 318.617C147.138 316.577 149.089 315.754 149.848 314.394C149.957 316.005 150.932 315.003 151.583 314.931C150.751 316.148 149.884 317.364 149.053 318.617Z" fill="#3D3873"/>
<path d="M161.411 297.469C161.411 296.932 161.375 296.431 161.375 295.93C161.411 295.787 161.375 295.608 161.447 295.501C161.989 294.642 162.062 293.425 163.254 293.067C163.362 293.032 163.688 293.246 163.76 293.425C164.157 294.678 163.254 295.501 162.712 296.431C162.459 296.86 162.206 297.576 161.411 297.469Z" fill="#AA958F"/>
<path d="M129.866 317.472C130.047 316.434 128.674 315.79 129.18 314.717C130.264 316.005 131.817 317.042 131.781 318.975C131.781 319.404 131.853 320.048 131.239 320.013C130.697 319.977 130.336 319.619 130.661 318.903C130.986 318.152 130.842 317.543 129.866 317.472Z" fill="#5C5C8E"/>
<path d="M116.858 290.67C116.279 290.956 115.665 291.278 115.087 291.565C114.364 291.171 114.075 290.527 114.111 289.74C114.798 289.418 115.268 288.666 116.171 288.845C116.388 289.453 116.605 290.062 116.858 290.67Z" fill="#2B2565"/>
<path d="M151.583 314.931C150.932 315.003 149.957 316.005 149.848 314.394C150.318 314.86 151.294 313.822 151.583 314.931Z" fill="#5C5C8E"/>
<path d="M151.763 313.571C151.872 313.536 151.98 313.571 152.088 313.607C151.98 313.715 151.908 313.822 151.799 313.929C151.799 313.822 151.799 313.679 151.763 313.571Z" fill="#5C5C8E"/>
<path d="M237.401 190.548C237.726 192.337 236.642 193.017 235.341 192.158C231.475 189.689 228.693 186.146 226.055 182.46C225.802 182.103 225.91 181.709 226.344 181.53C226.994 181.244 227.536 181.566 228.006 182.031C229.885 183.963 231.8 185.824 233.643 187.792C234.727 188.973 235.811 190.118 237.401 190.548Z" fill="#2D2765"/>
<path d="M259.515 159.273C256.444 160.99 253.156 161.133 249.723 160.346C249.072 160.203 248.278 159.774 248.675 158.915C249.036 158.163 249.795 158.664 250.301 158.915C252.505 160.096 254.746 159.63 256.986 159.094C257.781 158.915 258.576 158.772 259.371 158.629C259.443 158.843 259.479 159.058 259.515 159.273Z" fill="#2D2765"/>
<path d="M304.032 177.308C303.49 178.023 303.273 179.204 302.117 179.49C301.756 179.598 301.286 179.168 301.467 178.775C301.936 177.844 302.478 176.914 303.454 176.449C303.815 176.27 304.105 176.663 304.032 177.308Z" fill="#2D2765"/>
<path d="M83.9755 217.278C85.6738 216.598 87.4444 216.24 89.2872 216.276C97.5619 216.347 105.873 216.347 114.147 216.383C114.942 216.848 116.135 216.956 115.846 218.351C115.629 219.425 115.304 220.284 113.931 220.57C113.1 220.749 112.305 220.82 111.474 220.892C106.487 221.429 101.537 220.999 96.5863 220.856C93.1174 220.749 89.6847 221.429 86.252 221.357C82.8915 221.286 82.2772 220.176 83.9755 217.278ZM105.511 219.962C107.21 219.353 109.233 219.532 111.221 219.461C111.871 219.425 112.991 219.997 113.027 218.781C113.027 217.85 112.016 217.779 111.293 217.707C110.679 217.636 110.064 217.671 109.45 217.671C102.043 217.707 94.6712 217.779 87.2637 217.815C86.4326 217.815 85.9268 218.065 85.8184 218.888C85.6738 219.926 86.4326 219.997 87.1553 219.926C88.8175 219.818 90.5158 219.496 92.178 219.496C96.514 219.568 100.922 219.103 105.511 219.962Z" fill="#2B2565"/>
<path d="M112.702 282.368C112.702 282.69 112.702 283.012 112.702 283.299C112.341 283.263 111.943 283.155 111.943 282.726C111.943 282.261 112.341 282.297 112.702 282.368Z" fill="#B7977D"/>
<path d="M244.953 98.2617C243.182 98.2617 241.412 98.2974 239.641 98.2617C238.955 98.2617 238.196 98.2617 237.943 97.4029C237.69 96.5798 238.088 95.9715 238.702 95.399C239.714 94.4686 240.978 94.2181 242.243 93.9318C245.098 93.2877 247.88 93.8245 250.554 94.7191C251.566 95.0411 252.541 95.8284 252.252 97.1166C251.963 98.3332 250.771 98.2617 249.795 98.2617C248.169 98.2974 246.579 98.2617 244.953 98.2617C244.953 98.2974 244.953 98.2617 244.953 98.2617ZM248.566 96.3293C246.435 95.0411 244.447 95.6137 242.496 95.6494C242.135 95.6494 241.773 95.9357 241.809 96.4009C241.846 96.7587 242.171 96.9019 242.46 96.9019C244.339 96.7945 246.254 97.1881 248.566 96.3293Z" fill="#2B2565"/>
<path d="M270.681 114.901C275.956 110.786 280.365 106.098 286.544 103.772C285.387 105.919 283.255 106.957 281.449 108.353C280.22 109.319 278.919 109.999 281.232 111.215C282.027 111.645 282.605 112.432 283.219 113.148C283.689 113.684 284.556 114.293 283.689 115.008C283.002 115.581 282.063 115.474 281.376 114.794C280.509 113.935 279.714 113.005 278.919 112.074C278.305 111.323 277.799 111.287 277.04 111.931C275.992 112.826 274.8 113.505 273.788 114.436C272.957 115.187 272.126 115.438 270.681 114.901Z" fill="#2B2565"/>
<path d="M244.158 113.005C241.846 113.112 239.641 112.861 238.124 110.965C237.618 110.357 236.751 109.319 237.943 108.639C238.666 108.245 239.461 108.245 240.328 109.39C241.846 111.43 244.447 112.038 246.977 111.466C249.109 111.001 251.421 110.893 253.119 109.211C253.589 108.746 254.384 108.567 254.782 109.068C255.251 109.712 254.456 110.213 254.023 110.5C250.988 112.289 247.663 112.933 244.158 113.005Z" fill="#2D2765"/>
<path d="M258.648 81.9801C254.167 82.3737 250.012 82.7316 245.82 83.0894C245.17 83.161 244.736 82.982 244.881 82.2306C244.989 81.4791 244.592 80.513 245.929 80.3341C249.687 79.9047 253.445 79.8689 257.203 79.9047C258.865 79.9404 258.034 81.4076 258.648 81.9801Z" fill="#E3E6EF"/>
<path d="M105.512 219.962C100.923 219.103 96.5143 219.568 92.1782 219.496C90.5161 219.461 88.8539 219.783 87.1556 219.926C86.4329 219.962 85.6741 219.926 85.8186 218.888C85.927 218.029 86.4691 217.815 87.264 217.815C94.6715 217.779 102.043 217.743 109.45 217.671C110.065 217.671 110.679 217.636 111.293 217.707C112.052 217.779 113.064 217.886 113.028 218.781C112.991 219.997 111.871 219.461 111.221 219.461C109.234 219.532 107.21 219.353 105.512 219.962Z" fill="#869E44"/>
<path d="M248.567 96.3294C246.254 97.1882 244.339 96.7946 242.46 96.8662C242.135 96.8662 241.809 96.723 241.809 96.3652C241.773 95.9358 242.171 95.6495 242.496 95.6137C244.447 95.6137 246.435 95.0412 248.567 96.3294Z" fill="#AA958F"/>
<path d="M99.7664 160.668C99.5857 160.954 99.1883 160.954 99.0437 160.668C92.9009 150.148 86.7943 139.627 80.6515 129.071C79.0254 126.316 77.3994 123.561 75.8456 120.77C73.244 116.118 71.9793 110.822 72.4129 105.49C73.3163 94.4328 80.8683 85.2007 91.6724 81.9086C94.9606 80.9066 98.321 80.6561 101.754 80.9066C107.174 81.336 112.016 83.2683 116.244 86.5962C121.519 90.7471 124.88 96.1504 126.072 102.699C127.192 108.925 126.361 114.901 123.181 120.483C120.76 124.67 118.339 128.821 115.918 133.008C110.607 142.132 105.295 151.257 99.9832 160.382C99.9109 160.489 99.8387 160.561 99.7664 160.668ZM99.4051 97.6533C93.9127 97.5818 89.2514 102.055 89.2514 107.709C89.2514 113.148 93.8404 117.692 99.4051 117.692C104.97 117.692 109.559 113.183 109.523 107.673C109.486 102.019 105.114 97.6533 99.4051 97.6533Z" fill="#9F4D3F" stroke="#2B2565" stroke-width="8" stroke-miterlimit="10"/>
</svg>
