<svg width="332" height="332" viewBox="0 0 332 332" fill="none" xmlns="http://www.w3.org/2000/svg">
<g clip-path="url(#clip0_1_33885)">
<path d="M331.955 146.542V181.337C330.837 181.524 331.106 182.403 331.022 183.126C330.818 184.93 330.677 186.745 330.351 188.53C328.938 196.286 327.403 204.015 325.019 211.561C321.991 221.154 318.197 230.417 313.535 239.352C312.095 242.11 310.303 244.697 309.249 247.653C306.676 248.406 304.341 246.864 301.859 246.882C294.199 246.935 286.536 247.047 278.876 247.163C273.748 247.242 273.832 247.242 272.593 242.077C271.456 237.327 271.558 232.364 269.902 227.704C269.545 226.704 270.387 226.454 271.334 226.15C274.275 225.211 277.379 224.848 280.233 223.613C281.704 222.976 281.908 222.205 281.033 220.832C279.581 218.556 278.171 216.258 277.338 213.638C276.606 211.336 275.416 209.154 273.688 207.455C271.679 205.475 270.171 203.169 268.571 200.904C265.221 196.162 264.615 190.469 262.928 185.154C262.746 184.582 263.057 184.159 263.447 183.743C264.482 182.639 265.448 181.471 266.491 180.375C268.939 177.799 268.727 175.606 265.831 173.581C263.349 171.845 260.791 170.198 258.456 168.281C256.011 166.275 254.287 163.872 255.435 160.372C256.065 158.452 256.701 156.547 257.524 154.702C260.218 148.65 262.701 142.59 259.767 135.853C259.199 134.543 259.972 132.978 259.347 131.582C256.19 124.549 256.167 117.026 256.481 109.622C256.849 100.984 257.869 92.3638 257.869 83.7027C257.869 77.4969 258.547 71.2687 257.816 65.0929C257.251 60.3095 257.004 55.5523 253.328 51.4201C250.497 48.2349 247.192 46.8986 243.546 46.8724C235.989 46.8163 228.455 46.0677 220.898 46.2848C220.666 46.2923 220.431 46.2998 220.204 46.2698C213.193 45.3491 206.151 44.8999 199.079 44.9112C195.99 44.9149 192.897 44.9411 189.809 44.9037C185.204 44.8475 180.743 45.7047 176.275 46.7152C171.018 47.9055 167.524 51.1955 164.761 55.4924C164.511 55.8854 164.465 56.3196 164.761 56.7687C165.276 57.551 164.901 58.3108 164.783 59.138C164.461 61.3725 163.87 63.7605 164.348 65.8752C165.288 70.0448 163.684 73.8102 162.779 77.5568C162.021 80.6859 160.804 83.8337 159.69 86.9403C157.996 91.6676 156.95 96.6794 154.793 101.178C149.862 111.479 147.054 122.116 147.422 133.558C147.547 137.485 148.312 141.351 149.976 144.75C151.238 147.332 153.777 149.417 156.631 150.731C158.837 151.745 161.016 152.819 163.26 153.748C164.954 154.447 165.682 155.23 164.314 156.925C163.499 157.936 162.6 159.381 163.362 160.462C164.401 161.926 163.484 162.113 162.597 162.697C160.584 164.022 158.632 165.497 157.704 167.78C157.147 169.142 156.252 169.767 154.918 169.872C152.064 170.093 149.499 171.234 146.868 172.193C144.958 172.889 144.113 174.292 144.219 176.19C144.371 178.833 144.765 181.464 144.913 184.11C145.057 186.637 146.129 189.346 145.08 191.66C142.756 196.776 139.918 201.657 137.363 206.672C136.965 207.455 136.761 207.631 136.116 206.994C134.305 205.198 131.985 203.704 132.383 200.642C132.057 198.161 132.137 195.612 131.117 193.25C130.905 189.489 129.518 185.854 129.855 182.04C129.973 180.689 129.423 180.307 128.146 180.416C123.996 180.768 120.57 179.05 117.409 176.635C116.139 175.666 114.908 174.648 113.627 173.697C112.596 172.93 110.826 173.338 110.417 174.39C109.321 177.204 112.528 183.328 115.495 184.076C118.123 184.74 119.534 186.373 119.729 188.976C119.679 189.331 119.63 189.687 119.584 190.046C118.296 188.86 116.469 187.887 115.87 186.423C115.234 184.866 114.404 185.061 113.301 185.001C108.063 184.716 102.871 185.626 97.6331 185.525C94.7982 185.472 91.9481 185.727 89.1171 185.978C88.2643 186.053 87.0894 186.127 86.7483 187.082C86.4906 187.797 87.1955 188.433 87.7186 189.024C89.9433 191.532 92.4674 193.804 94.2145 196.855C92.2741 196.885 91.9178 197.712 92.2134 199.493C92.6152 201.9 94.332 203.012 96.0072 204.281C95.9617 205.523 97.2048 205.43 97.8226 205.984C97.8226 210.505 99.4219 211.95 105.02 211.867C103.174 212.481 102.564 213.406 103.011 214.712C103.451 215.996 104.303 216.947 105.785 217.044C107.578 217.164 108.328 217.789 107.411 219.627C106.949 220.555 106.676 221.629 107.536 222.58C107.802 224.346 107.779 226.046 107.343 227.842C107.055 229.036 106.998 230.481 107.453 231.784C106.107 235.983 105.107 240.276 105.349 244.685C105.456 246.594 104.8 246.785 103.197 246.845C98.6526 247.017 94.0857 246.665 89.5756 246.957C82.1322 247.436 74.7001 246.969 67.2718 247.058C61.4655 247.129 55.6063 246.725 49.7849 246.894C41.087 247.144 32.2905 245.741 23.71 248.23C21.6142 245.382 20.0679 242.215 18.442 239.112C13.3596 229.418 9.28166 219.301 6.32549 208.783C3.73695 199.557 1.69796 190.207 0.966497 180.625C0.913438 179.937 1.00819 179.199 0.041748 179.053V148.837C0.849008 148.725 0.917228 148.144 0.966497 147.493C1.58426 139.375 3.13814 131.417 5.14303 123.527C7.32604 114.941 10.3125 106.639 13.7349 98.4722C14.2048 97.3494 14.7695 96.6195 16.2476 96.6045C22.1448 96.5484 28.0419 96.3013 33.9391 96.1965C39.1768 96.1067 44.4107 96.2265 49.6409 96.612C53.7833 96.9189 57.956 96.8703 62.1023 96.9601C71.418 97.1659 80.7109 97.9183 90.0266 97.9931C100.142 98.0755 110.261 98.0118 120.377 98.0118C121.612 98.0118 122.848 98.0118 124.083 98.0006C124.644 97.9931 125.322 97.8996 125.376 97.2932C125.444 96.496 124.667 96.6532 124.174 96.6532C118.288 96.6719 113.964 93.7487 110.356 89.5005C106.676 85.1699 101.969 83.1076 96.2725 82.8792C90.2768 82.636 84.5539 84.3203 78.6947 85.0165C73.5138 85.6303 68.8218 84.8892 65.5284 80.3715C58.6799 70.9805 50.4178 63.0343 40.6322 56.5142C42.1178 54.8336 43.5087 53.1194 45.0512 51.5436C50.2511 46.2362 55.7086 41.2094 61.53 36.5495C76.7807 24.3513 93.6688 15.0989 112.221 8.81078C123.977 4.82458 136.014 2.05482 148.415 0.958151C149.07 0.902007 149.662 0.845864 149.771 0.0411377H182.221C183.074 1.77411 184.666 0.774748 185.901 0.954408C196.953 2.58632 207.864 4.80961 218.495 8.26431C219.533 8.60118 220.61 8.91932 221.493 9.72779C212.484 15.5667 207.629 17.0864 197.15 18.4375C190.415 19.3059 183.752 18.5985 177.097 18.1943C172.974 17.9435 168.987 18.0221 164.969 18.7557C160.031 19.6577 155.642 21.8024 151.496 24.5385C148.309 26.642 144.636 27.7462 140.945 26.8366C137.852 26.0731 134.82 26.0506 131.777 26.2153C129.651 26.3313 127.358 26.6008 125.292 28.0755C126.471 28.6819 127.343 28.8878 128.298 28.8878C133.873 28.8878 139.41 29.3968 145.026 29.0038C153.308 28.4199 161.634 28.3637 169.942 28.0306C178.101 27.7013 186.291 27.6039 194.451 27.6152C214.656 27.6376 234.875 26.7468 255.072 28.3375C258.077 28.5734 260.62 28.9738 263.163 30.7929C275.105 39.3305 285.672 49.2979 294.999 60.5079C305.44 73.0616 313.619 87.004 319.857 102.043C325.197 114.915 328.82 128.232 330.696 142.036C330.893 143.484 330.079 145.461 331.951 146.542H331.955ZM158.06 165.145C155.691 165.923 153.743 165.826 151.81 165.747C149.574 165.657 149.04 164.778 149.775 162.716C150.06 161.922 150.476 161.222 151.056 160.608C152.47 159.107 152.58 157.195 151.951 155.518C151.348 153.92 149.48 153.467 147.877 153.452C144.587 153.422 141.259 153.025 138.011 153.879C136.181 154.361 134.077 154.874 132.91 153.261C131.565 151.401 132.792 149.335 133.804 147.531C134.21 146.808 134.767 146.168 135.29 145.517C136.196 144.387 137.124 143.275 138.034 142.171C136.2 141.475 135.066 142.388 133.96 143.357C130.988 145.97 128.908 149.226 126.998 152.625C125.459 155.361 126.429 158.041 129.491 158.763C130.731 159.055 132.031 159.25 133.312 159.429C136.078 159.815 138.947 159.676 141.6 160.751C143.298 161.439 144.31 162.379 143.45 164.407C142.813 165.916 143.526 166.735 145.129 167.181C147.558 167.855 150.052 167.825 152.417 167.48C154.164 167.226 156.457 167.705 158.053 165.145H158.06Z" fill="#E3E6EF"/>
<path d="M23.7139 248.226C32.2944 245.737 41.0909 247.141 49.7888 246.89C55.6102 246.722 61.4694 247.126 67.2756 247.055C74.7077 246.965 82.1361 247.433 89.5795 246.954C94.0896 246.665 98.6565 247.013 103.201 246.841C104.804 246.781 105.459 246.591 105.353 244.682C105.111 240.269 106.111 235.979 107.457 231.78C108.143 231.537 108.488 230.631 109.39 230.803C108.81 235.096 108.15 239.385 107.703 243.694C107.578 244.891 106.252 247.189 109.428 246.74C115.503 246.751 121.571 247.174 127.657 246.882C129.548 246.793 130.03 246.224 129.859 244.517C129.23 238.24 127.267 232.293 125.433 226.304C125.069 225.114 124.284 225.308 123.473 225.293C121.396 225.26 118.77 226.012 117.367 225.039C115.31 223.609 113.377 224.129 111.379 223.864C110.868 223.796 110.383 223.549 109.886 223.384C109.181 222.902 108.416 222.591 107.544 222.576C106.684 221.629 106.956 220.551 107.419 219.623C108.336 217.781 107.586 217.16 105.793 217.04C104.311 216.943 103.458 215.992 103.019 214.708C102.572 213.398 103.182 212.474 105.027 211.864C99.4296 211.946 97.8265 210.501 97.8303 205.98C99.4978 206.036 99.8731 207.507 100.51 208.555C101.218 209.719 102.033 210.34 103.413 210.112C106.286 210.176 109.151 211.085 112.039 210.191C112.516 210.045 113.225 210.258 113.221 209.483C113.221 208.866 112.664 208.57 112.141 208.454C108.62 207.661 105.088 206.904 101.56 206.133C99.7101 205.516 97.8606 204.895 96.0111 204.277C94.3321 203.008 92.6153 201.896 92.2173 199.49C91.9217 197.704 92.278 196.881 94.2184 196.851C92.4713 193.8 89.9472 191.529 87.7225 189.021C87.1994 188.429 86.4945 187.797 86.7522 187.078C87.0933 186.124 88.2682 186.049 89.1209 185.974C91.952 185.72 94.8021 185.465 97.637 185.521C102.875 185.622 108.067 184.713 113.305 184.997C114.411 185.057 115.238 184.866 115.874 186.419C116.473 187.883 118.3 188.852 119.588 190.043C121.468 192.883 124.049 195.081 126.524 197.375C129.059 200.253 129.181 200.351 130.401 200.586C131.064 200.605 131.728 200.624 132.391 200.643C131.993 203.701 134.312 205.198 136.124 206.994C136.768 207.634 136.973 207.455 137.371 206.672C139.925 201.657 142.768 196.772 145.087 191.66C146.137 189.346 145.064 186.637 144.92 184.11C144.773 181.468 144.378 178.836 144.227 176.19C144.121 174.296 144.966 172.889 146.876 172.193C149.506 171.234 152.068 170.093 154.926 169.872C156.26 169.767 157.154 169.146 157.712 167.78C158.64 165.5 160.588 164.022 162.604 162.697C163.487 162.117 164.408 161.926 163.37 160.462C162.604 159.384 163.506 157.936 164.321 156.925C165.686 155.23 164.962 154.448 163.268 153.748C161.024 152.819 158.845 151.745 156.639 150.731C153.789 149.417 151.25 147.329 149.984 144.75C148.32 141.351 147.554 137.488 147.429 133.558C147.062 122.116 149.87 111.479 154.801 101.178C156.957 96.6757 158.003 91.6677 159.697 86.9404C160.812 83.8338 162.028 80.686 162.786 77.5569C163.692 73.8102 165.295 70.0449 164.355 65.8753C163.878 63.7605 164.469 61.3725 164.791 59.138C164.909 58.3108 165.284 57.5473 164.768 56.7688C164.473 56.3234 164.518 55.8854 164.768 55.4924C167.528 51.1956 171.026 47.9055 176.282 46.7153C180.751 45.7047 185.211 44.8476 189.816 44.9037C192.905 44.9412 195.998 44.915 199.086 44.9112C206.159 44.9 213.2 45.3491 220.212 46.2699C220.439 46.2998 220.674 46.2924 220.905 46.2849C228.462 46.064 235.997 46.8164 243.554 46.8725C247.2 46.8987 250.501 48.2349 253.336 51.4201C257.012 55.5523 257.258 60.3096 257.823 65.093C258.555 71.2725 257.876 77.497 257.876 83.7028C257.876 92.3639 256.857 100.984 256.489 109.622C256.175 117.026 256.197 124.549 259.354 131.582C259.98 132.974 259.203 134.543 259.775 135.853C262.708 142.59 260.226 148.65 257.531 154.702C256.709 156.551 256.072 158.452 255.443 160.373C254.295 163.872 256.019 166.275 258.464 168.281C260.798 170.198 263.357 171.845 265.839 173.581C268.734 175.606 268.947 177.803 266.498 180.375C265.456 181.471 264.49 182.639 263.455 183.743C263.061 184.163 262.754 184.582 262.936 185.154C264.622 190.473 265.229 196.162 268.579 200.905C270.178 203.169 271.683 205.475 273.695 207.455C275.424 209.158 276.614 211.336 277.345 213.638C278.179 216.258 279.589 218.556 281.04 220.832C281.916 222.205 281.711 222.977 280.241 223.613C277.387 224.848 274.283 225.215 271.342 226.15C270.391 226.454 269.553 226.704 269.909 227.704C271.566 232.364 271.463 237.327 272.6 242.077C273.84 247.238 273.756 247.238 278.884 247.163C286.543 247.047 294.207 246.939 301.866 246.882C304.349 246.864 306.683 248.41 309.257 247.654C309.799 249.383 307.468 252.291 305.091 252.852C304.25 253.335 303.322 253.212 302.416 253.212C293.775 253.215 285.137 253.242 276.496 253.186C275.124 253.178 274.795 253.403 274.874 254.892C275.086 258.777 274.893 262.663 274.616 266.566C274.268 271.515 270.042 272.81 265.502 270.785C261.674 269.074 257.884 267.266 254.086 264.893C254.086 267.218 254.17 269.194 254.064 271.155C253.957 273.038 254.465 274.614 255.405 276.287C258.066 281.033 260.488 285.906 262.947 290.761C263.69 292.228 263.713 293.998 264.808 295.338C264.808 296.63 263.861 296.712 262.906 296.79C261.878 296.91 261.469 296.289 261.136 295.454C259.726 291.951 258.301 288.451 256.823 284.974C256.076 283.219 255.515 281.366 254.082 279.33C254.082 284.177 254.082 288.485 254.082 292.793C254.082 296.39 254.083 299.983 254.079 303.58C253.253 305.646 251.737 306.619 249.482 306.417C247.564 306.874 246.196 305.83 244.892 304.71C241.492 301.787 238.115 298.838 234.742 295.888C228.705 290.611 223.539 284.469 217.676 279.027C213.67 275.31 209.516 271.687 204.017 270.152C204.021 269.95 204.021 269.755 203.733 269.946C203.828 270.014 203.922 270.081 204.017 270.148C204.536 271.238 205.147 272.293 205.564 273.42C207.898 279.727 212.541 284.386 217.202 288.938C221.235 292.875 225.984 296.12 229.88 300.174C233.639 304.082 237.797 307.039 242.982 308.577C244.267 308.959 243.592 309.464 243.292 310.029C243.031 310.037 242.769 310.048 242.508 310.055C239.919 310.254 237.517 309.348 235.061 308.809C229.387 307.566 223.823 305.874 218.078 304.898C210.832 303.666 203.547 302.506 196.82 299.298C195.975 298.894 195.062 298.318 193.879 298.744C194.69 300.649 196.483 301.536 197.893 302.749C204.779 308.682 213.033 311.201 221.963 311.766C225.73 312.005 229.527 311.766 233.314 311.8C234.007 311.807 235.224 311.395 235.296 312.264C235.394 313.439 234.125 313.117 233.34 313.177C229.061 313.506 224.737 313.544 220.507 314.195C211.002 315.662 201.451 316.265 191.851 316.377C190.423 316.392 189.017 316.392 187.713 317.129C187.827 317.317 187.876 317.526 187.982 317.556C193.663 319.233 198.628 323.182 204.957 322.792C206.337 322.706 206.416 323.249 205.662 324.2C204.98 324.2 204.298 324.2 203.612 324.204C197.002 324.462 191.567 320.981 185.765 318.686C185.007 318.387 184.131 317.784 184.313 316.837C184.469 316.04 185.484 315.962 186.159 315.647C186.489 315.494 186.909 315.509 187.288 315.468C192.947 314.843 198.62 314.487 204.317 314.551C207.167 314.584 209.983 314.244 212.772 313.708C213.86 313.503 215.141 313.974 216.441 312.589C214.947 312.945 214.045 312.417 213.071 312.215C202.513 310.033 194.148 304.482 187.724 295.982C187.379 295.525 186.663 295.181 187.175 294.451C187.588 293.863 188.259 293.976 188.869 293.946C189.524 293.916 190.013 294.313 190.578 294.533C196.502 296.873 202.27 299.691 208.482 301.196C214.584 302.671 220.788 303.745 226.965 304.901C228.443 305.178 229.88 306.002 231.816 305.627C228.36 302.24 225.112 299.156 221.675 296.244C217.415 292.636 213.159 289.035 209.672 284.6C206.519 280.587 203.957 276.212 201.599 271.773C200.394 269.501 199.28 269.763 197.487 270.205C191.302 271.728 185.295 271.799 179.849 267.843C178.147 266.129 177.268 267.105 176.82 268.842C176.392 270.515 176.339 272.312 176.297 273.985C176.135 280.722 173.436 286.456 170.033 292.086C167.334 296.547 165.902 301.503 165.557 306.72C165.447 307.536 165.216 308.356 165.246 309.168C165.481 315.864 165.765 322.557 166.034 329.253C165.909 330.155 166.22 331.139 165.534 331.94H163.215C163.491 330.447 160.986 331.723 161.357 330.114C161.642 328.871 161.05 328.583 159.864 328.167C158.792 327.793 157.799 328.04 156.81 327.778C157.048 323.994 157.045 320.195 157.124 316.411C157.321 306.87 157.162 297.318 157.158 287.774C157.158 277.907 157.181 268.041 157.185 258.171C157.185 256.577 157.041 254.971 157.575 253.193C153.228 253.193 148.991 253.275 144.761 253.152C143.105 253.103 142.154 253.549 141.365 255.057C140.433 256.839 139.107 258.422 137.936 260.08C134.396 265.095 131.023 270.242 126.702 274.674C126.884 273.33 125.179 274.303 125.042 273.352C130.591 267.263 134.885 260.301 139.77 253.193C138.371 253.193 137.469 253.249 136.575 253.182C134.256 253.002 132.046 252.871 132.436 256.266C132.501 256.835 132.27 257.449 132.126 258.029C131.891 258.953 131.193 259.155 130.356 258.995C129.469 258.822 129.332 258.407 129.689 257.524C129.988 256.782 129.848 255.873 129.954 255.042C130.121 253.702 129.666 253.148 128.188 253.171C121.938 253.26 115.689 253.245 109.439 253.268C108.01 252.95 107.411 253.249 107.51 254.948C107.881 261.514 111.292 266.155 116.606 269.725C118.038 270.687 119.528 271.53 120.604 273.038C121.775 274.677 123.322 276.107 125.664 275.991C126.263 276.216 127.35 275.879 127.35 276.781C127.35 277.75 126.323 277.406 125.694 277.455C122.662 277.679 120.039 276.65 118.235 274.318C117.261 273.057 116.121 272.095 114.847 271.342C111.652 269.448 109.556 266.611 107.563 263.654C105.729 260.933 105.334 257.786 104.902 254.668C104.773 253.728 104.709 253.163 103.489 253.178C97.7052 253.242 91.9179 253.208 86.2898 253.208C86.2898 257.262 86.2785 261.18 86.2898 265.099C86.3164 272.563 86.3543 280.026 86.3884 287.489C86.3619 289.941 86.3315 292.396 86.305 294.848C86.3808 297.648 86.1951 300.44 86.4945 303.262C86.6651 304.879 87.514 306.402 87.1729 308.072C85.8654 307.731 84.0538 309.232 83.1631 306.698C82.8637 308.435 81.8594 308.88 80.5405 308.569C79.0548 308.218 79.9909 306.986 79.809 306.17C79.6498 305.448 79.7257 304.677 79.6953 303.928C79.6953 297.82 79.6991 291.708 79.7029 285.599C79.8507 284.933 80.2297 284.222 80.1084 283.612C79.2102 279.169 80.4078 274.737 80.135 270.321C79.8052 264.953 80.1653 259.601 80.1994 254.245C80.207 252.935 79.3997 253.223 78.7024 253.219C73.5404 253.204 68.3747 253.201 63.2128 253.212C51.2707 253.238 39.3285 253.272 27.3864 253.305C25.4876 252.021 23.0166 253.511 21.2808 252.16C22.0994 250.839 22.9067 249.529 23.7177 248.219L23.7139 248.226ZM105.368 214.476C106.198 215.637 107.237 216.247 108.707 215.678C111.478 215.554 114.309 216.101 117.409 214.866C114.434 214.154 111.766 213.934 109.113 213.9C107.889 213.885 106.43 213.174 105.372 214.476H105.368ZM96.409 197.892C94.7604 197.667 94.2336 198.273 94.9992 199.789C95.7231 201.226 96.7122 202.398 98.3457 202.873C101.34 204.756 104.819 204.76 108.139 205.43C106.433 204.359 104.645 203.525 102.913 202.585C100.548 201.298 98.1031 200.096 96.409 197.892ZM184.052 57.2329L184.04 57.2404C183.756 57.3115 183.438 57.3265 183.191 57.4687C177.844 60.5117 176.426 65.7817 175.467 71.1939C175.225 72.5676 176.161 71.3175 176.555 71.28C177.002 71.2351 177.522 71.3175 177.889 71.1228C179.64 70.1834 180.997 70.5801 182.331 71.98C183.404 73.1028 183.415 74.7273 184.226 75.7753C186.136 78.2493 186.652 81.1688 187.569 83.9648C188.02 85.3347 187.921 86.8019 187.383 88.2055C187.201 88.6846 187.304 89.3545 186.481 89.2048C185.856 89.0925 185.12 88.838 185.204 88.1231C185.681 84.0471 183.32 80.7945 182.089 77.2088C181.304 74.9294 179.856 73.8327 177.381 74.2594C176.783 74.3829 175.426 73.6605 175.892 75.0304C176.316 76.2768 176.313 77.5457 176.597 78.7808C177.575 83.0365 178.162 87.3409 176.949 91.6864C176.802 92.2141 176.172 93.2584 177.578 93.367C179.432 93.7412 180.914 93.1499 182.009 91.6527C182.801 90.571 184.2 90.2978 185.086 90.5822C186.06 90.8966 184.886 91.9821 184.886 92.7531C184.886 92.8991 184.749 93.0525 184.772 93.191C185.299 96.6981 182.615 98.8466 181.16 101.512C180.834 102.107 180.231 102.354 179.576 102.043C178.806 101.676 179.364 101.081 179.485 100.658C179.917 99.1011 180.883 97.806 181.747 96.4586C182.096 95.9196 182.449 95.4405 181.372 95.186C177.052 94.1604 175.236 95.433 175.217 99.5989C174.145 101.036 173.626 102.653 173.584 104.431C172.485 106.127 172.303 108.129 171.988 110.004C171.503 112.905 171.045 116.004 171.924 118.811C174.403 126.731 180.482 131.713 187.228 136.032C190.025 138.113 192.973 137.35 195.964 136.549C200.242 135.404 204.245 133.412 208.611 132.544C209.562 132.353 210.494 132.129 211.673 132.832C208.751 135.033 206.231 137.477 203.225 138.967C201.686 139.73 201.702 140.393 201.694 141.527C201.675 144.338 202.027 147.179 201.311 149.945C200.993 151.176 202.031 152.752 200.731 153.602C199.56 154.365 198.01 153.695 196.646 153.927C193.993 153.751 191.34 153.74 188.679 153.493C182.27 152.894 177.647 156.802 172.917 160.253C171.977 160.938 172.671 161.155 173.36 161.271C174.342 162.046 175.543 162.255 176.707 162.581C184.298 164.688 192.147 164.894 199.913 165.201C208.963 165.56 218.063 165.714 227.352 164.677C226.431 163.91 225.654 163.221 224.835 162.588C222.069 160.451 220.284 157.786 219.708 154.279C218.806 148.799 219.753 143.398 220.936 138.181C222.266 132.293 223.956 126.462 225.347 120.57C226.135 117.239 226.95 113.897 227.136 110.491C227.413 105.419 227.143 100.351 226.397 95.3095C226.162 93.7263 225.817 92.3713 224.445 91.372C218.953 87.3708 215.41 82.142 214.174 75.4459C213.954 74.2482 213.579 72.9569 211.938 72.9831C210.093 73.013 208.243 72.7547 206.409 73.2151C203.183 74.0236 199.901 74.3455 196.57 74.2294C193.989 74.1359 193.587 73.7354 193.781 71.2351C193.925 69.3711 195.046 68.5814 197.025 68.7573C202.122 69.2139 207.227 69.577 212.321 70.0449C213.659 70.1684 213.962 69.5808 213.841 68.4616C213.318 63.5172 214.671 58.7525 215.918 54.1225C216.607 51.5586 215.444 52.3147 214.337 52.3334C208.899 52.427 203.46 52.5954 198.021 52.6965C193.496 52.7826 189.35 54.1038 185.454 56.2972C184.87 56.4431 184.287 56.5928 184.048 57.2404L184.052 57.2329ZM141.767 210.677C142.332 212.515 144.147 212.493 145.493 212.837C149.161 213.78 152.895 214.488 156.631 215.124C157.154 215.214 158.121 216.378 158.492 215.038C158.784 213.99 157.757 214.02 157.037 213.773C152.713 212.29 149.438 209.768 148.358 205.089C147.937 203.266 147.399 201.473 146.914 199.666C146.357 198.374 146.781 196.836 145.887 195.548C143.829 199.175 142.26 202.963 140.077 206.452C138.318 209.259 138.432 209.33 141.763 210.677H141.767ZM155.798 210.655C156.726 211.37 157.704 211.965 158.943 211.942C162.566 213.088 166.311 212.567 169.949 212.369C174.399 212.13 178.693 210.782 182.668 208.664C183.339 208.304 184.192 207.923 184.037 207.009C183.601 204.457 184.317 201.915 183.858 199.325C183.536 197.487 182.896 195.44 183.908 193.595C184.711 192.135 184.692 191.293 182.873 190.72C181.247 190.204 179.678 189.032 180.573 187.183C181.638 184.982 180.584 184.619 178.859 184.222C176.843 183.758 175.983 182.111 175.85 180.352C175.706 178.499 177.332 177.927 178.886 177.474C181.6 176.68 181.675 176.486 180.955 173.48C178.45 174.435 176.078 175.719 173.436 176.306C165.841 177.998 158.174 178.982 150.367 178.556C147.763 177.672 146.994 178.305 147.501 181.168C147.873 183.253 148.237 185.338 148.301 187.449C148.502 194.253 149.525 200.878 152.034 207.271C152.773 209.154 153.584 210.554 155.798 210.651V210.655ZM160.308 177.141C161.289 177.01 162.282 176.939 163.252 176.744C168.649 175.662 174.186 175.086 179.151 172.425C180.046 171.946 181.145 171.717 180.717 170.362C180.322 169.105 179.276 169.041 178.124 168.951C175.255 168.727 172.458 169.4 169.612 169.457C165.254 169.546 160.963 170.231 156.734 171.261C154.096 170.954 151.867 172.219 149.491 172.997C148.256 173.402 148.582 174.349 148.43 175.052C148.218 176.022 149.04 176.153 149.859 176.355C153.304 177.212 156.756 177.74 160.308 177.137V177.141ZM210.976 270.598C210.809 270.489 210.646 270.38 210.475 270.283C210.468 270.283 210.396 270.388 210.358 270.444C210.555 270.508 210.752 270.568 210.949 270.631C210.983 271.148 211.305 271.443 211.737 271.672C216.513 274.161 220.409 277.81 224.005 281.62C230.615 288.623 237.517 295.301 244.755 301.649C245.316 302.143 245.896 303.232 246.798 302.798C247.56 302.431 247.098 301.409 247.117 300.683C247.374 290.177 246.605 279.655 247.552 269.157C247.605 268.569 247.469 267.948 247.344 267.36C247.113 266.252 246.62 265.81 245.404 266.42C243.808 267.218 242.057 267.491 240.249 267.424C238.286 267.349 236.459 267.869 234.697 268.722C233.594 269.254 232.457 269.905 231.278 270.059C224.536 270.938 217.801 272.604 210.976 270.605V270.598ZM178.056 253.29C177.597 253.264 177.131 253.287 176.684 253.204C174.793 252.867 174.092 253.56 174.315 255.487C174.615 258.033 174.77 260.6 174.854 263.16C174.884 264.089 175.498 264.508 176.062 264.527C179.053 264.635 181.456 266.215 184.014 267.42C187.921 270.365 192.242 269.924 196.574 268.782C197.396 268.565 199.602 269.186 198.556 266.825C198.427 266.533 198.999 266.042 199.519 266.057C200.504 266.084 201.467 266.035 202.478 266.286C206.86 267.382 211.298 268.071 215.656 269.49C219.874 270.863 224.589 269.71 229.027 268.891C233.461 268.071 237.407 265.488 242.246 265.852C245.18 266.072 246.605 263.385 247.283 260.926C247.765 259.189 245.563 258.744 244.672 257.636C244.244 257.104 243.747 256.622 243.319 256.086C241.606 253.953 239.609 252.763 236.622 253.141C234.041 253.466 231.384 253.204 228.758 253.208C211.859 253.23 194.955 253.257 178.056 253.283V253.29ZM242.114 185.443C243.088 184.709 244.16 184.065 243.888 182.546C243.785 181.969 244.221 181.565 244.763 181.337C245.244 184.761 244.456 188.156 244.49 191.585C244.528 195.616 245.112 199.385 246.999 202.952C247.204 203.337 247.45 203.697 247.378 204.213C246.847 207.994 247.052 211.778 247.412 215.554C247.549 217.01 251.714 221.764 253.112 222.026C253.45 222.089 253.832 221.872 254.196 221.816C259.275 221.041 264.372 220.839 269.508 221.131C272.361 221.292 275.23 221.161 278.418 221.161C277.489 219.623 276.875 218.395 276.11 217.474C274.571 215.625 274.908 213.035 273.252 211.347C271.766 209.835 270.686 207.994 269.413 206.343C265.911 201.803 262.883 196.896 261.632 191.158C261.162 189.01 260.154 186.951 259.54 184.952C258.949 183.028 258.399 180.977 257.179 179.637C253.525 175.625 250.167 171.272 245.601 168.147C244.452 167.361 243.433 166.728 241.682 166.998C239.245 167.368 236.66 167.432 234.125 166.792C232.302 166.331 230.403 166.024 228.455 166.23C226.097 166.477 223.717 166.721 221.352 166.683C209.577 166.503 197.787 167.218 186.038 165.8C180.607 165.145 175.195 164.546 170.177 162.173C166.538 162.214 163.624 163.614 161.562 166.634C161.221 167.136 160.63 167.638 160.944 168.244C161.361 169.056 162.153 168.334 162.764 168.45C163.453 168.453 164.158 168.555 164.833 168.45C169.525 167.72 174.232 167.346 178.981 167.735C179.504 168.656 180.387 168.588 181.262 168.543C181.982 169.438 183.688 169.198 183.851 170.71C184.074 172.754 185.31 172.354 186.295 171.523C187.489 170.516 188.816 170.598 190.002 170.939C195.346 172.481 200.811 172.305 206.246 172.107C208.573 172.024 210.316 172.518 211.885 174.184C215.19 177.691 218.135 181.411 221.011 185.304C225.976 192.026 231.563 198.367 236.906 204.853C239.351 207.821 241.909 210.7 244.414 213.619C244.399 211.104 244.733 208.776 244.638 206.448C244.6 205.531 244.532 204.741 244.005 203.895C239.756 197.102 238.794 189.283 237.035 181.711C236.834 180.846 237.467 180.682 238.04 180.468C238.68 180.225 239.302 180.266 239.609 180.951C239.946 181.707 240.09 182.512 240.223 183.347C240.499 185.068 241.056 186.749 241.496 188.444C241.633 188.411 241.765 188.377 241.902 188.343C241.974 187.374 242.046 186.408 242.118 185.439L242.114 185.443ZM206.363 200.5C206.348 199.879 206.333 199.258 206.318 198.636C207.845 200.205 209.528 201.653 210.869 203.36C216.71 210.797 221.633 218.871 226.639 226.847C230.638 233.217 234.322 239.79 238.521 246.052C238.817 246.493 239.082 247.219 239.647 247.051C241.507 246.497 243.308 247.186 245.131 247.141C248.758 247.047 252.407 246.68 256.012 246.92C260.757 247.234 265.502 246.868 270.239 247.204C271.327 247.283 270.989 246.635 270.83 246.014C270.322 244.034 269.773 242.054 269.409 240.048C268.427 234.651 267.514 229.238 266.623 223.826C266.491 223.025 266.279 222.516 265.38 222.557C261.678 222.726 257.918 222.045 254.245 223.201C257.046 226.068 259.76 228.834 262.458 231.615C262.883 232.049 263.898 232.338 263.319 233.135C262.826 233.812 261.871 233.696 261.185 233.348C260.594 233.045 260.09 232.513 259.654 231.993C254.916 226.289 248.633 222.131 243.804 216.524C242.068 214.51 240.185 212.62 238.51 210.565C234.504 205.654 230.369 200.826 226.719 195.664C224.953 193.164 222.618 191.27 220.663 189.01C218.627 186.659 217.487 183.852 215.535 181.535C214.413 180.203 213.28 178.878 212.23 177.493C209.698 174.154 203.684 172.073 199.916 173.783C193.925 176.505 187.478 177.223 181.168 178.571C180.152 178.788 178.64 178.503 178.678 179.858C178.715 181.12 179.337 182.531 180.929 182.957C181.368 183.077 181.895 183.036 182.259 183.264C183.286 183.9 184.594 184.529 183.722 186.083C182.634 188.018 183.502 188.995 185.299 189.623C187.167 190.278 187.986 191.42 186.853 193.273C186.049 194.59 186.58 195.118 187.853 195.586C189.051 196.028 190.445 196.013 191.419 197.016C193.539 199.202 195.919 199.676 198.56 198.438C198.681 198.382 198.852 198.43 198.969 198.43C199.378 198.999 198.071 198.984 198.579 199.662C201.895 198.741 204.703 196.177 208.69 196.563C207.959 197.585 207.144 197.742 206.333 197.906C205.78 198.109 205.238 198.329 204.934 198.883C204.548 198.775 204.233 198.91 203.858 199.044C201.508 199.898 199.174 201.17 196.759 201.365C193.955 201.586 191.544 201.795 189.456 204.015C188.456 205.082 186.322 205.13 187.038 207.425C187.129 207.717 186.727 208.379 186.39 208.544C185.094 209.173 184.082 210.183 182.68 210.726C176.707 213.043 170.506 214.053 164.154 214.39C162.381 214.106 160.884 214.139 161.339 216.621C161.388 216.894 161.195 217.205 161.157 217.504C160.569 222.239 160.634 226.877 163.412 231.054C165.261 233.835 167.478 236.515 169.9 238.603C172.761 241.07 173.713 243.832 173.989 247.231C175.187 246.456 176.411 247.111 177.506 246.74C180.451 247.309 183.407 246.83 186.36 246.871C188.24 246.897 190.142 247.268 191.999 247.111C199.579 246.463 207.163 247.04 214.747 246.89C220.519 246.778 226.295 246.897 232.07 246.867C233.17 246.86 234.325 247.249 235.485 246.542C235.137 245.849 234.867 245.135 234.451 244.521C229.588 237.357 225.571 229.684 220.841 222.445C216.05 215.116 211.684 207.515 206.375 200.519L206.363 200.5ZM145.099 214.847C146.634 216.576 147.956 218.028 149.233 219.514C150.564 221.064 150.435 222.292 148.775 223.231C148.131 223.598 147.346 223.766 146.599 223.901C140.937 224.927 135.195 225.031 129.465 225.275C127.138 225.376 127.024 225.499 127.923 227.625C130.352 233.363 132.342 239.224 132.599 245.505C132.656 246.927 133.467 247.115 134.54 247.137C137.083 247.189 139.626 247.208 142.165 247.26C143.359 247.287 144.14 246.778 144.799 245.775C147.543 241.59 150.53 237.555 153.099 233.273C155.502 229.261 159.629 225.731 157.689 220.188C157.624 220.001 157.723 219.728 157.814 219.526C158.435 218.129 157.928 217.407 156.453 217.209C152.747 216.7 149.275 215.109 145.091 214.851L145.099 214.847ZM245.275 66.1335C245.275 64.9882 245.169 63.8316 245.301 62.705C245.483 61.1629 244.547 61.2902 243.603 61.4886C242.61 61.6944 242.091 62.3532 241.898 63.3862C241.576 65.1155 240.564 66.5827 239.855 68.1659C239.207 69.6257 237.861 68.9781 236.846 69.3038C236.179 69.5209 235.849 69.0193 235.686 68.4803C235.061 66.4404 234.583 64.3781 234.629 62.2222C234.64 61.5971 235.773 60.4892 234.007 60.4817C232.813 60.478 231.184 60.1336 231.407 62.0575C231.828 65.6657 229.482 68.0162 227.693 70.6063C227.041 71.5495 226.215 72.7211 224.71 72.343C223.354 72.0024 222.967 70.8234 222.493 69.6706C221.455 67.1479 222.796 64.7524 222.777 62.2896C222.774 61.7506 222.524 60.886 222.406 61.0581C221.671 62.1324 219.859 60.1636 219.783 61.8254C219.59 66.2196 217.953 70.7897 221.099 74.8845C222.22 76.3404 222.918 77.9499 222.592 79.8887C222.467 80.6448 222.751 81.064 223.839 80.8057C225.241 80.4764 226.158 80.162 226.329 78.4739C226.495 76.8195 227.492 75.3748 228.534 74.0573C228.781 73.7466 229.057 73.2263 229.637 73.4809C230.058 73.668 230.066 74.091 230.062 74.4652C230.05 76.1271 229.975 77.7927 230.013 79.4545C230.028 80.2406 229.493 81.3559 231.074 81.4458C232.419 81.5206 233.143 80.9817 233.204 79.6904C233.279 78.0659 234.242 76.7222 234.576 75.1989C235.068 72.9381 236.781 73.1739 238.358 73.3311C240.056 73.4996 239.521 74.9818 239.688 75.9998C239.775 76.5201 239.616 77.0853 239.726 77.5943C239.897 78.3841 238.998 79.7016 240.848 79.7315C242.239 79.7502 242.978 79.4583 243.012 77.8601C243.035 76.7671 243.501 75.648 243.952 74.6187C244.274 73.8814 244.782 73.2076 245.847 73.2226C246.832 73.2376 247.052 73.9113 247.496 74.5326C248.466 75.895 248.716 77.4745 248.936 79.0279C249.08 80.0572 249.493 80.2555 250.425 80.2293C252.904 80.162 252.305 78.4552 252.085 77.119C251.592 74.1546 251.236 71.2351 253.18 68.6113C254.219 67.2077 254.208 65.6395 254.064 64.0487C253.95 62.821 253.336 62.2297 251.953 62.2783C250.509 62.327 250.357 63.0756 250.361 64.2059C250.361 66.04 249.845 67.7991 249.341 69.5433C248.909 71.0293 247.64 71.1228 246.336 71.0031C244.85 70.8646 245.343 69.7155 245.286 68.8921C245.225 67.9825 245.271 67.0618 245.275 66.1485V66.1335ZM164.147 298.269C165.363 295.305 166.811 292.61 168.289 289.907C171.01 284.929 173.364 279.82 173.622 273.981C173.713 271.904 173.963 269.774 174.736 267.768C175.107 266.81 175.49 265.777 173.637 266.192C172.526 266.443 172.155 265.919 171.954 264.732C171.636 262.846 171.579 260.978 171.564 259.092C171.515 252.953 171.518 252.995 165.201 253.178C163.973 253.215 163.703 253.564 163.647 254.735C163.491 258.078 164.117 261.375 164.132 264.699C164.177 275.89 164.147 287.081 164.147 298.273V298.269ZM146.88 247.141C154.82 247.141 162.381 247.141 169.942 247.148C170.378 247.148 170.813 247.38 171.071 246.766C171.534 245.681 170.624 241.395 169.487 240.819C167.493 239.805 166.588 237.761 164.768 236.545C162.404 234.965 161.13 232.326 159.739 229.897C159.182 228.924 158.723 228.662 158.034 229.744C154.373 235.463 150.708 241.175 146.88 247.141ZM253.59 253.215C254.389 254.132 254.723 254.866 254.439 255.611C253.749 257.396 254.242 259.23 254.079 261.031C253.973 262.195 254.606 262.805 255.591 263.306C259.665 265.384 263.47 267.951 267.821 269.542C270.311 270.452 271.221 270.145 271.668 267.644C272.468 263.175 272.054 258.714 271.729 254.237C271.653 253.174 271.05 253.215 270.345 253.215C264.941 253.215 259.54 253.215 253.594 253.215H253.59ZM243.785 89.2198C243.035 90.455 242.516 91.2784 242.027 92.1168C241.181 93.5653 239.692 95.0288 239.7 96.481C239.707 98.2065 242.246 98.4087 243.433 99.5839C243.747 99.8946 244.642 99.8796 244.13 100.681C243.8 101.201 243.236 101.373 242.713 101.126C241.606 100.609 240.503 100.063 239.484 99.4005C238.551 98.7904 238.085 98.9439 237.505 99.8834C235.989 102.335 234.352 104.712 232.753 107.115C231.578 108.878 232.279 110.24 234.481 110.371C238.847 110.626 240.53 109.753 242.902 105.445C245.68 100.404 245.07 95.0662 243.781 89.2235L243.785 89.2198ZM232.158 103.956C233.821 103.271 233.639 101.699 234.405 100.711C237.437 96.7955 239.412 92.2591 241.943 88.0483C242.281 87.4906 242.857 86.7794 242.068 86.2517C241.519 85.8849 240.757 85.941 240.117 86.3864C238.339 87.6216 236.819 89.0401 235.713 90.9603C233.42 94.9315 232.772 99.3032 232.158 103.956ZM237.634 118.617C239.927 118.639 241.087 117.449 241.079 115.008C241.075 113.448 240.662 112.164 238.635 112.179C236.152 112.201 234.629 113.53 234.765 115.899C234.864 117.617 235.709 118.785 237.634 118.617ZM112.194 218.53C110.496 218.01 110.14 219.08 109.848 220.364C109.45 222.138 110.947 221.663 111.701 221.854C114.442 222.539 117.038 221.06 120.358 221.509C117.781 219.421 115.419 220.102 113.138 220.173C112.581 220.192 111.823 220.559 111.463 219.948C111.076 219.293 112.3 219.196 112.194 218.53ZM186.959 203.176C188.52 202.289 189.013 201.054 189.396 199.591C189.877 197.742 188.403 197.764 187.489 197.48C185.977 197.012 186.47 198.348 186.383 199.022C186.201 200.403 186.735 201.709 186.962 203.176H186.959ZM196.013 173.753C193.807 173.413 192.086 173.192 190.385 172.863C189.809 172.75 189.297 172.559 189.111 173.267C188.941 173.911 188.706 174.648 188.873 175.239C189.058 175.883 189.835 175.43 190.237 175.337C192.049 174.925 193.83 174.367 196.013 173.753ZM247.439 256.943C247.738 252.83 247.511 252.632 244.176 253.594C245.169 254.615 246.165 255.637 247.439 256.943ZM185.12 174.068C184.643 174.034 184.218 174.364 184.313 174.667C184.484 175.224 184.218 176.093 185.136 176.265C185.727 176.374 185.916 176.029 185.935 175.483C185.958 174.82 185.769 174.319 185.124 174.068H185.12Z" fill="#2B2464"/>
<path d="M158.06 165.145C156.464 167.705 154.168 167.226 152.424 167.48C150.059 167.825 147.566 167.858 145.136 167.181C143.533 166.735 142.821 165.916 143.457 164.407C144.314 162.375 143.302 161.436 141.608 160.751C138.951 159.676 136.086 159.815 133.319 159.429C132.034 159.25 130.738 159.059 129.499 158.763C126.437 158.041 125.466 155.361 127.005 152.625C128.915 149.226 130.992 145.97 133.967 143.357C135.074 142.384 136.207 141.475 138.042 142.171C137.132 143.275 136.203 144.387 135.298 145.517C134.775 146.168 134.217 146.808 133.812 147.531C132.8 149.335 131.572 151.397 132.918 153.261C134.085 154.874 136.188 154.361 138.019 153.879C141.263 153.025 144.594 153.422 147.884 153.452C149.487 153.467 151.356 153.92 151.958 155.518C152.587 157.191 152.477 159.107 151.064 160.608C150.484 161.222 150.067 161.922 149.783 162.716C149.048 164.778 149.578 165.658 151.818 165.747C153.755 165.826 155.703 165.923 158.068 165.145H158.06ZM146.766 163.913C147.062 162.012 147.903 161.02 148.593 159.957C150.465 157.071 149.468 154.972 146.035 154.803C143.128 154.661 140.266 155.039 137.371 155.484C133.657 156.057 131.769 156.356 129.499 152.696C128.226 155.234 129.059 157.06 131.822 157.505C134.305 157.906 136.833 158.044 139.307 158.471C142.461 159.014 145.993 159.126 146.77 163.913H146.766Z" fill="#2B2464"/>
<path d="M119.732 188.968C119.54 186.366 118.129 184.733 115.499 184.069C112.535 183.32 109.325 177.197 110.42 174.382C110.83 173.331 112.6 172.923 113.63 173.69C114.911 174.644 116.143 175.662 117.413 176.628C120.574 179.042 124 180.76 128.15 180.408C129.427 180.3 129.98 180.682 129.859 182.033C129.522 185.847 130.909 189.481 131.121 193.243C130.53 193.254 129.942 193.265 129.351 193.276C128.263 193.303 128.116 192.337 128.066 191.731C127.847 189.025 126.789 186.434 126.982 183.68C127.24 182.295 126.672 181.662 125.243 181.797C122.867 182.022 120.718 181.198 118.667 180.21C116.973 179.394 115.427 178.282 113.718 177.242C113.422 178.578 114.081 179.409 114.601 180.326C115.874 182.579 118.303 182.763 120.365 183.616C121.358 184.028 122.814 187.228 122.34 188.235C121.805 189.365 120.729 189.167 119.729 188.965L119.732 188.968Z" fill="#2B2464"/>
<path d="M119.732 188.968C120.733 189.171 121.809 189.373 122.343 188.239C122.821 187.232 121.362 184.032 120.369 183.62C118.307 182.766 115.878 182.583 114.604 180.33C114.085 179.413 113.426 178.582 113.721 177.246C115.431 178.286 116.977 179.398 118.671 180.214C120.718 181.202 122.87 182.025 125.247 181.801C126.675 181.666 127.244 182.299 126.986 183.683C126.478 184.069 126.645 184.645 126.554 185.151C125.838 189.223 126.149 193.299 126.52 197.375C124.045 195.081 121.464 192.883 119.584 190.043C119.634 189.687 119.679 189.331 119.728 188.972L119.732 188.968Z" fill="#C88F66"/>
<path d="M107.54 222.576C108.412 222.591 109.177 222.902 109.882 223.384C109.901 224.133 109.92 224.885 109.943 225.634C109.757 227.356 109.571 229.077 109.386 230.803C108.484 230.631 108.139 231.536 107.453 231.78C106.998 230.477 107.055 229.036 107.343 227.838C107.779 226.042 107.801 224.343 107.536 222.576H107.54Z" fill="#5C5C8D"/>
<path d="M129.355 193.276C129.946 193.265 130.534 193.254 131.125 193.243C132.144 195.608 132.069 198.157 132.391 200.635C131.727 200.616 131.064 200.598 130.401 200.579C129.336 198.243 129.855 195.687 129.355 193.276Z" fill="#5C5C8D"/>
<path d="M103.409 210.108C102.026 210.337 101.215 209.715 100.506 208.551C99.8692 207.503 99.4939 206.032 97.8264 205.976C97.2086 205.418 95.9655 205.516 96.011 204.273C97.8605 204.891 99.71 205.512 101.559 206.13C101.29 207.859 102.511 208.911 103.413 210.108H103.409Z" fill="#FCFBF9"/>
<path d="M196.649 153.923C198.014 153.688 199.568 154.358 200.735 153.598C202.035 152.752 200.996 151.176 201.315 149.941C202.031 147.175 201.679 144.338 201.698 141.523C201.705 140.393 201.694 139.727 203.229 138.963C206.234 137.473 208.754 135.025 211.677 132.828C210.498 132.125 209.566 132.349 208.614 132.54C204.248 133.412 200.246 135.4 195.967 136.545C192.977 137.346 190.028 138.11 187.231 136.029C188.395 134.771 187.413 133.933 186.564 133.199C185.079 131.915 183.475 130.766 181.971 129.505C175.71 124.257 173.284 117.58 174.255 109.57C174.463 107.852 175.066 106.168 174.853 104.401C175.198 102.818 175.96 101.264 175.221 99.5988C175.244 95.433 177.055 94.1604 181.376 95.1859C182.456 95.4404 182.1 95.9195 181.751 96.4585C180.887 97.8022 179.921 99.101 179.488 100.658C179.371 101.081 178.814 101.68 179.579 102.043C180.235 102.354 180.841 102.107 181.164 101.511C182.619 98.8465 185.302 96.6981 184.775 93.191C184.756 93.0525 184.889 92.899 184.889 92.753C184.889 91.9783 186.064 90.8928 185.09 90.5821C184.203 90.2977 182.801 90.5709 182.013 91.6526C180.917 93.1498 179.435 93.7412 177.582 93.3669C179.352 86.9777 178.154 80.6223 177.385 74.2593C179.86 73.8289 181.308 74.9255 182.092 77.2087C183.324 80.7907 185.685 84.047 185.207 88.1231C185.124 88.838 185.859 89.0925 186.485 89.2048C187.307 89.3507 187.205 88.6845 187.387 88.2054C187.925 86.8018 188.02 85.3346 187.572 83.9647C186.655 81.1725 186.136 78.253 184.23 75.7752C183.422 74.7272 183.407 73.1028 182.335 71.9799C180.997 70.5763 179.644 70.1833 177.893 71.1228C177.529 71.3174 177.01 71.235 176.559 71.28C176.824 70.7447 177.309 70.2132 177.317 69.6742C177.362 66.5339 179.159 64.2133 180.853 61.8104C181.922 60.2945 183.65 59.2203 184.044 57.244L184.055 57.2365C185.033 57.6632 185.348 57.1243 185.461 56.2933C189.357 54.1 193.507 52.7787 198.029 52.6927C203.467 52.5916 208.906 52.4232 214.345 52.3296C215.451 52.3109 216.611 51.5548 215.925 54.1187C214.682 58.7449 213.329 63.5134 213.848 68.4578C213.966 69.5769 213.662 70.1608 212.328 70.0411C207.231 69.5732 202.126 69.2101 197.032 68.7535C195.054 68.5738 193.928 69.3636 193.788 71.2313C193.595 73.7316 193.996 74.1358 196.577 74.2256C199.909 74.3454 203.191 74.0198 206.416 73.2113C208.25 72.7509 210.104 73.0092 211.946 72.9792C213.587 72.953 213.962 74.2443 214.182 75.4421C215.417 82.1381 218.961 87.3707 224.452 91.3682C225.824 92.3675 226.169 93.7225 226.404 95.3057C227.151 100.351 227.42 105.415 227.143 110.487C226.958 113.893 226.143 117.235 225.354 120.567C223.964 126.458 222.273 132.289 220.943 138.177C219.764 143.395 218.817 148.799 219.715 154.275C220.291 157.779 222.076 160.447 224.843 162.585C225.665 163.217 226.438 163.906 227.359 164.673C218.066 165.714 208.971 165.556 199.92 165.197C192.158 164.89 184.305 164.684 176.714 162.577C175.551 162.255 174.345 162.046 173.368 161.267C174.861 161.312 175.933 160.436 177.07 159.661C180.356 157.416 183.798 155.709 187.898 155.129C190.809 154.717 193.784 154.657 196.653 153.923H196.649ZM195.149 121.326C196.153 120.492 197.904 121.18 198.685 119.661C197.472 119.305 196.369 119.504 195.258 119.709C191.116 120.484 186.958 120.795 182.801 119.848C181.789 119.616 180.447 118.815 179.97 119.994C179.496 121.158 181.342 121.02 181.903 121.746C181.012 122.374 181.296 122.977 181.982 123.509C182.498 123.905 183.074 124.227 183.623 124.583C183.498 124.665 183.343 124.725 183.248 124.837C182.987 125.14 183.104 125.238 183.464 125.425C187.038 127.308 190.396 126.709 193.655 124.658C194.406 123.658 195.406 122.767 195.149 121.323V121.326ZM214.14 94.8304C212.416 94.5646 211.301 95.3394 210.089 95.7062C208.273 96.2564 206.503 96.975 204.502 96.4398C201.47 95.6276 199.579 93.8609 199.041 90.7393C198.95 90.2079 198.992 89.3732 198.071 89.4555C197.335 89.5229 197.468 90.2865 197.328 90.7319C196.661 92.8578 197.741 95.3169 199.799 96.582C203.778 99.0262 210.21 98.3412 214.144 94.8304H214.14ZM187.493 112.209C188.527 112.209 188.914 112.239 189.293 112.201C189.706 112.16 190.324 112.362 190.4 111.737C190.46 111.221 189.987 110.925 189.517 110.895C186.507 110.704 183.961 109.525 181.785 107.485C181.129 106.871 180.148 106.931 179.686 107.403C179.147 107.953 180.038 108.406 180.425 108.81C182.513 111.003 185.189 111.932 187.497 112.209H187.493ZM199.662 101.788C202.816 102.503 205.525 100.583 208.557 100.55C208.876 100.55 209.516 100.171 209.41 99.6475C209.361 99.393 208.819 99.0262 208.538 99.0561C205.423 99.4154 202.349 99.9394 199.662 101.785V101.788Z" fill="#C88F66"/>
<path d="M156.81 327.797C149.169 327.041 141.472 326.7 134.002 324.709C137.492 324.353 140.99 324.02 144.25 322.59C145.193 322.175 146.52 322.025 146.482 320.644C146.448 319.289 145.75 318.35 144.462 317.586C142.089 316.182 139.3 316.242 136.666 315.179C138.853 314 140.763 312.724 142.358 311.092C145.716 307.66 145.997 305.175 142.343 301.563C137.704 296.978 132.486 293.744 125.205 297.378C126.327 294.009 127.248 291.112 127.1 287.965C126.861 282.844 123.852 279.06 119.596 279.345C113.706 279.741 108.988 282.395 105.077 286.875C103.136 289.099 102.041 291.715 100.396 294.182C99.9374 293.568 99.6494 293.036 99.7252 292.419C100.127 289.192 98.7626 286.336 97.8416 283.387C97.4588 282.159 96.7956 281.542 95.3592 281.542C93.468 281.542 91.8383 281.77 90.2541 283.035C88.651 284.315 87.658 285.992 86.3846 287.486C86.3505 280.022 86.3126 272.559 86.286 265.095C86.2709 261.177 86.286 257.261 86.286 253.204C91.9141 253.204 97.7014 253.238 103.485 253.174C104.705 253.159 104.77 253.728 104.898 254.664C105.331 257.782 105.725 260.933 107.559 263.651C109.556 266.611 111.648 269.448 114.843 271.339C116.121 272.095 117.258 273.053 118.232 274.314C120.032 276.65 122.658 277.679 125.69 277.451C126.319 277.402 127.346 277.746 127.346 276.777C127.346 275.875 126.259 276.212 125.66 275.987C125.717 275.321 126.088 274.902 126.71 274.67C131.03 270.238 134.403 265.092 137.943 260.076C139.114 258.418 140.441 256.835 141.373 255.053C142.161 253.549 143.113 253.103 144.769 253.148C148.998 253.272 153.236 253.189 157.583 253.189C157.048 254.967 157.192 256.569 157.192 258.167C157.185 268.034 157.162 277.9 157.166 287.77C157.166 297.318 157.329 306.866 157.132 316.407C157.052 320.191 157.056 323.99 156.817 327.774L156.81 327.797Z" fill="#E3E6EF"/>
<path d="M206.321 197.891C207.132 197.727 207.947 197.57 208.683 196.544C204.699 196.159 201.891 198.722 198.571 199.643C198.067 198.969 199.374 198.984 198.961 198.412C198.844 198.412 198.673 198.363 198.552 198.419C195.914 199.652 193.534 199.178 191.412 196.997C190.438 195.994 189.043 196.009 187.845 195.567C186.576 195.099 186.041 194.572 186.845 193.254C187.974 191.398 187.156 190.256 185.291 189.605C183.495 188.976 182.627 187.999 183.714 186.064C184.586 184.514 183.278 183.886 182.251 183.245C181.888 183.021 181.361 183.058 180.921 182.939C179.329 182.508 178.708 181.097 178.67 179.839C178.632 178.484 180.144 178.769 181.16 178.552C187.47 177.204 193.921 176.486 199.909 173.765C203.676 172.054 209.687 174.135 212.222 177.474C213.272 178.859 214.405 180.184 215.527 181.516C217.475 183.833 218.62 186.64 220.655 188.991C222.611 191.248 224.945 193.145 226.711 195.646C230.357 200.807 234.496 205.636 238.502 210.546C240.181 212.601 242.064 214.491 243.796 216.505C248.629 222.116 254.909 226.274 259.646 231.974C260.078 232.495 260.586 233.03 261.177 233.329C261.863 233.681 262.818 233.797 263.311 233.116C263.891 232.315 262.875 232.031 262.451 231.596C259.752 228.819 257.042 226.049 254.238 223.182C257.91 222.026 261.674 222.707 265.373 222.539C266.271 222.497 266.483 223.006 266.616 223.807C267.506 229.22 268.42 234.632 269.401 240.029C269.765 242.039 270.315 244.015 270.823 245.995C270.982 246.617 271.319 247.264 270.231 247.186C265.494 246.849 260.753 247.212 256.004 246.901C252.4 246.665 248.75 247.032 245.123 247.122C243.296 247.167 241.5 246.478 239.639 247.032C239.078 247.201 238.813 246.474 238.513 246.033C234.318 239.771 230.63 233.198 226.632 226.828C221.629 218.852 216.706 210.782 210.862 203.341C209.52 201.631 207.837 200.186 206.31 198.618C206.31 198.371 206.31 198.124 206.314 197.873L206.321 197.891Z" fill="#C98F66"/>
<path d="M164.143 214.375C170.495 214.038 176.695 213.028 182.668 210.711C184.074 210.164 185.083 209.154 186.379 208.529C186.716 208.364 187.118 207.702 187.027 207.41C186.311 205.119 188.444 205.067 189.445 204C191.529 201.78 193.943 201.571 196.748 201.35C199.162 201.159 201.497 199.886 203.847 199.029C204.222 198.895 204.536 198.76 204.923 198.868C205.222 199.565 205.632 200.171 206.359 200.497C211.669 207.492 216.035 215.094 220.826 222.422C225.559 229.661 229.573 237.334 234.435 244.498C234.852 245.112 235.121 245.827 235.47 246.519C234.31 247.227 233.151 246.837 232.055 246.845C226.279 246.879 220.503 246.755 214.731 246.867C207.151 247.017 199.568 246.441 191.984 247.088C190.127 247.249 188.228 246.875 186.345 246.849C183.392 246.808 180.436 247.287 177.495 246.718C176.847 245.183 177.048 243.57 177.112 241.987C177.234 239.067 175.911 236.859 173.705 235.096C172.689 234.284 171.568 233.603 170.51 232.839C167.346 230.548 165.238 227.633 164.496 223.718C163.904 220.596 164.325 217.482 164.143 214.371V214.375Z" fill="#ECCA5F"/>
<path d="M203.608 324.211C203.619 325.368 203.153 325.794 201.883 326.064C195.152 327.49 188.353 328.549 181.512 329.114C176.384 329.537 171.2 329.241 166.038 329.268C165.769 322.572 165.485 315.879 165.25 309.183C165.219 308.371 165.45 307.551 165.56 306.735C165.682 306.66 165.867 306.615 165.913 306.511C168.202 301.027 171.041 295.81 174.027 290.682C176.771 285.966 178.814 281.212 178.647 275.572C178.571 273.049 178.579 270.291 179.856 267.858C185.298 271.814 191.309 271.743 197.494 270.219C199.287 269.778 200.401 269.52 201.607 271.788C203.964 276.223 206.526 280.602 209.679 284.615C213.162 289.046 217.422 292.651 221.682 296.259C225.119 299.171 228.367 302.255 231.824 305.642C229.887 306.017 228.455 305.193 226.973 304.916C220.795 303.756 214.591 302.685 208.489 301.211C202.277 299.71 196.509 296.888 190.585 294.548C190.021 294.324 189.532 293.931 188.876 293.961C188.266 293.987 187.595 293.875 187.182 294.466C186.67 295.196 187.387 295.536 187.732 295.997C194.156 304.493 202.52 310.048 213.079 312.23C214.053 312.432 214.951 312.96 216.448 312.604C215.148 313.989 213.867 313.517 212.779 313.723C209.986 314.255 207.174 314.595 204.324 314.565C198.628 314.502 192.954 314.854 187.296 315.482C186.913 315.524 186.496 315.509 186.166 315.662C185.492 315.977 184.476 316.055 184.321 316.852C184.135 317.799 185.014 318.402 185.772 318.701C191.575 320.996 197.009 324.473 203.619 324.218L203.608 324.211Z" fill="#5C5C8D"/>
<path d="M178.977 167.735C174.228 167.342 169.521 167.72 164.829 168.45C164.158 168.555 163.45 168.453 162.76 168.45C163.412 166.96 164.533 165.837 165.852 164.958C167.274 164.007 168.892 163.341 170.177 162.177C175.191 164.55 180.603 165.149 186.038 165.804C197.787 167.222 209.581 166.507 221.352 166.687C223.717 166.724 226.097 166.481 228.455 166.234C230.403 166.028 232.302 166.335 234.125 166.795C236.66 167.435 239.245 167.372 241.682 167.001C243.433 166.735 244.452 167.364 245.601 168.15C250.164 171.276 253.525 175.629 257.179 179.641C258.399 180.981 258.949 183.032 259.54 184.956C260.154 186.951 261.162 189.013 261.632 191.162C262.883 196.9 265.911 201.807 269.413 206.347C270.686 207.997 271.766 209.839 273.252 211.351C274.908 213.039 274.571 215.629 276.11 217.478C276.875 218.399 277.485 219.627 278.418 221.165C275.23 221.165 272.361 221.296 269.508 221.135C264.372 220.843 259.275 221.045 254.196 221.82C253.829 221.876 253.446 222.093 253.112 222.03C251.718 221.768 247.552 217.014 247.412 215.558C247.056 211.778 246.847 207.997 247.378 204.217C247.45 203.704 247.204 203.341 246.999 202.956C245.112 199.389 244.528 195.62 244.49 191.588C244.456 188.16 245.248 184.765 244.763 181.34C244.892 180.595 245.055 179.858 245.138 179.11C245.309 177.582 245.343 176.104 243.133 175.995C242.527 179.113 241.977 182.242 242.114 185.446C242.042 186.416 241.97 187.381 241.898 188.351C241.761 188.384 241.629 188.418 241.492 188.452C241.053 186.756 240.496 185.076 240.219 183.354C240.082 182.523 239.942 181.715 239.605 180.959C239.298 180.274 238.676 180.232 238.036 180.476C237.464 180.693 236.831 180.858 237.031 181.718C238.794 189.287 239.756 197.105 244.001 203.903C244.528 204.749 244.596 205.538 244.634 206.455C244.733 208.783 244.399 211.108 244.411 213.627C241.905 210.707 239.347 207.829 236.903 204.861C231.563 198.374 225.972 192.034 221.008 185.312C218.131 181.419 215.186 177.695 211.881 174.191C210.312 172.526 208.565 172.028 206.242 172.114C200.807 172.312 195.342 172.485 189.998 170.946C188.812 170.606 187.489 170.523 186.292 171.53C185.306 172.361 184.071 172.762 183.847 170.718C183.68 169.206 181.975 169.445 181.259 168.551C180.766 167.544 179.845 167.72 178.977 167.742V167.735Z" fill="#EBC95F"/>
<path d="M131.701 324.174C127.297 323.852 123.136 322.441 118.955 321.232C108.306 318.147 98.0765 314.004 88.2568 308.884C87.8626 308.678 87.5329 308.349 87.1728 308.075C87.5139 306.406 86.665 304.883 86.4944 303.266C86.195 300.447 86.3807 297.655 86.3049 294.852C87.2145 290.981 88.829 287.471 91.6867 284.596C93.7029 282.571 94.26 282.71 95.3023 285.345C96.7159 288.915 96.8372 292.714 97.4133 296.439C97.9666 299.998 97.8074 303.573 97.8681 307.143C97.8795 307.825 97.8378 308.644 98.5995 308.929C99.3007 309.191 100.112 309.243 100.805 308.738C101.688 308.094 101.662 307.147 101.556 306.241C101.234 303.524 101.143 300.885 102.011 298.183C104.341 290.925 107.953 284.72 115.442 281.632C118.455 280.389 121.692 280.965 123.014 283.739C125.512 288.964 123.863 297.445 118.936 301.334C116.473 303.277 114.066 305.287 112.232 307.877C111.629 308.73 110.329 309.805 111.068 310.542C111.895 311.369 113.517 311.13 114.718 310.426C115.306 310.081 115.904 309.718 116.405 309.266C118.978 306.96 121.21 304.385 122.927 301.368C124.341 298.879 129.219 296.839 132.027 297.614C135.427 298.553 138.227 300.567 140.607 303.056C142.214 304.737 142.446 307.428 141.199 308.977C138.36 312.511 134.907 315.052 130.117 315.505C127.631 315.737 125.106 316.07 122.779 317.141C121.934 317.53 120.706 317.945 120.975 318.881C121.207 319.686 122.548 319.753 123.45 319.551C126.194 318.941 128.987 318.436 131.621 317.504C135.646 316.074 139.137 317.421 142.529 319.188C144.14 320.026 143.969 321.044 142.264 321.685C139.891 322.575 137.39 322.871 134.862 322.961C133.676 323.002 132.391 322.826 131.701 324.162V324.174Z" fill="#E3E6EF"/>
<path d="M69.6632 297.138C67.033 296.147 65.0319 294.204 62.9096 292.527C56.55 287.493 50.4406 282.152 44.93 276.208C38.813 269.606 33.0182 262.726 28.1064 255.173C27.7274 254.589 27.3105 254.05 27.3787 253.309C39.3209 253.279 51.263 253.242 63.2052 253.215C68.3671 253.204 73.5328 253.208 78.6947 253.223C79.3921 253.223 80.1993 252.938 80.1917 254.248C80.1576 259.605 79.7976 264.957 80.1273 270.324C80.4002 274.741 79.2026 279.172 80.1008 283.615C80.2259 284.225 79.8431 284.937 79.6953 285.603C78.0656 281.62 76.4169 277.645 74.8252 273.648C74.5561 272.978 74.4424 272.372 73.4987 272.431C72.6763 272.484 71.8804 272.641 71.5544 273.408C70.6865 275.459 69.9437 277.615 70.7699 279.813C71.8084 282.59 71.634 285.562 72.6876 288.541C70.1863 287.437 68.1132 286.003 65.517 286.179C63.4932 286.314 63.2165 287.036 64.1792 288.803C65.7785 291.737 67.7986 294.384 69.6632 297.138Z" fill="#E3E6EF"/>
<path d="M150.37 178.556C158.178 178.982 165.841 177.998 173.44 176.306C176.081 175.718 178.454 174.435 180.959 173.48C181.679 176.486 181.6 176.684 178.89 177.474C177.336 177.927 175.714 178.499 175.854 180.352C175.99 182.111 176.847 183.758 178.863 184.222C180.588 184.619 181.641 184.982 180.576 187.183C179.682 189.032 181.251 190.204 182.877 190.72C184.696 191.296 184.715 192.135 183.911 193.595C182.896 195.44 183.536 197.487 183.862 199.325C184.317 201.915 183.604 204.46 184.04 207.009C184.196 207.923 183.343 208.304 182.672 208.664C178.696 210.782 174.402 212.13 169.953 212.369C166.315 212.567 162.57 213.088 158.947 211.942C158.238 211.198 157.526 210.453 156.817 209.708C154.778 206.886 153.846 203.558 153.133 200.302C151.576 193.153 151.424 185.794 150.37 178.559V178.556Z" fill="#5C5C8D"/>
<path d="M178.056 253.29C194.955 253.264 211.859 253.242 228.758 253.215C231.381 253.215 234.041 253.474 236.622 253.148C239.609 252.77 241.602 253.956 243.319 256.094C243.747 256.629 244.24 257.108 244.672 257.643C245.566 258.751 247.765 259.197 247.283 260.933C246.605 263.392 245.18 266.076 242.246 265.859C237.407 265.496 233.461 268.078 229.027 268.898C224.593 269.718 219.874 270.867 215.656 269.497C211.298 268.078 206.86 267.386 202.478 266.293C201.466 266.039 200.508 266.091 199.518 266.065C198.999 266.05 198.427 266.54 198.556 266.832C199.602 269.194 197.396 268.573 196.574 268.79C192.238 269.935 187.917 270.373 184.014 267.427C183.388 265.425 181.543 264.65 180.004 263.587C178.681 262.67 177.836 261.742 178.06 259.889C178.321 257.722 178.082 255.495 178.06 253.294L178.056 253.29Z" fill="#ECCA5F"/>
<path d="M305.084 252.852C303.992 256.266 301.498 258.822 299.482 261.652C293.149 270.53 285.425 278.196 277.489 285.633C274.097 288.814 270.307 291.584 266.665 294.5C266.15 294.911 265.426 295.069 264.8 295.342C263.705 294.002 263.682 292.231 262.939 290.764C260.48 285.913 258.058 281.036 255.397 276.29C254.458 274.617 253.953 273.042 254.056 271.159C254.166 269.194 254.079 267.218 254.079 264.897C257.876 267.27 261.666 269.082 265.494 270.788C270.034 272.817 274.26 271.518 274.609 266.57C274.885 262.666 275.079 258.781 274.866 254.896C274.783 253.403 275.117 253.178 276.489 253.189C285.13 253.245 293.767 253.219 302.408 253.215C303.314 253.215 304.242 253.339 305.084 252.856V252.852Z" fill="#E3E6EF"/>
<path d="M210.976 270.597C217.801 272.596 224.536 270.927 231.278 270.051C232.457 269.898 233.594 269.246 234.697 268.715C236.459 267.865 238.286 267.341 240.249 267.416C242.057 267.487 243.808 267.21 245.403 266.413C246.624 265.803 247.117 266.244 247.344 267.352C247.465 267.944 247.605 268.561 247.552 269.149C246.609 279.648 247.374 290.169 247.117 300.675C247.098 301.402 247.56 302.423 246.798 302.79C245.892 303.224 245.316 302.135 244.755 301.641C237.517 295.293 230.615 288.616 224.005 281.613C220.409 277.806 216.513 274.153 211.737 271.664C211.305 271.44 210.983 271.14 210.949 270.624L210.976 270.59V270.597Z" fill="#5C5C8D"/>
<path d="M145.095 214.843C149.279 215.105 152.747 216.696 156.457 217.201C157.931 217.403 158.439 218.122 157.818 219.518C157.727 219.72 157.628 219.993 157.692 220.18C159.633 225.724 155.506 229.257 153.103 233.266C150.533 237.548 147.547 241.582 144.803 245.767C144.143 246.774 143.363 247.279 142.169 247.253C139.626 247.201 137.083 247.182 134.543 247.129C133.471 247.107 132.66 246.92 132.603 245.498C132.345 239.217 130.359 233.356 127.926 227.618C127.024 225.492 127.142 225.368 129.469 225.267C135.195 225.02 140.941 224.915 146.603 223.893C147.346 223.759 148.134 223.587 148.778 223.223C150.435 222.284 150.567 221.056 149.237 219.507C147.96 218.017 146.637 216.569 145.102 214.839L145.095 214.843Z" fill="#C98F66"/>
<path d="M242.508 310.063C242.777 311.549 241.894 312.174 240.67 312.743C230.281 317.571 219.639 321.703 208.489 324.473C207.549 324.705 206.537 324.956 205.662 324.207C206.416 323.257 206.336 322.714 204.957 322.8C198.624 323.185 193.663 319.24 187.982 317.564C187.876 317.534 187.826 317.324 187.713 317.137C189.013 316.403 190.422 316.403 191.851 316.385C201.451 316.272 211.002 315.67 220.507 314.202C224.737 313.551 229.061 313.514 233.34 313.184C234.124 313.125 235.39 313.446 235.296 312.271C235.224 311.403 234.007 311.811 233.313 311.807C229.531 311.773 225.733 312.009 221.962 311.773C213.033 311.208 204.779 308.689 197.892 302.757C196.483 301.544 194.694 300.653 193.879 298.752C195.058 298.325 195.975 298.901 196.82 299.306C203.547 302.517 210.831 303.677 218.078 304.905C223.827 305.882 229.387 307.574 235.061 308.816C237.52 309.355 239.923 310.261 242.508 310.063Z" fill="#839C3F"/>
<path d="M131.701 324.174C132.391 322.837 133.676 323.017 134.862 322.972C137.39 322.882 139.895 322.587 142.264 321.696C143.969 321.052 144.14 320.038 142.529 319.199C139.137 317.433 135.646 316.089 131.621 317.515C128.987 318.451 126.19 318.956 123.45 319.562C122.552 319.761 121.21 319.693 120.975 318.892C120.706 317.957 121.934 317.541 122.779 317.152C125.106 316.081 127.627 315.752 130.117 315.516C134.907 315.067 138.364 312.522 141.199 308.989C142.442 307.439 142.211 304.748 140.607 303.067C138.227 300.578 135.427 298.565 132.027 297.625C129.219 296.85 124.341 298.89 122.927 301.379C121.214 304.392 118.978 306.967 116.405 309.277C115.901 309.73 115.306 310.093 114.718 310.437C113.513 311.141 111.891 311.38 111.068 310.553C110.329 309.812 111.629 308.738 112.232 307.888C114.066 305.302 116.473 303.288 118.936 301.346C123.863 297.46 125.512 288.975 123.014 283.75C121.688 280.98 118.451 280.4 115.442 281.643C107.953 284.731 104.341 290.933 102.011 298.194C101.143 300.896 101.234 303.535 101.556 306.252C101.662 307.155 101.692 308.105 100.805 308.749C100.112 309.254 99.3007 309.202 98.5995 308.94C97.8416 308.655 97.8795 307.836 97.8681 307.155C97.8074 303.584 97.9666 300.009 97.4133 296.45C96.8334 292.726 96.7159 288.927 95.3023 285.356C94.26 282.721 93.6991 282.579 91.6867 284.607C88.8328 287.478 87.2183 290.993 86.3049 294.863C86.3315 292.407 86.3618 289.956 86.3883 287.504C87.6617 286.011 88.6547 284.334 90.2579 283.054C91.8421 281.793 93.4679 281.564 95.3629 281.561C96.7993 281.561 97.4626 282.178 97.8453 283.406C98.7663 286.359 100.131 289.215 99.729 292.437C99.6532 293.055 99.9374 293.583 100.4 294.2C102.041 291.734 103.14 289.117 105.08 286.894C108.992 282.414 113.71 279.76 119.6 279.363C123.856 279.079 126.865 282.863 127.104 287.983C127.252 291.127 126.331 294.028 125.209 297.397C132.486 293.762 137.708 296.996 142.347 301.581C146.001 305.193 145.72 307.679 142.362 311.111C140.767 312.743 138.856 314.019 136.67 315.198C139.304 316.257 142.093 316.197 144.466 317.605C145.754 318.368 146.448 319.308 146.486 320.663C146.524 322.044 145.197 322.197 144.253 322.609C140.994 324.039 137.496 324.372 134.005 324.728C133.228 324.589 132.368 324.81 131.705 324.192L131.701 324.174Z" fill="#859D41"/>
<path d="M109.943 225.634C109.924 224.885 109.905 224.133 109.882 223.384C110.379 223.549 110.864 223.796 111.375 223.863C113.377 224.129 115.306 223.609 117.364 225.039C118.766 226.012 121.392 225.26 123.469 225.293C124.28 225.305 125.061 225.11 125.429 226.304C127.267 232.293 129.226 238.24 129.855 244.517C130.026 246.224 129.545 246.793 127.653 246.882C121.567 247.174 115.499 246.748 109.424 246.74C108.965 239.355 111.364 232.154 111.125 224.268C110.504 224.99 110.223 225.312 109.943 225.638V225.634Z" fill="#C98F66"/>
<path d="M245.271 66.1335C245.271 67.0505 245.221 67.9675 245.282 68.8771C245.339 69.7005 244.846 70.8496 246.332 70.9881C247.632 71.1116 248.905 71.018 249.337 69.5283C249.841 67.7879 250.361 66.025 250.357 64.1909C250.357 63.0606 250.505 62.312 251.949 62.2633C253.332 62.2184 253.946 62.8098 254.06 64.0337C254.204 65.6282 254.219 67.1928 253.176 68.5963C251.232 71.2201 251.589 74.1396 252.081 77.104C252.305 78.4402 252.9 80.1507 250.421 80.2143C249.489 80.2405 249.076 80.0384 248.932 79.0129C248.712 77.4596 248.462 75.88 247.492 74.5176C247.048 73.8963 246.828 73.2226 245.843 73.2076C244.778 73.1926 244.27 73.8664 243.948 74.6037C243.497 75.633 243.031 76.7559 243.008 77.8451C242.974 79.447 242.235 79.739 240.844 79.7165C238.994 79.6903 239.889 78.3691 239.722 77.5793C239.612 77.0666 239.771 76.5051 239.684 75.9848C239.517 74.9668 240.052 73.4846 238.354 73.3162C236.777 73.1627 235.064 72.9231 234.572 75.1839C234.238 76.7072 233.275 78.0509 233.2 79.6754C233.139 80.9667 232.415 81.5056 231.07 81.4308C229.489 81.341 230.027 80.2256 230.009 79.4396C229.974 77.7777 230.046 76.1121 230.058 74.4503C230.058 74.076 230.054 73.653 229.633 73.4659C229.053 73.2113 228.777 73.7279 228.53 74.0423C227.488 75.3635 226.491 76.8045 226.325 78.4589C226.154 80.147 225.237 80.4614 223.835 80.7907C222.747 81.0453 222.463 80.6298 222.588 79.8737C222.914 77.9349 222.216 76.3255 221.095 74.8695C217.945 70.7747 219.582 66.2046 219.779 61.8104C219.851 60.1523 221.663 62.1174 222.402 61.0431C222.52 60.871 222.77 61.7356 222.773 62.2746C222.792 64.7374 221.455 67.1329 222.489 69.6556C222.963 70.8084 223.35 71.9874 224.706 72.328C226.211 72.7061 227.041 71.5345 227.689 70.5913C229.478 68.0012 231.824 65.6507 231.403 62.0425C231.18 60.1186 232.813 60.463 234.003 60.4667C235.773 60.4742 234.636 61.5821 234.625 62.2072C234.583 64.3631 235.061 66.4255 235.682 68.4653C235.849 69.0043 236.175 69.5021 236.842 69.2888C237.857 68.9631 239.199 69.6069 239.851 68.1509C240.556 66.5639 241.568 65.1005 241.894 63.3712C242.087 62.3419 242.606 61.6832 243.599 61.4736C244.539 61.279 245.479 61.1479 245.297 62.69C245.165 63.8204 245.271 64.9769 245.271 66.1185V66.1335Z" fill="#E1E4ED"/>
<path d="M249.47 306.417C249.254 308.798 245.79 310.826 243.292 310.033C243.592 309.468 244.266 308.962 242.982 308.581C237.797 307.042 233.639 304.085 229.88 300.178C225.984 296.124 221.235 292.883 217.202 288.941C212.541 284.39 207.898 279.73 205.563 273.423C205.147 272.297 204.536 271.241 204.017 270.152C209.516 271.69 213.67 275.314 217.676 279.03C223.539 284.469 228.705 290.611 234.742 295.892C238.115 298.841 241.492 301.791 244.892 304.714C246.195 305.833 247.56 306.878 249.481 306.421L249.47 306.417Z" fill="#839C3F"/>
<path d="M109.439 253.283C115.688 253.26 121.942 253.275 128.188 253.185C129.662 253.163 130.121 253.717 129.954 255.057C129.852 255.888 129.992 256.797 129.689 257.538C129.332 258.422 129.469 258.837 130.356 259.009C131.193 259.174 131.891 258.972 132.126 258.044C132.273 257.464 132.505 256.85 132.436 256.281C132.046 252.886 134.255 253.017 136.575 253.197C137.466 253.264 138.371 253.208 139.77 253.208C134.885 260.316 130.591 267.277 125.042 273.367C121.654 270.493 118.065 267.813 114.934 264.687C111.838 261.592 109.772 257.785 109.435 253.279L109.439 253.283Z" fill="#C98F66"/>
<path d="M164.147 298.273C164.147 287.081 164.173 275.89 164.131 264.699C164.116 261.375 163.491 258.081 163.646 254.735C163.699 253.563 163.969 253.215 165.2 253.178C171.518 252.995 171.518 252.953 171.564 259.092C171.579 260.978 171.636 262.846 171.954 264.732C172.155 265.923 172.526 266.443 173.637 266.192C175.49 265.777 175.107 266.81 174.736 267.768C173.963 269.774 173.712 271.904 173.622 273.981C173.368 279.82 171.014 284.929 168.289 289.907C166.811 292.613 165.363 295.304 164.147 298.269V298.273Z" fill="#E3E6EF"/>
<path d="M146.88 247.144C150.707 241.178 154.372 235.467 158.033 229.747C158.723 228.669 159.182 228.928 159.739 229.901C161.126 232.33 162.403 234.969 164.768 236.548C166.591 237.765 167.497 239.812 169.487 240.823C170.624 241.399 171.533 245.685 171.071 246.77C170.809 247.384 170.377 247.152 169.942 247.152C162.381 247.141 154.82 247.144 146.88 247.144Z" fill="#E1E4ED"/>
<path d="M253.59 253.215C259.536 253.215 264.937 253.215 270.341 253.215C271.046 253.215 271.649 253.174 271.725 254.237C272.051 258.71 272.464 263.175 271.664 267.644C271.217 270.148 270.307 270.455 267.817 269.542C263.47 267.951 259.665 265.384 255.587 263.306C254.598 262.805 253.969 262.195 254.075 261.031C254.238 259.23 253.749 257.396 254.435 255.611C254.723 254.866 254.389 254.129 253.586 253.215H253.59Z" fill="#C88F66"/>
<path d="M69.6632 297.139C67.7986 294.384 65.7747 291.738 64.1792 288.803C63.2165 287.033 63.4932 286.314 65.517 286.179C68.1131 286.003 70.1862 287.437 72.6876 288.541C71.6378 285.562 71.8121 282.59 70.7699 279.813C69.9475 277.616 70.6865 275.46 71.5544 273.408C71.8803 272.645 72.6762 272.484 73.4986 272.432C74.4461 272.372 74.5598 272.978 74.8251 273.648C76.4169 277.645 78.0655 281.62 79.6952 285.603C79.6952 291.711 79.6914 297.824 79.6876 303.932C78.2285 301.439 75.0753 301.488 73.1424 299.658C72.1115 298.684 70.8305 297.969 69.6632 297.139ZM78.7098 296.386C78.8425 296.54 78.9827 296.704 79.1533 296.446C79.176 296.412 79.013 296.263 78.9372 296.165C78.2209 290.742 76.5799 285.577 74.666 279.985C73.9989 281.13 74.0671 281.804 74.2036 282.436C74.8517 285.464 75.5528 288.485 76.216 291.509C76.6216 293.351 76.8869 295.256 78.7136 296.386H78.7098ZM75.1245 298.041C73.1917 292.662 70.1142 288.504 66.8928 288.728C68.6892 292.437 71.3725 295.29 75.1245 298.041Z" fill="#ECCA5F"/>
<path d="M156.734 171.264C160.967 170.235 165.253 169.55 169.612 169.46C172.458 169.4 175.255 168.73 178.124 168.955C179.276 169.045 180.322 169.109 180.716 170.366C181.141 171.721 180.046 171.949 179.151 172.428C174.186 175.09 168.649 175.67 163.252 176.748C162.282 176.942 161.289 177.014 160.307 177.145C158.863 176.411 157.302 176.939 155.813 176.74C153.724 176.463 151.454 176.632 149.934 174.648C151.898 172.893 154.475 172.387 156.734 171.264Z" fill="#5C5C8D"/>
<path d="M164.143 214.375C164.325 217.486 163.904 220.6 164.496 223.721C165.238 227.636 167.346 230.552 170.51 232.843C171.568 233.606 172.689 234.287 173.705 235.1C175.911 236.866 177.234 239.071 177.112 241.99C177.048 243.577 176.847 245.187 177.495 246.721C176.4 247.092 175.176 246.437 173.978 247.212C173.705 243.813 172.754 241.055 169.889 238.584C167.463 236.492 165.25 233.816 163.4 231.035C160.622 226.858 160.558 222.22 161.145 217.486C161.183 217.186 161.376 216.875 161.327 216.602C160.872 214.121 162.373 214.087 164.143 214.371V214.375Z" fill="#FCFBF9"/>
<path d="M243.789 89.2198C245.078 95.0625 245.688 100.4 242.91 105.442C240.537 109.746 238.851 110.622 234.488 110.367C232.286 110.24 231.585 108.874 232.76 107.111C234.36 104.712 235.997 102.331 237.513 99.8796C238.093 98.9402 238.563 98.7867 239.491 99.3968C240.507 100.063 241.614 100.609 242.72 101.122C243.247 101.366 243.808 101.197 244.138 100.677C244.649 99.8759 243.755 99.8908 243.44 99.5802C242.254 98.4049 239.715 98.2028 239.707 96.4773C239.7 95.0251 241.193 93.5616 242.034 92.1131C242.523 91.2747 243.039 90.455 243.793 89.2161L243.789 89.2198Z" fill="#C88F66"/>
<path d="M150.37 178.556C151.42 185.791 151.572 193.149 153.133 200.298C153.842 203.551 154.774 206.882 156.817 209.704C156.207 209.734 155.839 210.022 155.801 210.651C153.592 210.554 152.777 209.154 152.038 207.271C149.529 200.878 148.506 194.253 148.305 187.449C148.244 185.338 147.877 183.253 147.505 181.168C146.997 178.305 147.763 177.672 150.37 178.556Z" fill="#FCFBF9"/>
<path d="M179.852 267.858C178.575 270.291 178.571 273.049 178.643 275.572C178.81 281.212 176.767 285.966 174.023 290.682C171.041 295.81 168.202 301.027 165.909 306.511C165.864 306.616 165.678 306.66 165.557 306.735C165.905 301.514 167.338 296.562 170.033 292.101C173.436 286.475 176.134 280.741 176.297 274C176.339 272.327 176.392 270.53 176.82 268.857C177.264 267.12 178.147 266.143 179.849 267.858H179.852Z" fill="#FCFBF9"/>
<path d="M262.898 296.79C261.064 299.047 258.452 300.286 256.095 301.855C255.341 302.356 254.484 302.704 254.071 303.584C254.071 299.987 254.075 296.394 254.075 292.797C254.075 288.489 254.075 284.177 254.075 279.333C255.504 281.37 256.068 283.226 256.815 284.978C258.293 288.455 259.714 291.955 261.128 295.458C261.465 296.293 261.871 296.914 262.898 296.794V296.79Z" fill="#E1E4ED"/>
<path d="M174.853 104.405C175.066 106.171 174.463 107.856 174.255 109.574C173.288 117.58 175.71 124.261 181.971 129.508C183.476 130.77 185.079 131.919 186.564 133.203C187.417 133.936 188.395 134.775 187.231 136.032C180.481 131.713 174.406 126.731 171.924 118.811C171.044 116.004 171.503 112.905 171.988 110.004C172.303 108.133 172.485 106.127 173.584 104.431C174.004 104.424 174.429 104.412 174.85 104.405H174.853Z" fill="#F4F2F4"/>
<path d="M146.918 199.662C147.403 201.47 147.941 203.263 148.362 205.085C149.442 209.764 152.713 212.29 157.041 213.769C157.757 214.016 158.784 213.986 158.496 215.034C158.125 216.378 157.158 215.21 156.635 215.12C152.898 214.484 149.165 213.776 145.497 212.833C144.151 212.489 142.336 212.511 141.771 210.673C143.488 207.002 145.205 203.33 146.922 199.658L146.918 199.662Z" fill="#EBC95F"/>
<path d="M109.439 253.283C109.776 257.789 111.842 261.596 114.938 264.691C118.069 267.82 121.658 270.496 125.046 273.371C125.182 274.322 126.892 273.345 126.706 274.689C126.088 274.917 125.717 275.34 125.656 276.006C123.314 276.122 121.768 274.692 120.596 273.053C119.524 271.548 118.034 270.702 116.598 269.74C111.285 266.17 107.877 261.528 107.502 254.963C107.407 253.264 108.002 252.965 109.431 253.283H109.439Z" fill="#FCFBF9"/>
<path d="M232.157 103.956C232.771 99.3032 233.423 94.9315 235.712 90.9602C236.819 89.0401 238.339 87.6216 240.116 86.3864C240.757 85.941 241.515 85.8849 242.068 86.2517C242.857 86.7794 242.277 87.4868 241.943 88.0483C239.411 92.259 237.437 96.7992 234.405 100.711C233.639 101.699 233.821 103.271 232.157 103.956Z" fill="#C88F66"/>
<path d="M178.056 253.29C178.079 255.491 178.321 257.718 178.056 259.885C177.832 261.738 178.677 262.666 180 263.583C181.539 264.646 183.385 265.425 184.01 267.423C181.452 266.218 179.053 264.639 176.059 264.53C175.494 264.511 174.88 264.092 174.85 263.164C174.766 260.604 174.611 258.036 174.311 255.491C174.084 253.563 174.789 252.871 176.68 253.208C177.127 253.287 177.594 253.268 178.052 253.294L178.056 253.29Z" fill="#FCFBF9"/>
<path d="M146.918 199.662C145.201 203.334 143.484 207.005 141.767 210.677C138.436 209.33 138.322 209.259 140.08 206.448C142.263 202.963 143.833 199.172 145.89 195.545C146.785 196.832 146.36 198.371 146.918 199.662Z" fill="#FCFBF9"/>
<path d="M196.649 153.923C193.78 154.657 190.809 154.717 187.895 155.129C183.794 155.709 180.353 157.416 177.067 159.661C175.93 160.44 174.857 161.312 173.364 161.267C172.678 161.151 171.984 160.934 172.921 160.249C177.65 156.798 182.274 152.887 188.683 153.489C191.344 153.736 193.996 153.751 196.649 153.923Z" fill="#FEFEFE"/>
<path d="M109.943 225.634C110.223 225.308 110.504 224.986 111.125 224.264C111.368 232.15 108.965 239.352 109.424 246.736C106.248 247.186 107.574 244.887 107.699 243.69C108.146 239.382 108.806 235.096 109.386 230.799C109.571 229.077 109.757 227.356 109.943 225.63V225.634Z" fill="#F4F2F4"/>
<path d="M237.634 118.617C235.709 118.785 234.864 117.617 234.765 115.899C234.629 113.53 236.156 112.201 238.635 112.179C240.662 112.16 241.075 113.444 241.079 115.008C241.087 117.449 239.923 118.639 237.634 118.617Z" fill="#E1E4ED"/>
<path d="M129.355 193.276C129.855 195.691 129.332 198.247 130.401 200.579C129.181 200.343 129.059 200.246 126.524 197.367C126.153 193.291 125.842 189.215 126.558 185.143C126.645 184.638 126.482 184.061 126.99 183.676C126.793 186.427 127.85 189.021 128.074 191.727C128.123 192.333 128.271 193.299 129.359 193.273L129.355 193.276Z" fill="#FCFBF9"/>
<path d="M103.409 210.108C102.507 208.911 101.287 207.859 101.556 206.13C105.084 206.897 108.613 207.657 112.137 208.45C112.66 208.566 113.214 208.862 113.217 209.48C113.217 210.254 112.512 210.041 112.035 210.187C109.143 211.082 106.282 210.172 103.409 210.108Z" fill="#C88F66"/>
<path d="M184.04 57.2403C183.646 59.2166 181.918 60.287 180.849 61.8067C179.155 64.2096 177.358 66.5302 177.313 69.6705C177.305 70.2095 176.82 70.741 176.555 71.2762C176.161 71.3137 175.225 72.5638 175.467 71.1901C176.426 65.7816 177.844 60.5079 183.191 57.4649C183.438 57.3264 183.756 57.3114 184.04 57.2366V57.2403Z" fill="#F4F2F4"/>
<path d="M177.385 74.2631C178.155 80.626 179.356 86.9815 177.582 93.3707C176.176 93.2621 176.805 92.2178 176.953 91.6901C178.166 87.3408 177.575 83.0365 176.601 78.7845C176.316 77.5456 176.324 76.2805 175.896 75.0341C175.426 73.6642 176.786 74.3866 177.385 74.2631Z" fill="#E1E4ED"/>
<path d="M96.409 197.888C98.1031 200.092 100.548 201.29 102.913 202.581C104.645 203.525 106.433 204.359 108.139 205.426C104.819 204.756 101.34 204.752 98.3457 202.87C97.4967 201.286 96.3597 199.812 96.409 197.888Z" fill="#C88F66"/>
<path d="M112.194 218.53C112.3 219.196 111.08 219.293 111.463 219.948C111.823 220.562 112.581 220.192 113.138 220.173C115.419 220.102 117.78 219.421 120.358 221.509C117.038 221.06 114.441 222.542 111.701 221.854C110.943 221.663 109.446 222.138 109.848 220.364C110.136 219.076 110.492 218.01 112.194 218.53Z" fill="#E1E4ED"/>
<path d="M156.734 171.264C154.475 172.387 151.894 172.893 149.934 174.648C151.454 176.632 153.724 176.463 155.813 176.74C157.302 176.939 158.864 176.407 160.308 177.145C156.756 177.747 153.304 177.219 149.859 176.362C149.04 176.16 148.218 176.029 148.43 175.06C148.585 174.352 148.259 173.409 149.491 173.005C151.867 172.226 154.096 170.961 156.734 171.268V171.264Z" fill="#F4F2F4"/>
<path d="M242.114 185.439C241.977 182.235 242.527 179.106 243.133 175.988C245.343 176.096 245.305 177.575 245.138 179.102C245.055 179.851 244.892 180.592 244.763 181.333C244.221 181.561 243.785 181.969 243.887 182.542C244.16 184.061 243.088 184.701 242.114 185.439Z" fill="#5C5C8D"/>
<path d="M170.177 162.173C168.888 163.337 167.273 164.003 165.852 164.954C164.533 165.837 163.415 166.96 162.76 168.446C162.149 168.33 161.361 169.052 160.94 168.24C160.63 167.634 161.217 167.132 161.558 166.631C163.62 163.61 166.534 162.21 170.173 162.169L170.177 162.173Z" fill="#F4F2F4"/>
<path d="M105.368 214.472C106.426 213.17 107.885 213.881 109.109 213.896C111.762 213.93 114.43 214.151 117.405 214.862C114.309 216.097 111.478 215.55 108.704 215.674C108.01 214.143 106.706 214.255 105.368 214.472Z" fill="#C88F66"/>
<path d="M186.958 203.176C186.735 201.709 186.2 200.403 186.379 199.022C186.466 198.344 185.973 197.008 187.485 197.48C188.399 197.764 189.873 197.742 189.392 199.591C189.013 201.054 188.516 202.289 186.955 203.176H186.958Z" fill="#EBC95F"/>
<path d="M196.013 173.753C193.826 174.367 192.048 174.921 190.237 175.337C189.835 175.427 189.058 175.883 188.872 175.239C188.702 174.648 188.941 173.911 189.111 173.267C189.297 172.559 189.809 172.75 190.385 172.863C192.082 173.196 193.807 173.417 196.013 173.753Z" fill="#C88F66"/>
<path d="M174.853 104.405C174.433 104.412 174.008 104.423 173.588 104.431C173.629 102.653 174.149 101.036 175.221 99.5989C175.96 101.264 175.198 102.818 174.853 104.405Z" fill="#E1E4ED"/>
<path d="M96.4089 197.888C96.3634 199.812 97.5004 201.286 98.3455 202.87C96.7083 202.394 95.7229 201.223 94.999 199.785C94.2334 198.269 94.7602 197.667 96.4089 197.888Z" fill="#F4F2F4"/>
<path d="M247.439 256.943C246.165 255.633 245.172 254.615 244.179 253.59C247.511 252.632 247.738 252.83 247.439 256.943Z" fill="#C98F66"/>
<path d="M155.797 210.655C155.835 210.026 156.199 209.738 156.813 209.708C157.522 210.453 158.234 211.197 158.943 211.942C157.708 211.965 156.726 211.37 155.797 210.655Z" fill="#E1E4ED"/>
<path d="M105.368 214.473C106.706 214.255 108.01 214.143 108.704 215.674C107.233 216.239 106.198 215.633 105.368 214.473Z" fill="#E3E6EF"/>
<path d="M185.12 174.068C185.765 174.319 185.954 174.82 185.931 175.483C185.912 176.029 185.723 176.373 185.132 176.265C184.215 176.096 184.48 175.228 184.309 174.667C184.218 174.364 184.639 174.034 185.117 174.068H185.12Z" fill="#EBC95F"/>
<path d="M206.363 200.497C205.635 200.167 205.226 199.565 204.927 198.868C205.23 198.314 205.772 198.094 206.325 197.891C206.325 198.139 206.325 198.389 206.321 198.636C206.337 199.258 206.352 199.879 206.367 200.497H206.363Z" fill="#5C5C8D"/>
<path d="M178.977 167.735C179.845 167.712 180.766 167.536 181.258 168.543C180.383 168.588 179.5 168.656 178.977 167.735Z" fill="#5C5C8D"/>
<path d="M185.458 56.2896C185.348 57.1205 185.033 57.6595 184.052 57.2328C184.29 56.5815 184.87 56.4318 185.458 56.2896Z" fill="#F4F2F4"/>
<path d="M210.945 270.627C210.748 270.564 210.551 270.504 210.354 270.44C210.396 270.384 210.468 270.276 210.471 270.279C210.642 270.377 210.809 270.489 210.972 270.594L210.945 270.627Z" fill="#5C5C8D"/>
<path d="M204.013 270.152C203.919 270.085 203.824 270.017 203.729 269.95C204.017 269.759 204.017 269.95 204.013 270.156V270.152Z" fill="#839C3F"/>
<path d="M114.4 96.204C113.433 96.8815 112.649 96.6232 111.925 96.627C104.36 96.6494 96.784 96.8965 89.2345 96.5746C80.9496 96.219 72.6534 96.0393 64.3799 95.3506C59.5856 94.9501 54.7269 95.3207 49.9175 95.04C42.2883 94.5946 34.6591 95.0362 27.0337 94.7855C23.1945 94.6619 19.4045 95.3207 15.3948 95.3731C17.7294 89.2759 21.1138 83.916 24.3542 78.4963C28.3526 71.8077 33.0711 65.6132 37.9109 59.501C38.8887 58.2659 39.7225 58.1835 40.9466 59.1342C48.2764 64.8347 55.14 70.988 60.4839 78.6236C65.3274 85.5442 71.5278 87.9284 79.896 86.3414C84.5577 85.4581 89.2761 84.6459 94.0022 84.3727C98.5843 84.1069 102.89 85.6415 106.229 88.8417C108.844 91.3495 111.034 94.2914 114.4 96.2003V96.204Z" fill="#E3E6EF"/>
<path d="M256.546 27.0275C253.973 27.1249 251.596 26.7393 249.258 26.5148C241.473 25.7624 233.689 26.2453 225.908 26.1704C214.174 26.0544 202.433 26.002 190.703 26.1854C181.918 26.3239 173.125 26.3875 164.355 26.7468C160.084 26.9227 155.726 26.4661 151.488 27.4842C151.234 27.5441 150.939 27.4131 150.147 27.297C156.59 23.6664 162.294 19.6952 169.733 19.6877C177.211 19.6802 184.666 20.2641 192.147 20.2529C201.611 20.2379 210.513 18.576 218.464 13.2723C222.285 10.7272 225.828 10.5213 230.24 12.5687C238.559 16.4239 246.783 20.3876 254.609 25.1374C255.284 25.5453 256.205 25.7849 256.546 27.0275Z" fill="#E3E6EF"/>
<path d="M146.762 163.917C145.981 159.126 142.453 159.017 139.3 158.475C136.825 158.048 134.297 157.91 131.815 157.509C129.052 157.064 128.218 155.241 129.491 152.699C131.762 156.36 133.649 156.061 137.363 155.488C140.259 155.043 143.12 154.664 146.027 154.807C149.464 154.975 150.457 157.075 148.585 159.961C147.895 161.024 147.054 162.016 146.758 163.917H146.762Z" fill="#E1E4ED"/>
<path d="M183.623 124.587C183.074 124.231 182.498 123.909 181.982 123.512C181.296 122.981 181.012 122.374 181.903 121.749C186.322 121.783 190.756 122.161 195.149 121.33C195.406 122.771 194.402 123.662 193.655 124.665C192.897 124.684 192.056 124.493 191.4 124.755C188.759 125.807 186.197 125.597 183.627 124.59L183.623 124.587Z" fill="#9E4D40"/>
<path d="M214.14 94.8304C210.206 98.3413 203.775 99.0262 199.795 96.5821C197.733 95.317 196.657 92.8579 197.324 90.7319C197.464 90.2865 197.332 89.523 198.067 89.4556C198.984 89.3733 198.942 90.2079 199.037 90.7394C199.575 93.861 201.466 95.6277 204.498 96.4399C206.5 96.9751 208.269 96.2602 210.085 95.7063C211.298 95.3395 212.412 94.5609 214.136 94.8304H214.14Z" fill="#2B2464"/>
<path d="M195.149 121.326C190.756 122.157 186.326 121.783 181.903 121.746C181.342 121.02 179.496 121.158 179.97 119.994C180.451 118.815 181.789 119.616 182.801 119.848C186.958 120.795 191.116 120.484 195.258 119.71C196.369 119.504 197.472 119.302 198.685 119.661C197.904 121.181 196.153 120.492 195.149 121.326Z" fill="#2B2464"/>
<path d="M187.493 112.205C185.185 111.928 182.509 110.996 180.421 108.806C180.038 108.406 179.144 107.949 179.682 107.399C180.148 106.924 181.13 106.864 181.781 107.481C183.953 109.525 186.5 110.7 189.513 110.891C189.987 110.921 190.457 111.217 190.396 111.733C190.324 112.358 189.702 112.156 189.289 112.198C188.91 112.235 188.524 112.205 187.489 112.205H187.493Z" fill="#2B2464"/>
<path d="M199.662 101.785C202.349 99.9394 205.423 99.4154 208.538 99.0561C208.815 99.0224 209.361 99.393 209.41 99.6475C209.516 100.171 208.876 100.546 208.557 100.55C205.525 100.583 202.816 102.503 199.662 101.788V101.785Z" fill="#2B2464"/>
<path d="M183.623 124.587C186.193 125.593 188.755 125.803 191.397 124.751C192.056 124.489 192.897 124.68 193.652 124.661C190.392 126.716 187.034 127.311 183.46 125.429C183.1 125.242 182.987 125.144 183.244 124.841C183.339 124.733 183.491 124.669 183.62 124.587H183.623Z" fill="#2B2464"/>
<path d="M78.7097 296.39C76.8868 295.26 76.6215 293.354 76.216 291.513C75.5527 288.485 74.8516 285.468 74.2035 282.44C74.067 281.808 73.9988 281.13 74.6659 279.989C76.5836 285.58 78.2246 290.746 78.9371 296.169C78.8613 296.244 78.7855 296.319 78.7097 296.394V296.39Z" fill="#E1E4ED"/>
<path d="M75.1246 298.041C71.3688 295.293 68.6893 292.441 66.8928 288.728C70.1143 288.5 73.1917 292.662 75.1246 298.041Z" fill="#E1E4ED"/>
<path d="M78.941 296.165C79.0168 296.263 79.1798 296.412 79.157 296.446C78.9903 296.704 78.8463 296.54 78.7136 296.386C78.7894 296.311 78.8652 296.236 78.941 296.165Z" fill="#E1E4ED"/>
</g>
<defs>
<clipPath id="clip0_1_33885">
<rect width="332" height="332" fill="white"/>
</clipPath>
</defs>
</svg>
