<svg width="332" height="332" viewBox="0 0 332 332" fill="none" xmlns="http://www.w3.org/2000/svg">
<g clip-path="url(#clip0_1_34206)">
<path d="M0 181.302V150.698C0.810809 150.585 0.889638 150 0.927175 149.339C1.12612 145.803 1.70045 142.319 2.26726 138.828C5.38662 119.523 11.7905 101.347 21.4114 84.3616C31.1824 67.1132 43.5735 51.9781 58.8137 39.1966C68.4871 31.0847 78.8849 24.0953 90.0711 18.2845C100.304 12.9654 111.028 8.83253 122.139 5.76948C130.672 3.41588 139.343 1.66288 148.19 0.923391C148.885 0.863331 149.636 0.964682 149.778 -0.00378418H182.237C182.349 0.807025 182.931 0.930898 183.596 0.91213C186.31 0.840809 188.945 1.45642 191.599 1.86558C201.437 3.37834 211.084 5.72819 220.484 8.99019C230.12 12.3348 239.35 16.614 248.246 21.6215C258.836 27.5825 268.678 34.602 277.582 42.8302C284.143 48.8925 290.363 55.3189 295.938 62.3684C307.623 77.1394 316.677 93.3218 322.89 111.096C326.966 122.759 329.86 134.699 331.08 147.019C331.144 147.676 331.197 148.265 332.011 148.374V183.614C331.043 183.761 331.122 184.504 331.084 185.202C330.833 189.823 329.909 194.354 328.974 198.858C325.686 214.722 320.33 229.838 312.683 244.174C306.264 256.216 298.558 267.33 289.376 277.357C283.291 284.001 276.779 290.251 269.68 295.893C254.669 307.826 238.115 316.887 220.033 323.145C208.37 327.184 196.396 329.992 184.061 331.065C183.404 331.122 182.815 331.182 182.702 331.992H149.316C149.208 331.178 148.618 331.107 147.958 331.065C143.652 330.795 139.422 330.014 135.191 329.218C116.828 325.769 99.5043 319.421 83.3557 310.071C66.5501 300.337 51.7529 288.137 39.2154 273.205C30.9421 263.352 23.8513 252.743 18.018 241.309C13.1381 231.745 9.15163 221.779 6.29128 211.415C3.7087 202.06 1.71171 192.582 0.934682 182.882C0.878376 182.184 0.975974 181.437 0.00750749 181.291L0 181.302Z" fill="url(#paint0_linear_1_34206)"/>
<path d="M247.218 126.726C255.405 126.704 261.456 131.452 267.702 135.825C273.081 139.594 276.223 145.244 280.093 150.277C281.325 151.88 282.079 153.84 283.138 155.581C283.596 156.332 283.746 157.552 285.161 157.274C285.555 157.196 285.874 157.552 286.035 157.969C288.674 164.714 292.785 170.747 295.499 177.447C296.828 180.732 299.219 183.419 300.435 186.73C300.904 188.006 301.572 187.766 302.409 187.286C302.976 186.959 303.539 186.704 304.234 186.756C304.962 186.813 305.547 187.128 305.761 187.766C306.047 188.618 305.213 188.851 304.68 189.11C301.921 190.435 301.91 190.679 303.213 193.457C305.337 197.98 307.379 202.586 310.146 206.715C312.796 210.668 314.988 214.872 317.563 218.843C319.688 222.124 320.912 225.51 320.821 229.395C320.81 229.936 320.694 230.593 321.557 230.649V231.625C320.228 231.94 320.731 233.382 319.966 234.162C318.164 236.009 315.975 236.745 313.611 237.575C308.055 239.523 302.672 241.948 297.199 244.132C292.92 245.84 288.611 247.473 284.316 249.136C279.136 250.45 274.192 252.406 269.316 254.564C269.283 254.181 269.046 254.076 268.708 254.14C268.648 254.151 268.603 254.245 268.554 254.301C268.81 254.388 269.065 254.478 269.316 254.564C268.216 255.506 266.835 255.649 265.499 255.96C259.414 257.391 253.066 257.987 248.509 263.25C244.962 267.349 240.75 270.818 236.58 274.309C233.69 276.73 231.069 277.255 227.909 275.15C226.49 274.207 225.694 273.036 227.075 271.321C228.04 270.127 228.78 268.757 229.62 267.466C225.187 269.47 220.544 270.698 216.734 273.498C214.148 275.397 211.715 274.823 209.373 273.381C206.422 271.565 203.063 271.013 199.722 271.415C197.868 271.64 196.137 271.43 194.459 271.035C193.318 270.769 191.801 270.041 191.835 268.547C191.865 267.075 191.216 265.915 190.856 264.613C190.518 263.393 189.917 262.064 191.715 261.129C200.69 256.46 209.042 250.675 218.228 246.298C217.304 246.141 216.358 245.923 215.555 246.178C211.621 247.417 207.47 247.117 203.547 247.135C154.11 247.379 104.67 247.297 55.2289 247.293C54.6621 247.293 54.0878 247.293 53.5323 247.207C53.0293 247.128 53.0105 246.67 52.9917 246.261C54.8123 244.815 56.9632 245.705 58.9489 245.424C59.2454 245.833 59.542 245.829 59.8385 245.424C62.9617 245.424 66.081 245.431 69.2041 245.435C69.4969 245.833 69.7897 245.829 70.0863 245.439C70.608 245.442 71.1298 245.45 71.6516 245.454C71.9444 245.837 72.2334 245.829 72.5224 245.454C74.5082 245.45 76.4977 245.442 78.4834 245.439C79.1065 245.927 79.7259 245.934 80.3415 245.424C80.6981 245.427 81.0547 245.435 81.4113 245.439C81.9031 245.953 82.1583 245.668 82.3573 245.165C88.1643 245.27 93.9676 245.45 99.7746 245.461C118.052 245.499 136.329 245.472 154.606 245.484C155.57 245.484 156.535 245.604 157.5 245.668C157.988 246.497 158.487 246.516 159.001 245.69C164.11 245.206 169.226 245.566 174.339 245.487C178.235 245.427 182.136 245.476 186.216 245.476C184.985 241.501 183.979 237.642 184.17 233.603C184.226 232.402 183.611 232.169 182.654 232.522C177.624 234.369 172.353 234.451 167.169 234.042C160.214 233.494 153.352 232.087 147.154 228.663C145.439 227.717 144.02 229.046 142.29 228.505C145.431 225.097 144.602 220.799 145.248 216.858C145.991 212.327 146.629 207.781 147.305 203.243C147.83 199.725 148.359 196.208 148.84 192.683C148.907 192.18 149.204 191.475 148.513 191.171C147.853 190.878 147.402 191.403 147.184 191.91C146.877 192.627 146.426 192.819 145.683 192.837C139.816 192.991 134.692 195.799 129.283 197.56C124.966 198.963 120.721 200.645 116.576 202.507C115.079 203.179 114.061 204.59 112.136 204.921C108.656 205.514 105.278 205.6 101.862 204.797C100.131 204.391 99.0427 202.995 98.5584 201.61C96.8017 196.569 95.2964 191.437 93.8099 186.302C93.367 184.774 93.093 183.138 93.108 181.554C93.1718 173.843 92.2484 166.163 92.4886 158.446C92.7476 150.093 92.62 141.719 93.2206 133.393C93.596 128.153 93.9601 122.83 95.4691 117.71C95.7131 116.888 95.9083 115.901 95.2289 115.154C94.4068 114.249 93.656 115.266 92.8828 115.311C90.1763 115.473 87.4436 116.002 84.7446 115.086C83.8625 114.786 82.6425 115.972 81.9481 114.444C81.8543 114.234 81.2011 114.508 81.2199 115.052C81.2499 115.961 80.6756 116.115 79.9436 116.103C74.6208 116.017 69.4106 117.406 64.0953 117.312C62.9316 117.293 62.6238 117.834 62.2785 118.761C61.783 120.09 61.9406 121.486 61.6366 122.819C60.6381 124.151 59.8048 125.458 62.2297 126.186C63.7312 128.476 62.9767 131.07 63.2132 133.528C62.6088 134.125 62.6426 134.621 63.4534 134.985C63.9602 136.261 63.6448 137.59 63.7124 138.892C63.1005 139.444 63.4346 139.696 64.024 139.865C64.2492 140.657 64.7785 141.572 63.2957 141.685C62.4511 139.853 61.828 142.612 61.0322 141.794C60.5067 139.331 61.4564 136.479 59.2605 134.444C51.4076 165.664 43.75 196.831 33.7012 228.07C34.985 226.91 37.3987 228.055 36.6854 225.705C36.1412 223.926 37.012 223.246 38.0255 222.541C39.4782 221.523 41.1562 220.912 42.8453 220.345C48.7049 218.385 54.7522 218.393 60.822 218.487C62.2034 218.509 63.337 218.768 64.2605 219.857C65.1839 220.945 65.3303 222.072 64.4219 223.333C68.581 223.333 72.4812 223.288 76.3813 223.348C78.7424 223.385 80.9158 223.9 82.5938 225.867C83.2469 226.629 84.4931 226.903 85.4654 226.283C86.4639 225.649 85.563 224.861 85.349 224.162C83.7199 218.873 81.5427 213.791 79.4781 208.663C80.7882 208.389 80.6343 207.53 79.8498 207.038C78.7124 206.325 79.3317 205.566 79.4594 204.782C79.9023 204.789 80.3453 204.797 80.7882 204.804C82.3197 206.82 83.367 209.226 83.9864 211.52C85.5404 217.259 88.6598 222.259 90.7957 227.702C91.4601 229.399 93.123 228.276 94.3805 229.095C92.346 230.12 92.2747 231.629 93.0592 233.423C93.2356 233.832 93.4571 234.789 92.7063 234.834C91.8955 234.883 90.6155 235.78 90.2927 234.782C89.6921 232.946 88.7199 233.93 87.9128 234.207C80.7356 236.681 73.8926 240.146 66.3438 241.52C61.0698 242.481 55.8446 243.104 50.3754 242.687C45.3266 242.304 40.7583 241.002 36.3476 238.824C34.9249 238.123 32.7778 237.83 33.1006 235.341C33.2057 234.549 32.5713 234.808 32.1209 234.808C30.6832 234.801 29.2455 234.755 27.8041 234.722C27.3274 234.71 26.7305 234.827 26.5691 234.222C26.3664 233.464 27.1096 233.652 27.47 233.434C28.0143 233.104 28.5849 232.773 28.8289 232.098C31.205 225.431 33.4272 218.712 35.5143 211.944C37.4812 205.566 39.0203 199.069 41.2538 192.759C42.5338 189.144 42.9429 185.225 43.8889 181.482C45.2853 175.953 47.1584 170.533 48.476 165.007C49.3956 161.141 51.0548 157.413 51.2087 153.359C51.2275 152.886 51.3964 152.398 51.5916 151.963C53.9189 146.753 53.9414 140.976 55.6831 135.578C56.7943 132.139 57.1133 128.329 57.6276 124.666C57.9692 122.248 58.6861 119.951 59.3318 117.432C54.3994 117.428 49.512 117.342 44.6246 117.196C42.6727 117.136 42.0646 115.754 41.8881 114.774C41.6817 113.622 43.292 113.318 44.3806 113.074C48.1419 112.237 51.9669 112.473 55.7657 112.53C57.5938 112.556 58.0893 112.057 57.4587 110.262C56.9819 108.907 56.8318 107.436 56.5765 106.009C56.4452 105.285 56.813 104.699 57.4136 104.38C59.5983 103.224 61.7117 101.738 64.846 102.567C61.6216 105.217 63.1456 108.772 62.6576 111.948C62.5337 112.744 62.6051 113.806 63.8513 113.483C67.3385 112.579 70.9609 112.789 74.4519 112.676C80.5817 112.473 86.7041 111.749 92.8377 111.982C94.9436 112.061 95.8595 111.546 95.5479 109.347C95.424 108.476 95.5479 107.567 95.5629 106.674C95.9195 106.584 96.3775 106.528 96.2649 106.036C96.2274 105.867 95.7994 105.788 95.5517 105.664C95.5442 104.677 94.6057 103.449 96.2649 102.89L96.2724 102.823C96.385 103.269 96.3287 103.825 96.8955 103.994C97.0006 104.024 97.3197 103.75 97.3422 103.588C97.4286 103.018 97.0757 102.71 96.5577 102.564C96.7491 102.083 96.584 101.802 96.0734 101.726L96.0096 101.738C95.8407 101.588 95.6756 101.437 95.5066 101.284C94.3317 98.4457 94.9023 95.3826 94.4068 92.436C93.6298 87.8001 94.0352 82.909 92.8565 78.4082C92.0269 75.2438 91.8467 72.1807 91.659 69.0351C91.5877 67.8452 91.7642 67.2521 93.3557 67.1507C98.611 66.8204 103.844 66.1597 109.26 65.6079C105.754 62.6124 105.736 61.1222 108.96 57.3272C110.833 55.1237 113.926 54.7972 116.07 56.5764C118.506 58.5997 118.592 61.9856 116.145 65.0974C118.153 65.3264 120.052 65.0486 121.745 66.7716C122.594 67.635 125.022 67.1169 126.708 66.9555C129.257 66.7078 130.953 67.7063 131.163 70.2025C131.516 74.3579 133.202 78.2731 133.123 82.496C133.033 87.267 131.295 89.1064 126.621 89.0914C125.736 89.0914 124.853 89.0914 123.99 89.0914C125.927 95.3601 122.091 100.326 120.097 105.672C119.654 106.858 118.998 108.753 119.508 108.964C120.923 109.542 121.224 111.501 123.213 111.359C127.556 111.043 131.925 111.107 136.276 110.934C139.136 110.822 142.117 110.409 145.112 111.115C146.742 111.497 148.731 111.145 150.555 111.107C152.635 111.062 154.669 110.518 156.783 111.201C158.149 111.64 159.268 111.16 158.937 109.365C158.667 107.886 159.564 106.606 159.422 105.045C159.283 103.528 159.395 102.019 158.754 100.57C158.367 99.6957 158.311 98.8586 159.234 98.1904C159.921 97.6912 160.657 97.2483 161.479 97.5486C162.455 97.9052 162.507 98.8136 162.605 99.7595C162.95 103.097 164.369 106.299 163.821 109.756C163.697 110.533 164.256 110.69 164.902 110.66C165.39 110.638 165.878 110.649 166.362 110.612C169.703 110.356 172.691 109.936 171.862 105.195C171.629 103.866 172.537 102.068 174.388 101.832C176.276 101.591 178.299 101.257 179.658 103.254C179.955 103.686 180.356 104.309 181.006 103.99C181.569 103.712 181.554 103.033 181.524 102.47C181.265 97.4472 181.933 92.4435 181.888 87.4172C181.873 85.7168 181.67 83.2656 184.11 82.2821C184.482 82.1319 184.519 81.5126 184.253 81.186C182.631 79.2002 183.112 75.9983 180.446 74.6132C180.255 74.5156 180.033 74.2378 180.033 74.0426C180.045 70.3714 178.885 66.6815 180.15 63.0291C180.202 62.879 180.311 62.7476 180.398 62.6087C181.636 62.6913 181.524 61.5914 181.929 60.912C182.672 59.6695 182.721 60.7956 182.95 61.2536C182.849 61.888 182.744 62.5224 182.642 63.153C182.019 63.3031 181.655 63.5509 182.263 64.1627C182.41 66.6515 182.421 69.159 182.751 71.6214C182.98 73.3144 183.922 74.7783 185.413 75.7806C186.145 76.3211 186.88 76.8654 187.612 77.406C188.393 78.0403 188.889 79.1852 190.21 78.8474C193.202 80.9082 196.689 80.9345 200.112 81.4863C205.81 82.4059 211.009 81.2948 215.934 78.5621C217.616 77.6274 219.666 76.7528 218.994 74.0801C218.873 73.5959 219.283 73.1755 219.767 72.9578C220.431 72.6575 221.145 72.2033 221.85 72.5599C223.108 73.198 222.098 74.5982 222.74 75.6455C224.226 72.8602 224.26 69.2753 227.766 67.6012C226.914 68.8587 228.415 69.5531 227.935 70.7844C225.998 75.728 225.593 80.9645 225.488 86.2273C225.544 86.4337 225.382 86.8241 225.863 86.6815L225.825 86.6364C225.893 90.7993 227.334 94.3954 230.277 97.3684C232.586 100.176 235.84 101.817 238.562 104.114C239.05 104.144 239.714 104.166 239.726 103.588C239.756 102.139 240.465 100.863 240.529 99.3991C240.615 97.3721 240.803 95.2813 241.993 93.487C242.98 93.6372 243.787 93.2768 244.482 92.6011C244.774 95.5741 243.273 98.3443 243.502 101.314C243.622 102.864 243.318 104.223 245.754 102.695C250.412 99.7745 252.781 100.36 253.498 106.982C254.14 112.898 251.219 118.014 247.924 122.781C247.53 123.348 246.208 123.78 248.04 124.542C249.144 125 248.228 125.919 247.342 126.276C246.542 126.415 245.574 125.728 244.812 126.708C245.72 127.365 246.456 126.79 247.203 126.73L247.218 126.726ZM251.272 237.935C250.893 237.927 250.63 238.096 250.488 238.453L250.536 238.412C248.34 238.438 246.482 239.249 244.962 240.837C243.415 240.645 242.747 242.743 241.111 242.323C241.006 240.874 240.221 241.437 239.433 241.7C235.465 243.014 231.497 244.335 227.5 245.559C221.501 247.398 215.525 249.32 210.942 253.881C208.813 255.998 206.449 257.796 204.11 259.628C201.253 261.865 198.765 264.421 196.58 267.293C195.878 268.738 197.072 269.245 197.95 269.556C198.806 269.86 199.902 269.474 200.015 268.419C200.142 267.214 200.983 266.782 201.741 266.231C206.933 262.454 211.426 257.826 216.67 254.091C218.307 252.924 219.609 252.961 221.475 253.547C219.572 255.236 217.928 256.801 216.171 258.228C212.841 260.93 209.395 263.498 206.107 266.253C205.225 266.993 203.262 267.788 204.917 269.463C206.186 270.746 207.511 270.363 208.675 269.042C209.26 268.378 209.947 267.743 210.705 267.304C215.807 264.369 220.251 260.592 224.53 256.602C226.088 255.15 227.657 254.793 229.523 255.882C229.489 256.662 228.937 257.079 228.442 257.447C223.37 261.219 218.716 265.536 213.333 268.9C212.518 269.41 211.205 269.958 212.019 271.298C212.789 272.563 213.855 272.195 214.97 271.538C216.854 270.427 219.012 269.748 220.837 268.622C225.236 265.915 231.276 265.713 233.851 260.138C234.35 259.061 235.683 259.29 236.745 259.474C237.319 259.575 237.62 260.022 237.511 260.536C237.259 261.677 237.282 262.864 236.516 263.915C234.613 266.523 232.837 269.226 231.009 271.891C230.559 272.544 229.879 273.092 230.994 273.869C231.884 274.489 232.477 274.59 233.284 273.772C234.421 272.619 235.713 271.617 236.888 270.499C240.57 266.993 244.234 263.46 247.901 259.939C248.903 259.774 249.549 259.222 249.763 258.209C251.163 257.436 252.406 256.463 254.054 256.054C260.747 254.388 267.364 252.436 273.937 250.334C281.287 247.987 288.532 245.367 295.776 242.713C302.533 240.24 309.042 237.285 315.45 234.065C316.756 233.408 318.306 229.256 317.421 228.978C314.879 228.179 316.159 226.858 316.546 225.499C316.734 224.834 316.79 224.035 316.321 223.382C314.023 220.157 312.357 216.565 310.394 213.149C306.73 206.779 302.308 200.859 299.23 194.144C298.697 192.98 297.792 192.646 296.632 193.295C291.865 195.976 287.008 198.509 282.462 201.572C281.531 202.004 280.604 202.454 279.662 202.86C279.17 203.074 278.659 203.404 279.054 203.903C280.705 205.987 279.849 208.963 281.891 211.024C283.611 212.755 284.519 215.157 285.506 217.451C286.336 219.38 285.671 220.337 284.065 221.062C282.676 221.689 281.099 222.008 279.861 222.841C273.224 227.297 265.788 230.138 258.667 233.626C257.736 234.08 256.516 234.271 256.099 235.487L256.114 235.48C254.587 235.713 252.988 235.799 252.184 237.462L252.229 237.428C251.505 236.876 251.317 237.338 251.219 237.965L251.268 237.935H251.272ZM101.828 200.863C101.952 201.25 101.899 201.899 102.616 201.388L102.556 201.358C103.239 203.43 104.947 203.832 106.727 203.532C108.675 203.201 110.604 202.616 112.451 201.906C121.847 198.284 131.13 194.331 140.874 191.704C143.442 191.013 142.537 190.274 141.445 189.14C139.921 185.942 138.303 182.8 137.132 179.425C135.995 176.148 135.514 172.676 134.035 169.512C132.147 165.465 132.192 165.506 128.468 167.751C124.726 170.007 120.781 172.075 123.191 177.601C123.281 177.807 123.198 178.085 123.213 178.329C123.277 179.358 123.66 180.626 122.049 180.732C120.814 180.814 120.188 180.018 119.985 178.791C118.968 172.65 117.823 166.535 117.56 160.289C117.432 157.226 117.109 154.166 116.907 151.103C116.453 144.294 115.717 137.503 115.146 130.702C114.7 125.39 114.332 120.075 113.941 114.936C110.026 114.474 106.197 115.097 102.357 114.966C101.122 114.925 99.7897 114.955 99.8835 116.798C99.2942 116.955 98.5847 116.832 98.4834 117.796C98.1343 121.062 97.5299 124.313 97.3572 127.586C96.9105 135.976 96.6891 144.377 96.2837 152.766C95.8557 161.693 96.096 170.623 96.1373 179.553C96.1485 181.831 96.4226 184.268 97.9165 186.265C97.9766 187.882 98.0329 189.504 98.093 191.122C98.3295 193.352 98.641 195.555 99.906 197.492L99.8835 197.458C99.9023 197.867 99.8084 198.333 100.387 198.464L100.371 198.442C100.661 199.391 100.792 200.431 101.858 200.912L101.832 200.874L101.828 200.863ZM199.268 259.703C197.92 260.228 196.67 260.882 195.45 262.409C197.526 262.154 198.532 261.028 199.647 260.093C200.022 259.951 200.578 259.688 200.3 259.32C199.853 258.734 199.523 259.297 199.268 259.703ZM236.647 119.606C236.813 118.416 237.267 117.259 237.09 116.024C237.072 113.427 236.978 110.826 237.06 108.232C237.109 106.711 236.471 105.897 235.18 105.206C231.734 103.371 228.614 101.096 226.212 97.9464C222.59 93.2017 220.923 87.999 222.297 82.0081C222.665 80.3977 222.597 78.731 222.252 76.6927C216.636 82.5186 209.895 83.8962 202.526 83.8099C198.033 83.7573 193.731 82.8414 189.384 81.993C186.723 80.2963 186.895 80.3864 185.949 82.999C184.936 85.7956 185.469 88.6822 184.913 91.5238C183.652 97.9953 184.759 104.534 186.216 110.844C187.766 117.556 189.418 124.174 188.945 131.133C188.889 131.97 188.652 132.95 189.613 133.547C189.095 134.482 188.889 135.454 188.87 136.55C188.821 139.56 189.073 142.548 189.343 145.54C188.746 147.049 189.977 148.134 190.3 149.425C191.482 154.159 192.492 158.922 195.743 162.92C198.911 166.813 202.976 168.262 207.665 168.063C209.196 167.999 211.099 168.078 212.425 166.734C213.787 165.349 215.337 164.504 217.361 165.078C217.826 165.21 218.363 164.951 218.325 164.613C218.066 162.357 220.247 161.985 221.19 160.679C224.894 155.555 227.402 149.786 229.714 143.934C231.569 139.245 233.198 134.463 234.32 129.553C234.996 126.599 236.595 123.81 236.167 120.627L236.133 120.567C236.306 120.247 236.482 119.928 236.655 119.609L236.647 119.606ZM160.319 225.123C161.37 225.142 162.462 225.345 163.461 225.123C164.211 224.954 165.563 225.848 165.66 224.508C165.739 223.404 164.425 223.168 163.509 222.882C163.055 222.74 162.552 222.766 162.068 222.713C160.514 221.493 158.648 221.959 156.907 221.775C156.925 221.546 156.94 221.317 156.959 221.088C156.82 220.701 156.678 220.311 156.539 219.924C158.322 219.448 160.236 220.364 161.974 219.414C162.684 220.897 163.81 220.093 164.816 219.932C166.231 222.612 167.661 223.014 170.075 221.501C171.231 220.777 172.462 220.176 173.656 219.523C174.144 219.087 175.142 219.35 175.27 218.333C174.395 217.638 173.374 218.138 172.462 217.942C171.756 217.792 170.803 217.721 170.882 216.798C170.949 215.99 171.858 216.066 172.481 216.126C174.621 216.336 176.813 216.107 178.746 217.563C180.041 218.536 182.605 217.466 182.121 216.437C181.359 214.816 181.723 213.089 181.223 211.539C179.677 206.726 177.969 201.966 176.253 197.21C174.801 193.183 173.258 189.185 172.162 185.041C171.67 183.187 170.555 182.417 168.663 182.834C168.791 181.621 168.014 180.852 167.432 179.902C166.28 178.029 164.358 176.97 163.078 175.199C161.043 172.383 158.404 170.03 156.287 166.959C154.166 173.84 154.868 180.814 151.989 187.556C154.587 186.621 156.573 185.818 158.611 185.191C161.925 184.174 165.146 182.744 168.716 182.792C168.776 183.858 168.063 184.114 167.211 184.414C162.65 186.021 157.976 187.293 153.51 189.174C152.211 189.722 151.625 190.371 151.7 191.854C151.843 194.838 151.347 197.8 150.844 200.732C149.692 207.443 148.536 214.155 147.744 220.919C147.77 221.452 147.796 221.989 147.823 222.522C147.549 223.044 146.843 223.584 147.86 224.057C148.442 224.328 149.031 224.545 149.403 225.138C150.416 226.756 151.828 226.745 153.386 226.051C154.433 225.904 155.48 225.758 156.528 225.615C156.862 225.446 157.192 225.281 157.526 225.112C157.845 225.101 158.164 225.086 158.479 225.075C159.091 225.097 159.707 225.116 160.319 225.138V225.123ZM35.4467 232.462C37.7177 232.387 40.03 233.047 42.2522 232.072C46.9407 231.4 51.6892 231.869 56.3851 231.493C50.7958 229.909 45.229 228.378 39.3731 228.798C37.9429 228.509 36.494 228.472 35.0638 228.686C33.3146 228.948 32.1547 230.06 32.5225 231.801C32.8904 233.543 34.3844 232.552 35.4467 232.462ZM67.7139 225.288C63.2357 225.33 58.84 225.776 54.6846 228.04C56.5015 228.945 58.2807 229.53 60.2702 229.181L65.1951 229.17C70.1839 229.594 74.9211 228.948 79.632 226.189C76.8806 224.958 74.542 225.12 72.2034 225.273C70.7094 225.277 69.2116 225.281 67.7177 225.288H67.7139ZM183.067 220.367C183.085 219.68 182.759 219.226 182.072 219.358C179.208 219.913 176.186 219.962 173.682 221.767C173.07 222.21 171.94 222.282 172.061 223.299C172.192 224.399 173.341 223.93 174.005 224.226C176.505 225.281 178.9 224.008 181.351 223.9C184.294 223.764 184.298 223.798 183.374 221.02C183.299 220.795 183.172 220.585 183.067 220.367ZM159.602 146.805C161.471 145.784 163.382 144.827 165.199 143.72C166.295 143.051 166.895 141.839 165.672 140.961C163.877 139.673 165.285 139.05 165.953 138.202C166.437 138.31 166.963 138.581 167.229 137.864C171.719 135.345 176.452 133.265 180.698 130.536C177.503 126.355 175.709 121.531 173.69 116.907C172.278 113.667 172.308 113.097 168.817 113.07C168.25 113.067 167.669 113.006 167.113 113.097C165.266 113.393 163.735 113.633 163.686 116.336C163.641 118.874 165.33 121.171 164.407 123.723L163.75 123.783C163.596 123.821 163.476 123.776 163.382 123.648C163.502 121.178 161.869 121.16 160.112 121.314C160.368 118.934 159.317 116.666 159.504 114.302C159.587 113.265 159.088 113.082 158.209 113.082C151.321 113.108 144.395 112.691 137.556 113.284C134.005 113.592 130.465 113.705 126.952 113.607C125.334 113.562 123.581 113.104 122.245 113.885C121.163 114.519 120.308 114.714 119.204 114.452C117.586 114.061 116.974 115.03 117.305 116.306C118.033 119.114 117.158 121.955 118.097 124.85C119.651 129.647 119.016 134.812 119.332 139.801C119.951 149.579 120.95 159.305 122.016 169.2C124.561 167.582 126.974 166.051 129.38 164.508C136.94 159.669 144.958 155.627 152.729 151.16C154.711 150.018 155.488 148.645 155.871 146.55C156.043 145.596 155.112 145.21 155.405 144.324C156.404 141.272 157.308 138.265 157.605 134.958C157.864 132.079 158.476 129.088 159.174 126.193C160.308 126.227 160.938 125.728 160.934 124.545C160.934 123.761 161.055 123.097 162.113 123.386C162.192 126.738 161.505 130.003 161.055 133.299C160.702 135.893 160.401 138.494 160.064 141.231C160.75 140.991 161.19 140.829 161.636 140.683C162.421 140.424 163.449 139.482 163.956 140.548C164.414 141.516 163.205 142.124 162.395 142.304C160.109 142.811 159.392 144.403 159.151 146.441C159.14 146.648 159.039 146.955 159.136 147.045C159.358 147.248 159.497 147.008 159.594 146.809L159.602 146.805ZM43.2132 222.334C42.286 222.237 41.5278 222.586 40.7132 223.032C39.5646 223.663 38.8851 224.478 39.2718 225.743C39.6547 226.989 40.8146 227.034 41.8881 226.91C43.1494 226.764 44.4031 226.516 45.6569 226.31C47.4662 226.662 49.2455 226.182 50.8859 225.671C54.2117 224.632 57.9579 225.262 60.9872 223.051C61.584 222.612 62.3611 222.346 62.2222 221.508C62.0608 220.544 61.2162 220.382 60.3528 220.356C56.4114 220.236 52.4211 220.082 48.5998 221.002C46.8206 221.43 44.6321 220.487 43.2132 222.334ZM166.295 231.599C175.796 233.554 184.305 230.994 192.301 226.032C190.307 226.554 188.284 226.062 186.306 226.276C185.826 226.208 185.33 226.036 184.868 226.096C179.23 226.835 173.532 225.848 167.853 227.383C163.551 228.543 158.885 228.34 153.738 228.802C158.183 230.578 162.068 231.835 166.295 231.602V231.599ZM184.204 119.302C184.166 118.344 184.125 117.428 183.829 116.46C182.635 112.545 180.536 109.155 178.224 105.844C177.62 104.981 177.128 103.705 176.077 103.874C174.733 104.091 175.255 105.552 175.12 106.528C174.876 111.115 175.476 115.469 177.976 119.504C180.229 123.142 181.268 127.586 185.281 130.551C185.458 126.407 185.45 122.796 184.204 119.302ZM242.03 112.53C241.31 115.157 241.599 117.86 241.452 120.529C241.381 121.828 241.52 123.337 240.367 124.118C238.554 125.341 238.573 127.147 238.025 129.519C241.265 126.726 243.562 123.904 245.529 120.878C248.614 116.133 250.953 111.088 250.015 105.157C250.187 104.392 250.101 103.585 249.436 103.194C248.656 102.736 248.108 103.517 247.601 103.975C246.76 104.733 245.762 105.443 245.232 106.396C244.117 108.412 241.355 109.594 242.03 112.53ZM56.9369 233.611C49.7297 233.07 42.5676 234.256 35.3716 234.2C35.0526 234.2 34.7147 234.174 34.4144 234.264C34.208 234.328 33.9602 234.541 33.9077 234.74C33.8063 235.101 34.0728 235.326 34.4032 235.431C37.3686 236.388 39.6246 238.847 42.7853 239.384C49.9212 241.542 57.0871 241.253 64.3843 240.135C70.2514 239.237 82.0983 234.643 84.343 231.523C75.0562 232.77 66.021 233.566 56.9369 233.614V233.611ZM148.288 189.099C150.124 188.554 149.219 186.906 149.568 185.788C150.435 182.999 151.633 180.048 151.907 177.383C152.699 169.647 153.528 161.925 154.763 154.245C154.838 153.78 155.075 153.243 154.568 152.913C154.174 152.657 153.81 152.988 153.464 153.187C148.457 156.062 143.446 158.937 138.438 161.813C137.034 162.578 135.63 163.344 134.35 164.042C136.31 166.745 137.064 169.849 138.491 172.612C140.615 176.738 140.721 181.58 143.093 185.713C145.12 189.241 145.582 189.872 148.292 189.095L148.288 189.099ZM165.882 160.855C167.211 161.107 167.804 162.147 168.243 163.232C168.562 164.02 168.525 164.981 169.579 165.266C169.805 165.957 170.24 166.655 170.214 167.334C170.09 170.544 171.726 173.419 172.669 176.201C174.215 180.765 175.683 185.439 177.327 189.996C179.553 196.159 181.768 202.327 184.286 208.378C184.951 209.977 185.416 211.475 185.413 213.224C185.401 216.651 186.813 218.209 190.548 218.87C189.174 217.173 189.793 215.326 189.215 213.607C186.231 204.718 183.464 195.754 180.454 186.873C178.014 179.673 175.428 172.522 172.725 165.416C171.475 162.132 170.514 158.723 169.504 155.405C168.787 153.048 167.515 150.593 167.755 147.819C167.875 146.422 167.038 144.94 165 146.328C163.344 147.455 161.565 148.401 159.812 149.38C158.874 149.902 158.464 150.608 158.348 151.696C158.029 154.748 157.571 157.789 157.177 160.837C157.046 161.858 156.103 162.729 157.248 163.926C159.808 166.606 162.106 169.538 164.598 172.286C165.994 173.828 167.567 175.214 169.061 176.67C167.582 171.43 166.314 166.231 165.882 160.859V160.855ZM96.3737 69.1102C95.5029 69.2341 94.6733 69.4931 94.9999 70.6117C96.0247 74.1289 95.7844 77.7926 96.3362 81.3624C97.0832 86.186 97.9841 91.002 98.382 95.8556C98.7311 100.127 98.5472 104.452 98.4571 108.746C98.4233 110.27 99.0539 110.773 100.398 110.799C100.961 111.756 101.82 111.97 102.879 111.955C105.143 111.922 107.38 111.377 109.662 111.629C110.844 111.76 111.145 110.994 111.148 109.936C111.16 107.5 111.291 105.064 111.269 102.627C111.257 101.377 112.669 99.8759 111.284 98.9637C110.15 98.2167 108.532 98.1829 107.117 97.8901C106.648 97.7925 106.145 97.8901 105.657 97.8639C105.188 97.8413 104.561 97.9427 104.493 97.2971C104.437 96.7565 104.947 96.4938 105.424 96.3323C105.874 96.1784 106.336 95.9044 106.787 95.9194C109.7 96.0208 112.627 95.5929 115.533 96.1672C117.864 96.6289 119.287 95.5103 119.425 93.213C119.471 92.4923 119.448 91.719 119.696 91.0658C120.278 89.5381 119.508 89.0839 118.236 89.1064C114.752 89.1589 111.325 88.2956 107.826 88.5846C106.599 88.686 105.356 88.5996 104.121 88.5996C104.64 87.755 105.251 87.1882 105.867 87.1807C108.615 87.1582 111.381 86.8128 114.114 87.3722C115.796 87.7175 117.999 88.2543 119.016 87.2445C120.12 86.1484 118.761 84.1064 118.558 82.466C118.446 81.5388 117.954 81.2235 117.087 81.2761C113.453 81.4938 109.808 80.9382 106.164 81.6402C104.696 81.9217 102.973 82.2971 101.535 81.171C101.963 80.2325 102.718 80.3114 103.442 80.2738C107.485 80.0599 111.513 79.5944 115.574 79.7521C116.201 79.7746 117.751 80.1875 117.305 79.0163C116.854 77.8301 118.236 75.5929 115.623 75.4202C110.796 75.1012 106.013 74.0764 101.137 74.4292C100.773 74.4555 100.323 74.5268 100.037 73.975C100.627 72.909 101.67 72.9503 102.699 72.9503C105.788 72.9503 108.877 72.894 111.963 72.9728C113.633 73.0141 114.906 72.7588 114.853 70.7168C114.778 67.6838 114.527 67.5148 111.779 67.4886C106.573 67.4435 101.486 68.4082 96.3662 69.1027L96.3737 69.1102ZM195.822 223.168C197.094 223.43 197.094 222.24 197.646 221.636C198.712 220.472 200.458 220.247 201.385 221.099C202.282 221.921 200.949 222.991 200.187 223.753C200.015 223.922 199.804 224.054 199.606 224.196C196.283 226.58 192.838 228.779 189.114 230.461C187.901 231.009 187.736 231.625 187.721 232.837C187.687 236.013 188.641 239.023 189.069 242.117C189.377 244.343 190.6 245.638 193.363 245.555C201.828 245.307 210.236 244.47 218.671 243.87C223.344 243.539 227.819 242.462 232.256 241.403C239.448 239.692 246.295 236.933 252.871 233.325C256.929 231.099 261.625 229.921 265.975 228.089C270.84 226.043 275.003 222.74 279.823 220.694C282.011 219.763 282.188 218.648 281.283 216.775C280.822 215.81 280.285 214.943 279.587 214.136C278.415 212.785 277.027 210.994 277.293 209.53C277.571 207.991 276.756 207.195 276.584 206.062C276.332 204.399 274.181 204.316 274.181 202.931C274.181 200.979 273.175 199.891 272.087 198.423C270.386 196.126 269.346 193.374 267.545 190.983C265.259 187.946 264.039 184.132 261.981 180.893C260.57 178.674 259.939 175.187 255.874 175.867C255.157 175.987 254.211 175.105 253.479 174.399C249.47 170.514 246.606 165.972 244.954 160.615C244.549 159.305 244.988 158.765 245.987 158.355C247.357 157.792 247.879 158.742 248.299 159.786C249.887 163.742 252.109 167.308 254.744 170.732C255.225 170.131 255.086 169.744 255.033 169.346C254.391 164.628 253.292 159.966 253.626 155.131C253.791 152.744 253.16 150.067 257.128 150.473C257.177 154.778 257.364 159.301 257.89 163.806C258.13 165.878 258.164 168.13 259.283 169.819C261.734 173.509 263.772 177.409 265.964 181.235C268.126 185.007 270.521 188.622 271.182 193.04C271.201 193.168 271.381 193.385 271.456 193.374C274.32 192.942 273.783 195.964 275.172 197.023C275.6 197.894 276.174 198.723 276.43 199.643C276.933 201.448 277.717 201.494 279.245 200.623C284.643 197.548 290.101 194.583 295.566 191.625C298.708 189.924 298.858 189.238 296.396 186.7C295.709 184.729 295.041 182.706 293.712 181.096C291.261 178.126 289.947 174.425 288.479 171.103C286.516 166.655 283.397 163.104 281.272 158.922C278.9 154.26 276.058 149.973 272.882 145.871C267.976 139.534 262.135 134.268 254.876 130.758C249.722 128.269 244.489 126.268 239.5 131.212C239.17 131.542 238.607 131.629 238.258 131.948C237.789 132.376 237.162 132.864 237.049 133.416C236.272 137.154 234.767 140.649 233.588 144.253C233.397 144.838 233.04 145.473 233.813 145.596C235.161 145.814 234.62 146.644 234.658 147.387C234.876 151.786 233.464 155.942 232.661 160.172C231.7 165.244 231.017 170.409 229.132 175.259C228.063 178.01 226.479 180.495 223.187 180.773C220.071 181.036 218.682 178.644 217.455 176.325C216.756 175.007 216.291 173.562 215.548 171.76C214.373 174.849 213.299 177.661 211.7 180.214C210.236 182.556 208.337 183.907 205.371 183.858C202.571 183.813 201.618 181.828 200.642 179.932C199.354 177.428 198.476 174.767 197.807 171.989C197.447 170.488 197.913 168.607 196.133 167.402C190.405 163.521 188.093 157.47 186.606 151.137C185.368 145.859 185.12 140.416 185.364 134.981C185.379 134.662 185.39 134.328 184.895 134.193C180.567 137.312 175.754 139.759 171.216 142.654C170.18 143.314 169.827 144.065 170.116 145.473C170.694 148.307 172.605 150.78 172.32 153.821C171.862 154.849 170.998 155.81 171.787 157.334C172.158 156.531 172.417 155.976 172.672 155.42C172.838 155.593 173.097 155.743 173.153 155.946C174.324 160.36 175.398 164.759 177.402 168.952C178.352 170.934 179.373 173.126 179.662 175.435C180.052 178.543 181.749 181.227 182.762 184.095C183.956 187.485 185.612 190.855 186.85 194.26C190.082 203.126 192.684 212.214 195.003 221.373C194.519 221.704 193.566 221.786 193.922 222.642C194.256 223.442 195.105 223.292 195.829 223.156L195.822 223.168ZM229.553 154.208C229.099 154.849 228.697 155.424 228.288 155.991C225.987 159.174 224.121 162.849 221.25 165.394C218.656 167.695 218.975 169.624 220.015 172.09C220.578 173.423 221.268 174.707 221.952 175.983C222.316 176.666 222.533 177.736 223.472 177.661C224.512 177.582 224.56 176.437 224.913 175.649C227.481 169.849 227.319 163.412 229.162 157.436C229.448 156.509 230.093 155.491 229.557 154.204L229.553 154.208ZM121.986 83.9187C123.082 83.2993 122.826 82.4135 122.838 81.6514C122.868 79.3767 122.849 77.1019 122.849 74.8271C122.849 74.1214 122.947 73.4683 123.877 73.5584C124.508 73.6184 125.12 73.6222 125.124 74.6319C125.131 78.0891 125.233 81.5501 125.338 85.0073C125.368 85.9495 125.067 87.1207 126.479 87.511C126.941 86.4975 126.505 85.6905 126.385 84.8234C126.156 83.1792 125.049 81.0508 127.282 80.0749C130.552 78.6447 129.527 76.4638 128.701 74.2078C128.288 73.0741 127.89 71.9593 127.65 70.7506C127.387 69.433 126.513 68.442 124.797 68.9901C123.404 69.4368 121.937 69.5306 120.462 69.4968C119.553 69.478 118.386 69.1665 118.382 70.7543C118.378 71.903 118.13 73.1004 119.977 72.9991C120.788 72.954 121.396 73.4345 121.096 74.418C120.097 77.6875 121.918 80.6342 121.986 83.9187ZM206.407 170.093C205.03 170.093 203.813 170.093 202.601 170.093C201.775 170.093 201.298 170.48 201.636 171.295C202.834 174.2 203.386 177.357 205.037 180.075C205.765 181.272 206.771 181.606 207.665 180.232C209.564 177.312 210.893 174.125 211.918 170.799C212.199 169.879 211.937 169.467 211.062 169.771C209.467 170.326 207.845 169.936 206.411 170.093H206.407ZM183.622 132.575C183.082 131.497 182.184 132.012 181.437 132.406C177.481 134.5 173.6 136.753 169.576 138.708C168.329 139.313 168.442 140.052 168.817 140.765C169.429 141.929 170.075 140.747 170.536 140.473C174.921 137.886 179.256 135.221 183.622 132.575ZM74.557 230.987C77.834 229.951 81.7191 231.178 84.5757 228.532C80.8745 227.897 77.6163 229.031 74.557 230.987ZM129.583 86.5201C130.398 84.9735 130.736 83.4457 130.63 81.8429C130.597 81.3286 131.077 80.3451 129.932 80.4465C129.29 80.5028 128.735 80.9044 128.735 81.7303C128.735 83.3144 128.551 84.9247 129.583 86.5201ZM122.56 95.5553C122.695 95.6154 122.86 95.7468 122.958 95.7092C123.055 95.6717 123.16 95.4314 123.123 95.3338C123.085 95.2363 122.845 95.1311 122.748 95.1687C122.65 95.21 122.62 95.4164 122.56 95.5516V95.5553ZM243.851 104.031C243.795 103.93 243.738 103.829 243.678 103.723C243.626 103.776 243.521 103.844 243.528 103.881C243.554 103.994 243.626 104.095 243.678 104.2C243.731 104.148 243.783 104.095 243.847 104.031H243.851Z" fill="#342D6A"/>
<path d="M227.33 46.6102C228.952 47.5337 230.821 47.8715 232.402 48.9376C236.351 51.6065 238.517 55.5441 239.8 59.8872C241.095 64.2716 242.315 68.7498 242.544 73.3369C242.665 75.7468 243.847 78.2355 242.473 80.6454C242.105 81.1147 241.741 81.5801 241.373 82.0493C240.945 81.9067 240.514 81.7603 240.086 81.6177C240.975 79.0576 239.271 76.7791 239.256 74.3692C239.226 68.7573 237.601 63.5171 235.615 58.4345C233.1 51.9969 229.234 48.0742 221.317 48.427C217.105 48.6147 213.261 49.7221 209.504 51.4526C204.132 53.9263 199.444 57.2333 196.077 62.1995C195.761 62.4135 195.424 62.6012 195.138 62.8489C192.856 64.8159 192.282 67.9165 190.315 70.0937C189.699 69.9548 189.77 68.9675 188.997 69.0201C188.937 68.8399 188.877 68.6597 188.821 68.4795C188.888 68.382 188.888 68.2844 188.821 68.1905C189.924 64.3955 192.507 61.5276 195.135 58.8287C201.024 52.7851 208.051 48.6147 216.456 47.0231C216.527 47.0081 216.55 46.7566 216.599 46.614C220.18 46.614 223.757 46.614 227.338 46.614L227.33 46.6102Z" fill="#342D6A"/>
<path d="M12.042 233.569C12.6013 233.551 13.1644 233.472 13.7162 233.524C14.6358 233.611 15.2702 233.299 15.533 235.048C15.8671 237.252 16.8843 239.921 19.7222 240.776C20.2252 240.927 20.792 241.107 20.9496 241.752C16.5465 242.939 14.1328 241.527 12.8078 237.034C12.6463 236.49 13.0442 235.645 12.042 235.525V233.573V233.569Z" fill="#403A74"/>
<path d="M207.819 297.604C207.815 297.736 207.807 297.867 207.804 298.002H183.881C183.881 297.871 183.873 297.736 183.866 297.604C191.85 297.604 199.831 297.604 207.815 297.604H207.819Z" fill="#E1E4ED"/>
<path d="M207.819 297.604C199.834 297.604 191.854 297.604 183.87 297.604C176.422 297.409 168.979 297.18 161.528 297.056C159.962 297.03 158.472 296.696 157.008 296.321C153.836 295.506 153.296 293.404 155.499 290.994C156.381 290.029 157.305 289.098 158.483 288.52C159.613 287.969 160.799 287.541 162.353 286.895C158.123 286.895 154.298 286.884 150.473 286.895C133.337 286.955 116.205 287.222 99.0839 285.979C89.5344 285.285 79.9661 284.943 70.563 282.886C65.5292 281.786 60.7357 280.071 56.4151 277.285C52.3386 274.658 52.5675 270.735 56.9519 268.52C60.7282 266.61 64.9023 265.837 69.0765 265.303C75.105 264.534 81.1523 263.911 87.849 263.149C83.3558 262.218 79.4181 262.21 75.5254 261.903C62.9129 260.897 50.2665 260.183 37.9317 257.03C36.3476 256.625 34.786 256.152 33.4948 255.112C31.5803 253.569 31.783 251.238 33.8026 249.913C35.6269 248.716 37.6464 248.303 39.7522 247.969C44.1516 247.263 48.5435 246.55 52.9955 246.257C53.0142 246.666 53.0368 247.124 53.536 247.203C54.0916 247.289 54.6659 247.289 55.2327 247.289C104.673 247.289 154.114 247.376 203.551 247.132C207.473 247.113 211.625 247.413 215.559 246.174C216.358 245.923 217.308 246.137 218.232 246.295C209.042 250.671 200.69 256.456 191.719 261.126C189.921 262.06 190.521 263.389 190.859 264.609C191.22 265.912 191.869 267.068 191.839 268.543C191.809 270.037 193.322 270.765 194.463 271.032C196.145 271.426 197.875 271.632 199.726 271.411C203.066 271.009 206.426 271.557 209.377 273.378C211.719 274.819 214.151 275.394 216.738 273.494C220.548 270.694 225.191 269.466 229.624 267.462C228.783 268.753 228.04 270.123 227.079 271.317C225.694 273.029 226.494 274.2 227.912 275.146C231.077 277.252 233.693 276.726 236.584 274.305C240.754 270.814 244.966 267.346 248.513 263.246C253.07 257.984 259.421 257.383 265.503 255.957C266.835 255.645 268.22 255.502 269.32 254.56C274.192 252.402 279.14 250.446 284.32 249.132C285.611 250.461 286.989 251.685 287.856 253.404C290.078 257.807 289.436 261.681 286.111 265.431C282.773 269.196 278.652 271.52 273.997 273.265C267.717 275.619 261.077 276.351 254.643 277.98C246.82 279.962 238.903 281.103 230.818 281.02C228.99 281.002 227.162 281.336 225.33 281.617C231.539 282.826 237.849 283.336 244.005 284.763C244.947 284.981 245.912 285.225 246.779 285.638C249.977 287.162 250.214 289.211 247.256 291.174C243.491 293.674 239.324 295.165 234.756 295.499C225.773 296.159 216.798 296.903 207.819 297.608V297.604ZM151.13 280.897C151.94 280.897 152.763 280.964 153.566 280.878C154.272 280.803 154.838 280.24 154.831 279.594C154.82 278.779 153.994 279.095 153.483 278.997C152.582 278.828 151.111 279.508 150.882 278.513C150.608 277.319 152.331 277.3 153.063 276.621C153.235 276.463 153.479 276.377 153.701 276.276C165.533 270.964 176.505 264.177 187.079 256.722C187.732 256.264 188.494 255.713 188.243 254.767C187.988 253.81 187.121 253.761 186.261 253.742C180.668 253.629 175.086 253.213 169.489 253.066C164.962 252.946 160.353 252.488 155.998 250.84C154.369 250.225 152.635 250.288 151.103 251.152C150.338 251.584 150.484 252.751 149.369 253.273C144.79 255.416 140.514 258.13 135.818 260.116C129.118 262.95 123.228 267.338 116.862 270.833C116.302 271.141 115.788 271.583 115.356 272.056C113.885 273.667 114.444 275.686 116.561 275.983C118.581 276.264 120.465 276.993 122.436 277.391C126.779 278.269 131.242 278.445 135.567 279.219C140.747 280.15 145.998 279.939 151.133 280.889L151.13 280.897Z" fill="#B7977E"/>
<path d="M61.0435 141.79C61.8393 142.612 62.4624 139.85 63.307 141.681C64.5419 144.609 65.319 147.627 65.6943 150.81C66.1448 154.636 66.9519 158.419 67.6388 162.214C68.5247 167.109 70.0187 171.813 71.3024 176.587C71.5915 177.668 71.7642 178.783 71.9894 179.879C71.0172 179.681 70.4203 180.371 69.7259 180.833C68.81 178.175 68.0517 175.473 67.0945 172.822C66.1335 170.169 65.9534 167.226 64.9023 164.504C63.6748 161.325 63.7011 157.849 63.0367 154.557C62.1808 150.315 61.2875 146.115 61.0472 141.79H61.0435Z" fill="#403A74"/>
<path d="M80.7993 204.804C80.3563 204.797 79.9134 204.789 79.4667 204.782C79.1889 204.346 78.7535 204.245 78.2805 204.215C76.7715 203.066 76.2497 201.362 75.6754 199.669C73.7685 194.065 71.6364 188.536 70.1499 182.796C71.201 183.051 71.6476 182.042 72.4209 181.715C74.1889 183.967 74.05 186.903 75.1086 189.346C77.297 194.403 78.746 199.71 80.7993 204.804Z" fill="#403A74"/>
<path d="M16.5764 233.588C19.7709 232.77 20.6605 233.269 22.9578 236.974C23.1267 237.248 23.3557 237.518 23.4082 237.818C23.5471 238.618 25.0749 239.316 23.6522 240.24C22.391 241.058 21.5013 240.341 20.7806 239.376C19.3805 237.503 18.0291 235.593 16.5764 233.588Z" fill="#342D6A"/>
<path d="M188.994 69.0201C189.767 68.9675 189.696 69.951 190.311 70.0937C188.607 72.2333 187.62 74.6319 187.635 77.4022C186.903 76.8617 186.167 76.3174 185.435 75.7768C185.533 72.954 186.13 70.394 188.994 69.0239V69.0201Z" fill="#615C8C"/>
<path d="M182.972 61.246C182.743 60.7881 182.695 59.6619 181.951 60.9044C181.546 61.5839 181.659 62.6875 180.42 62.6011C180.457 61.7228 180.48 60.8444 180.533 59.966C180.555 59.5719 180.66 58.8399 180.698 58.8399C184.429 59.0313 181.148 55.2025 183.43 54.5981C184.485 56.7791 184.718 59.0426 182.972 61.2385V61.246Z" fill="#AA958F"/>
<path d="M72.4247 181.715C71.6514 182.042 71.2047 183.051 70.1536 182.796C69.3691 182.282 69.7557 181.512 69.722 180.837C70.4164 180.375 71.0132 179.681 71.9855 179.883C72.1319 180.495 72.2745 181.107 72.4209 181.719L72.4247 181.715Z" fill="#342D6A"/>
<path d="M62.2407 126.186C59.812 125.458 60.6454 124.151 61.6476 122.819C62.327 123.855 62.4246 124.996 62.2407 126.186Z" fill="#403A74"/>
<path d="M80.3452 245.424C79.7295 245.934 79.1102 245.927 78.4871 245.439C79.1027 245.018 79.722 245.048 80.3452 245.424Z" fill="#403A74"/>
<path d="M159.005 245.69C158.491 246.516 157.991 246.497 157.503 245.668C158.003 245.675 158.506 245.683 159.005 245.69Z" fill="#403A74"/>
<path d="M63.4646 134.981C62.6538 134.617 62.62 134.121 63.2244 133.524C63.5322 133.971 63.6486 134.452 63.4646 134.981Z" fill="#403A74"/>
<path d="M59.8423 245.424C59.5457 245.825 59.2492 245.833 58.9526 245.424C59.2492 245.12 59.5457 245.12 59.8423 245.424Z" fill="#403A74"/>
<path d="M64.0352 139.861C63.4459 139.692 63.1118 139.44 63.7236 138.889C63.8288 139.211 63.9301 139.534 64.0352 139.861Z" fill="#403A74"/>
<path d="M72.5261 245.454C72.2371 245.829 71.9443 245.836 71.6553 245.454C71.9443 245.135 72.2371 245.138 72.5261 245.454Z" fill="#403A74"/>
<path d="M82.361 245.165C82.1658 245.668 81.9068 245.953 81.415 245.439C81.6853 245.198 81.9781 245.029 82.361 245.165Z" fill="#403A74"/>
<path d="M95.5703 105.66C95.8181 105.781 96.246 105.863 96.2835 106.032C96.3961 106.524 95.9382 106.58 95.5816 106.67C95.5778 106.332 95.5741 105.998 95.5703 105.66Z" fill="#615C8C"/>
<path d="M70.0899 245.439C69.7934 245.829 69.5006 245.833 69.2078 245.435C69.5043 245.131 69.7971 245.135 70.0899 245.439Z" fill="#403A74"/>
<path d="M182.286 64.1589C181.674 63.5471 182.038 63.2993 182.665 63.1492C182.71 63.5508 182.612 63.8962 182.286 64.1589Z" fill="#615C8C"/>
<path d="M96.291 102.819L96.2835 102.886C96.5838 102.44 96.5275 102.049 96.092 101.723C96.6026 101.798 96.7677 102.079 96.5763 102.56C96.5162 102.687 96.4224 102.77 96.291 102.815V102.819Z" fill="#615C8C"/>
<path d="M188.817 68.1867C188.885 68.2843 188.885 68.3819 188.817 68.4758C188.682 68.427 188.547 68.3782 188.412 68.3294C188.547 68.2806 188.682 68.2318 188.817 68.183V68.1867Z" fill="#615C8C"/>
<path d="M95.5254 101.28C95.6943 101.43 95.8595 101.58 96.0284 101.734C95.5704 101.903 95.5442 101.599 95.5254 101.28Z" fill="#615C8C"/>
<path d="M240.086 81.6177C240.514 81.7641 240.945 81.9067 241.373 82.0494C241.516 82.7513 242.18 83.4983 241.05 84.0463C240.285 84.418 240.957 84.8647 241.197 85.1087C241.647 85.5591 241.861 85.0448 242.064 84.7333C242.496 84.0726 242.905 83.397 243.325 82.7288C243.611 82.7776 243.892 82.8301 244.177 82.8789C244.099 83.7648 244.031 84.6545 243.937 85.5403C243.896 85.9232 244.241 86.43 243.295 86.3887C241.835 86.3211 241.201 87.0906 241.955 88.5584C241.978 90.1987 240.837 91.8541 242.015 93.4795C240.825 95.2738 240.638 97.3609 240.551 99.3917C240.487 100.856 239.778 102.132 239.748 103.581C239.737 104.155 239.076 104.136 238.584 104.106C238.269 101.43 238.727 98.7798 239.144 96.1747C239.549 93.6447 237.312 93.4119 236.144 92.6199C235.007 91.8504 234.729 93.6972 234.241 94.493C233.307 96.0133 232.593 97.74 230.304 97.3609C227.361 94.3879 225.919 90.7918 225.852 86.6289C226.61 87.7513 227.364 88.8812 228.134 89.9998C228.408 90.4014 228.731 90.8782 229.245 90.8181C229.891 90.7468 229.688 90.0786 229.842 89.6582C230.454 88.0028 231.066 86.3399 231.734 84.707C232.244 83.4608 233.359 83.2506 234.545 83.2318C235.882 83.2093 235.69 84.4367 235.994 85.15C236.478 86.2873 236.565 87.6087 237.815 88.6785C238.622 86.1672 239.358 83.8924 240.09 81.6177H240.086Z" fill="#FCFCFC"/>
<path d="M242.011 93.4833C240.833 91.8579 241.974 90.2025 241.951 88.5621C242.695 88.671 243.498 88.5246 244.132 89.0839C244.782 90.1988 244.876 91.3737 244.496 92.5974C243.802 93.2731 242.995 93.6334 242.008 93.4833H242.011Z" fill="#615C8C"/>
<path d="M244.132 89.0839C243.498 88.5208 242.695 88.671 241.951 88.5621C241.197 87.0944 241.831 86.3211 243.291 86.3924C244.234 86.4375 243.892 85.927 243.933 85.5441C244.027 84.6582 244.095 83.7686 244.174 82.8827C246.343 84.966 244.526 87.0231 244.132 89.0876V89.0839Z" fill="#AA958F"/>
<path d="M243.325 82.7287C242.905 83.3969 242.496 84.0726 242.064 84.7332C241.861 85.0448 241.647 85.5553 241.197 85.1086C240.953 84.8683 240.281 84.4217 241.05 84.0463C242.18 83.4982 241.52 82.7512 241.373 82.0493C241.741 81.5801 242.105 81.1146 242.473 80.6454C243.092 81.2047 243.355 81.9066 243.325 82.7287Z" fill="#AA958F"/>
<path d="M247.218 126.726C246.475 126.79 245.739 127.365 244.827 126.704C245.592 125.724 246.561 126.411 247.357 126.272C247.308 126.422 247.263 126.576 247.214 126.726H247.218Z" fill="#AA958F"/>
<path d="M275.176 197.027C273.787 195.968 274.328 192.946 271.46 193.378C271.385 193.389 271.204 193.172 271.186 193.044C270.525 188.626 268.13 185.011 265.968 181.238C263.776 177.41 261.741 173.509 259.286 169.823C258.164 168.134 258.134 165.882 257.894 163.81C257.372 159.305 257.18 154.782 257.132 150.476C253.164 150.071 253.795 152.744 253.629 155.135C253.295 159.97 254.395 164.632 255.037 169.35C255.09 169.748 255.228 170.135 254.748 170.735C252.113 167.312 249.894 163.746 248.303 159.789C247.882 158.746 247.361 157.796 245.991 158.359C244.996 158.768 244.557 159.309 244.958 160.619C246.61 165.976 249.474 170.514 253.483 174.403C254.211 175.108 255.157 175.991 255.878 175.87C259.943 175.191 260.574 178.678 261.985 180.897C264.042 184.136 265.262 187.954 267.548 190.987C269.35 193.378 270.39 196.126 272.09 198.427C273.179 199.898 274.181 200.983 274.185 202.935C274.185 204.32 276.336 204.406 276.587 206.066C276.76 207.199 277.574 207.991 277.297 209.534C277.034 210.998 278.423 212.789 279.59 214.14C280.292 214.947 280.825 215.818 281.287 216.779C282.188 218.652 282.011 219.771 279.827 220.698C275.007 222.743 270.844 226.051 265.979 228.093C261.629 229.921 256.933 231.103 252.875 233.329C246.295 236.936 239.448 239.695 232.259 241.407C227.822 242.462 223.348 243.539 218.674 243.873C210.244 244.474 201.831 245.311 193.367 245.559C190.6 245.641 189.38 244.346 189.072 242.12C188.645 239.027 187.691 236.017 187.725 232.841C187.736 231.632 187.901 231.013 189.118 230.465C192.841 228.783 196.287 226.58 199.609 224.2C199.808 224.057 200.022 223.93 200.191 223.757C200.957 222.995 202.286 221.925 201.388 221.103C200.458 220.251 198.716 220.476 197.65 221.64C197.098 222.244 197.098 223.434 195.825 223.171C195.555 222.575 195.664 221.801 195 221.388C192.68 212.229 190.078 203.141 186.846 194.275C185.608 190.87 183.952 187.5 182.759 184.11C181.749 181.242 180.052 178.558 179.658 175.45C179.369 173.145 178.344 170.949 177.398 168.967C175.394 164.774 174.32 160.371 173.149 155.961C173.097 155.758 172.834 155.608 172.669 155.435C172.466 154.921 172.898 154.268 172.316 153.84C172.601 150.799 170.69 148.326 170.112 145.491C169.827 144.088 170.18 143.333 171.212 142.672C175.75 139.778 180.563 137.331 184.891 134.211C185.386 134.347 185.375 134.677 185.36 135C185.116 140.435 185.364 145.878 186.602 151.156C188.089 157.488 190.401 163.539 196.129 167.421C197.909 168.626 197.443 170.503 197.804 172.008C198.472 174.786 199.35 177.451 200.638 179.951C201.614 181.846 202.567 183.832 205.367 183.877C208.333 183.926 210.232 182.571 211.696 180.232C213.292 177.68 214.365 174.868 215.544 171.779C216.283 173.581 216.749 175.022 217.451 176.343C218.682 178.66 220.067 181.054 223.183 180.792C226.475 180.514 228.063 178.029 229.129 175.277C231.013 170.428 231.696 165.259 232.657 160.191C233.46 155.961 234.872 151.805 234.654 147.406C234.617 146.659 235.157 145.829 233.81 145.615C233.036 145.491 233.393 144.857 233.584 144.271C234.763 140.668 236.268 137.173 237.045 133.434C237.162 132.883 237.785 132.395 238.254 131.967C238.603 131.651 239.166 131.561 239.497 131.231C244.485 126.287 249.718 128.288 254.872 130.777C262.135 134.283 267.972 139.553 272.879 145.889C276.058 149.992 278.896 154.279 281.268 158.941C283.397 163.123 286.512 166.674 288.475 171.122C289.943 174.448 291.257 178.145 293.708 181.114C295.037 182.725 295.705 184.748 296.392 186.719C295.044 186.546 293.881 187.113 292.717 187.657C286.704 190.48 280.72 193.352 275.168 197.042L275.176 197.027ZM219.024 221.088C218.967 220.135 219.309 218.99 217.683 219.072C216.475 219.136 215.259 219.241 215.285 220.792C215.319 222.882 214.031 224.159 212.8 225.551C212.173 226.261 210.536 226.771 211.396 227.976C212.383 229.361 213.108 227.702 213.93 227.289C214.29 227.109 214.729 227.027 215.022 226.775C216.839 225.213 218.922 223.825 219.024 221.084V221.088ZM212.976 216.644C210.972 216.786 208.686 216.197 208.288 218.866C208.066 220.341 207.406 221.554 206.959 222.89C206.738 223.547 205.687 224.496 206.801 224.909C207.582 225.198 208.866 225.589 209.677 224.53C210.015 224.087 210.311 223.611 210.611 223.141C211.854 221.182 212.199 218.915 212.98 216.644H212.976Z" fill="#FCFCFD"/>
<path d="M236.163 120.623C236.591 123.806 234.992 126.595 234.316 129.549C233.198 134.455 231.568 139.238 229.71 143.93C227.394 149.778 224.891 155.548 221.186 160.675C220.24 161.982 218.062 162.353 218.321 164.609C218.359 164.947 217.822 165.206 217.357 165.075C215.334 164.5 213.783 165.349 212.421 166.73C211.096 168.078 209.192 167.995 207.661 168.059C202.972 168.262 198.907 166.809 195.739 162.916C192.488 158.919 191.478 154.155 190.296 149.422C189.973 148.134 188.742 147.045 189.339 145.54C190.33 145.529 190.247 144.767 190.243 144.151C190.225 140.593 190.176 137.038 190.135 133.479C190.566 130.946 190.457 128.431 190.341 125.852C190.045 119.256 188.235 112.875 188.13 106.231C187.999 98.1003 186.914 89.9697 189.38 81.9893C193.727 82.8376 198.029 83.7535 202.522 83.8061C209.894 83.8924 216.632 82.5148 222.248 76.689C222.59 78.7272 222.661 80.3939 222.293 82.0043C220.919 87.9952 222.586 93.1942 226.208 97.9427C228.611 101.092 231.734 103.363 235.176 105.202C236.471 105.893 237.105 106.708 237.056 108.228C236.974 110.822 237.068 113.423 237.086 116.017C236.317 116.028 235.165 115.72 235.236 116.895C235.311 118.145 234.222 119.804 236.159 120.615L236.163 120.623ZM199.024 114.44C198.355 114.474 197.976 114.774 198.051 115.491C198.059 116.606 198.07 117.721 198.078 118.836C198.078 119.17 198.085 119.504 198.089 119.842C197.916 120.146 197.743 120.45 197.567 120.754C196.996 123.01 196.351 125.251 195.878 127.526C194.958 131.937 193.209 136.148 192.916 140.724C192.728 143.667 193.911 146.392 196.283 146.572C198.915 146.771 201.617 147.087 204.23 146.145C205.307 145.754 206.422 145.465 206.974 144.331C207.89 142.447 208.911 140.6 209.62 138.641C209.984 137.631 210.544 136.167 209.08 135.446C207.526 134.681 205.893 135.63 205.292 137.41C204.65 139.316 204.042 141.235 203.299 143.1C202.676 144.658 201.073 144.827 199.827 144.609C198.502 144.38 196.61 144.399 196.655 142.057C196.704 139.598 197.346 137.256 197.804 134.883C198.993 128.723 201.148 122.74 201.088 116.359C201.433 116.092 201.43 115.739 201.336 115.364C201.621 114.973 202.057 114.621 202.169 114.185C203.948 107.293 202.758 100.758 199.485 94.5831C198.596 92.9014 196.85 91.9479 194.951 91.6026C193.978 91.4262 192.781 91.7152 192.361 92.541C191.85 93.547 193.201 93.7647 193.768 94.1063C197.424 96.3173 198.547 100.052 199.061 103.768C199.542 107.267 199.065 110.897 199.012 114.47L199.031 114.448L199.024 114.44ZM206.156 152.627C211.385 152.826 215.435 149.932 219.647 147.413C221.85 146.096 224.234 145.082 224.196 141.861C224.185 140.732 224.785 139.286 223.325 139.027C221.568 138.712 219.643 138.382 217.916 139.358C217.575 139.549 217.507 140.15 217.826 140.45C218.877 141.437 218.1 141.974 217.383 142.537C213.07 145.927 209.391 150.499 203.085 150.199C202.376 150.165 201.779 150.645 201.666 151.321C201.516 152.226 202.417 152.319 202.972 152.413C204.001 152.59 205.067 152.567 206.156 152.627ZM224.046 114.906C223.719 114.906 223.397 114.917 223.07 114.906C218.329 114.711 213.716 115.232 209.455 117.507C208.907 117.8 207.871 117.988 208.449 119.054C208.907 119.898 209.613 119.737 210.349 119.429C211.535 118.93 212.71 118.386 213.933 117.995C218.483 116.542 223.194 116.832 227.875 116.813C228.686 116.813 229.504 116.835 230.3 116.715C230.874 116.629 231.43 116.186 231.43 115.597C231.43 114.786 230.668 114.917 230.135 114.913C228.104 114.895 226.073 114.906 224.042 114.902L224.046 114.906ZM218.382 120.848C216.801 120.72 215.146 120.833 214.027 122.492C213.352 123.494 213.355 124.298 214.59 124.801C216.208 125.458 220.281 124.151 221.099 122.684C221.625 121.745 221.647 120.938 220.255 120.856C219.688 120.822 219.121 120.852 218.378 120.852L218.382 120.848ZM192.676 114.913C190.949 114.688 190.063 115.364 190.146 117.323C190.21 118.798 190.427 119.808 192.244 119.804C194.328 119.804 194.534 118.434 194.605 116.914C194.665 115.66 194.44 114.598 192.676 114.913ZM212.68 157.425C210.281 157.425 208.108 157.428 205.93 157.425C205.082 157.425 204.132 157.488 204.039 158.491C203.93 159.673 205.037 159.162 205.641 159.346C206.644 159.65 207.68 160.146 208.701 159.819C210.067 159.38 212.064 160.018 212.683 157.425H212.68Z" fill="#B9845A"/>
<path d="M282.466 201.572C287.011 198.509 291.865 195.976 296.636 193.295C297.796 192.642 298.701 192.98 299.234 194.144C302.312 200.859 306.734 206.779 310.397 213.149C312.364 216.565 314.027 220.157 316.324 223.382C316.79 224.035 316.737 224.834 316.55 225.499C316.163 226.858 314.883 228.179 317.424 228.978C318.31 229.256 316.76 233.408 315.453 234.065C309.046 237.289 302.537 240.24 295.78 242.713C288.535 245.367 281.291 247.987 273.941 250.333C267.368 252.432 260.75 254.388 254.057 256.054C252.409 256.463 251.167 257.439 249.767 258.209C247.92 257.608 247.593 257.912 247.905 259.943C244.234 263.464 240.574 266.996 236.891 270.502C235.716 271.621 234.429 272.623 233.288 273.776C232.481 274.594 231.888 274.493 230.998 273.873C229.879 273.096 230.563 272.548 231.013 271.895C232.841 269.23 234.617 266.527 236.52 263.918C237.286 262.867 237.267 261.681 237.514 260.54C237.627 260.026 237.327 259.579 236.749 259.478C235.686 259.294 234.354 259.065 233.855 260.142C231.28 265.716 225.24 265.919 220.84 268.625C219.016 269.748 216.858 270.431 214.973 271.542C213.858 272.199 212.792 272.567 212.023 271.302C211.204 269.962 212.522 269.41 213.337 268.903C218.719 265.54 223.374 261.223 228.445 257.451C228.941 257.083 229.493 256.662 229.527 255.885C227.657 254.797 226.092 255.153 224.534 256.606C220.259 260.592 215.814 264.372 210.709 267.308C209.947 267.747 209.26 268.381 208.678 269.046C207.515 270.367 206.189 270.75 204.921 269.466C203.265 267.792 205.229 266.996 206.111 266.257C209.399 263.505 212.845 260.938 216.174 258.231C217.931 256.805 219.575 255.24 221.478 253.55C219.613 252.965 218.31 252.927 216.674 254.095C211.433 257.83 206.936 262.454 201.745 266.234C200.983 266.79 200.146 267.218 200.018 268.423C199.906 269.474 198.81 269.864 197.954 269.56C197.072 269.249 195.882 268.738 196.584 267.297C197.729 267.526 198.344 266.745 199.042 266.054C201.509 263.614 203.712 260.84 206.959 259.346C208.825 258.49 210.36 257.195 212.012 256.035C216.647 252.785 220.795 248.933 226.67 247.473C231.584 246.253 236.516 244.647 241.114 242.323C242.751 242.747 243.419 240.649 244.966 240.837C247.045 240.536 248.937 239.812 250.54 238.412L250.491 238.453C250.754 238.28 251.013 238.108 251.272 237.935L251.223 237.965C251.64 237.939 252.105 237.999 252.233 237.428L252.188 237.462C253.547 236.899 255.228 236.974 256.118 235.48L256.103 235.487C258.385 235.593 259.992 233.877 262.041 233.28C267.349 231.726 272.128 228.832 277.353 226.996C280.825 225.776 284.17 224.14 287.466 222.473C288.851 221.771 290.908 220.998 290.071 218.772C287.867 212.897 285.217 207.21 282.469 201.572H282.466Z" fill="#B9845A"/>
<path d="M99.8872 116.79C99.7971 114.947 101.126 114.913 102.361 114.958C106.201 115.09 110.03 114.47 113.945 114.928C114.335 120.067 114.707 125.386 115.15 130.694C115.72 137.496 116.456 144.286 116.91 151.096C117.113 154.159 117.436 157.222 117.564 160.281C117.826 166.531 118.971 172.646 119.988 178.783C120.191 180.011 120.818 180.807 122.053 180.724C123.663 180.619 123.281 179.35 123.217 178.322C123.202 178.078 123.284 177.8 123.194 177.593C120.784 172.068 124.729 170 128.472 167.744C132.199 165.499 132.151 165.454 134.039 169.504C135.514 172.672 135.998 176.141 137.136 179.418C138.307 182.792 139.921 185.934 141.449 189.132C140.499 189.196 139.591 189.132 138.622 189.538C129.309 193.476 119.925 197.256 110.634 201.246C107.853 202.439 105.27 202.713 102.56 201.351L102.62 201.381L101.832 200.855L101.858 200.893C101.865 199.767 101.52 198.855 100.371 198.423L100.386 198.445C100.687 197.875 100.522 197.541 99.8834 197.439L99.906 197.473C100.064 195.266 100.056 193.081 98.8662 191.092C99.1027 189.399 98.7385 187.789 98.2017 186.201C97.9653 180.844 97.9352 175.473 97.4322 170.142C96.8429 163.919 96.8767 157.841 98.2055 151.659C99.0201 147.86 99.9885 143.986 99.8759 140C99.707 133.975 99.5193 127.954 100.165 121.933C100.349 120.232 100.942 118.446 99.8909 116.783L99.8872 116.79Z" fill="#BA855A"/>
<path d="M159.178 126.193C158.476 129.088 157.864 132.079 157.608 134.958C157.312 138.265 156.411 141.276 155.409 144.324C155.116 145.214 156.047 145.6 155.874 146.55C155.491 148.648 154.718 150.018 152.732 151.16C144.958 155.627 136.944 159.669 129.384 164.508C126.978 166.047 124.564 167.578 122.019 169.2C120.953 159.301 119.951 149.579 119.335 139.801C119.02 134.816 119.658 129.647 118.1 124.85C117.162 121.955 118.036 119.114 117.308 116.306C116.978 115.03 117.586 114.061 119.208 114.452C120.311 114.718 121.167 114.519 122.248 113.885C123.585 113.1 125.341 113.562 126.955 113.607C130.469 113.705 134.009 113.592 137.56 113.284C144.399 112.691 151.325 113.108 158.213 113.082C159.091 113.082 159.59 113.266 159.508 114.302C159.32 116.666 160.371 118.934 160.116 121.314C159.042 122.793 159.238 124.519 159.174 126.193H159.178Z" fill="url(#paint1_linear_1_34206)"/>
<path d="M240.086 81.6176C239.354 83.8924 238.618 86.1709 237.811 88.6784C236.561 87.6086 236.475 86.2873 235.99 85.1499C235.686 84.4367 235.878 83.2092 234.541 83.2317C233.355 83.2505 232.237 83.4607 231.73 84.7069C231.062 86.3436 230.454 88.0027 229.838 89.6581C229.68 90.0786 229.883 90.7467 229.241 90.818C228.723 90.8781 228.404 90.3976 228.13 89.9997C227.36 88.8811 226.61 87.755 225.848 86.6289L225.885 86.6739C225.761 86.5238 225.634 86.3699 225.51 86.2197C225.611 80.957 226.02 75.7242 227.957 70.7768C228.442 69.5456 226.936 68.8511 227.788 67.5936C224.282 69.2678 224.249 72.8526 222.762 75.6379C222.124 74.5906 223.13 73.1905 221.872 72.5523C221.167 72.192 220.454 72.6499 219.789 72.9502C219.305 73.1679 218.892 73.5884 219.016 74.0726C219.688 76.7453 217.638 77.6199 215.957 78.5546C211.032 81.2873 205.833 82.3984 200.135 81.4787C196.711 80.9269 193.228 80.9006 190.232 78.8398C191.441 74.538 192.837 70.3076 194.617 66.201C195.176 64.9059 196.223 63.7573 196.073 62.1995C199.44 57.2333 204.132 53.9262 209.5 51.4525C213.258 49.722 217.101 48.6147 221.313 48.427C229.23 48.0741 233.096 51.9968 235.611 58.4345C237.597 63.5171 239.222 68.7573 239.252 74.3691C239.267 76.779 240.972 79.0576 240.082 81.6176H240.086Z" fill="#AA958F"/>
<path d="M96.3735 69.1101C101.494 68.4157 106.584 67.451 111.786 67.496C114.534 67.5186 114.786 67.6875 114.861 70.7243C114.91 72.77 113.641 73.0215 111.97 72.9803C108.885 72.9052 105.795 72.9615 102.706 72.9577C101.678 72.9577 100.634 72.9164 100.045 73.9825C100.33 74.5343 100.78 74.463 101.145 74.4367C106.021 74.0876 110.803 75.1124 115.63 75.4277C118.243 75.6004 116.861 77.8376 117.312 79.0238C117.759 80.195 116.208 79.782 115.581 79.7595C111.52 79.6019 107.488 80.0673 103.449 80.2813C102.725 80.3188 101.97 80.2437 101.542 81.1784C102.984 82.3046 104.703 81.9292 106.171 81.6476C109.816 80.9457 113.461 81.5013 117.094 81.2835C117.961 81.231 118.453 81.5463 118.566 82.4735C118.768 84.1139 120.127 86.1597 119.024 87.252C118.01 88.258 115.807 87.7212 114.121 87.3796C111.389 86.8203 108.622 87.1657 105.874 87.1882C105.259 87.1919 104.647 87.7625 104.129 88.6071C105.364 88.6071 106.606 88.6934 107.834 88.5921C111.328 88.3068 114.759 89.1664 118.243 89.1138C119.515 89.0951 120.289 89.5493 119.703 91.0733C119.452 91.7302 119.474 92.4997 119.433 93.2204C119.294 95.5177 117.871 96.6364 115.54 96.1746C112.635 95.6003 109.711 96.0245 106.794 95.9269C106.343 95.9119 105.882 96.1821 105.431 96.3398C104.958 96.505 104.448 96.764 104.5 97.3045C104.564 97.9502 105.195 97.8488 105.664 97.8713C106.152 97.8939 106.655 97.8 107.124 97.8976C108.539 98.1904 110.157 98.2242 111.291 98.9712C112.672 99.8833 111.265 101.381 111.276 102.635C111.298 105.071 111.167 107.507 111.156 109.943C111.152 110.998 110.848 111.764 109.669 111.636C107.383 111.385 105.15 111.929 102.886 111.963C101.828 111.978 100.968 111.764 100.405 110.807C100.743 109.895 100.803 108.949 100.889 107.98C101.302 103.352 100.544 98.8173 99.7969 94.3053C99.2339 90.9119 99.9396 87.4885 99.2752 84.1627C98.2729 79.1514 97.8037 74.0388 96.381 69.1101H96.3735Z" fill="#B9845A"/>
<path d="M165.882 160.855C166.314 166.227 167.582 171.426 169.061 176.666C167.567 175.21 165.998 173.825 164.598 172.282C162.106 169.53 159.808 166.602 157.248 163.922C156.107 162.725 157.046 161.854 157.177 160.833C157.571 157.789 158.029 154.748 158.348 151.693C158.461 150.604 158.874 149.898 159.812 149.376C161.565 148.401 163.344 147.455 165 146.325C167.042 144.936 167.879 146.419 167.755 147.815C167.515 150.589 168.787 153.044 169.504 155.401C170.514 158.72 171.475 162.128 172.725 165.412C175.431 172.515 178.014 179.669 180.454 186.869C183.464 195.75 186.231 204.714 189.215 213.603C189.793 215.322 189.17 217.169 190.548 218.866C186.813 218.205 185.401 216.647 185.413 213.22C185.42 211.471 184.951 209.973 184.286 208.374C181.768 202.323 179.553 196.156 177.327 189.992C175.683 185.439 174.215 180.765 172.669 176.197C171.726 173.415 170.09 170.54 170.214 167.331C170.24 166.651 169.801 165.953 169.579 165.262C169.166 163.089 168.784 160.908 168.322 158.742C168.142 157.897 167.661 157.244 166.621 157.597C165.743 157.894 165.319 158.483 165.559 159.448C165.675 159.913 165.773 160.382 165.882 160.848V160.855Z" fill="#F5F5F8"/>
<path d="M138.434 161.813C143.442 158.937 148.453 156.062 153.461 153.187C153.806 152.988 154.17 152.657 154.564 152.913C155.071 153.243 154.835 153.78 154.759 154.245C153.524 161.925 152.699 169.647 151.903 177.383C151.629 180.048 150.431 182.999 149.564 185.788C149.215 186.906 150.12 188.554 148.284 189.099C148.262 188.614 148.389 188.059 148.194 187.661C145.09 181.366 143.052 174.643 140.311 168.205C139.433 166.141 138.686 164.054 138.431 161.813H138.434Z" fill="#FCFCFC"/>
<path d="M164.41 123.727C165.334 121.175 163.645 118.877 163.69 116.34C163.738 113.637 165.27 113.397 167.117 113.1C167.672 113.01 168.25 113.07 168.821 113.074C172.308 113.1 172.278 113.671 173.693 116.91C175.713 121.539 177.507 126.359 180.702 130.54C176.46 133.269 171.723 135.349 167.233 137.868C167.676 136.756 167.898 135.747 167.597 134.429C166.764 130.784 166.081 127.117 164.414 123.727H164.41Z" fill="#F5F5F8"/>
<path d="M56.9368 233.611C66.0208 233.566 75.0561 232.766 84.3429 231.52C82.1019 234.639 70.2551 239.234 64.3842 240.131C57.0869 241.249 49.921 241.539 42.7852 239.38C42.7476 237.623 40.4203 237.815 40.105 236.163C42.6012 235.213 45.2739 235.476 47.8414 235.078C50.8745 234.605 53.9525 234.406 56.9368 233.611Z" fill="#B7977E"/>
<path d="M168.723 182.777C165.153 182.729 161.929 184.159 158.618 185.176C156.58 185.803 154.594 186.606 151.997 187.541C154.872 180.799 154.174 173.828 156.295 166.944C158.412 170.015 161.051 172.368 163.085 175.184C164.365 176.955 166.291 178.014 167.439 179.887C168.021 180.837 168.802 181.606 168.671 182.819L168.723 182.774V182.777Z" fill="#F5F5F8"/>
<path d="M282.465 201.572C285.213 207.211 287.863 212.897 290.067 218.772C290.9 220.998 288.847 221.771 287.462 222.473C284.17 224.14 280.825 225.777 277.349 226.996C272.128 228.832 267.349 231.726 262.038 233.28C259.988 233.881 258.381 235.593 256.099 235.487C256.516 234.268 257.74 234.08 258.667 233.626C265.784 230.138 273.224 227.293 279.86 222.841C281.099 222.008 282.676 221.685 284.065 221.062C285.671 220.337 286.339 219.38 285.506 217.451C284.519 215.157 283.607 212.755 281.891 211.024C279.849 208.964 280.705 205.991 279.053 203.903C278.659 203.404 279.17 203.074 279.661 202.86C280.604 202.455 281.531 202.004 282.462 201.572H282.465Z" fill="#F5F5F8"/>
<path d="M99.8872 116.79C100.938 118.453 100.345 120.24 100.161 121.94C99.5156 127.958 99.7033 133.982 99.8722 140.007C99.9848 143.997 99.0163 147.868 98.2018 151.666C96.8767 157.845 96.8429 163.926 97.4285 170.15C97.9315 175.48 97.9616 180.855 98.198 186.208C98.1004 186.205 98.0066 186.22 97.9128 186.253C96.4188 184.26 96.1447 181.82 96.1335 179.542C96.0922 170.615 95.8519 161.685 96.2799 152.755C96.6853 144.365 96.9068 135.964 97.3534 127.575C97.5299 124.301 98.1305 121.051 98.4796 117.785C98.5847 116.82 99.2904 116.944 99.8797 116.786L99.8872 116.79Z" fill="#F0EFF3"/>
<path d="M189.384 81.9968C186.918 89.9772 188.002 98.1078 188.134 106.238C188.239 112.883 190.045 119.26 190.345 125.859C190.461 128.438 190.57 130.953 190.138 133.487C189.962 133.509 189.789 133.532 189.613 133.554C188.652 132.958 188.888 131.978 188.945 131.141C189.418 124.185 187.766 117.564 186.216 110.852C184.755 104.542 183.652 98.0027 184.913 91.5313C185.465 88.6897 184.936 85.8031 185.949 83.0065C186.895 80.3939 186.726 80.3038 189.384 82.0005V81.9968Z" fill="#F0EFF3"/>
<path d="M275.176 197.027C280.724 193.337 286.711 190.465 292.725 187.642C293.884 187.098 295.048 186.531 296.399 186.704C298.862 189.241 298.712 189.928 295.57 191.629C290.108 194.587 284.646 197.552 279.249 200.626C277.721 201.497 276.936 201.452 276.433 199.647C276.178 198.727 275.604 197.897 275.176 197.027Z" fill="#9C4C40"/>
<path d="M229.556 154.208C230.093 155.495 229.448 156.512 229.162 157.44C227.319 163.415 227.481 169.853 224.913 175.653C224.564 176.441 224.515 177.586 223.472 177.665C222.533 177.736 222.315 176.67 221.951 175.987C221.268 174.71 220.577 173.427 220.014 172.094C218.975 169.624 218.659 167.695 221.249 165.397C224.117 162.852 225.987 159.177 228.288 155.994C228.697 155.427 229.099 154.853 229.553 154.211L229.556 154.208Z" fill="#9C4C40"/>
<path d="M138.434 161.813C138.686 164.054 139.433 166.137 140.315 168.205C143.055 174.643 145.093 181.366 148.198 187.661C148.393 188.059 148.265 188.618 148.288 189.099C145.578 189.876 145.116 189.245 143.089 185.716C140.717 181.584 140.608 176.741 138.487 172.616C137.06 169.849 136.306 166.749 134.346 164.046C135.63 163.344 137.034 162.582 138.434 161.816V161.813Z" fill="#9C4C40"/>
<path d="M250.011 105.157C250.949 111.088 248.611 116.133 245.525 120.878C243.558 123.904 241.261 126.726 238.021 129.519C238.569 127.143 238.551 125.337 240.364 124.118C241.516 123.34 241.377 121.828 241.448 120.529C241.595 117.86 241.306 115.157 242.026 112.53C242.687 112.657 243.044 112.199 243.434 111.801C245.626 109.587 247.819 107.372 250.007 105.157H250.011Z" fill="#B9845A"/>
<path d="M184.2 119.301C185.446 122.792 185.454 126.404 185.277 130.551C181.265 127.586 180.225 123.142 177.973 119.504C175.473 115.469 174.872 111.115 175.116 106.531C176.753 108.686 177.702 111.306 179.666 113.232C181.49 115.026 181.734 117.995 184.2 119.301Z" fill="#B9845A"/>
<path d="M186.306 226.276C188.284 226.062 190.307 226.554 192.301 226.032C184.305 230.994 175.795 233.554 166.295 231.599C165.33 230.964 164.369 230.326 163.404 229.692C168.472 229.008 173.404 228.213 178.265 227.162C180.953 226.58 183.708 227.214 186.31 226.276H186.306Z" fill="#B7977E"/>
<path d="M121.985 83.9187C121.914 80.6341 120.097 77.6875 121.096 74.4179C121.396 73.4382 120.788 72.954 119.977 72.999C118.134 73.1041 118.378 71.9029 118.382 70.7543C118.389 69.1665 119.557 69.4743 120.461 69.4968C121.937 69.5306 123.401 69.433 124.797 68.99C126.512 68.442 127.387 69.4367 127.65 70.7505C127.89 71.9592 128.288 73.0741 128.701 74.2077C129.527 76.4637 130.551 78.6447 127.282 80.0748C125.048 81.0508 126.156 83.1792 126.385 84.8233C126.505 85.6904 126.94 86.4975 126.479 87.511C125.067 87.1169 125.364 85.9494 125.337 85.0073C125.232 81.5501 125.131 78.0891 125.123 74.6319C125.123 73.6259 124.508 73.6221 123.877 73.5583C122.946 73.4682 122.849 74.1214 122.849 74.8271C122.849 77.1019 122.864 79.3766 122.837 81.6514C122.826 82.4134 123.081 83.2993 121.985 83.9187Z" fill="#B9845A"/>
<path d="M241.114 242.319C236.516 244.643 231.583 246.249 226.67 247.469C220.795 248.93 216.647 252.777 212.011 256.032C210.36 257.192 208.824 258.487 206.959 259.343C203.712 260.833 201.508 263.611 199.042 266.05C198.344 266.741 197.728 267.522 196.583 267.293C198.772 264.421 201.261 261.865 204.114 259.628C206.452 257.796 208.817 255.998 210.945 253.881C215.529 249.32 221.505 247.398 227.503 245.559C231.501 244.331 235.469 243.014 239.436 241.7C240.228 241.437 241.013 240.874 241.114 242.323V242.319Z" fill="#F0EFF3"/>
<path d="M96.3735 69.1102C97.7962 74.0389 98.2692 79.1515 99.2677 84.1628C99.9321 87.4848 99.2264 90.912 99.7895 94.3054C100.536 98.8136 101.295 103.352 100.882 107.98C100.795 108.949 100.735 109.895 100.398 110.807C99.0537 110.781 98.4231 110.278 98.4569 108.754C98.5507 104.455 98.7309 100.135 98.3818 95.8632C97.9839 91.0096 97.083 86.1935 96.336 81.37C95.7842 77.8002 96.0245 74.1327 94.9997 70.6192C94.6731 69.5006 95.4989 69.2416 96.3735 69.1177V69.1102Z" fill="#F5F5F8"/>
<path d="M43.2131 222.334C44.632 220.487 46.8167 221.43 48.5997 221.002C52.421 220.086 56.4113 220.24 60.3527 220.356C61.2161 220.382 62.0607 220.54 62.2221 221.508C62.361 222.346 61.5839 222.612 60.9871 223.051C57.9578 225.266 54.2116 224.635 50.8858 225.671C49.2491 226.182 47.4661 226.662 45.6605 226.309C42.057 225.217 40.8783 225.394 43.2169 222.334H43.2131Z" fill="#E6C562"/>
<path d="M206.407 170.097C207.841 169.94 209.463 170.33 211.058 169.774C211.933 169.47 212.199 169.887 211.914 170.803C210.889 174.129 209.56 177.316 207.661 180.236C206.767 181.61 205.761 181.276 205.033 180.078C203.382 177.361 202.83 174.204 201.632 171.298C201.298 170.484 201.771 170.097 202.597 170.097C203.813 170.097 205.026 170.097 206.403 170.097H206.407Z" fill="#9C4C40"/>
<path d="M163.389 123.652C163.479 123.78 163.603 123.825 163.757 123.787C163.536 128.738 163.434 133.671 165.957 138.205C165.292 139.054 163.881 139.677 165.675 140.964C166.899 141.843 166.298 143.055 165.202 143.723C163.385 144.831 161.475 145.788 159.605 146.809C159.455 146.685 159.309 146.565 159.159 146.441C159.395 144.403 160.116 142.807 162.402 142.304C163.209 142.124 164.418 141.516 163.963 140.548C163.46 139.482 162.432 140.424 161.644 140.683C161.197 140.829 160.758 140.991 160.071 141.231C160.409 138.494 160.709 135.893 161.062 133.299C161.512 130.003 162.199 126.738 162.12 123.386C162.545 123.476 162.965 123.562 163.389 123.652Z" fill="#F0EFF3"/>
<path d="M102.56 201.358C105.27 202.721 107.853 202.447 110.634 201.253C119.925 197.263 129.305 193.483 138.622 189.545C139.591 189.136 140.499 189.2 141.449 189.14C142.545 190.277 143.446 191.013 140.878 191.704C131.137 194.328 121.854 198.284 112.455 201.906C110.608 202.62 108.675 203.205 106.73 203.532C104.951 203.832 103.243 203.43 102.56 201.358Z" fill="#F5F5F8"/>
<path d="M230.296 97.3608C232.586 97.7399 233.299 96.0132 234.234 94.4929C234.722 93.6971 235.003 91.8466 236.137 92.6198C237.304 93.4119 239.541 93.6446 239.136 96.1746C238.719 98.7797 238.261 101.43 238.577 104.106C235.855 101.809 232.597 100.169 230.292 97.3608H230.296Z" fill="#AA958F"/>
<path d="M39.373 228.798C45.2288 228.378 50.7956 229.909 56.385 231.493C51.6853 231.869 46.9368 231.4 42.2521 232.072C39.9473 232.094 37.6425 232.117 35.3377 232.139C34.8047 232.105 34.2379 232.263 33.7649 231.839C34.9999 229.639 37.421 229.65 39.373 228.798Z" fill="#E6C562"/>
<path d="M186.306 226.276C183.705 227.214 180.953 226.58 178.262 227.162C173.4 228.213 168.468 229.009 163.401 229.692C164.365 230.326 165.326 230.964 166.291 231.599C162.068 231.831 158.179 230.578 153.735 228.798C158.881 228.337 163.551 228.543 167.849 227.379C173.528 225.844 179.226 226.831 184.864 226.092C185.326 226.032 185.822 226.208 186.302 226.272L186.306 226.276Z" fill="#F0EFF3"/>
<path d="M184.2 119.302C181.73 117.995 181.49 115.022 179.666 113.232C177.702 111.306 176.749 108.686 175.116 106.531C175.251 105.555 174.729 104.091 176.073 103.877C177.124 103.708 177.616 104.985 178.22 105.848C180.533 109.159 182.635 112.549 183.825 116.464C184.117 117.432 184.162 118.348 184.2 119.305V119.302Z" fill="#F5F5F8"/>
<path d="M56.9368 233.611C53.9526 234.406 50.8745 234.605 47.8415 235.078C45.2739 235.476 42.6012 235.217 40.105 236.163C40.4203 237.815 42.7476 237.627 42.7852 239.38C39.6245 238.843 37.3648 236.388 34.4031 235.427C34.0727 235.319 33.8062 235.093 33.9076 234.737C33.9639 234.542 34.2116 234.324 34.4143 234.26C34.7109 234.17 35.0487 234.192 35.3715 234.196C42.5674 234.252 49.7296 233.066 56.9368 233.607V233.611Z" fill="#F0EFF3"/>
<path d="M196.073 62.1996C196.227 63.7611 195.18 64.9098 194.617 66.201C192.837 70.3076 191.441 74.5419 190.232 78.8399C188.915 79.174 188.416 78.0329 187.635 77.3985C187.616 74.6282 188.607 72.2296 190.311 70.0899C192.278 67.9128 192.856 64.8084 195.135 62.8452C195.42 62.5974 195.758 62.4135 196.073 62.1958V62.1996Z" fill="#F5F5F8"/>
<path d="M165.953 138.205C163.431 133.671 163.532 128.738 163.753 123.787C163.971 123.768 164.193 123.746 164.41 123.727C166.077 127.117 166.76 130.784 167.593 134.429C167.894 135.747 167.672 136.756 167.229 137.868C166.963 138.585 166.437 138.314 165.953 138.205Z" fill="#403A74"/>
<path d="M153.558 217.357C155.645 216.756 157.732 216.148 159.823 215.563C160.045 215.499 160.345 215.487 160.54 215.585C162.86 216.711 165.214 217.004 167.706 216.141C168.187 215.975 168.941 216.283 168.926 216.989C168.915 217.631 168.284 217.86 167.717 217.942C166.7 218.096 165.36 217.668 165.274 219.388L165.322 219.369C164.759 219.309 165.003 219.632 165.082 219.872C164.992 219.876 164.902 219.894 164.816 219.924C163.806 220.09 162.684 220.893 161.974 219.406C162.027 218.779 162.079 218.153 162.132 217.503C159.384 217.079 156.745 217.548 154.155 218.453C153.708 218.216 153.615 217.792 153.554 217.349L153.558 217.357Z" fill="#403A74"/>
<path d="M72.2033 225.277C74.5419 225.12 76.8805 224.962 79.632 226.193C74.921 228.952 70.1838 229.598 65.1951 229.174C66.0997 228.723 67.0532 228.348 67.9015 227.811C69.3092 226.918 71.3475 227.094 72.2033 225.281V225.277Z" fill="#E6C562"/>
<path d="M183.07 220.367C183.175 220.585 183.303 220.795 183.378 221.02C184.301 223.802 184.297 223.768 181.355 223.9C178.907 224.012 176.512 225.281 174.012 224.226C176.471 221.625 179.328 219.947 183.074 220.364L183.07 220.367Z" fill="#E6C562"/>
<path d="M156.91 221.771C158.656 221.955 160.518 221.49 162.072 222.71C162.023 222.897 161.978 223.089 161.929 223.277C160.533 223.393 159.057 223.352 158.483 225.06C158.164 225.071 157.845 225.086 157.53 225.097C157.481 224.789 157.361 224.44 157.023 224.504C156.419 224.617 156.603 225.187 156.531 225.6C155.484 225.747 154.437 225.893 153.393 226.036C152.924 225.949 152.451 225.867 151.978 225.784C151.441 225.69 150.679 225.855 150.506 225.217C150.3 224.451 151.051 224.091 151.606 223.862C153.363 223.134 154.827 221.651 156.914 221.771H156.91Z" fill="#F5F5F8"/>
<path d="M183.622 132.578C179.256 135.229 174.921 137.89 170.536 140.476C170.075 140.75 169.429 141.929 168.817 140.769C168.442 140.056 168.329 139.316 169.576 138.712C173.6 136.76 177.477 134.504 181.437 132.41C182.184 132.015 183.082 131.501 183.622 132.578Z" fill="#E1E4ED"/>
<path d="M250.011 105.157C247.819 107.372 245.626 109.587 243.438 111.801C243.048 112.196 242.691 112.657 242.03 112.53C241.355 109.594 244.117 108.412 245.232 106.396C245.762 105.443 246.756 104.729 247.601 103.975C248.111 103.517 248.656 102.74 249.436 103.194C250.105 103.585 250.191 104.392 250.015 105.157H250.011Z" fill="#F5F5F8"/>
<path d="M60.2701 229.185C58.2844 229.534 56.5051 228.948 54.6846 228.044C58.84 225.776 63.2356 225.334 67.7138 225.292C65.5216 227.139 62.5749 227.552 60.2664 229.185H60.2701Z" fill="#E6C562"/>
<path d="M156.91 221.771C154.823 221.651 153.359 223.138 151.603 223.862C151.047 224.091 150.296 224.448 150.503 225.217C150.675 225.859 151.437 225.69 151.974 225.784C152.447 225.867 152.92 225.949 153.389 226.035C151.828 226.734 150.416 226.745 149.403 225.127C149.031 224.534 148.442 224.316 147.86 224.046C146.847 223.573 147.548 223.029 147.822 222.507C150.717 221.054 153.919 221.587 156.959 221.081C156.94 221.31 156.925 221.539 156.907 221.767L156.91 221.771Z" fill="#E6C562"/>
<path d="M60.27 229.185C62.5748 227.552 65.5215 227.139 67.7174 225.292C69.2114 225.288 70.7092 225.285 72.2032 225.277C71.3473 227.094 69.309 226.914 67.9014 227.807C67.053 228.344 66.1033 228.723 65.1949 229.17C63.5508 229.174 61.9104 229.177 60.27 229.181V229.185Z" fill="#FCFCFD"/>
<path d="M165.274 219.388C168.074 219.061 170.863 219.455 173.659 219.512C172.462 220.168 171.231 220.769 170.075 221.49C167.661 223.002 166.231 222.601 164.816 219.921C164.902 219.891 164.992 219.872 165.082 219.868C165.161 219.699 165.244 219.53 165.322 219.365L165.274 219.384V219.388Z" fill="#E6C562"/>
<path d="M154.159 218.46C156.749 217.556 159.388 217.087 162.135 217.511C162.083 218.16 162.03 218.787 161.978 219.414C160.24 220.364 158.325 219.444 156.542 219.924C155.784 219.857 155.026 219.793 154.264 219.725C154.23 219.305 154.192 218.885 154.159 218.464V218.46Z" fill="#E6C562"/>
<path d="M74.5569 230.987C77.6162 229.031 80.8744 227.897 84.5756 228.532C81.719 231.178 77.8339 229.951 74.5569 230.987Z" fill="#E6C562"/>
<path d="M154.264 219.722C155.022 219.789 155.78 219.853 156.542 219.921C156.681 220.307 156.824 220.698 156.963 221.084C153.922 221.587 150.72 221.058 147.826 222.511C147.8 221.978 147.774 221.441 147.747 220.908C148.892 220.731 149.947 220.589 150.499 219.234C150.795 218.502 151.689 218.006 152.653 218.066C152.59 219.204 152.89 219.992 154.268 219.725L154.264 219.722Z" fill="#403A74"/>
<path d="M189.613 133.555C189.789 133.532 189.962 133.509 190.138 133.487C190.176 137.045 190.228 140.6 190.247 144.159C190.247 144.774 190.33 145.536 189.343 145.548C189.072 142.556 188.821 139.568 188.87 136.558C188.888 135.461 189.095 134.489 189.613 133.555Z" fill="#E1E4ED"/>
<path d="M183.07 220.367C179.324 219.954 176.471 221.629 174.009 224.23C173.34 223.933 172.192 224.403 172.06 223.303C171.94 222.285 173.07 222.21 173.682 221.771C176.186 219.962 179.208 219.917 182.072 219.361C182.759 219.226 183.089 219.684 183.066 220.371L183.07 220.367Z" fill="#F0EFF3"/>
<path d="M165.882 160.855C165.773 160.39 165.675 159.921 165.559 159.455C165.319 158.494 165.743 157.905 166.621 157.605C167.661 157.252 168.141 157.905 168.322 158.75C168.783 160.912 169.166 163.096 169.579 165.27C168.524 164.985 168.562 164.024 168.243 163.235C167.804 162.147 167.211 161.111 165.882 160.859V160.855Z" fill="#615C8C"/>
<path d="M43.2131 222.334C40.8745 225.394 42.0532 225.217 45.6568 226.31C44.3993 226.516 43.1493 226.764 41.8843 226.91C40.8107 227.034 39.6508 226.989 39.2679 225.743C38.8775 224.478 39.5607 223.663 40.7093 223.033C41.5239 222.586 42.2822 222.237 43.2093 222.334H43.2131Z" fill="#F5F5F8"/>
<path d="M163.389 123.652C162.965 123.562 162.545 123.476 162.12 123.386C161.062 123.097 160.938 123.761 160.938 124.545C160.938 125.728 160.311 126.227 159.177 126.193C159.241 124.519 159.046 122.796 160.12 121.313C161.876 121.16 163.509 121.182 163.389 123.648V123.652Z" fill="#403A74"/>
<path d="M39.3731 228.798C37.4212 229.654 34.9962 229.639 33.765 231.839C34.238 232.259 34.8048 232.105 35.3378 232.139C35.3679 232.252 35.4016 232.357 35.4467 232.462C34.3844 232.552 32.8904 233.543 32.5225 231.801C32.1546 230.056 33.3146 228.945 35.0638 228.686C36.494 228.472 37.9429 228.509 39.3731 228.798Z" fill="#E1E4ED"/>
<path d="M129.583 86.52C128.554 84.9209 128.738 83.3106 128.735 81.7302C128.735 80.9044 129.29 80.5028 129.932 80.4465C131.077 80.3451 130.597 81.3323 130.63 81.8428C130.732 83.4457 130.398 84.9735 129.583 86.52Z" fill="#B9845A"/>
<path d="M161.929 223.277C161.978 223.089 162.023 222.897 162.072 222.71C162.552 222.759 163.059 222.736 163.513 222.879C164.429 223.164 165.743 223.4 165.664 224.504C165.566 225.844 164.215 224.954 163.464 225.12C162.466 225.345 161.374 225.142 160.323 225.12C160.998 224.778 161.753 224.53 162.331 224.069C163.003 223.532 162.406 223.374 161.929 223.273V223.277Z" fill="#B7977E"/>
<path d="M236.163 120.623C234.226 119.808 235.315 118.153 235.24 116.903C235.168 115.728 236.321 116.036 237.09 116.024C237.271 117.259 236.816 118.416 236.651 119.609C236.276 119.82 235.518 119.816 236.129 120.566L236.163 120.627V120.623Z" fill="#B9845A"/>
<path d="M98.8624 191.099C100.052 193.089 100.056 195.27 99.9022 197.481C98.6372 195.544 98.3256 193.34 98.0891 191.111C98.3481 191.107 98.6034 191.103 98.8624 191.099Z" fill="#F0EFF3"/>
<path d="M79.4856 208.667C78.412 207.364 78.0967 205.859 78.2844 204.215C78.7536 204.245 79.1928 204.346 79.4706 204.782C79.3429 205.57 78.7236 206.328 79.8609 207.038C80.6455 207.53 80.7994 208.389 79.4893 208.663L79.4856 208.667Z" fill="#615C8C"/>
<path d="M161.929 223.276C162.402 223.378 162.999 223.535 162.331 224.072C161.753 224.534 161.002 224.782 160.322 225.123C159.711 225.101 159.095 225.082 158.483 225.06C159.054 223.352 160.533 223.393 161.929 223.276Z" fill="#E1E4ED"/>
<path d="M250.54 238.412C248.941 239.812 247.045 240.536 244.966 240.837C246.486 239.249 248.34 238.442 250.54 238.412Z" fill="#E1E4ED"/>
<path d="M199.65 260.093C198.535 261.028 197.529 262.154 195.454 262.409C196.674 260.882 197.924 260.228 199.271 259.703C199.399 259.834 199.523 259.962 199.65 260.093Z" fill="#AA958F"/>
<path d="M98.8623 191.099C98.6033 191.103 98.348 191.107 98.089 191.111C98.029 189.493 97.9727 187.871 97.9126 186.253C98.0064 186.219 98.1003 186.204 98.1979 186.208C98.7347 187.796 99.095 189.406 98.8623 191.099Z" fill="#E1E4ED"/>
<path d="M247.901 259.943C247.59 257.912 247.916 257.612 249.763 258.209C249.549 259.226 248.903 259.774 247.901 259.943Z" fill="#403A74"/>
<path d="M256.118 235.476C255.228 236.97 253.547 236.895 252.188 237.458C252.995 235.795 254.59 235.709 256.118 235.476Z" fill="#F5F5F8"/>
<path d="M35.4465 232.462C35.4015 232.357 35.3639 232.248 35.3376 232.139C37.6424 232.117 39.9472 232.094 42.252 232.072C40.0336 233.048 37.7175 232.387 35.4465 232.462Z" fill="#AA958F"/>
<path d="M194.996 221.385C195.66 221.798 195.551 222.571 195.822 223.168C195.097 223.303 194.249 223.449 193.915 222.653C193.558 221.801 194.512 221.719 194.996 221.385Z" fill="#615C8C"/>
<path d="M172.312 153.832C172.894 154.264 172.462 154.917 172.665 155.428C172.406 155.983 172.15 156.539 171.779 157.342C170.99 155.818 171.854 154.857 172.312 153.828V153.832Z" fill="#615C8C"/>
<path d="M100.368 198.43C101.516 198.858 101.862 199.774 101.854 200.9C100.784 200.424 100.653 199.38 100.368 198.43Z" fill="#F0EFF3"/>
<path d="M96.5763 102.56C97.0943 102.71 97.4434 103.018 97.3608 103.585C97.3383 103.746 97.0192 104.02 96.9141 103.99C96.3473 103.821 96.4036 103.266 96.291 102.819C96.4224 102.774 96.5162 102.687 96.5763 102.56Z" fill="#615C8C"/>
<path d="M156.527 225.6C156.599 225.187 156.415 224.617 157.019 224.504C157.357 224.44 157.481 224.789 157.526 225.097C157.192 225.266 156.861 225.431 156.527 225.6Z" fill="#E1E4ED"/>
<path d="M199.271 259.703C199.526 259.301 199.857 258.738 200.304 259.32C200.581 259.684 200.026 259.951 199.65 260.093C199.523 259.962 199.399 259.834 199.271 259.703Z" fill="#AA958F"/>
<path d="M122.56 95.5553C122.62 95.4202 122.65 95.21 122.748 95.1725C122.841 95.1349 123.085 95.24 123.123 95.3376C123.16 95.4352 123.055 95.6755 122.958 95.713C122.86 95.7505 122.695 95.6154 122.56 95.5591V95.5553Z" fill="#403A74"/>
<path d="M99.8796 197.447C100.518 197.548 100.683 197.882 100.383 198.453C99.8046 198.325 99.8984 197.856 99.8796 197.447Z" fill="#F0EFF3"/>
<path d="M269.316 254.556C269.061 254.47 268.806 254.38 268.554 254.294C268.607 254.237 268.648 254.144 268.708 254.132C269.046 254.068 269.282 254.174 269.316 254.556Z" fill="#B7977E"/>
<path d="M252.233 237.428C252.105 237.999 251.64 237.939 251.223 237.965C251.321 237.338 251.508 236.876 252.233 237.428Z" fill="#F5F5F8"/>
<path d="M236.129 120.567C235.518 119.816 236.276 119.82 236.651 119.609C236.475 119.928 236.302 120.248 236.129 120.567Z" fill="#B9845A"/>
<path d="M243.855 104.031C243.791 104.095 243.738 104.148 243.686 104.2C243.633 104.095 243.562 103.994 243.536 103.881C243.528 103.844 243.633 103.776 243.686 103.724C243.742 103.829 243.802 103.93 243.858 104.031H243.855Z" fill="#FDFDFE"/>
<path d="M225.506 86.2197C225.63 86.3699 225.758 86.5238 225.881 86.6739C225.397 86.8203 225.562 86.4262 225.506 86.2197Z" fill="#FCFCFC"/>
<path d="M101.832 200.863L102.62 201.388C101.899 201.899 101.952 201.253 101.832 200.863Z" fill="#F5F5F8"/>
<path d="M159.602 146.809C159.504 147.008 159.365 147.248 159.144 147.045C159.046 146.955 159.148 146.647 159.159 146.441C159.305 146.565 159.455 146.685 159.606 146.809H159.602Z" fill="#F0EFF3"/>
<path d="M251.272 237.935C251.013 238.107 250.75 238.28 250.491 238.453C250.63 238.096 250.893 237.927 251.272 237.935Z" fill="#E1E4ED"/>
<path d="M151.129 280.896C145.994 279.947 140.743 280.157 135.563 279.226C131.238 278.449 126.779 278.273 122.432 277.398C120.458 277 118.577 276.272 116.558 275.99C114.444 275.698 113.885 273.678 115.353 272.064C115.784 271.591 116.298 271.144 116.858 270.84C123.224 267.342 129.114 262.954 135.814 260.123C140.51 258.137 144.786 255.424 149.365 253.28C150.48 252.758 150.334 251.591 151.099 251.159C152.631 250.296 154.365 250.228 155.994 250.848C160.349 252.496 164.962 252.954 169.485 253.074C175.082 253.224 180.664 253.637 186.257 253.749C187.113 253.768 187.98 253.817 188.239 254.774C188.491 255.72 187.729 256.268 187.075 256.73C176.501 264.185 165.529 270.972 153.697 276.283C153.476 276.381 153.228 276.467 153.059 276.628C152.327 277.308 150.6 277.327 150.878 278.52C151.107 279.515 152.578 278.832 153.479 279.005C153.99 279.102 154.816 278.787 154.827 279.601C154.834 280.247 154.268 280.806 153.562 280.885C152.759 280.972 151.94 280.904 151.126 280.904L151.129 280.896ZM171.674 264.312C172.023 264.245 172.44 264.26 172.417 263.734C172.417 263.682 172.319 263.588 172.263 263.588C171.741 263.573 171.734 263.971 171.689 264.331C171.276 264.316 170.9 264.384 170.709 264.815C165.976 265.866 162.211 268.749 158.28 271.324C162.725 269.725 166.899 267.623 170.698 264.8C171.099 264.789 171.471 264.714 171.674 264.309V264.312ZM150.705 275.57C151.471 275.307 152.237 275.044 153.003 274.782C152.913 274.583 152.826 274.387 152.736 274.188C151.831 274.173 150.979 274.26 150.66 275.517C150.45 275.592 150.236 275.664 150.026 275.739C150.071 275.799 150.15 275.919 150.157 275.915C150.345 275.806 150.525 275.686 150.705 275.57ZM135.559 262.863C133.558 263.453 131.764 264.421 130.199 265.806C126.715 267.244 123.494 269.117 120.476 271.538C122.838 273.092 125.458 273.344 128.066 273.595C131.847 273.96 135.657 274.087 139.403 274.654C143.87 275.33 147.886 275.037 151.783 272.274C155.435 269.684 159.538 267.725 163.442 265.487C165.375 264.59 167.304 263.689 169.238 262.792C171.674 261.79 173.975 260.544 176.088 258.967C177.608 258.4 178.72 257.3 180.093 256.058C178.288 255.915 176.779 255.855 175.289 255.668C168.843 254.868 162.312 254.875 155.927 253.509C154.219 253.145 152.417 253.46 151.047 254.5C147.646 257.071 143.28 257.747 139.928 260.36C139.29 260.532 138.566 260.544 138.202 261.246C137.609 261.291 137.237 261.655 136.937 262.128C136.467 262.357 135.799 262.218 135.563 262.871L135.559 262.863ZM149.193 275.994C146.043 277.901 142.744 276.377 139.422 277.417C144.286 279.08 147.511 278.667 149.193 275.994ZM153.937 273.719C155.713 273.363 156.666 272.987 157.229 271.902C156.171 272.12 155.142 272.39 153.937 273.719Z" fill="#342D6A"/>
<path d="M219.023 221.088C218.922 223.828 216.839 225.217 215.022 226.779C214.729 227.03 214.29 227.113 213.93 227.293C213.108 227.702 212.383 229.361 211.396 227.98C210.536 226.775 212.173 226.264 212.8 225.555C214.031 224.162 215.322 222.886 215.285 220.795C215.258 219.245 216.471 219.136 217.683 219.076C219.309 218.993 218.967 220.138 219.023 221.092V221.088Z" fill="#403A74"/>
<path d="M212.976 216.644C212.195 218.915 211.85 221.182 210.608 223.141C210.307 223.611 210.015 224.087 209.673 224.53C208.858 225.589 207.578 225.202 206.798 224.909C205.683 224.493 206.734 223.547 206.955 222.89C207.406 221.554 208.066 220.337 208.284 218.866C208.682 216.197 210.968 216.786 212.972 216.644H212.976Z" fill="#342D6A"/>
<path d="M201.084 116.351C201.141 122.732 198.986 128.72 197.8 134.88C197.342 137.252 196.7 139.594 196.651 142.053C196.606 144.395 198.498 144.376 199.823 144.605C201.073 144.823 202.672 144.654 203.295 143.096C204.039 141.231 204.647 139.309 205.289 137.406C205.889 135.626 207.522 134.677 209.076 135.443C210.54 136.163 209.981 137.627 209.617 138.637C208.907 140.596 207.886 142.447 206.97 144.328C206.418 145.461 205.304 145.75 204.226 146.141C201.614 147.083 198.911 146.768 196.28 146.569C193.907 146.388 192.725 143.663 192.912 140.72C193.205 136.145 194.954 131.937 195.874 127.522C196.351 125.247 196.996 123.006 197.563 120.75C197.725 121.013 197.92 121.261 198.036 121.542C198.246 122.053 197.807 123.157 198.776 122.931C199.729 122.71 199.602 121.696 199.252 120.916C199.027 120.413 198.749 119.898 198.085 119.834C198.085 119.5 198.078 119.166 198.074 118.828C199.564 118.592 199.406 116.359 201.081 116.344L201.084 116.351Z" fill="#342D6A"/>
<path d="M206.156 152.631C205.067 152.571 204.001 152.593 202.972 152.417C202.417 152.319 201.516 152.229 201.666 151.325C201.779 150.649 202.376 150.169 203.085 150.202C209.391 150.503 213.066 145.931 217.383 142.541C218.1 141.978 218.877 141.441 217.826 140.454C217.507 140.154 217.574 139.553 217.916 139.361C219.643 138.386 221.568 138.72 223.325 139.031C224.785 139.294 224.181 140.739 224.196 141.865C224.234 145.082 221.846 146.099 219.646 147.417C215.435 149.932 211.385 152.826 206.156 152.631Z" fill="#342D6A"/>
<path d="M199.001 114.463C199.057 110.889 199.53 107.26 199.05 103.761C198.539 100.045 197.413 96.3098 193.757 94.0989C193.19 93.7573 191.843 93.5433 192.349 92.5336C192.766 91.7078 193.967 91.415 194.939 91.5951C196.839 91.9442 198.584 92.8939 199.474 94.5756C202.747 100.754 203.937 107.286 202.158 114.178C202.045 114.613 201.61 114.966 201.325 115.356C200.247 115.841 199.891 114.452 198.993 114.459L199.001 114.463Z" fill="#342D6A"/>
<path d="M224.046 114.91C226.077 114.91 228.108 114.898 230.138 114.921C230.671 114.925 231.437 114.793 231.433 115.604C231.433 116.193 230.878 116.636 230.304 116.723C229.508 116.843 228.686 116.816 227.879 116.82C223.198 116.839 218.49 116.55 213.937 118.003C212.713 118.393 211.539 118.937 210.352 119.437C209.62 119.744 208.911 119.906 208.453 119.061C207.875 117.995 208.915 117.804 209.459 117.515C213.719 115.236 218.329 114.714 223.074 114.913C223.397 114.928 223.723 114.913 224.05 114.913L224.046 114.91Z" fill="#342D6A"/>
<path d="M218.385 120.848C219.129 120.848 219.695 120.822 220.262 120.852C221.655 120.934 221.632 121.741 221.107 122.68C220.285 124.148 216.216 125.454 214.598 124.797C213.363 124.294 213.359 123.491 214.035 122.488C215.15 120.829 216.809 120.717 218.389 120.844L218.385 120.848Z" fill="#342D6A"/>
<path d="M192.676 114.913C194.44 114.598 194.665 115.66 194.605 116.914C194.534 118.438 194.328 119.804 192.244 119.804C190.427 119.804 190.206 118.795 190.146 117.323C190.063 115.364 190.949 114.684 192.676 114.913Z" fill="#342D6A"/>
<path d="M212.683 157.425C212.068 160.022 210.071 159.384 208.701 159.819C207.683 160.146 206.644 159.651 205.641 159.346C205.037 159.163 203.93 159.673 204.038 158.491C204.132 157.488 205.082 157.421 205.93 157.425C208.108 157.432 210.285 157.425 212.68 157.425H212.683Z" fill="#342D6A"/>
<path d="M199.001 114.463C199.898 114.452 200.255 115.844 201.332 115.36C201.426 115.735 201.43 116.088 201.084 116.355C199.41 116.37 199.568 118.603 198.078 118.84C198.07 117.725 198.059 116.61 198.051 115.495C198.719 115.465 199.102 115.165 199.023 114.444L199.005 114.467L199.001 114.463Z" fill="#342D6A"/>
<path d="M198.089 119.842C198.753 119.902 199.031 120.416 199.256 120.923C199.605 121.708 199.733 122.717 198.78 122.939C197.811 123.164 198.25 122.057 198.04 121.55C197.924 121.268 197.729 121.021 197.567 120.758C197.74 120.454 197.912 120.15 198.089 119.846V119.842Z" fill="#342D6A"/>
<path d="M199.02 114.44C199.099 115.165 198.719 115.461 198.047 115.491C197.972 114.775 198.352 114.474 199.02 114.44Z" fill="#342D6A"/>
<path d="M154.264 219.722C152.883 219.988 152.586 219.204 152.65 218.062C152.954 217.826 153.254 217.59 153.558 217.353C153.618 217.796 153.712 218.224 154.159 218.457C154.193 218.877 154.23 219.297 154.264 219.718V219.722Z" fill="#615C8C"/>
<path d="M165.326 219.369C165.247 219.538 165.165 219.703 165.086 219.872C165.007 219.628 164.763 219.309 165.326 219.369Z" fill="#FCFCFC"/>
<path d="M163.438 265.484C159.534 267.721 155.431 269.676 151.779 272.27C147.882 275.037 143.866 275.326 139.399 274.65C135.653 274.083 131.843 273.956 128.063 273.592C125.458 273.34 122.838 273.089 120.473 271.535C123.487 269.117 126.711 267.24 130.195 265.803C130.927 266.576 131.873 266.201 132.729 266.268C137.349 266.636 141.929 265.81 146.542 265.739C150.968 265.671 155.401 265.431 159.816 264.887C160.991 264.74 162.413 264.226 163.438 265.484Z" fill="#E1E4ED"/>
<path d="M139.921 260.356C143.273 257.743 147.639 257.071 151.039 254.496C152.41 253.46 154.211 253.141 155.919 253.505C162.304 254.872 168.836 254.864 175.281 255.664C176.775 255.848 178.28 255.912 180.086 256.054C178.712 257.3 177.601 258.397 176.081 258.963C175.037 258.029 173.787 258.4 172.665 258.58C170.87 258.866 169.132 259.493 167.278 259.44C166.741 259.455 166.167 259.354 165.807 259.917C163.014 259.616 160.285 260.397 157.515 260.416C156.704 260.416 155.893 260.416 155.078 260.42C154.403 260.476 153.645 260.191 153.119 260.889C152.958 260.889 152.796 260.896 152.635 260.904C149.47 260.904 146.302 260.945 143.138 260.874C142.06 260.848 140.848 261.354 139.913 260.348L139.921 260.356Z" fill="#E1E4ED"/>
<path d="M152.642 260.908C152.804 260.897 152.965 260.893 153.127 260.893C153.558 261.523 153.633 262.788 154.576 262.563C155.54 262.334 154.921 261.163 155.082 260.424C155.893 260.424 156.704 260.424 157.518 260.42C157.74 261.171 157.06 262.721 158.247 262.556C160.976 262.177 163.723 262.702 166.681 262.162C166.313 261.358 165.638 260.758 165.81 259.924C166.167 259.361 166.745 259.463 167.282 259.448C167.267 260.953 169.208 261.317 169.23 262.796C167.297 263.693 165.368 264.594 163.434 265.491C162.41 264.234 160.987 264.752 159.812 264.894C155.401 265.439 150.968 265.679 146.539 265.746C141.925 265.818 137.35 266.647 132.725 266.276C131.869 266.208 130.919 266.584 130.191 265.81C131.756 264.425 133.551 263.457 135.552 262.867C135.78 263.288 136.058 263.809 136.591 263.596C137.271 263.321 136.914 262.646 136.925 262.128C137.222 261.655 137.594 261.294 138.19 261.246C138.408 261.471 138.806 261.685 138.817 261.921C138.896 263.475 139.38 263.806 141.077 263.494C144.208 262.916 147.44 263.22 150.638 262.743C152.143 262.518 152.635 262.282 152.639 260.915L152.642 260.908Z" fill="#FCFCFC"/>
<path d="M152.642 260.908C152.642 262.274 152.147 262.511 150.642 262.736C147.443 263.213 144.208 262.909 141.081 263.487C139.384 263.798 138.904 263.472 138.821 261.914C138.81 261.677 138.412 261.463 138.194 261.238C138.562 260.536 139.283 260.525 139.921 260.352C140.855 261.355 142.068 260.852 143.145 260.878C146.31 260.949 149.474 260.904 152.642 260.908Z" fill="#F5F5F8"/>
<path d="M169.234 262.792C169.211 261.313 167.267 260.949 167.286 259.444C169.136 259.496 170.878 258.87 172.672 258.584C173.791 258.404 175.045 258.036 176.088 258.967C173.975 260.544 171.674 261.79 169.237 262.792H169.234Z" fill="#F0EFF3"/>
<path d="M170.694 264.8C166.895 267.619 162.721 269.725 158.277 271.324C162.207 268.749 165.972 265.866 170.705 264.815L170.694 264.8Z" fill="#615C8C"/>
<path d="M149.189 275.994C147.511 278.667 144.286 279.076 139.418 277.417C142.74 276.381 146.039 277.905 149.189 275.994Z" fill="#403A74"/>
<path d="M153.934 273.716C155.139 272.387 156.167 272.117 157.226 271.899C156.666 272.984 155.709 273.359 153.934 273.716Z" fill="#615C8C"/>
<path d="M150.66 275.517C150.979 274.26 151.835 274.174 152.736 274.189C152.826 274.387 152.912 274.583 153.003 274.782C152.237 275.044 151.471 275.307 150.705 275.57L150.66 275.517Z" fill="#403A74"/>
<path d="M136.929 262.12C136.918 262.638 137.274 263.318 136.595 263.588C136.062 263.802 135.784 263.28 135.555 262.86C135.792 262.207 136.46 262.345 136.929 262.116V262.12Z" fill="#F5F5F8"/>
<path d="M171.689 264.331C171.734 263.967 171.741 263.573 172.263 263.588C172.319 263.588 172.413 263.682 172.417 263.734C172.44 264.264 172.023 264.249 171.674 264.312L171.689 264.331Z" fill="#615C8C"/>
<path d="M171.674 264.312C171.467 264.714 171.096 264.789 170.698 264.804C170.698 264.804 170.709 264.815 170.709 264.819C170.9 264.388 171.276 264.32 171.689 264.335L171.674 264.316V264.312Z" fill="#615C8C"/>
<path d="M150.705 275.57C150.525 275.686 150.345 275.806 150.157 275.915C150.15 275.919 150.071 275.803 150.026 275.739C150.236 275.664 150.45 275.592 150.66 275.517L150.705 275.57Z" fill="#403A74"/>
<path d="M165.81 259.921C165.638 260.754 166.313 261.355 166.681 262.158C163.723 262.702 160.976 262.173 158.247 262.552C157.06 262.717 157.74 261.171 157.518 260.416C160.292 260.397 163.018 259.617 165.81 259.917V259.921Z" fill="#F0EFF3"/>
<path d="M155.082 260.424C154.921 261.163 155.54 262.33 154.575 262.563C153.633 262.788 153.558 261.523 153.126 260.893C153.648 260.195 154.406 260.48 155.086 260.424H155.082Z" fill="#F5F5F8"/>
</g>
<defs>
<linearGradient id="paint0_linear_1_34206" x1="166.002" y1="276.313" x2="166.002" y2="128.667" gradientUnits="userSpaceOnUse">
<stop stop-color="white"/>
<stop offset="1" stop-color="#E3E6EF"/>
</linearGradient>
<linearGradient id="paint1_linear_1_34206" x1="117.222" y1="141.085" x2="160.157" y2="141.085" gradientUnits="userSpaceOnUse">
<stop stop-color="white"/>
<stop offset="1" stop-color="#E3E6EF"/>
</linearGradient>
<clipPath id="clip0_1_34206">
<rect width="332" height="332" fill="white"/>
</clipPath>
</defs>
</svg>
