<svg width="332" height="332" viewBox="0 0 332 332" fill="none" xmlns="http://www.w3.org/2000/svg">
<g clip-path="url(#clip0_1_34360)">
<path d="M0.0459294 180.837V146.138C0.861295 146.035 0.90729 145.451 0.978373 144.804C2.12825 133.916 4.56598 123.295 7.96961 112.885C11.436 102.289 16.1316 92.2368 21.6594 82.5387C28.0234 71.3705 35.6586 61.1206 44.6067 51.8425C49.4362 46.8349 54.4663 42.0291 59.8812 37.6063C68.2732 30.7456 77.2464 24.7661 86.8175 19.6597C97.2207 14.1044 108.109 9.64863 119.486 6.44476C128.882 3.79683 138.415 1.74602 148.187 0.955352C148.886 0.897699 149.63 0.996533 149.776 0.0411377H182.224C182.332 0.840046 182.922 0.910054 183.578 0.951234C190.653 1.41246 197.586 2.79202 204.46 4.39395C226.655 9.5745 246.851 19.0296 265.186 32.3393C267.49 34.0112 270.087 35.4525 271.68 37.9605C269.844 40.3572 268.581 43.1122 266.863 45.5624C262.313 52.0361 257.798 58.5426 252.822 64.7198C248.168 70.5016 243.71 76.4357 239.006 82.1763C233.575 88.8023 227.838 95.1854 222.473 101.865C215.766 110.208 208.713 118.251 201.65 126.297C201.286 126.713 200.826 126.849 200.283 127.002C195.474 128.34 190.423 128.801 185.794 130.77C181.621 132.545 177.494 134.414 173.234 136.004C170.537 137.013 167.969 138.524 166.686 141.497C164.541 139.113 162.596 136.675 160.363 134.525C154.142 128.534 148.321 122.286 144.654 114.351C143.596 112.065 143.295 109.899 144.361 107.667C144.796 106.757 144.466 105.448 145.996 105.011C150.751 103.66 154.171 100.362 157.311 96.8532C158.917 95.0577 158.586 92.7598 157.616 90.6637C156.876 89.0577 155.781 87.8675 153.736 88.1558C152.908 88.2752 152.239 88.057 152.624 87.0974C153.527 84.8284 153.535 82.3122 154.781 80.1255C155.446 78.9601 155.802 77.6011 155.772 76.2257C155.751 75.052 155.45 73.6807 154.104 73.6354C151.679 73.5572 152.197 72.4824 152.879 71.1028C153.176 70.5016 153.372 69.8468 153.552 69.1961C155.827 61.03 153.602 57.0643 146.69 54.7828C144.336 54.0045 142.037 53.0162 139.808 51.9331C135.175 49.6723 130.17 48.5439 125.161 48.0786C115.514 47.1891 107.373 50.3888 101.469 58.2791C101.147 58.7074 100.859 58.938 100.139 58.6785C95.5482 57.0313 90.7396 57.4266 86.0189 57.6367C82.3602 57.8014 78.6973 58.5385 76.0003 61.4624C74.4574 63.1384 74.8003 64.275 77.0164 65.041C78.5426 65.564 80.073 65.284 81.595 65.3087C85.3624 65.3704 89.134 65.3292 92.9056 65.3292C91.509 66.3341 90.1041 66.9724 89.1465 68.2078C88.2308 69.3897 88.097 70.9381 88.7744 72.0458C89.1925 72.7294 90.7187 72.3918 91.7097 72.0458C92.0568 71.9223 92.3244 71.6134 92.6923 72.0211C91.9522 73.7425 90.9361 75.4062 90.5222 77.2058C89.3347 82.3946 87.8963 87.5751 87.9841 92.9492C88.051 97.2073 87.7165 101.577 89.9619 105.514C92.1822 109.413 93.6875 113.659 96.3301 117.369C98.9225 121.006 102.594 122.982 106.516 124.658C109.104 125.766 111.797 125.046 114.394 124.498C115.175 124.333 115.878 124.255 116.2 124.873C116.572 125.585 116.723 126.573 115.907 127.154C113.21 129.069 111.111 131.775 108.385 133.496C102.615 137.145 96.4932 140.254 90.4971 143.552C89.5354 144.079 88.4148 144.631 88.2768 145.677C88.0803 147.168 87.0433 147.909 86.115 148.745C84.016 150.627 81.825 152.406 79.6716 154.226C79.3287 154.515 79.0235 155.001 78.505 154.786C77.9112 154.543 77.9488 153.934 77.9238 153.407C77.5976 146.394 77.5265 139.368 76.4812 132.405C76.4185 131.972 76.0756 131.33 76.6234 131.198C80.0312 130.379 77.9279 128.896 77.0666 127.516C78.5426 127.105 79.174 126.273 78.3168 124.873C77.9739 124.313 77.953 123.74 77.8945 123.135C77.698 120.981 76.0881 119.087 73.9138 119.284C71.2587 119.523 70.251 118.383 69.8286 116.151C70.1381 115.018 69.9541 114.232 68.5073 114.334C67.5916 114.1 66.8264 113.482 66.4167 112.778C65.9818 112.028 65.5135 111.876 64.7817 111.884C62.2018 111.917 59.5969 111.678 57.0964 112.56C55.7458 113.037 54.2991 113.008 53.0238 112.679C50.8787 112.127 48.7504 112.477 46.6221 112.354C45.7315 112.3 44.9245 112.452 45.1294 113.663C44.891 115.146 43.5321 116.229 43.6115 117.822C42.7669 118.901 42.8714 120.264 42.4909 121.479C40.371 128.254 39.6183 135.283 38.5186 142.243C37.7451 147.135 37.1346 152.048 36.3569 156.94C35.1108 164.797 31.6696 172.177 31.1093 180.183C31.0256 181.352 30.3148 181.525 29.5956 181.2C28.0234 180.483 26.355 180.31 24.7034 180.203C21.5716 180.006 18.5108 179.355 15.4041 179.034C14.7727 178.968 13.7106 178.486 13.4681 179.598C13.2465 180.619 14.4089 180.644 14.9567 181.076C15.5964 181.579 16.3574 181.953 17.1101 182.287C22.2113 184.556 26.9028 188.081 33.0118 187.282C34.0738 187.142 35.1861 187.348 36.244 187.196C38.4141 186.879 39.0664 187.55 39.058 189.827C39.0413 193.682 40.6637 196.791 44.6736 198.236C48.0647 199.459 51.5352 199.785 55.1813 199.361C55.1813 201 55.0266 202.54 54.8217 204.121C53.7053 212.851 54.6085 221.656 53.952 230.423C53.6259 234.755 54.0607 239.141 53.9144 243.515C53.7179 249.379 56.6239 253.682 61.3865 257.162C64.1462 259.18 67.1609 259.283 70.2133 259.658C71.3298 259.793 72.3625 260.629 73.5375 260.143C78.0492 258.274 83.0501 258.336 87.6203 256.688C87.9967 256.553 88.8956 256.322 88.7284 257.183C88.3228 259.254 88.9584 261.432 87.1687 263.368C84.6223 266.119 82.5233 269.269 80.2444 272.263C74.9843 279.169 69.6614 286.03 64.1085 292.713C60.1195 289.621 56.1431 286.512 52.5471 282.978C47.588 278.102 42.5829 273.28 38.1047 267.931C32.2131 260.889 26.9363 253.443 22.2699 245.578C17.248 237.111 13.075 228.237 9.70069 219.008C5.75349 208.214 2.97706 197.137 1.34633 185.767C1.11218 184.136 1.79374 182.118 0.041748 180.825L0.0459294 180.837Z" fill="#E3E6EF"/>
<path d="M331.954 147.967V178.556C331.147 178.667 331.063 179.24 331.03 179.894C330.75 185.273 329.759 190.552 328.688 195.811C324.704 215.343 317.353 233.57 306.598 250.445C297.905 264.085 287.402 276.225 275.071 286.796C272.253 289.213 269.484 291.746 266.219 293.619C266.19 289.926 266.248 286.227 266.098 282.542C266.018 280.594 266.307 278.906 267.611 277.357C270.944 273.404 272.704 268.549 275.28 264.155C275.895 263.109 275.803 261.77 274.791 260.831C274.101 260.193 274.226 260.016 274.945 259.448C277.805 257.195 277.964 256.413 276.216 253.192C275.811 252.443 276.154 252.196 276.459 251.66C277.559 249.737 276.869 247.406 275.117 246.776C276.973 244.557 276.856 242.946 274.807 240.714C274.109 239.948 273.152 239.355 273.795 237.865C276.777 230.955 278.495 223.666 280.214 216.377C281.217 212.114 280.423 211.324 276.07 212.04C270.856 212.901 265.587 213.44 260.352 214.177C255.565 214.853 250.723 215.219 246.027 216.438C244.501 216.834 242.598 217.233 242.122 218.814C241.093 222.253 240.437 225.803 239.705 229.324C238.785 233.738 237.924 238.161 236.644 242.605C235.218 241.616 234.294 240.492 233.496 239.298C231.631 236.502 229.176 234.492 226.015 233.244C224.05 232.47 222.21 231.395 220.236 230.642C219.091 230.205 218.815 229.587 218.815 228.467C218.815 225.09 217.615 223.353 214.307 222.422C213.003 222.055 213.249 221.322 213.312 220.573C213.417 219.354 214.236 219.803 214.976 219.947C219.664 220.853 224.159 220.948 228.298 217.875C231.53 215.479 234.9 213.49 237.158 209.858C239.437 206.188 240.813 202.14 243.037 198.492C244.835 195.543 246.052 192.352 246.169 188.925C246.332 184.037 246.633 179.133 245.768 174.257C244.756 168.57 243.685 162.907 241.394 157.55C241.16 157.006 240.265 156.611 240.972 155.701C241.929 156.038 242.887 156.347 243.957 156.458C245.772 156.648 245.709 155.931 245.785 154.581C245.906 152.274 244.789 150.858 242.954 149.771C242.08 149.256 241.185 148.774 239.788 147.996C245.91 147.996 251.438 147.996 256.961 147.996C258.04 147.996 259.065 147.913 260.114 147.522C262.196 146.748 262.673 145.208 261.159 143.561C259.805 142.086 258.241 140.904 256.271 140.299C248.185 137.82 240.039 137.861 231.886 139.838C230.849 140.089 230.518 140.027 229.916 139.191C226.826 134.913 222.653 131.915 217.866 129.707C213.408 127.652 208.683 126.792 203.478 126.932C207.048 122.888 210.352 119.149 213.651 115.405C217.205 111.369 220.529 107.153 224.138 103.154C228.269 98.5787 231.982 93.6452 235.933 88.9094C239.893 84.1654 244.074 79.5902 247.888 74.735C252.717 68.5867 257.317 62.2531 261.941 55.9524C265.889 50.5742 269.94 45.2495 273.034 39.3153C273.992 39.1671 274.598 39.7148 275.251 40.2913C281.498 45.826 287.385 51.6902 292.833 58.0073C300.949 67.4213 307.802 77.6506 313.573 88.5717C318.632 98.1504 322.65 108.174 325.615 118.58C328.212 127.698 330.194 136.939 331.022 146.394C331.08 147.077 330.98 147.815 331.95 147.955L331.954 147.967Z" fill="#E3E6EF"/>
<path d="M240.161 309.523C239.404 309.56 238.634 309.75 237.878 309.367C241.001 299.232 242.301 288.69 245.337 278.345C241.641 278.716 238.074 279.091 234.507 279.424C232.902 279.577 231.304 279.437 229.745 278.988C228.566 278.65 228.587 277.835 228.812 276.863C230.012 271.682 231.2 266.502 232.354 261.313C233.408 256.557 234.119 251.722 235.937 247.147C236.389 246.01 235.398 244.655 234.942 244.219C232.45 241.822 230.891 238.664 228.152 236.497C225.421 234.335 222.101 233.483 218.969 232.091C218.702 235.447 217.974 236.267 215.767 235.637C214.495 235.274 214.048 233.981 213.283 233.071C212.71 232.388 212.325 231.552 211.832 230.74C210.402 232.145 212.451 235.534 208.738 235.365C208.629 234.294 208.608 233.199 209.018 232C209.432 230.794 209.214 229.892 207.308 230.283C200.354 231.708 193.58 233.635 187.07 236.452C186.518 236.691 185.928 236.86 185.339 236.983C180.342 238.042 180.054 237.597 179.694 232.532C179.518 230.069 179.723 227.574 179.242 225.016C175.22 226.519 171.733 228.883 168.116 230.975C164.189 233.244 159.619 234.208 155.856 236.58C149.781 240.41 142.538 242.205 137.103 247.031C134.08 249.712 131.596 252.99 129.986 256.643C126.837 263.788 124.642 271.312 122.698 278.827C120.908 285.746 119.135 292.623 116.384 299.232C115.728 300.805 114.929 302.325 114.114 303.828C113.854 304.302 113.39 304.755 113.725 305.249C114.072 305.759 114.72 306.002 115.364 305.895C124.458 304.372 133.628 305.241 142.764 305.039C146.268 304.961 146.231 305.022 146.569 301.551C147.485 292.244 148.43 282.941 148.877 273.589C149.132 268.236 149.73 262.894 150.27 257.557C150.416 256.104 150.441 254.296 152.854 254.572C152.457 259.892 152.059 265.213 151.62 271.061C154.723 266.617 155.509 262.17 155.128 257.426C155.057 256.524 154.066 255.194 155.76 254.881C157.771 254.51 156.956 256.178 157.207 257.121C158.127 260.613 157.554 263.924 156.308 267.243C155.722 268.804 154.97 270.266 153.887 271.456C152.248 273.26 151.227 275.1 151.102 277.641C150.83 283.299 150.416 288.97 149.672 294.583C149.387 296.741 149.701 298.977 148.894 301.085C148.693 301.604 148.672 302.321 149.413 302.667C152.218 298.195 155.885 294.377 159.184 290.288C163.37 285.099 167.087 279.573 171.256 274.396C174.559 270.29 176.658 265.493 179.819 261.362C182.266 258.167 185.514 255.461 187.438 252.014C190.566 246.41 195.926 245.537 201.241 244.878C207.529 244.099 213.475 242.09 219.634 240.904C220.972 240.644 222.315 240.327 223.665 240.233C224.92 240.146 226.425 239.845 226.956 241.542C227.453 243.132 226.697 244.33 225.476 245.269C223.297 246.941 220.738 247.892 218.2 248.852C215.177 249.997 212.024 250.705 208.524 251.347C211.142 252.031 213.438 252.686 215.758 253.217C217.335 253.579 217.979 254.312 217.966 256.025C217.949 258.665 217.084 260.996 216.08 263.347C215.804 263.99 215.118 264.677 216.678 265.019C217.661 265.233 218.514 266.345 219.266 267.19C220.337 268.388 219.919 269.879 218.426 270.785C215.507 272.551 212.129 272.807 208.905 273.486C206.392 274.013 203.829 274.425 201.228 274.367C200.818 274.359 200.509 274.47 200.208 274.767C197.72 277.246 194.358 278.144 191.247 279.47C189.876 280.054 188.889 280.973 188.45 282.262C186.568 287.796 183.39 292.705 180.835 297.91C177.52 304.66 173.865 311.257 171.131 318.27C169.19 323.249 166.41 327.717 163.203 331.967H161.35C161.986 330.752 162.621 329.541 163.257 328.327C164.327 327.532 164.875 326.362 165.561 325.279C169.801 318.583 171.858 310.907 175.479 303.906C179.64 295.868 183.834 287.813 187.363 279.466C189.361 279.095 191.076 278.053 192.878 277.213C194.651 276.641 196.403 276.039 197.996 274.417C194.927 274.511 192.322 274.207 189.813 276.01C187.02 278.02 183.716 279.091 179.589 278.267C180.844 277.814 181.617 277.332 182.416 277.283C187.58 276.958 189.871 273.894 190.95 269.006C191.657 265.814 190.979 263.846 189.039 263.067C191.858 261.544 198.234 262.701 201.37 265.303C195.989 268.182 193.647 269.067 193.35 273.017C195.186 273.062 197.068 273.404 198.694 272.193C200.572 270.797 202.608 269.578 204.046 267.675C204.381 267.432 204.928 267.297 204.544 266.695L204.502 266.753C206.037 265.979 207.571 263.17 207.174 261.799C207.074 261.457 206.877 260.975 206.605 260.876C202.855 259.53 199.727 256.82 195.721 256.046C195.466 255.449 194.27 256.062 194.391 255.173C194.504 254.337 195.345 254.304 196.039 254.362C196.474 254.399 196.892 254.617 197.327 254.724C201.425 255.733 204.853 258.175 208.658 259.818C209.298 260.094 209.578 260.564 209.637 261.21C209.578 261.647 209.44 262.095 209.762 262.478C210.444 262.256 210.481 261.556 210.807 261.078C212.359 258.822 212.288 258.579 209.758 257.487C208.182 256.804 206.568 256.202 204.974 255.56C204.473 255.037 203.369 255.404 203.16 254.139C204.222 253.83 205.255 253.744 206.388 254.139C209.118 255.086 211.719 256.305 214.299 257.582C214.796 259.349 213.576 260.564 212.806 261.885C211.485 264.154 210.046 266.354 208.591 268.684C210.122 269.224 211.05 268.635 211.623 267.577C213.341 264.397 215.123 261.231 215.532 257.549C215.583 256.367 215.942 255.025 214.286 254.572C211.159 253.715 208.069 252.789 204.795 252.463C201.797 252.167 199.1 250.454 196.043 250.19C195.934 250.182 195.859 249.844 195.767 249.659C196.135 249.449 196.507 249.235 196.879 249.021C197.331 249.053 197.812 248.996 198.226 249.132C206.609 251.866 214.219 249.156 221.662 245.767C223.176 245.08 225.371 244.264 224.543 241.699C218.965 241.682 213.856 243.745 208.604 245.187C207.789 245.903 206.752 245.537 205.827 245.738C205.041 245.808 204.163 245.277 203.486 246.08L203.511 246.06C201.379 245.965 199.363 246.57 197.293 246.957C194.471 247.484 192.192 248.419 190.762 251.096C189.959 252.595 188.701 253.868 187.588 255.198C183.988 259.497 179.932 263.479 177.996 268.907L177.984 268.923C177.173 269.31 176.763 270.035 176.395 270.789L176.236 270.834L176.203 270.995C175.651 271.798 174.743 272.399 174.727 273.507L174.768 273.457C174.225 273.325 174.405 273.708 174.396 273.96C168.793 281.072 163.684 288.566 157.637 295.341C156.467 295.958 156.082 297.235 155.233 298.12C154.183 299.006 153.418 300.101 152.808 301.316C152.44 302.449 151.223 302.972 150.755 304.001C147.61 310.915 141.777 315.701 136.831 321.194C136.145 321.956 135.413 322.219 134.33 321.412C138.457 316.24 143.764 312.118 146.904 306.468H125.081C123.91 306.2 122.832 306.357 122.539 307.658C121.665 311.578 120.879 315.519 120.11 319.464C119.921 320.44 120.36 321.812 118.784 321.857C117.053 321.911 118.098 320.366 117.689 319.633C118.684 318.752 118.253 317.475 118.462 316.421C119.106 313.135 120.31 309.943 120.494 306.517C119.658 306.645 119.006 306.764 118.345 306.838C116.3 307.065 114.026 306.097 112.299 308.07C112.065 308.337 111.279 308.313 110.785 307.942C110.196 307.497 110.601 307.086 110.71 306.575C111.325 303.754 113.018 301.398 114.105 298.783C117.785 289.93 119.282 280.446 122.393 271.427C123.973 266.848 124.889 262.058 126.946 257.615C129.02 253.134 131.6 249.074 135.648 246.018C141.66 241.484 148.685 238.721 155.208 235.081C157.282 233.924 159.678 233.343 161.886 232.404C167.217 230.143 171.8 226.503 177.181 224.308C178.745 223.67 179.874 222.549 179.426 220.606C179.226 219.737 179.51 218.827 179.987 218.23C181.626 216.171 181.63 213.761 181.722 211.377C181.814 209.022 181.588 206.65 181.797 204.306C182.077 201.205 181.872 200.925 178.795 201.671C176.341 202.264 174.881 201.234 173.752 198.965C172.87 197.19 173.522 194.736 170.947 193.616C168.496 192.549 166.535 190.593 164.637 188.732C162.985 187.113 161.263 185.577 161.079 182.88C160.824 179.19 162.584 176.373 166.243 175.698C167.116 175.537 167.384 175.146 167.38 174.331C167.367 172.301 167.234 170.258 168.087 167.631C162.751 173.849 157.825 179.491 153.009 185.223C146.105 193.447 139.34 201.778 132.415 209.985C125.286 218.431 118.387 227.055 111.626 235.789C109.129 239.009 106.516 242.147 103.978 245.335C97.1581 253.888 90.146 262.305 83.5896 271.048C77.8528 278.7 71.7271 286.034 65.8481 293.566C64.8529 294.114 64.0292 294.328 64.1086 292.726C69.6615 286.042 74.9843 279.181 80.2445 272.275C82.5233 269.286 84.6224 266.131 87.1688 263.38C88.9585 261.449 88.3187 259.266 88.7285 257.195C88.8999 256.33 87.9967 256.565 87.6204 256.701C83.0502 258.348 78.0493 258.286 73.5376 260.156C72.3626 260.642 71.3298 259.806 70.2134 259.67C67.1568 259.299 64.1463 259.192 61.3866 257.174C56.6282 253.695 53.7179 249.391 53.9145 243.527C54.0608 239.154 53.626 234.768 53.9521 230.436C54.6086 221.668 53.7054 212.864 54.8218 204.133C55.0225 202.552 55.1814 201.012 55.1814 199.373C51.5353 199.797 48.0606 199.472 44.6737 198.249C40.6679 196.803 39.0456 193.694 39.0581 189.84C39.0665 187.562 38.4142 186.891 36.244 187.208C35.1862 187.36 34.0739 187.155 33.0118 187.295C26.9029 188.089 22.2114 184.568 17.1101 182.299C16.3575 181.966 15.5965 181.591 14.9567 181.089C14.409 180.656 13.2466 180.631 13.4682 179.61C13.7107 178.502 14.7728 178.98 15.4041 179.046C18.5109 179.367 21.5716 180.014 24.7035 180.216C26.3551 180.323 28.0235 180.496 29.5957 181.212C30.3149 181.537 31.0299 181.369 31.1093 180.195C31.6696 172.189 35.1067 164.81 36.3569 156.953C37.1347 152.064 37.7451 147.147 38.5187 142.255C39.6184 135.291 40.371 128.266 42.491 121.492C42.8715 120.277 42.767 118.914 43.6116 117.835L45.351 118.321C44.8242 120.577 44.2054 122.818 43.7956 125.095C42.6081 131.663 41.4749 138.244 40.3794 144.829C39.5515 149.791 38.8323 154.77 38.0337 159.732C37.189 164.97 35.3618 169.966 34.1157 175.105C33.5847 177.283 33.7603 179.66 33.0244 181.743C32.5477 183.098 33.0369 183.498 33.8607 184.008C34.5506 184.437 35.3074 184.832 36.0893 185.046C38.4183 185.684 41.1153 186.858 43.0304 184.947C46.2166 181.776 47.701 177.333 47.9937 173.17C48.2236 169.842 48.6125 166.494 49.4195 163.393C50.7325 158.328 51.7443 153.201 53.0447 148.144C55.0602 140.299 55.5117 132.273 56.5445 124.317C57.0505 120.4 56.9961 116.402 60.5127 113.12C57.6192 113.774 55.1605 114.598 52.681 114.1C50.7534 113.713 48.8717 113.721 46.9525 113.779C46.3462 113.741 45.7441 113.704 45.1378 113.667C44.9329 112.452 45.7399 112.304 46.6305 112.358C48.7589 112.481 50.8872 112.131 53.0322 112.683C54.3117 113.013 55.7543 113.041 57.1049 112.564C59.6053 111.682 62.2103 111.917 64.7902 111.888C65.5219 111.88 65.9944 112.032 66.4251 112.782C66.8349 113.49 67.6001 114.104 68.5158 114.339C68.6078 116.253 67.4704 115.652 66.6467 115.113C65.3463 114.264 63.9623 113.902 62.4904 114.219C60.5921 114.631 60.036 116.34 59.9524 117.843C59.8645 119.429 61.4702 119.157 62.5657 119.186C64.1797 119.231 65.7979 119.21 67.4119 119.21C68.4531 119.21 69.3102 119.239 68.4907 117.732C67.876 116.599 68.6245 116.064 69.8329 116.151C70.2552 118.383 71.2629 119.527 73.9181 119.284C76.0924 119.087 77.7022 120.981 77.8988 123.135C77.9531 123.74 77.9782 124.308 78.3211 124.873C79.1782 126.273 78.5469 127.105 77.0708 127.516C77.928 128.896 80.0354 130.374 76.6276 131.198C76.0799 131.33 76.4185 131.972 76.4854 132.405C77.5308 139.368 77.6019 146.398 77.928 153.407C77.9531 153.934 77.9155 154.543 78.5092 154.786C79.0277 155.001 79.333 154.515 79.6758 154.226C81.8292 152.406 84.0203 150.627 86.1193 148.745C87.0476 147.913 88.0845 147.172 88.2811 145.677C88.4191 144.631 89.5397 144.079 90.5014 143.552C96.4974 140.254 102.619 137.145 108.389 133.496C111.115 131.775 113.215 129.069 115.911 127.154C116.727 126.573 116.576 125.585 116.204 124.873C115.882 124.255 115.184 124.333 114.398 124.498C111.801 125.041 109.108 125.762 106.52 124.658C102.598 122.982 98.9268 121.006 96.3344 117.369C93.6917 113.659 92.1865 109.413 89.9662 105.514C87.7249 101.577 88.0594 97.2073 87.9884 92.9492C87.9047 87.5751 89.3431 82.3946 90.5265 77.2058C90.9404 75.4062 91.9565 73.7384 92.6966 72.0211C92.3286 71.6134 92.0652 71.9223 91.714 72.0458C90.7188 72.3959 89.1968 72.7336 88.7786 72.0458C88.1055 70.9422 88.2393 69.3897 89.1508 68.2078C90.1041 66.9724 91.5133 66.3341 92.9098 65.3292C89.1382 65.3292 85.3667 65.3704 81.5993 65.3086C80.0772 65.2839 78.5427 65.5681 77.0207 65.041C74.8045 64.2791 74.4617 63.1384 76.0046 61.4624C78.7016 58.5344 82.3603 57.7973 86.0231 57.6367C90.7397 57.4266 95.5525 57.0313 100.144 58.6785C100.863 58.938 101.151 58.7074 101.473 58.2791C107.382 50.3888 115.518 47.1891 125.165 48.0786C130.174 48.5398 135.183 49.6723 139.812 51.9331C142.041 53.0203 144.341 54.0086 146.695 54.7828C153.606 57.0642 155.827 61.03 153.556 69.1961C153.376 69.8427 153.176 70.5016 152.883 71.1028C152.206 72.4782 151.683 73.5531 154.108 73.6354C155.455 73.6807 155.756 75.052 155.777 76.2257C155.802 77.6011 155.446 78.9601 154.786 80.1255C153.54 82.3122 153.531 84.8284 152.628 87.0974C152.248 88.0569 152.912 88.2711 153.74 88.1558C155.785 87.8634 156.88 89.0576 157.621 90.6637C158.591 92.7639 158.917 95.0618 157.315 96.8532C154.175 100.362 150.759 103.664 146.001 105.011C144.47 105.444 144.801 106.757 144.366 107.667C143.299 109.899 143.605 112.065 144.658 114.351C148.325 122.286 154.146 128.534 160.368 134.525C162.601 136.675 164.545 139.113 166.69 141.497C167.974 138.524 170.541 137.013 173.238 136.004C177.499 134.414 181.622 132.545 185.799 130.77C190.428 128.801 195.479 128.34 200.287 127.002C200.831 126.849 201.287 126.713 201.654 126.297C208.713 118.251 215.771 110.208 222.478 101.865C227.842 95.1895 233.579 88.8064 239.011 82.1763C243.715 76.4357 248.176 70.5016 252.826 64.7198C257.798 58.5385 262.313 52.0361 266.867 45.5624C268.585 43.1122 269.848 40.3572 271.684 37.9604C272.135 38.4134 272.591 38.8664 273.043 39.3194C269.949 45.2577 265.901 50.5783 261.95 55.9565C257.325 62.2613 252.726 68.5908 247.896 74.7391C244.083 79.5943 239.901 84.1695 235.942 88.9135C231.99 93.6452 228.277 98.5828 224.146 103.158C220.538 107.157 217.213 111.374 213.659 115.409C210.36 119.153 207.053 122.892 203.486 126.936C208.692 126.796 213.417 127.656 217.874 129.711C222.662 131.919 226.835 134.917 229.925 139.195C230.527 140.031 230.857 140.093 231.894 139.842C240.044 137.865 248.193 137.824 256.28 140.303C258.249 140.908 259.813 142.09 261.168 143.565C262.681 145.212 262.205 146.748 260.122 147.526C259.073 147.917 258.048 148 256.97 148C251.442 147.992 245.918 148 239.797 148C241.193 148.782 242.088 149.26 242.962 149.775C244.798 150.862 245.914 152.278 245.793 154.585C245.722 155.935 245.78 156.652 243.966 156.462C242.899 156.351 241.938 156.042 240.98 155.705C240.274 156.615 241.168 157.006 241.402 157.554C243.698 162.911 244.764 168.574 245.776 174.261C246.642 179.141 246.345 184.041 246.178 188.929C246.065 192.356 244.844 195.547 243.046 198.496C240.821 202.144 239.446 206.192 237.167 209.862C234.909 213.494 231.539 215.483 228.306 217.88C224.167 220.952 219.672 220.857 214.985 219.951C214.245 219.807 213.425 219.358 213.32 220.577C213.258 221.326 213.007 222.055 214.316 222.426C217.619 223.357 218.823 225.094 218.823 228.471C218.823 229.591 219.099 230.209 220.245 230.646C222.218 231.395 224.058 232.47 226.023 233.248C229.185 234.496 231.639 236.506 233.504 239.302C234.298 240.492 235.222 241.62 236.652 242.609C237.932 238.169 238.793 233.742 239.713 229.328C240.445 225.807 241.101 222.257 242.13 218.818C242.603 217.233 244.505 216.838 246.035 216.442C250.731 215.223 255.573 214.857 260.361 214.182C265.596 213.44 270.864 212.905 276.078 212.044C280.431 211.328 281.226 212.118 280.222 216.381C278.504 223.67 276.781 230.959 273.804 237.869C273.16 239.359 274.117 239.957 274.816 240.718C276.865 242.955 276.982 244.561 275.125 246.78C276.877 247.41 277.563 249.741 276.467 251.664C276.162 252.2 275.815 252.443 276.225 253.196C277.968 256.417 277.814 257.199 274.954 259.452C274.235 260.02 274.105 260.201 274.799 260.835C275.815 261.774 275.903 263.113 275.288 264.159C272.717 268.553 270.952 273.412 267.62 277.361C266.315 278.91 266.026 280.594 266.106 282.546C266.256 286.236 266.198 289.934 266.227 293.624C266.198 294.002 266.123 294.381 266.148 294.752C266.21 295.773 265.136 296.238 264.714 296.222C264.049 296.201 263.769 295.353 263.798 294.546C263.861 292.878 263.702 291.202 263.844 289.542C264.074 286.825 263.15 284.222 263.35 281.302C262.284 281.846 261.435 282.282 260.582 282.719C255.979 283.448 251.484 283.637 247.683 279.964C245.396 287.903 243.681 295.736 241.963 303.573C241.524 305.574 241.632 307.802 240.165 309.528L240.161 309.523ZM160.397 170.357L160.414 170.373C160.426 171.156 160.66 171.918 161.401 172.206C161.848 172.379 162.028 171.708 162.258 171.349C162.964 170.555 163.629 169.723 164.386 168.977C166.866 166.531 168.952 163.916 169.077 160.23C169.107 159.357 169.659 158.369 169.136 157.628C166.569 153.987 165.737 149.935 165.975 145.611C166.038 144.458 165.732 143.49 164.984 142.679C162.617 140.105 160.213 137.56 157.817 135.011C154.627 131.618 151.403 128.262 148.401 124.691C145.273 120.973 143.617 116.426 140.874 112.51C140.255 111.629 140.615 110.822 140.857 109.924C141.999 105.703 143.793 101.725 145.666 97.7962C148.238 92.3974 150.136 86.7845 151.654 81.0274C152.001 79.7178 152.887 78.5648 152.979 77.1646C153.042 76.2422 153.105 75.122 151.875 75.0067C150.533 74.8791 149.162 73.7713 147.748 75.155C147.226 75.6656 145.758 75.748 145.415 75.0932C144.32 73.0012 142.559 74.1996 141.154 74.109C140.038 74.039 139.54 75.1138 139.611 76.238C139.687 77.4158 140.619 77.1811 141.347 77.1893C143.584 77.214 145.825 77.2552 148.062 77.1811C149.726 77.1276 150.04 77.6835 149.53 79.2278C148.656 81.8757 147.845 84.5648 148.196 87.4228C148.254 87.8963 148.116 88.3576 147.585 88.5223C147.117 88.6705 146.64 88.6129 146.331 88.197C145.921 87.6493 145.495 87.0974 145.185 86.4962C143.626 83.4529 143.58 83.4241 140.895 85.7508C140.477 86.1132 139.662 86.1503 139.691 86.8092C141.179 88.4976 143.684 89.3377 143.605 92.4262C142.254 91.4708 141.213 90.9149 140.297 90.0789C137.809 87.8016 137.274 87.9128 135.313 90.7419C134.552 91.8415 133.419 92.7063 133.068 94.0735C132.963 94.16 132.863 94.2464 132.758 94.3329C132.955 94.5429 133.13 94.4729 133.298 94.2917C133.933 94.0405 134.761 93.9582 135.171 93.5093C137.462 91.0137 139.703 91.5861 141.986 93.4475C142.513 93.8758 143.776 93.7481 143.492 94.7488C143.212 95.7413 142.087 95.5107 141.28 95.4489C137.893 95.1895 134.565 95.8731 131.199 95.9472C130.35 95.9637 129.388 96.2231 129.472 97.3185C129.555 98.381 130.479 98.5663 131.345 98.381C133.026 98.0186 134.715 98.2327 136.396 98.2245C137.257 98.2204 138.692 97.7386 138.892 98.5663C139.206 99.8717 137.366 99.357 136.785 100.094C133.954 100.576 131.32 104.039 131.613 107.391C131.939 111.131 131.002 114.96 132.599 118.617C133.699 121.138 133.548 124.053 134.97 126.503C135.451 127.978 135.823 129.501 136.776 130.786C137.931 133.138 138.905 135.604 140.306 137.799C141.234 139.253 141.368 141.287 143.249 142.111L143.207 142.049C143.078 143.775 144.249 144.919 145.127 146.188C146.565 149.054 147.945 151.953 149.459 154.782C152.277 160.037 156.019 164.645 160.012 169.064C160.088 169.509 159.653 170.106 160.401 170.357H160.397ZM154.907 90.8655C154.401 89.383 153.59 89.3418 152.557 90.3878C148.689 93.9293 148.396 99.1264 145.737 103.767C148.417 102.697 150.119 101.325 151.679 99.7647C152.31 99.6205 152.787 99.2828 153.05 98.6857H153.046C156.199 96.0543 156.797 93.5216 154.903 90.8655H154.907ZM262.844 264.785C262.33 264.595 262.125 264.875 262.033 265.316C261.954 265.851 262.138 266.193 262.736 266.197C264.571 266.205 266.486 266.518 268.226 266.111C269.685 265.769 271.596 266.111 272.558 264.406C273.08 263.611 273.515 262.701 272.796 261.914C272.173 261.235 271.379 261.914 270.664 262.083C269.857 262.281 268.974 262.388 268.238 262.647C266.415 263.29 264.019 262.585 262.815 264.747L262.844 264.785ZM215.583 270.257C216.716 270.373 217.418 269.652 217.305 268.763C217.163 267.647 216.264 266.761 215.118 266.444C214.357 266.23 214.186 266.893 214.203 267.527C213.036 269.57 211.046 270.204 208.892 270.278C207.684 270.319 206.885 270.756 206.191 271.604C205.029 271.958 203.712 271.888 202.357 273.111C205.903 272.535 209.072 272.498 212.033 271.283C213.333 271.336 214.558 271.139 215.583 270.257ZM260.633 254.811C260.561 255.391 260.725 255.482 261.385 255.486C265.596 255.527 269.183 253.435 273.047 252.294C273.787 252.076 274.72 251.73 274.423 250.577C274.297 249.614 275.033 247.876 272.788 248.848C269.593 250.223 266.407 251.59 262.92 252.146C261.502 252.373 260.231 252.962 260.637 254.815L260.633 254.811ZM225.342 216.504C225.86 216.776 225.961 216.331 226.153 216.043C226.977 215.598 227.801 215.153 228.624 214.713C233.378 211.62 236.519 207.469 237.397 201.819L237.367 201.856C240.462 199.496 241.281 195.868 242.239 192.516C243.548 187.929 243.46 183.193 243.037 178.367C242.431 171.415 240.897 164.736 238.969 158.073C238.375 156.03 237.648 156.125 236.364 157.36C234.9 157.393 233.404 157.624 231.978 157.418C230.017 157.13 227.922 156.73 227.261 154.412C226.684 152.381 227.805 149.523 229.824 148.618C231.233 147.983 231.693 146.929 231.342 145.875C230.786 144.195 228.804 143.622 227.244 144.384C223.435 146.245 220.533 149.425 216.787 151.385C215.946 151.825 215.992 152.563 216.557 153.316C217.46 154.527 216.636 155.033 215.616 155.499C214.792 155.878 213.906 155.853 213.124 155.692C209.177 154.889 205.744 155.882 202.574 158.217C201.542 158.974 200.396 159.666 199.192 160.099C196.332 161.128 195.006 160.156 195.115 157.204C195.144 156.479 194.956 156.195 194.27 156.265C193.388 156.355 192.263 155.845 191.699 156.763C191.226 157.533 191.331 158.497 191.766 159.39C192.694 161.301 193.384 163.29 193.911 165.353C195.926 173.26 190.306 178.98 182.972 178.972C179.41 178.972 179.41 178.799 178.293 182.295C178.247 182.439 178.168 182.575 178.126 182.719C177.754 183.951 177.549 185.273 175.809 185.408C174.141 185.54 173.702 184.198 173.271 183.193C172.155 180.57 169.692 179.742 167.484 178.535C167.171 178.173 166.978 177.354 166.464 177.588C165.068 178.227 164.394 179.487 164.16 180.953C163.943 182.312 164.971 182.485 165.95 182.674C168.229 184.412 171.022 185.087 173.564 186.282C175.768 187.315 177.959 188.382 180.1 189.535C180.518 189.757 181.383 190.198 180.936 190.881C180.447 191.635 179.548 191.52 178.895 191.034C178.097 190.441 177.674 189.424 176.253 189.864C175.467 190.107 175.722 188.378 174.614 188.349C174.187 188.336 173.773 187.999 173.347 187.822C171.089 186.887 168.835 185.944 166.569 185.025C165.887 184.75 165.239 184.185 164.39 184.713C164.93 186.479 166.293 187.756 167.664 188.719C169.642 190.107 171.068 192.368 174.07 192.405C175.295 192.422 176.253 194.304 175.697 195.691C174.986 197.47 175.952 198.829 176.867 199.665C177.745 200.468 179.46 200.435 180.585 199.192C181.308 198.393 182.5 198.24 182.997 198.973C184.218 200.777 185.105 202.824 184.39 205.093C184.034 206.221 184.026 207.346 184.122 208.474C184.369 211.348 184.348 214.198 183.344 216.941C182.889 218.18 183.344 218.794 184.482 219.148C186.518 219.782 188.567 220.342 190.536 221.199C196.248 223.674 201.813 226.552 208.11 227.466C208.963 227.59 209.85 228.142 209.98 226.803C210.084 225.745 210.456 224.456 208.608 224.258C206.752 224.061 205.041 223.377 203.544 222.245C201.654 220.816 199.756 219.399 197.87 217.962C197.486 217.665 196.691 217.542 196.992 216.858C197.256 216.249 197.992 216.755 198.468 216.537C202.967 217.435 207.525 217.702 212.095 217.773C214.232 217.805 216.31 218.164 218.359 218.711C220.6 219.309 224.175 218.184 225.384 216.479L225.342 216.512V216.504ZM125.667 49.767L125.704 49.7876C122.735 48.8651 119.729 49.1699 116.81 49.8452C111.847 50.9942 107.611 53.3827 104.471 57.5008C103.359 58.9586 103.526 59.7616 105.27 60.2763C110.012 64.4356 115.146 67.7754 121.556 69.0355C127.348 70.1762 133.222 70.7239 139.022 71.7452C142.095 72.2888 145.21 72.157 148.284 72.5977C149.191 72.7294 149.755 72.4082 150.286 71.5064C151.938 68.6937 151.633 65.6587 151.629 62.6484C151.624 60.0704 150.14 58.0855 147.673 57.0931C145.039 56.0306 142.325 55.0999 139.825 53.7862C136.17 51.8672 132.286 50.8418 128.251 50.2159C127.515 49.3758 126.511 50.0182 125.671 49.767H125.667ZM273.231 258.504C274.435 258.286 274.929 257.351 274.912 256.375C274.895 255.247 274.874 253.575 272.963 254.176C269.409 255.301 265.767 256.095 262.192 257.125C260.645 257.57 260.072 258.682 261.042 260.197C263.242 260.226 265.445 260.197 267.645 260.3C269.76 260.395 271.642 259.921 273.235 258.509L273.231 258.504ZM261.414 250.272C261.983 251.014 262.589 250.606 263.242 250.379C265.642 249.544 268.042 248.716 270.463 247.958C272.156 247.427 273.382 246.467 273.938 244.767C274.025 241.933 272.892 240.743 270.944 241.678C267.536 243.305 264.149 244.977 260.762 246.644C260.001 247.019 259.303 247.398 259.512 248.506C259.725 249.614 260.131 250.355 261.41 250.272H261.414ZM264.471 274.334C263.593 274.59 262.686 274.466 261.77 274.721C258.358 275.673 255.134 277.283 251.546 277.641C251.011 277.695 250.116 277.283 250.05 278.148C250.012 278.63 250.522 279.251 250.944 279.647C253.6 282.134 257.622 282.496 261.109 280.627C264.421 279.387 265.621 276.286 268.004 273.367C266.407 273.803 265.441 274.067 264.471 274.334ZM59.3335 246.513C58.4638 246.727 57.5941 246.941 56.7912 247.143C57.6986 252.163 61.1984 254.988 65.3923 257.232C67.115 258.397 69.0761 258.492 71.0622 258.443C71.5682 258.43 72.2623 258.554 72.2539 257.747C72.2497 257.014 71.7354 256.734 71.0371 256.643C70.3514 256.557 69.5653 256.894 68.9883 256.392C69.2851 255.334 71.0873 255.692 70.6859 254.473C70.0462 252.537 68.1896 254.584 66.9729 253.493C69.8998 252.5 68.7959 251.253 67.3115 249.951C66.9729 249.655 66.814 249.161 66.4753 248.868C64.4306 247.11 62.3775 245.331 59.3293 246.517L59.3335 246.513ZM195.215 130.222C192.966 130.309 190.795 130.914 188.768 131.725C184.415 133.467 180.271 135.691 175.855 137.309C174.308 137.878 172.77 138.335 171.432 139.492C167.982 142.473 168.601 152.365 171.565 155.972C171.866 156.335 172.193 156.607 172.707 156.64C177.219 156.932 181.63 156.289 186.004 155.297C189.299 154.889 192.627 155.103 195.901 154.033C198.527 153.172 200.676 151.253 203.791 151.319C206.091 151.368 208.458 150.586 210.853 150.705C212.539 150.788 214.031 150.232 215.386 149.301C218.597 147.094 221.792 144.858 225.012 142.663C227.52 140.954 227.642 140.406 225.848 137.972C225.488 137.486 225.091 137.021 224.673 136.576C218.501 129.975 210.364 128.624 201.843 128.315C201.019 128.287 200.354 128.628 199.831 129.25C198.155 128.966 196.666 129.53 195.207 130.226L195.215 130.222ZM98.7261 234.747C97.6055 234.484 96.8487 234.83 96.4724 235.954C96.0166 237.317 95.3768 238.61 94.1182 239.409C92.245 240.599 92.0443 242.325 92.1781 244.285C92.3119 246.224 92.245 248.135 91.9439 250.099C91.5843 252.455 91.785 254.909 91.5425 257.36C92.659 255.729 94.3984 254.58 94.7371 252.546C95.6068 252.467 96.0835 251.817 96.5351 251.224C98.8055 248.263 101.189 245.388 103.484 242.456C105.404 240.006 107.628 237.712 109.142 234.743H98.7219L98.7261 234.747ZM56.5445 232.874C55.7125 235.921 56.2393 239.014 56.2226 242.09V245.915C56.9585 245.677 57.7153 245.425 58.4763 245.178C62.0807 244.248 64.9951 245.088 67.8928 247.608C69.6991 249.173 70.4559 252.521 74.0059 251.652C73.7634 252.612 72.3459 252.513 72.8728 253.629C73.3829 254.699 74.4533 254.275 75.8833 254.72C73.5919 255.272 74.2944 256.466 74.746 257.458C75.3147 258.714 76.1928 257.566 76.9203 257.537C80.303 257.393 83.4641 256.182 86.7381 255.531C88.5654 255.169 89.0379 254.201 89.0463 252.62C89.0588 250.079 89.1675 247.538 89.1466 244.997C89.1257 242.292 89.7654 239.94 92.1572 238.268C92.7593 237.848 93.2903 237.21 93.6248 236.555C94.2688 235.291 94.6744 234.298 92.3495 234.175C89.247 234.01 88.164 231.527 89.8951 229.101C90.3383 228.484 90.4345 227.878 90.4345 227.191C90.4177 214.647 90.3927 202.103 90.4177 189.559C90.4177 188.233 90.0414 188.11 88.787 188.345C86.6169 188.752 84.4258 189.284 82.1888 189.049C80.6626 188.888 80.2236 189.469 80.2278 190.931C80.2487 196.597 80.2821 202.231 81.0975 207.881C82.3184 216.344 84.2042 224.6 87.1772 232.622C87.8713 234.496 88.9334 235.991 91.4213 236.345C86.3367 241.015 81.5365 245.471 76.6694 249.852C75.829 250.606 74.93 250.338 74.0644 249.474C71.886 247.312 70.6901 244.561 69.6698 241.843C66.1157 232.371 64.9616 222.397 64.0626 212.423C63.6487 207.819 63.7239 203.174 63.5692 198.545C63.494 196.288 64.1797 194.023 63.4898 191.771C63.0466 189.675 61.8256 191.474 61.0604 191.429C59.8855 191.359 58.2673 191.767 58.054 193.072C57.7948 194.666 57.4895 196.288 57.4853 197.956C57.4728 201.947 57.5272 205.982 56.946 209.911C56.1891 215.005 56.8581 220.112 56.3188 225.218C56.0637 227.631 56.4149 230.312 56.5487 232.869L56.5445 232.874ZM87.5744 149.643C85.2245 152.159 82.4648 154.23 79.7636 156.335C78.2834 157.488 78.2793 158.727 78.4758 160.239C78.9274 163.805 79.2911 167.384 79.7929 170.942C80.2152 173.952 80.1525 176.979 80.2738 179.997C80.3532 181.892 81.1268 182.205 82.7282 181.2C83.4516 180.747 83.9575 180.216 84.0579 179.231C84.3757 176.093 85.0907 172.972 85.1869 169.834C85.3207 165.403 87.3695 161.079 85.9311 156.578C85.8182 156.219 85.8851 156.018 86.1444 155.808C88.2852 154.095 87.6037 151.764 87.5577 149.585C87.6329 149.672 87.7124 149.762 87.7877 149.849C87.8462 149.766 87.9089 149.684 87.9675 149.598C87.8337 149.61 87.704 149.622 87.5702 149.635L87.5744 149.643ZM54.872 197.343C55.2692 196.989 55.1856 196.515 55.2023 196.07C55.3529 192.063 56.0971 191.124 60.0402 190.136C60.7008 189.971 61.42 189.938 62.1016 189.984C63.2138 190.058 63.5818 189.613 63.5651 188.534C63.5107 185.421 63.7365 182.291 63.4522 179.203C63.2891 177.415 63.5274 175.443 62.3483 173.45C61.788 177.465 61.2235 181.101 60.797 184.754C60.6423 186.084 59.9649 186.483 58.7941 186.294C57.4728 186.08 58.1962 185.268 58.3007 184.564C58.999 179.861 59.6722 175.154 60.3036 170.443C61.098 164.522 61.558 158.559 62.3065 152.641C63.1469 145.961 63.3685 139.212 64.8362 132.446C63.9874 132.446 63.3685 132.512 62.7706 132.425C62.2605 132.351 61.3489 132.833 61.3657 131.828C61.3782 131.243 62.0263 131.05 62.6159 131.079C63.7825 131.14 64.8111 131.112 65.5888 129.917C65.8355 129.538 67.3408 128.847 67.5123 130.444C67.5708 131.004 67.8008 130.984 68.1813 131.066C70.1465 131.482 73.3536 130.407 74.5118 129.028C69.996 127.492 64.9951 129.188 60.1154 127.665C61.0102 126.384 61.972 126.503 62.8835 126.503C66.3582 126.503 69.8329 126.512 73.3076 126.495C74.6582 126.491 74.6582 126.466 75.8875 125.482C73.8303 124.663 71.8985 125.651 69.9625 125.61C66.7972 125.544 63.632 125.597 60.4667 125.593C59.668 125.593 58.9948 125.552 58.8903 126.697C58.6854 128.95 58.1878 131.177 58.0247 133.43C57.5732 139.743 56.5027 145.974 54.9724 152.089C53.074 159.679 50.7408 167.137 49.9714 174.99C49.6453 178.334 48.0062 181.484 46.1497 184.371C45.2674 185.742 44.0005 186.747 42.2192 186.846C41.5376 187.142 40.8686 187.311 40.8435 188.341C40.7641 191.796 42.0561 194.682 45.0333 196.367C48.0438 198.072 51.3848 199.113 54.8762 197.339L54.872 197.343ZM96.0793 72.9518C95.1761 71.9346 94.5489 71.7905 94.1141 73.3595C91.6889 82.1063 89.5271 90.8984 90.9488 100.057C91.392 102.899 92.2241 105.719 94.1433 108.054C93.8924 109.257 95.3643 109.455 95.5608 110.426C96.7943 116.599 101.394 119.964 106.457 122.875C107.695 123.588 109.213 124.053 110.639 123.703C116.104 122.365 121.774 122.999 127.264 121.961C127.732 121.871 128.46 121.677 128.727 122.237C129.033 122.871 128.351 123.085 127.916 123.386C126.532 124.341 125.169 125.326 123.789 126.289C122.794 126.985 121.728 127.595 120.8 128.365C119.679 129.295 119.792 130.745 120.369 131.696C120.971 132.689 122.041 131.696 122.786 131.33C125.524 129.971 128.192 128.468 130.935 127.117C131.847 126.668 132.169 126.335 131.834 125.247C131.102 122.871 130.534 120.437 130.028 118C129.539 115.648 127.937 113.676 128.263 110.991C128.736 107.103 129.062 103.269 132.139 100.119C130.718 100.028 129.71 100.041 128.727 99.8841C127.632 99.7111 127.03 98.9781 126.775 97.9074C126.503 96.7543 126.971 95.8031 127.925 95.416C130.157 94.51 131.228 92.5498 132.39 90.779C134.631 87.361 138.11 85.4667 141.326 83.247C141.94 82.8229 142.852 82.5099 143.743 82.6705C146.49 83.1647 146.369 80.9121 146.435 79.4954C146.519 77.7659 144.838 78.7624 143.96 78.6018C143.065 78.4371 142.112 78.5648 141.188 78.5648C136.082 78.5648 135.919 78.3177 137.885 73.5489C137.926 73.4501 137.872 73.3142 137.843 73.0177C132.662 72.2806 127.406 71.7864 122.271 70.7322C117.764 69.8056 113.06 69.1426 109.267 66.1446C107.469 64.7239 105.663 63.3278 103.656 62.1871C101.958 61.2194 101.155 62.566 100.537 63.5214C100.001 64.3409 100.374 65.2263 101.54 65.844C103.351 66.8035 104.35 68.4466 103.773 70.5798C103.238 72.5524 101.469 72.8818 99.7798 73.0548C98.5672 73.1783 97.317 72.993 96.0877 72.9477L96.0793 72.9518ZM93.6499 161.672C93.5078 167.907 93.2694 174.141 93.2443 180.38C93.1858 195.745 93.2276 211.114 93.2193 226.478C93.2193 227.372 93.2569 228.224 92.7342 229.105C91.4171 231.317 92.0903 232.351 94.6995 232.906C97.9024 233.594 101.135 233.046 104.325 233.376C108.586 233.812 111.567 232.734 114.302 229.003C119.629 221.742 125.713 215.022 131.5 208.091C137.14 201.333 142.802 194.588 148.455 187.838C152.059 183.535 155.639 179.211 159.281 174.94C159.862 174.257 159.941 173.968 159.393 173.1C157.483 170.081 155.806 167.05 153.197 164.369C150.332 161.425 148.459 157.471 146.364 153.823C143.086 148.115 140.377 142.099 136.647 136.362C135.865 137.803 135.167 139.101 134.452 140.394C133.686 141.773 132.934 143.161 132.127 144.512C129.664 148.63 126.917 148.576 124.166 144.549C123.108 143 122.426 141.114 120.703 139.842C120.135 141.39 120.624 142.737 120.607 144.067C120.524 150.368 120.381 156.677 121.163 162.94C121.297 164.007 121.653 164.715 120.256 164.847C118.976 164.966 118.818 164.167 118.692 163.134C118.103 158.221 118.169 153.292 118.287 148.366C118.362 145.208 118.542 142.016 119.131 138.928C119.407 137.478 119.625 136.444 118.307 135.361C117.801 136.712 117.379 137.993 116.848 139.228C115.702 141.909 114.912 144.784 112.654 146.871C111.688 147.765 110.459 147.996 109.271 147.707C107.988 147.399 108.669 146.188 108.51 145.372C107.892 142.243 108.143 139.059 108.009 135.522C104.212 137.943 100.156 139.405 96.74 141.992C96.1211 142.461 95.0716 142.556 95.08 143.663C95.1092 147.889 93.5161 151.949 93.7419 156.195C92.659 158.003 93.3196 159.839 93.6499 161.668V161.672ZM65.8648 189.247C65.7394 193.043 66.1157 196.832 66.1575 200.621C66.2871 211.682 66.7471 222.689 69.4817 233.495C70.6692 238.198 71.9529 242.815 74.7335 246.916C75.5823 248.168 76.1049 248.18 77.1419 247.151C79.6257 244.68 82.1261 242.213 84.7896 239.94C86.6252 238.371 88.0218 237.325 85.7221 234.797C83.5687 232.429 83.3512 228.97 82.2432 226.005C79.496 218.674 78.6096 210.982 78.1287 203.339C77.7775 197.754 77.744 192.08 77.8946 186.442C78.1371 177.345 77.1127 168.327 76.0966 159.292C75.3481 152.641 75.3899 145.904 75.1516 139.199C74.9091 132.285 74.5537 131.927 68.382 132.409C67.1986 132.499 66.9436 132.874 66.6969 133.961C66.3749 135.398 66.4836 136.827 66.2871 138.244C64.97 147.662 64.6982 157.195 63.126 166.585C63.0257 167.186 63.0131 167.894 63.5525 168.285C64.4306 168.916 64.3971 169.78 64.5393 170.69C65.4843 176.843 66.1868 183.008 65.8732 189.247H65.8648ZM207.554 228.998C202.156 227.957 197.256 226.289 192.527 224.094C189.713 222.788 186.886 221.483 183.871 220.663C182.6 220.317 181.701 220.235 181.831 222.142C182.102 226.058 182.102 229.991 182.228 233.915C182.282 235.587 182.801 236.633 184.779 235.69C185.318 235.431 185.945 235.361 186.505 235.134C193.216 232.4 200.099 230.238 207.55 228.998H207.554ZM132.829 127.858C129.087 129.839 125.416 131.816 121.699 133.71C121.075 134.027 120.892 134.258 121.147 134.871C122.635 138.508 125.106 141.576 127.184 144.866C127.895 145.994 128.811 146.089 129.484 144.561C130.116 143.124 130.893 141.724 131.771 140.418C134.284 136.671 136.63 132.948 133.105 128.554C132.98 128.398 132.951 128.163 132.833 127.858H132.829ZM232.927 278.082C233.55 278.242 233.533 277.728 233.721 277.168C234.148 275.916 233.947 274.602 234.215 273.375C235.636 266.885 237.158 260.419 238.66 253.946C241.352 242.32 244.053 230.699 246.763 219.078C246.855 218.678 247.424 218.263 246.847 217.908C246.449 217.661 246.006 217.941 245.567 218.127C244.785 218.456 244.388 218.864 244.3 219.77C244.171 221.108 243.798 222.422 243.522 223.744C241.632 232.828 238.731 241.723 238.254 251.067C238.229 251.533 238.325 252.076 237.861 252.278C235.691 253.233 235.988 255.354 235.599 257.051C234.131 263.442 232.826 269.87 231.455 276.282C231.225 277.365 231.442 278.102 232.931 278.078L232.927 278.082ZM86.8719 187.068C87.1061 187.068 87.3403 187.076 87.5744 187.08C87.7542 183.106 88.0553 179.133 88.0845 175.159C88.1096 171.353 88.7577 167.635 89.3431 163.912C90.2212 158.34 91.3293 152.81 92.2408 147.242C92.3537 146.554 92.8137 145.315 91.7558 145.101C90.8359 144.911 90.4219 146.019 90.2463 146.826C89.824 148.749 89.109 150.714 89.2051 152.629C89.6024 160.729 87.1646 168.537 86.9096 176.555C86.7967 180.059 86.5416 183.572 86.8761 187.068H86.8719ZM66.5589 120.582C64.5602 120.582 62.5657 120.573 60.567 120.582C58.7774 120.59 59.137 122.06 58.9614 123.048C58.723 124.399 59.7349 124.098 60.5921 124.148C64.9616 124.403 69.3102 124.115 73.663 123.761C74.2317 123.715 74.976 123.979 75.1809 123.131C75.3398 122.476 74.9969 121.973 74.562 121.508C73.8888 120.787 73.0776 120.536 72.0867 120.561C70.2427 120.606 68.3987 120.573 66.5589 120.577V120.582ZM116.932 130.72C110.091 132.03 110.442 137.009 110.823 142.008C110.848 142.309 110.777 142.626 110.844 142.918C111.028 143.721 110.292 144.656 111.266 145.587C114.206 140.818 115.564 135.687 116.932 130.72ZM20.3841 181.566C24.2477 183.374 27.5677 186.685 32.4056 185.713C29.2319 181.933 25.0129 181.146 20.3841 181.566ZM213.003 223.793C212.454 226.182 212.784 228.289 213.994 230.114C214.638 231.078 215.344 232.009 216.168 233.158C216.979 226.322 217.013 225.276 213.003 223.789V223.793ZM193.463 267.836C193.639 267.939 193.814 268.046 193.99 268.149C194.605 266.848 196.712 266.761 196.658 265.415C196.624 264.64 194.726 264.344 193.463 263.944V267.836ZM268.31 271.369C269.932 270.163 270.605 268.516 270.722 266.597C269.919 268.186 269.112 269.776 268.31 271.369ZM80.1441 186.45C80.9553 187.669 82.0592 186.99 82.8453 187.542C83.2216 187.805 84.0161 187.229 83.9157 186.463C83.7903 185.491 83.276 186.092 82.7951 186.195C82.0007 186.364 81.1644 186.364 80.14 186.45H80.1441Z" fill="#2C2665"/>
<path d="M69.8413 116.159C68.6371 116.072 67.8844 116.608 68.4991 117.74C69.3186 119.247 68.4614 119.218 67.4203 119.218C65.8063 119.218 64.1881 119.235 62.5741 119.194C61.4786 119.165 59.8729 119.433 59.9607 117.851C60.0444 116.348 60.5963 114.639 62.4988 114.227C63.9707 113.91 65.3547 114.273 66.6551 115.121C67.4788 115.656 68.6161 116.262 68.5242 114.347C69.9709 114.244 70.1549 115.03 69.8455 116.163L69.8413 116.159Z" fill="#9191B0"/>
<path d="M45.1418 113.676C45.7481 113.713 46.3502 113.75 46.9565 113.787C46.4255 115.298 45.8944 116.809 45.3634 118.317L43.624 117.831C43.5445 116.237 44.9034 115.15 45.1418 113.671V113.676Z" fill="#5C5C8D"/>
<path d="M240.161 309.523C241.628 307.798 241.52 305.57 241.959 303.569C243.677 295.732 245.392 287.899 247.679 279.96C251.48 283.633 255.975 283.448 260.578 282.715C261.444 287.99 260.628 293.335 261.285 298.619C261.385 299.414 260.833 299.512 260.453 299.776C254.821 303.696 248.774 306.954 242.749 310.232C241.862 310.714 240.771 310.66 240.165 309.523H240.161Z" fill="#C99066"/>
<path d="M117.705 319.637C113.608 319.407 109.978 317.574 106.269 316.162C92.5377 310.928 79.6758 304.071 67.7924 295.481C67.0398 294.937 66.2913 294.414 65.8564 293.57C71.7354 286.038 77.8611 278.704 83.598 271.052C90.1543 262.305 97.1665 253.892 103.986 245.339C106.529 242.152 109.142 239.018 111.634 235.793C118.399 227.063 125.294 218.44 132.424 209.989C139.348 201.786 146.113 193.451 153.017 185.227C157.83 179.495 162.759 173.853 168.095 167.635C167.242 170.262 167.376 172.305 167.388 174.335C167.392 175.154 167.121 175.541 166.251 175.702C162.592 176.377 160.836 179.198 161.087 182.884C161.275 185.581 162.994 187.117 164.645 188.736C166.544 190.597 168.505 192.553 170.955 193.62C173.531 194.74 172.878 197.194 173.761 198.969C174.89 201.234 176.345 202.268 178.803 201.675C181.881 200.929 182.086 201.21 181.806 204.31C181.596 206.65 181.822 209.026 181.73 211.381C181.638 213.766 181.634 216.175 179.995 218.234C179.518 218.831 179.238 219.741 179.435 220.61C179.882 222.558 178.749 223.674 177.189 224.312C171.808 226.507 167.225 230.143 161.894 232.408C159.686 233.347 157.29 233.924 155.216 235.085C148.698 238.729 141.669 241.493 135.656 246.022C131.608 249.074 129.028 253.134 126.954 257.619C124.897 262.058 123.982 266.852 122.401 271.431C119.29 280.45 117.797 289.934 114.114 298.788C113.026 301.403 111.333 303.758 110.718 306.579C110.605 307.09 110.204 307.501 110.794 307.946C111.283 308.317 112.069 308.346 112.307 308.074C114.034 306.101 116.309 307.069 118.353 306.842C119.01 306.768 119.666 306.649 120.503 306.521C120.319 309.948 119.11 313.139 118.47 316.425C118.266 317.48 118.696 318.756 117.697 319.637H117.705Z" fill="#E3E6EF"/>
<path d="M93.7418 156.199C93.516 151.953 95.1091 147.893 95.0798 143.668C95.0715 142.56 96.121 142.465 96.7398 141.996C100.156 139.414 104.212 137.948 108.009 135.526C108.142 139.059 107.892 142.243 108.51 145.377C108.673 146.192 107.992 147.403 109.271 147.712C110.459 148 111.688 147.765 112.654 146.876C114.912 144.788 115.702 141.909 116.848 139.232C117.375 137.997 117.801 136.72 118.307 135.365C119.62 136.449 119.407 137.482 119.131 138.932C118.541 142.02 118.362 145.216 118.286 148.37C118.169 153.292 118.102 158.225 118.692 163.138C118.817 164.171 118.976 164.975 120.256 164.851C121.652 164.719 121.297 164.007 121.163 162.944C120.381 156.681 120.523 150.368 120.607 144.071C120.624 142.741 120.135 141.394 120.703 139.846C122.426 141.118 123.107 143 124.165 144.553C126.913 148.58 129.664 148.634 132.127 144.516C132.934 143.161 133.69 141.773 134.451 140.398C135.167 139.109 135.865 137.808 136.647 136.366C140.376 142.103 143.086 148.119 146.364 153.827C148.459 157.475 150.332 161.425 153.197 164.373C155.806 167.058 157.482 170.085 159.393 173.104C159.941 173.968 159.862 174.261 159.28 174.944C155.638 179.219 152.059 183.539 148.455 187.842C142.802 194.596 137.14 201.337 131.499 208.095C125.712 215.026 119.629 221.751 114.302 229.007C111.563 232.738 108.586 233.817 104.325 233.38C101.139 233.051 97.9022 233.598 94.6993 232.911C92.0901 232.351 91.4169 231.321 92.7341 229.11C93.2567 228.232 93.2191 227.376 93.2191 226.482C93.2275 211.118 93.1857 195.749 93.2442 180.384C93.2693 174.15 93.5076 167.911 93.6498 161.676C94.5112 159.864 94.3606 158.036 93.7418 156.203V156.199Z" fill="#FEFEFE"/>
<path d="M198.468 216.529C197.992 216.747 197.256 216.241 196.992 216.85C196.695 217.538 197.486 217.661 197.87 217.954C199.752 219.391 201.65 220.812 203.544 222.237C205.046 223.369 206.756 224.048 208.608 224.25C210.452 224.448 210.08 225.737 209.98 226.795C209.85 228.134 208.963 227.582 208.11 227.458C201.813 226.544 196.248 223.67 190.536 221.191C188.571 220.338 186.518 219.774 184.482 219.14C183.34 218.786 182.888 218.172 183.344 216.932C184.348 214.19 184.369 211.34 184.122 208.466C184.026 207.337 184.03 206.213 184.39 205.085C185.105 202.816 184.218 200.769 182.997 198.965C182.5 198.232 181.308 198.385 180.585 199.183C179.46 200.431 177.745 200.46 176.867 199.657C175.952 198.821 174.99 197.462 175.697 195.683C176.248 194.295 175.295 192.413 174.07 192.397C171.068 192.36 169.646 190.099 167.664 188.711C166.293 187.752 164.93 186.471 164.39 184.704C165.239 184.177 165.891 184.741 166.569 185.017C168.831 185.94 171.089 186.879 173.347 187.813C173.773 187.991 174.187 188.328 174.614 188.341C175.722 188.369 175.467 190.099 176.253 189.856C177.67 189.415 178.097 190.433 178.895 191.026C179.548 191.511 180.447 191.627 180.936 190.873C181.379 190.19 180.513 189.749 180.1 189.527C177.959 188.374 175.768 187.307 173.564 186.273C171.022 185.079 168.224 184.404 165.95 182.666C166.46 181.286 166.974 179.907 167.484 178.523C169.692 179.73 172.159 180.557 173.271 183.181C173.698 184.185 174.137 185.532 175.809 185.396C177.545 185.26 177.754 183.938 178.126 182.707C178.168 182.563 178.247 182.427 178.293 182.283C179.41 178.782 179.41 178.955 182.972 178.96C190.306 178.968 195.926 173.248 193.911 165.341C193.384 163.282 192.694 161.289 191.766 159.378C191.335 158.489 191.226 157.521 191.699 156.751C192.263 155.832 193.388 156.343 194.27 156.252C194.956 156.182 195.14 156.467 195.115 157.191C195.002 160.144 196.332 161.116 199.192 160.086C200.396 159.654 201.542 158.962 202.574 158.204C205.744 155.869 209.177 154.877 213.124 155.68C213.906 155.841 214.792 155.861 215.616 155.486C216.636 155.021 217.46 154.51 216.557 153.304C215.996 152.55 215.946 151.813 216.787 151.373C220.537 149.412 223.435 146.233 227.244 144.372C228.804 143.61 230.786 144.182 231.342 145.863C231.693 146.917 231.233 147.975 229.824 148.605C227.805 149.511 226.684 152.365 227.261 154.399C227.922 156.722 230.017 157.117 231.978 157.406C233.403 157.616 234.9 157.385 236.364 157.352C238.915 163.702 240.842 170.246 241.319 177.053C241.678 182.192 242.657 187.365 240.738 192.553C239.596 195.634 237.932 198.558 237.372 201.848L237.401 201.811C235.277 204.072 234.131 206.954 232.404 209.479C231.187 211.258 229.23 212.518 228.624 214.709C227.8 215.153 226.977 215.598 226.153 216.039C225.827 216.101 225.379 215.952 225.342 216.5L225.384 216.467C224.188 216.64 222.984 216.974 221.792 216.953C215.775 216.85 209.754 216.916 203.762 216.051C202.047 215.804 200.149 215.503 198.468 216.529ZM225.367 182.625C225.434 182.748 225.501 182.868 225.568 182.991C225.492 182.876 225.417 182.765 225.342 182.649C224.986 181.892 224.706 181.093 224.263 180.393C223.41 179.042 219.839 177.971 217.995 178.564C215.871 179.248 214.592 180.928 214.546 182.971C214.474 185.948 215.587 188.579 218.275 190.358C222.841 193.377 227.792 192.582 232.107 189.992C233.83 188.958 234.361 187.381 233.7 185.273C233.153 183.518 232.245 181.822 232.249 179.911C234.955 179.734 237.522 179.009 240.027 178.062C237.167 177.642 234.369 177.465 232.279 179.944C231.777 180.01 231.685 179.59 231.451 179.305C229.975 177.518 229.067 175.41 227.918 173.433C227.194 172.189 225.831 171.749 224.761 172.494C223.732 173.211 224.924 174.22 225.425 174.747C228.164 177.654 228.942 181.443 230.318 184.947C230.686 185.886 230.853 187.068 230.171 188.023C229.159 189.44 223.949 190.746 222.302 190.066C219.187 188.777 217.481 185.573 218.183 182.316C218.568 180.533 220.128 179.948 221.328 181.365C222.511 182.761 223.757 183.012 225.363 182.621L225.367 182.625ZM201.838 200.575C203.335 200.435 204.427 200.65 204.786 200.242C206.057 198.784 207.249 199.575 208.441 200.127C208.955 200.365 209.461 200.39 209.98 200.501C216.293 201.86 222.695 201.271 229.063 201.354C229.879 201.366 230.673 201.053 231.2 200.007C230.029 200.007 229.047 200.015 228.06 200.007C222.457 199.962 216.824 200.386 211.301 199.076C209.708 198.698 207.68 198.636 206.948 197.001C205.932 194.728 205.05 196.284 204.494 196.993C203.724 197.977 203.323 199.245 201.838 200.575ZM212.229 175.817C214.069 175.859 214.692 175.023 214.704 173.421C214.721 171.876 213.81 171.671 212.61 171.704C211.108 171.745 210.347 172.511 210.389 173.997C210.423 175.27 210.95 176.04 212.225 175.817H212.229ZM212.079 178.313C209.402 175.521 205.827 175.319 202.344 174.821C205.71 175.677 208.487 178.095 212.079 178.313ZM237.38 174.01C237.43 173.252 237.401 172.581 236.247 172.601C234.436 172.638 234.001 173.952 233.73 175.257C233.483 176.452 234.528 176.238 235.247 176.262C236.79 176.312 237.468 175.533 237.38 174.006V174.01Z" fill="#C88F66"/>
<path d="M163.27 328.314C153.435 328.199 143.684 327.17 134.013 325.469C130.559 324.863 127.164 323.945 123.726 323.229C122.643 323.002 122.267 322.438 122.535 321.454C123.86 316.537 124.249 311.467 125.098 306.472C132.344 306.472 139.595 306.472 146.92 306.472C143.78 312.122 138.474 316.24 134.347 321.417C135.43 322.224 136.162 321.96 136.848 321.198C141.79 315.705 147.627 310.915 150.771 304.005C151.24 302.976 152.457 302.453 152.829 301.32C154.48 301.539 154.949 300.423 155.317 299.187C156.462 298.121 158.043 297.313 157.658 295.341C163.704 288.563 168.814 281.072 174.417 273.96C174.543 273.791 174.664 273.626 174.789 273.457L174.747 273.507C175.805 272.992 176.453 272.243 176.223 270.995L176.257 270.834L176.416 270.789C177.871 270.929 178.222 270.163 178.005 268.923L178.017 268.907C180.187 268.742 180.677 266.716 181.768 265.452C185.995 260.564 190.712 256.071 194.354 250.701C194.722 250.161 195.132 249.774 195.784 249.663C195.876 249.848 195.951 250.186 196.06 250.194C199.121 250.458 201.813 252.167 204.811 252.468C208.085 252.793 211.175 253.719 214.303 254.576C215.955 255.029 215.599 256.371 215.549 257.553C215.139 257.562 214.725 257.574 214.316 257.582C211.736 256.306 209.135 255.087 206.404 254.139C205.271 253.748 204.239 253.831 203.176 254.139C203.386 255.404 204.489 255.041 204.991 255.56C205.568 257.29 207.245 257.467 208.629 257.94C211.414 258.896 211.435 258.834 209.653 261.21C209.595 260.564 209.315 260.094 208.675 259.818C204.874 258.175 201.441 255.729 197.343 254.724C196.909 254.617 196.49 254.399 196.056 254.362C195.366 254.304 194.525 254.337 194.408 255.173C194.287 256.058 195.483 255.445 195.738 256.046C194.546 256.717 195.458 257.162 195.968 257.479C197.511 258.443 199.075 259.39 200.693 260.222C202.574 261.194 203.536 263.125 205.221 264.319C205.455 264.488 204.774 265.909 204.519 266.749L204.561 266.691C203.95 266.798 203.992 267.227 204.063 267.671C202.625 269.574 200.592 270.793 198.711 272.189C197.084 273.396 195.203 273.054 193.367 273.013C193.664 269.063 196.005 268.178 201.387 265.299C198.251 262.697 191.874 261.54 189.056 263.063C190.996 263.842 191.674 265.81 190.967 269.002C189.888 273.886 187.597 276.954 182.433 277.279C181.634 277.328 180.861 277.81 179.606 278.263C183.733 279.087 187.036 278.016 189.83 276.006C192.338 274.203 194.948 274.503 198.012 274.413C196.419 276.035 194.663 276.641 192.895 277.209C190.687 277.081 188.872 277.884 187.379 279.462C183.85 287.813 179.656 295.864 175.496 303.902C171.875 310.903 169.818 318.579 165.578 325.275C164.892 326.354 164.344 327.528 163.274 328.323L163.27 328.314Z" fill="#C99066"/>
<path d="M96.0793 72.9518C97.3128 72.9971 98.5589 73.1824 99.7714 73.0589C101.461 72.8859 103.234 72.5565 103.765 70.5839C104.342 68.4508 103.342 66.8076 101.532 65.8481C100.361 65.2304 99.9931 64.345 100.528 63.5255C101.151 62.5701 101.95 61.2235 103.648 62.1913C105.655 63.332 107.461 64.728 109.259 66.1487C113.047 69.1467 117.755 69.8097 122.263 70.7363C127.398 71.7946 132.654 72.2888 137.834 73.0218C137.859 73.3183 137.914 73.4542 137.876 73.5531C135.911 78.3259 136.07 78.5689 141.179 78.5689C142.108 78.5689 143.057 78.4412 143.952 78.606C144.83 78.7666 146.511 77.77 146.427 79.4996C146.36 80.9162 146.481 83.1688 143.734 82.6746C142.844 82.514 141.932 82.827 141.317 83.2512C138.102 85.4708 134.623 87.3651 132.382 90.7831C131.219 92.5539 130.149 94.5141 127.916 95.4201C126.967 95.8072 126.495 96.7585 126.766 97.9115C127.017 98.9822 127.623 99.7153 128.719 99.8882C129.702 100.045 130.714 100.032 132.131 100.123C129.054 103.273 128.727 107.107 128.255 110.995C127.929 113.676 129.53 115.652 130.019 118.004C130.53 120.442 131.094 122.871 131.826 125.251C132.16 126.343 131.842 126.672 130.927 127.121C128.184 128.472 125.516 129.975 122.777 131.334C122.033 131.705 120.963 132.693 120.36 131.7C119.783 130.749 119.671 129.3 120.791 128.369C121.719 127.599 122.786 126.989 123.781 126.293C125.161 125.33 126.52 124.341 127.908 123.39C128.343 123.094 129.02 122.875 128.719 122.241C128.451 121.685 127.724 121.879 127.256 121.965C121.765 123.003 116.095 122.365 110.63 123.707C109.205 124.057 107.691 123.592 106.449 122.879C101.385 119.968 96.7901 116.604 95.5525 110.431C95.3559 109.455 93.8883 109.261 94.135 108.058C94.2144 107.074 94.1015 106.123 93.8674 105.147C92.9182 101.181 92.4792 97.092 92.4081 93.0687C92.3244 88.2876 92.9517 83.4653 94.0054 78.7624C94.4528 76.7652 94.3273 74.5208 96.0709 72.9559L96.0793 72.9518ZM121.209 71.6876C116.2 71.9017 111.237 72.1282 108.005 76.9052C107.29 77.9635 106.871 78.8819 107.31 80.0185C107.812 81.3157 109.016 81.5792 110.288 81.7892C111.902 82.0569 113.528 81.9787 115.079 81.7275C120.264 80.8791 125.198 79.3184 129.217 75.7727C130.885 74.3026 130.626 73.3266 128.485 72.5977C126.139 71.7988 123.706 71.5764 121.213 71.6876H121.209ZM106.102 85.6438C104.697 85.0219 103.673 85.5985 102.832 86.595C101.227 88.5058 99.2404 89.6177 96.6731 89.6465C96.1462 89.6507 95.4145 89.766 95.4521 90.3878C95.4897 91.0673 96.2549 91.2361 96.8612 91.2814C97.2208 91.3102 97.5888 91.0796 97.9651 91.0302C98.6299 90.9437 99.4369 90.4949 99.9303 91.0302C100.486 91.6356 99.7756 92.2739 99.5164 92.8751C97.1832 98.2863 97.8522 99.7194 103.505 101.461C103.727 101.527 103.932 101.643 104.154 101.696C109.016 102.919 114.268 99.147 114.18 94.4441C114.147 92.5127 113.148 91.1002 111.262 90.5072C109.577 89.976 106.704 91.1538 106.035 92.4798C105.826 92.8916 105.508 93.3405 105.906 93.7193C106.311 94.1064 106.913 94.1805 107.415 93.8964C107.804 93.6781 108.147 93.3363 108.431 92.9863C108.979 92.3151 109.648 92.0433 110.467 92.3274C111.404 92.6486 111.308 93.5011 111.354 94.2423C111.651 99.0811 108.034 101.416 103.334 99.5011C101.758 98.8587 100.495 98.1133 101.13 96.1984C102.013 93.5505 102.69 90.8078 104.358 88.4811C105.007 87.5793 105.985 86.8709 106.098 85.6438H106.102ZM116.125 109.187C117.939 109.187 119.633 108.796 121.009 107.577C123.003 105.806 122.623 104.023 120.068 103.253C117.676 102.528 115.222 102.598 112.775 102.969C109.589 103.45 106.357 104.138 103.179 103.545C100.842 103.109 98.9728 103.833 97.087 104.768C95.657 105.476 95.1845 106.877 95.7741 108.269C96.3636 109.66 97.6808 109.681 99.0899 109.368C101.247 108.894 102.903 107.474 104.848 106.613C106.294 105.971 107.457 105.868 109.088 106.712C111.249 107.832 113.486 109.195 116.125 109.187ZM136.404 81.6039C136.329 80.1379 135.844 78.3259 135.008 76.621C134.234 75.0479 132.118 74.8503 131.429 76.4193C130.471 78.5936 129.329 80.7679 129.355 83.28C129.367 84.6513 130.049 85.4379 131.215 85.8044C133.862 86.6362 136.396 84.7543 136.404 81.6039ZM102.882 111.724C104.48 112.238 105.617 111.287 106.846 111.209C108.197 111.122 109.284 112.382 110.714 112.358C110.869 112.358 111.023 112.374 111.174 112.35C111.521 112.292 112.006 112.465 112.115 111.946C112.211 111.501 111.826 111.287 111.521 111.077C108.607 109.08 105.868 109.24 102.887 111.719L102.882 111.724ZM124.851 89.2594C121.573 88.8559 115.631 88.9712 114.833 89.4571C116.844 90.9726 122.468 90.8614 124.851 89.2594ZM100.641 85.6396C100.361 84.9272 100.311 84.0748 99.1442 84.0336C98.0822 83.9965 97.2125 84.3548 97.0619 85.3349C96.9156 86.3027 97.7477 86.7474 98.6927 86.7845C99.554 86.8174 100.399 86.7598 100.641 85.6396ZM116.781 83.593C115.824 83.5765 114.766 83.7412 114.653 84.7872C114.523 85.9526 115.623 85.8538 116.455 85.8826C117.484 85.9156 118.299 85.6726 118.282 84.4577C118.27 83.4076 117.421 83.6506 116.781 83.593Z" fill="#C88F66"/>
<path d="M65.8648 189.246C66.1826 183.008 65.476 176.843 64.531 170.69C64.393 169.78 64.4223 168.915 63.5442 168.285C63.0048 167.898 63.0173 167.186 63.1177 166.585C64.6899 157.195 64.9616 147.662 66.2788 138.244C66.4753 136.827 66.3666 135.398 66.6886 133.961C66.9311 132.87 67.1903 132.499 68.3736 132.409C74.5453 131.927 74.9007 132.285 75.1433 139.199C75.3774 145.904 75.3356 152.641 76.0882 159.291C77.1043 168.327 78.1329 177.345 77.8862 186.442C77.7357 192.084 77.7692 197.754 78.1204 203.339C78.6012 210.982 79.4877 218.674 82.2348 226.004C83.3471 228.969 83.5603 232.429 85.7137 234.797C88.0177 237.325 86.6211 238.371 84.7813 239.94C82.1178 242.213 79.6173 244.68 77.1336 247.151C76.0966 248.18 75.5739 248.164 74.7251 246.916C71.9445 242.814 70.665 238.198 69.4733 233.495C66.7387 222.685 66.2788 211.682 66.1492 200.621C66.1032 196.832 65.7268 193.043 65.8565 189.246H65.8648Z" fill="#9191B0"/>
<path d="M160.008 169.064C156.011 164.645 152.268 160.037 149.454 154.782C147.941 151.953 146.561 149.054 145.122 146.188C145.064 144.545 144.357 143.198 143.203 142.049L143.245 142.111C141.464 137.317 140.657 132.162 137.713 127.805C137.525 127.113 137.42 126.372 136.588 126.087C135.919 125.602 135.727 124.86 135.53 124.131C134.406 120.005 133.703 115.862 133.716 111.526C133.728 107.363 134.109 103.479 136.785 100.094C137.366 99.357 139.206 99.8758 138.892 98.5663C138.692 97.7386 137.257 98.2163 136.396 98.2245C134.715 98.2327 133.026 98.0186 131.345 98.381C130.484 98.5663 129.555 98.381 129.472 97.3185C129.388 96.2272 130.35 95.9678 131.199 95.9472C134.565 95.8731 137.897 95.1895 141.28 95.4489C142.087 95.5107 143.212 95.7413 143.492 94.7488C143.776 93.7481 142.513 93.8799 141.986 93.4475C139.703 91.5861 137.462 91.0137 135.171 93.5093C134.757 93.9582 133.933 94.0405 133.298 94.2917C133.222 94.2135 133.147 94.1435 133.068 94.0735C133.423 92.7063 134.552 91.8415 135.313 90.7419C137.274 87.9128 137.813 87.8016 140.297 90.0789C141.213 90.919 142.254 91.4708 143.605 92.4262C143.68 89.3377 141.179 88.4976 139.691 86.8092C139.662 86.1544 140.473 86.1132 140.895 85.7508C143.584 83.4241 143.626 83.4529 145.185 86.4962C145.495 87.1015 145.921 87.6492 146.331 88.197C146.644 88.6129 147.117 88.6705 147.585 88.5223C148.116 88.3534 148.254 87.8963 148.196 87.4228C147.845 84.5648 148.656 81.8757 149.53 79.2278C150.04 77.6835 149.726 77.1275 148.062 77.1811C145.825 77.2511 143.584 77.214 141.347 77.1893C140.623 77.1811 139.687 77.4199 139.611 76.238C139.54 75.1138 140.042 74.039 141.154 74.109C142.559 74.1996 144.32 73.0012 145.415 75.0932C145.758 75.748 147.226 75.6656 147.748 75.155C149.166 73.7713 150.533 74.8791 151.875 75.0067C153.105 75.122 153.042 76.2422 152.979 77.1646C152.887 78.5648 152.001 79.7178 151.654 81.0274C150.136 86.7844 148.238 92.3974 145.666 97.7962C143.793 101.725 141.999 105.703 140.857 109.924C140.615 110.822 140.255 111.629 140.874 112.51C143.617 116.426 145.273 120.973 148.401 124.691C151.403 128.262 154.627 131.618 157.817 135.011C160.213 137.56 162.617 140.101 164.984 142.679C165.728 143.49 166.038 144.458 165.975 145.611C165.737 149.935 166.569 153.987 169.136 157.628C169.659 158.369 169.107 159.357 169.077 160.23C168.952 163.916 166.866 166.531 164.386 168.977C163.629 169.723 162.964 170.555 162.258 171.349C161.584 171.135 161.442 169.937 160.414 170.373L160.397 170.357C160.84 169.76 160.372 169.426 160.008 169.064Z" fill="#C88F66"/>
<path d="M199.84 129.246C200.362 128.624 201.027 128.282 201.851 128.311C210.372 128.62 218.509 129.971 224.681 136.572C225.095 137.017 225.496 137.478 225.856 137.968C227.65 140.402 227.529 140.95 225.02 142.659C221.796 144.854 218.606 147.09 215.394 149.297C214.035 150.232 212.547 150.788 210.862 150.701C208.466 150.582 206.095 151.364 203.799 151.315C200.684 151.249 198.531 153.168 195.909 154.029C192.635 155.099 189.307 154.885 186.012 155.293C183.511 155.301 180.986 155.009 178.519 155.511C175.91 156.042 174.467 155.239 173.898 152.674C173.3 149.985 173.321 147.312 173.765 144.578C174.333 141.073 176.453 138.779 179.347 137.042C184.293 134.064 189.896 132.672 195.278 130.741C196.9 130.539 198.468 130.169 199.848 129.242L199.84 129.246Z" fill="#5C5C8D"/>
<path d="M63.4856 191.771C64.1755 194.019 63.4898 196.284 63.5651 198.545C63.7198 203.174 63.6445 207.819 64.0585 212.423C64.9575 222.401 66.1115 232.371 69.6657 241.843C70.6859 244.557 71.8776 247.307 74.0603 249.474C74.93 250.334 75.829 250.606 76.6653 249.852C81.5324 245.471 86.3326 241.015 91.4171 236.345C88.9334 235.991 87.8713 234.496 87.173 232.622C84.2001 224.6 82.3101 216.339 81.0933 207.881C80.278 202.227 80.2445 196.593 80.2236 190.931C80.2194 189.469 80.6585 188.888 82.1847 189.049C84.4217 189.284 86.6169 188.752 88.7828 188.345C90.0373 188.11 90.4178 188.234 90.4136 189.56C90.3885 202.103 90.4136 214.647 90.4303 227.191C90.4303 227.878 90.33 228.48 89.8909 229.101C88.1598 231.527 89.2428 234.006 92.3454 234.175C94.6702 234.298 94.2646 235.291 93.6207 236.555C93.2862 237.21 92.7551 237.848 92.153 238.268C89.7655 239.936 89.1215 242.288 89.1424 244.997C89.1634 247.538 89.0546 250.079 89.0421 252.62C89.0337 254.201 88.5612 255.169 86.734 255.531C83.46 256.178 80.2989 257.393 76.9161 257.537C76.1886 257.57 75.3105 258.715 74.7418 257.459C74.2903 256.466 73.5878 255.272 75.8792 254.72C74.445 254.275 73.3745 254.699 72.8686 253.629C72.3417 252.517 73.7592 252.612 74.0017 251.652C70.4518 252.525 69.6908 249.177 67.8886 247.608C64.9867 245.088 62.0765 244.248 58.4722 245.178C59.0032 243.325 58.8819 241.423 58.9279 239.533C59.1328 230.979 58.7523 222.426 59.2917 213.86C59.6555 208.062 59.8604 202.235 60.0235 196.42C60.0987 193.797 60.9015 192.302 63.4773 191.775L63.4856 191.771Z" fill="#BCA097"/>
<path d="M45.3635 118.321C45.8945 116.81 46.4255 115.298 46.9566 113.791C48.8758 113.733 50.7574 113.729 52.685 114.112C55.1688 114.61 57.6274 113.787 60.5167 113.132C57.0002 116.414 57.0546 120.409 56.5486 124.329C55.5158 132.285 55.0642 140.311 53.0488 148.156C51.7484 153.213 50.7365 158.336 49.4236 163.406C48.6207 166.507 48.2319 169.85 47.9977 173.182C47.7092 177.345 46.2206 181.789 43.0345 184.96C41.1152 186.871 38.4224 185.697 36.0934 185.059C35.3115 184.844 34.5588 184.449 33.8647 184.021C33.041 183.51 32.5476 183.107 33.0285 181.756C33.7644 179.672 33.5888 177.296 34.1198 175.117C35.3658 169.982 37.1973 164.983 38.0377 159.745C38.8364 154.778 39.5556 149.8 40.3835 144.841C41.479 138.257 42.6121 131.676 43.7996 125.107C44.2094 122.83 44.8324 120.59 45.3551 118.333L45.3635 118.321Z" fill="#FDFDFD"/>
<path d="M128.246 50.2158C132.281 50.8418 136.166 51.8672 139.82 53.7862C142.321 55.0999 145.035 56.0306 147.669 57.093C150.132 58.0855 151.62 60.0663 151.624 62.6483C151.629 65.6587 151.934 68.6937 150.282 71.5063C149.751 72.4082 149.187 72.7294 148.279 72.5976C145.206 72.157 142.095 72.2888 139.018 71.7452C133.218 70.7239 127.347 70.1762 121.552 69.0355C115.142 67.7712 110.007 64.4356 105.266 60.2763C110.145 53.1314 117.099 49.9029 125.7 49.7876L125.662 49.767C126.356 50.85 127.389 50.0429 128.242 50.2158H128.246Z" fill="#5C5C8D"/>
<path d="M42.219 186.85C44.0003 186.751 45.2672 185.746 46.1495 184.375C48.006 181.488 49.6451 178.338 49.9713 174.994C50.7406 167.141 53.0738 159.683 54.9722 152.093C56.5026 145.978 57.573 139.747 58.0246 133.434C58.1835 131.182 58.681 128.95 58.8901 126.701C58.9946 125.56 59.6678 125.597 60.4665 125.597C63.6318 125.602 66.7971 125.552 69.9624 125.614C71.8983 125.655 73.8301 124.667 75.8873 125.486C74.658 126.47 74.658 126.495 73.3074 126.499C69.8327 126.512 66.358 126.499 62.8833 126.508C61.9718 126.508 61.0101 126.388 60.1152 127.669C64.9949 129.193 69.9958 127.496 74.5117 129.032C73.3493 130.407 70.1463 131.486 68.1811 131.07C67.8006 130.988 67.5706 131.009 67.5121 130.449C67.3406 128.851 65.8395 129.538 65.5886 129.921C64.8109 131.116 63.7865 131.145 62.6157 131.083C62.0261 131.054 61.378 131.247 61.3655 131.832C61.3487 132.833 62.2603 132.355 62.7704 132.429C63.3683 132.516 63.9872 132.45 64.836 132.45C63.3725 139.216 63.1509 145.966 62.3063 152.645C61.562 158.563 61.0979 164.526 60.3034 170.448C59.672 175.159 58.9988 179.866 58.3005 184.568C58.196 185.273 57.4726 186.084 58.7939 186.298C59.9605 186.487 60.6379 186.092 60.7968 184.758C61.2233 181.105 61.7878 177.469 62.3481 173.454C63.5272 175.447 63.2889 177.419 63.452 179.207C63.7363 182.295 63.5063 185.425 63.5649 188.538C63.5858 189.617 63.2136 190.058 62.1014 189.988C61.4198 189.943 60.7006 189.975 60.04 190.14C56.097 191.129 55.3527 192.067 55.2022 196.074C55.1854 196.519 55.269 196.997 54.8718 197.347C52.3254 197.516 49.8835 196.914 47.4666 196.26C45.8568 195.823 44.1257 195.345 43.6532 193.435C43.1138 191.256 42.6915 189.049 42.2148 186.854L42.219 186.85Z" fill="#C88F66"/>
<path d="M207.554 228.998C200.099 230.238 193.216 232.4 186.509 235.134C185.953 235.361 185.322 235.431 184.783 235.69C182.805 236.633 182.286 235.587 182.232 233.915C182.106 229.991 182.106 226.058 181.835 222.142C181.701 220.235 182.604 220.322 183.875 220.663C186.89 221.479 189.717 222.784 192.531 224.094C197.256 226.289 202.16 227.957 207.558 228.998H207.554Z" fill="#EAC95F"/>
<path d="M87.5576 149.581C87.6078 151.772 88.2893 154.107 86.1485 155.816C85.8892 156.022 85.8182 156.228 85.9352 156.586C87.3736 161.083 85.3248 165.411 85.191 169.842C85.0948 172.984 84.3798 176.102 84.062 179.239C83.9616 180.22 83.4557 180.755 82.7323 181.208C81.1309 182.213 80.3573 181.904 80.2779 180.005C80.1524 176.983 80.2193 173.96 79.797 170.95C79.2952 167.392 78.9315 163.813 78.4799 160.247C78.2875 158.731 78.2917 157.496 79.7677 156.343C82.4689 154.239 85.2244 152.163 87.5785 149.651L87.5618 149.589L87.5576 149.581Z" fill="#FDFDFD"/>
<path d="M132.825 127.858C132.938 128.163 132.971 128.394 133.097 128.554C136.626 132.948 134.276 136.671 131.763 140.418C130.885 141.728 130.107 143.124 129.476 144.561C128.803 146.089 127.891 145.994 127.176 144.866C125.098 141.575 122.627 138.508 121.138 134.871C120.887 134.258 121.067 134.027 121.69 133.71C125.407 131.816 129.079 129.839 132.821 127.858H132.825Z" fill="#EAC95F"/>
<path d="M63.4856 191.771C60.9099 192.298 60.1071 193.793 60.0318 196.416C59.8646 202.231 59.6639 208.054 59.3001 213.856C58.7607 222.422 59.1412 230.975 58.9363 239.528C58.8903 241.423 59.0116 243.321 58.4806 245.174C57.7237 245.421 56.9627 245.668 56.2268 245.911C56.2268 244.618 56.2268 243.35 56.2268 242.086C56.7286 241.983 57.1592 241.715 56.9962 241.18C56.1557 238.441 56.854 235.633 56.5488 232.874C56.415 230.316 56.0637 227.635 56.3188 225.222C56.8582 220.116 56.1934 215.009 56.946 209.915C57.5272 205.987 57.4728 201.951 57.4854 197.96C57.4896 196.293 57.7948 194.67 58.0541 193.076C58.2673 191.771 59.8813 191.363 61.0605 191.433C61.8256 191.479 63.0424 189.679 63.4898 191.775L63.4856 191.771Z" fill="#FAFAFB"/>
<path d="M232.927 278.082C231.438 278.107 231.217 277.369 231.451 276.286C232.822 269.875 234.127 263.446 235.595 257.055C235.983 255.358 235.687 253.233 237.857 252.282C238.317 252.08 238.225 251.533 238.25 251.071C238.726 241.723 241.632 232.832 243.518 223.748C243.794 222.426 244.166 221.108 244.296 219.774C244.384 218.868 244.777 218.46 245.563 218.131C246.002 217.946 246.445 217.67 246.842 217.913C247.424 218.267 246.855 218.683 246.759 219.082C244.049 230.703 241.348 242.325 238.655 253.95C237.154 260.424 235.632 266.889 234.211 273.379C233.943 274.61 234.144 275.92 233.717 277.172C233.529 277.732 233.542 278.243 232.923 278.086L232.927 278.082Z" fill="#FAFAFB"/>
<path d="M98.726 234.747H109.146C107.632 237.716 105.408 240.014 103.489 242.461C101.193 245.393 98.8096 248.267 96.5391 251.228C96.0876 251.817 95.6109 252.472 94.7412 252.55C93.9174 250.911 94.4903 249.078 94.0847 247.435C93.4198 244.738 93.9718 242.757 96.0039 240.739C97.551 239.203 98.6591 237.115 98.7302 234.751L98.726 234.747Z" fill="#5C5C8D"/>
<path d="M195.27 130.741C189.892 132.672 184.285 134.064 179.339 137.042C176.445 138.78 174.325 141.073 173.756 144.578C173.313 147.308 173.288 149.985 173.89 152.674C174.463 155.24 175.901 156.038 178.511 155.511C180.978 155.009 183.503 155.301 186.004 155.293C181.626 156.286 177.214 156.928 172.707 156.636C172.193 156.603 171.862 156.335 171.565 155.968C168.597 152.361 167.978 142.469 171.432 139.488C172.77 138.331 174.308 137.874 175.855 137.305C180.271 135.687 184.415 133.463 188.768 131.721C190.795 130.91 192.966 130.309 195.215 130.218C195.232 130.391 195.253 130.564 195.27 130.737V130.741Z" fill="#FAFAFB"/>
<path d="M224.56 241.699C225.388 244.264 223.193 245.08 221.679 245.767C214.236 249.157 206.622 251.866 198.242 249.132C197.828 248.996 197.348 249.054 196.9 249.017C197.348 248.329 198.096 248.185 198.807 247.913C200.387 247.303 202.089 246.99 203.536 246.056L203.511 246.076C204.305 246.064 205.158 246.43 205.852 245.734C206.772 245.533 207.814 245.899 208.629 245.183C213.968 245.31 218.898 243.231 224.054 242.37C224.259 242.337 224.397 241.929 224.564 241.695L224.56 241.699Z" fill="#C99066"/>
<path d="M237.371 201.856C237.932 198.566 239.596 195.642 240.737 192.562C242.657 187.373 241.678 182.2 241.319 177.061C240.842 170.254 238.914 163.71 236.364 157.36C237.647 156.125 238.379 156.03 238.973 158.073C240.901 164.732 242.435 171.411 243.041 178.366C243.464 183.193 243.552 187.929 242.243 192.516C241.285 195.868 240.466 199.496 237.371 201.856Z" fill="#F1F0F3"/>
<path d="M59.3335 246.509C62.3817 245.323 64.4348 247.102 66.4794 248.86C66.8181 249.152 66.9812 249.647 67.3157 249.943C68.8001 251.244 69.8998 252.492 66.977 253.485C68.1896 254.576 70.0461 252.529 70.6901 254.465C71.0957 255.684 69.2893 255.329 68.9924 256.384C69.5695 256.886 70.3597 256.548 71.0413 256.635C71.7396 256.726 72.2539 257.006 72.2581 257.739C72.2623 258.546 71.5682 258.422 71.0664 258.435C69.0803 258.484 67.1192 258.389 65.3965 257.224C65.0829 256.277 64.4013 255.601 63.7783 254.839C61.7461 252.364 59.4129 250.005 59.3377 246.504L59.3335 246.509Z" fill="#8E6F65"/>
<path d="M203.532 246.06C202.085 246.994 200.383 247.303 198.803 247.917C198.096 248.193 197.348 248.333 196.896 249.021C196.52 249.235 196.147 249.449 195.78 249.663C195.127 249.77 194.717 250.157 194.354 250.697C190.708 256.067 185.995 260.559 181.768 265.448C180.676 266.708 180.187 268.738 178.017 268.903C179.957 263.479 184.009 259.493 187.609 255.194C188.721 253.868 189.98 252.595 190.783 251.092C192.213 248.419 194.492 247.48 197.314 246.953C199.384 246.566 201.395 245.961 203.532 246.056V246.06Z" fill="#FDFDFD"/>
<path d="M261.109 280.627C257.622 282.497 253.599 282.134 250.944 279.647C250.522 279.252 250.012 278.626 250.049 278.148C250.116 277.283 251.011 277.695 251.546 277.641C255.134 277.279 258.358 275.673 261.77 274.722C262.685 274.466 263.593 274.59 264.467 274.339C264.124 275.434 263.242 276.221 262.736 277.184C262.15 278.3 260.507 278.976 261.109 280.631V280.627Z" fill="#C99066"/>
<path d="M96.0792 72.9518C94.3356 74.5167 94.4652 76.7611 94.0136 78.7583C92.9557 83.4653 92.3327 88.2835 92.4163 93.0646C92.4874 97.0879 92.9265 101.177 93.8756 105.143C94.1098 106.123 94.2227 107.07 94.1432 108.054C92.2282 105.719 91.3919 102.894 90.9487 100.057C89.5228 90.8985 91.6888 82.1063 94.114 73.3595C94.5488 71.7905 95.176 71.9347 96.0792 72.9518Z" fill="#FAFAFB"/>
<path d="M86.8719 187.068C86.5332 183.572 86.7925 180.059 86.9054 176.555C87.1605 168.537 89.6024 160.729 89.201 152.628C89.109 150.714 89.8198 148.749 90.2421 146.826C90.4219 146.015 90.8317 144.911 91.7516 145.101C92.8095 145.319 92.3495 146.554 92.2366 147.242C91.3209 152.806 90.2129 158.34 89.3389 163.912C88.7536 167.635 88.1054 171.353 88.0804 175.158C88.0553 179.132 87.7542 183.106 87.5702 187.08C87.3361 187.08 87.1019 187.072 86.8678 187.068H86.8719Z" fill="#BCA097"/>
<path d="M261.414 250.272C260.135 250.351 259.729 249.609 259.516 248.506C259.303 247.398 260.005 247.019 260.766 246.644C264.153 244.977 267.54 243.309 270.948 241.678C272.896 240.747 274.03 241.937 273.942 244.771C269.769 246.603 265.592 248.44 261.419 250.272H261.414Z" fill="#C99066"/>
<path d="M66.5631 120.577C68.4071 120.577 70.2511 120.61 72.0909 120.561C73.0777 120.536 73.893 120.787 74.5662 121.508C75.0011 121.973 75.344 122.476 75.1851 123.131C74.9802 123.975 74.2359 123.711 73.6672 123.761C69.3186 124.115 64.97 124.403 60.5963 124.148C59.7391 124.098 58.7272 124.399 58.9656 123.048C59.1412 122.06 58.7816 120.59 60.5712 120.582C62.5699 120.573 64.5644 120.582 66.5631 120.577Z" fill="#C88F66"/>
<path d="M261.038 260.193C260.068 258.677 260.645 257.566 262.188 257.121C265.763 256.091 269.405 255.296 272.959 254.172C274.87 253.567 274.895 255.243 274.908 256.371C274.92 257.351 274.431 258.286 273.227 258.5C269.614 259.563 265.981 260.316 262.176 259.579C261.849 259.518 261.419 259.975 261.034 260.193H261.038Z" fill="#C88F66"/>
<path d="M151.679 99.7647C150.119 101.33 148.417 102.697 145.737 103.767C148.396 99.1222 148.689 93.9252 152.557 90.3878C153.431 90.1201 154.025 91.1908 154.907 90.8655H154.903C155.141 93.431 154.694 95.8236 153.046 97.9115C152.866 98.138 152.766 98.4304 153.046 98.6898L153.05 98.6857C152.017 98.3357 151.879 99.0893 151.679 99.7647Z" fill="#C99066"/>
<path d="M136.781 100.094C134.105 103.479 133.724 107.363 133.711 111.526C133.699 115.858 134.401 120.001 135.526 124.131C135.723 124.86 135.919 125.602 136.584 126.088C136.045 126.228 135.505 126.368 134.966 126.508C133.544 124.061 133.695 121.146 132.595 118.621C130.998 114.965 131.939 111.135 131.608 107.396C131.316 104.043 133.95 100.584 136.781 100.098V100.094Z" fill="#FAFAFB"/>
<path d="M98.7261 234.747C98.655 237.111 97.5469 239.203 95.9998 240.735C93.9677 242.753 93.4199 244.734 94.0806 247.431C94.4862 249.074 93.9133 250.907 94.737 252.546C94.3984 254.58 92.6631 255.729 91.5425 257.36C91.785 254.914 91.5843 252.455 91.9439 250.1C92.245 248.135 92.3077 246.22 92.178 244.285C92.0442 242.325 92.2408 240.599 94.1182 239.409C95.3768 238.61 96.0165 237.313 96.4723 235.954C96.8486 234.83 97.6055 234.48 98.7261 234.747Z" fill="#FAFAFB"/>
<path d="M116.936 130.72C115.568 135.687 114.21 140.818 111.27 145.587C110.296 144.66 111.032 143.721 110.848 142.918C110.781 142.63 110.848 142.313 110.827 142.008C110.446 137.009 110.095 132.03 116.936 130.72Z" fill="#EAC95F"/>
<path d="M125.704 49.7876C117.103 49.9029 110.149 53.1315 105.27 60.2764C103.53 59.7616 103.359 58.9586 104.471 57.5008C107.616 53.3827 111.847 50.9942 116.81 49.8453C119.729 49.1699 122.731 48.8652 125.704 49.7876Z" fill="#FAFAFB"/>
<path d="M198.468 216.529C200.149 215.504 202.048 215.804 203.762 216.051C209.754 216.916 215.775 216.85 221.792 216.953C222.988 216.974 224.188 216.64 225.384 216.467C224.175 218.176 220.6 219.3 218.359 218.699C216.31 218.151 214.232 217.789 212.095 217.76C207.521 217.694 202.963 217.423 198.468 216.525V216.529Z" fill="#F1F0F3"/>
<path d="M204.514 266.749C204.774 265.909 205.455 264.488 205.217 264.319C203.532 263.125 202.57 261.189 200.688 260.222C199.07 259.39 197.511 258.443 195.963 257.479C195.453 257.162 194.538 256.717 195.734 256.046C199.739 256.82 202.867 259.526 206.618 260.876C206.889 260.975 207.086 261.457 207.186 261.799C207.583 263.17 206.049 265.979 204.514 266.753V266.749Z" fill="#FAFAFB"/>
<path d="M260.637 254.81C260.231 252.957 261.502 252.368 262.92 252.142C266.407 251.586 269.597 250.219 272.788 248.843C275.037 247.876 274.297 249.613 274.423 250.577C273.465 250.602 272.725 251.187 271.88 251.508C268.222 252.904 264.709 254.79 260.632 254.81H260.637Z" fill="#C88F66"/>
<path d="M137.713 127.801C140.657 132.157 141.468 137.313 143.245 142.107C141.363 141.283 141.23 139.249 140.301 137.795C138.896 135.596 137.926 133.133 136.772 130.778C137.107 129.79 135.928 128.34 137.713 127.796V127.801Z" fill="#FAFAFB"/>
<path d="M20.384 181.566C25.0128 181.146 29.2318 181.933 32.4054 185.713C27.5676 186.685 24.2476 183.374 20.384 181.566Z" fill="#9191B0"/>
<path d="M213.003 223.793C217.013 225.28 216.979 226.326 216.168 233.162C215.34 232.009 214.638 231.082 213.994 230.119C212.778 228.298 212.448 226.191 213.003 223.797V223.793Z" fill="#EAC95F"/>
<path d="M42.2192 186.85C42.6917 189.045 43.1182 191.252 43.6576 193.431C44.1301 195.345 45.8612 195.823 47.471 196.256C49.8836 196.91 52.3256 197.512 54.8762 197.343C51.3847 199.122 48.0438 198.076 45.0333 196.371C42.0561 194.687 40.7641 191.8 40.8435 188.345C40.8686 187.315 41.5376 187.146 42.2192 186.85Z" fill="#FAFAFB"/>
<path d="M59.3335 246.509C59.413 250.009 61.7462 252.364 63.7741 254.844C64.3972 255.601 65.0787 256.281 65.3923 257.228C61.1984 254.984 57.6944 252.159 56.7913 247.139C57.5941 246.941 58.4638 246.727 59.3335 246.509Z" fill="#FAFAFB"/>
<path d="M262.815 264.748C264.019 262.586 266.415 263.29 268.238 262.647C268.974 262.388 269.852 262.277 270.664 262.083C271.379 261.91 272.173 261.231 272.796 261.914C273.515 262.701 273.08 263.611 272.558 264.406C269.309 264.492 266.102 265.761 262.815 264.748Z" fill="#C99066"/>
<path d="M228.628 214.713C229.231 212.522 231.192 211.262 232.408 209.483C234.131 206.963 235.281 204.076 237.405 201.815C236.527 207.465 233.383 211.616 228.633 214.709L228.628 214.713Z" fill="#F1F0F3"/>
<path d="M214.311 257.578C214.721 257.57 215.135 257.557 215.545 257.549C215.135 261.227 213.358 264.397 211.635 267.577C211.062 268.635 210.134 269.224 208.604 268.684C210.059 266.354 211.497 264.15 212.819 261.885C213.588 260.564 214.805 259.349 214.311 257.582V257.578Z" fill="#BCA097"/>
<path d="M261.414 250.273C265.587 248.44 269.764 246.603 273.937 244.771C273.381 246.467 272.156 247.427 270.463 247.962C268.042 248.724 265.637 249.552 263.242 250.384C262.589 250.61 261.983 251.014 261.414 250.277V250.273Z" fill="#FAFAFB"/>
<path d="M206.195 271.604C206.894 270.756 207.692 270.319 208.897 270.278C211.046 270.204 213.04 269.574 214.207 267.527C216.373 267.601 216.277 268.783 215.583 270.258C214.558 271.139 213.333 271.337 212.033 271.283C210.063 270.982 208.14 271.489 206.191 271.604H206.195Z" fill="#C99066"/>
<path d="M261.109 280.627C260.507 278.971 262.155 278.296 262.736 277.18C263.242 276.212 264.124 275.43 264.467 274.334C265.437 274.067 266.403 273.803 268 273.367C265.621 276.291 264.417 279.387 261.105 280.627H261.109Z" fill="#FDFDFD"/>
<path d="M224.56 241.699C224.393 241.933 224.251 242.337 224.05 242.374C218.894 243.235 213.964 245.314 208.625 245.187C213.872 243.745 218.982 241.682 224.564 241.699H224.56Z" fill="#FAFAFB"/>
<path d="M260.637 254.811C264.709 254.79 268.226 252.904 271.885 251.508C272.729 251.187 273.469 250.598 274.427 250.577C274.724 251.73 273.791 252.076 273.051 252.294C269.192 253.435 265.6 255.527 261.389 255.486C260.729 255.478 260.566 255.391 260.637 254.811Z" fill="#FAFAFB"/>
<path d="M262.815 264.748C266.106 265.757 269.309 264.492 272.558 264.406C271.596 266.111 269.685 265.769 268.226 266.111C266.486 266.518 264.576 266.205 262.736 266.197C262.134 266.197 261.954 265.851 262.033 265.316C262.38 265.254 262.84 265.357 262.845 264.785L262.815 264.748Z" fill="#FAFAFB"/>
<path d="M167.48 178.535C166.97 179.915 166.46 181.294 165.945 182.678C164.967 182.489 163.938 182.316 164.156 180.957C164.39 179.491 165.063 178.226 166.46 177.592C166.974 177.358 167.166 178.173 167.48 178.539V178.535Z" fill="#F1F0F3"/>
<path d="M209.649 261.214C211.43 258.834 211.409 258.896 208.625 257.944C207.241 257.471 205.564 257.294 204.987 255.564C206.584 256.203 208.194 256.808 209.77 257.491C212.296 258.587 212.367 258.826 210.82 261.082C210.494 261.56 210.456 262.26 209.774 262.483C209.453 262.1 209.591 261.655 209.649 261.214Z" fill="#FDFDFD"/>
<path d="M193.467 267.84V263.949C194.726 264.348 196.628 264.645 196.662 265.419C196.716 266.77 194.609 266.852 193.994 268.153C193.819 268.05 193.643 267.943 193.467 267.84Z" fill="#C88F66"/>
<path d="M153.046 98.6898C152.77 98.4304 152.866 98.138 153.046 97.9115C154.694 95.8237 155.141 93.431 154.903 90.8655C156.797 93.5216 156.199 96.0543 153.046 98.6898Z" fill="#FAFAFB"/>
<path d="M261.038 260.193C261.423 259.975 261.853 259.518 262.18 259.579C265.985 260.317 269.618 259.563 273.231 258.5C271.638 259.917 269.756 260.387 267.64 260.292C265.441 260.193 263.242 260.218 261.038 260.189V260.193Z" fill="#FAFAFB"/>
<path d="M206.195 271.604C208.14 271.489 210.067 270.982 212.037 271.283C209.076 272.502 205.907 272.535 202.361 273.111C203.716 271.888 205.037 271.954 206.195 271.604Z" fill="#FAFAFB"/>
<path d="M137.713 127.801C135.928 128.34 137.107 129.794 136.772 130.782C135.819 129.501 135.451 127.978 134.97 126.503C135.509 126.363 136.049 126.223 136.588 126.087C137.42 126.372 137.529 127.113 137.713 127.805V127.801Z" fill="#BCA097"/>
<path d="M215.587 270.257C216.281 268.783 216.373 267.601 214.211 267.527C214.194 266.893 214.366 266.234 215.127 266.444C216.272 266.761 217.171 267.647 217.314 268.763C217.427 269.652 216.72 270.373 215.591 270.257H215.587Z" fill="#FAFAFB"/>
<path d="M93.7419 156.199C94.3608 158.036 94.5113 159.86 93.6499 161.672C93.3196 159.843 92.659 158.007 93.7419 156.199Z" fill="#E3E6EF"/>
<path d="M56.5486 232.874C56.8538 235.633 56.1555 238.441 56.996 241.18C57.159 241.719 56.7284 241.983 56.2266 242.086C56.2433 239.009 55.7165 235.917 56.5486 232.869V232.874Z" fill="#BCA097"/>
<path d="M268.314 271.373C269.117 269.784 269.924 268.194 270.726 266.601C270.609 268.515 269.932 270.163 268.314 271.373Z" fill="#FAFAFB"/>
<path d="M80.144 186.45C81.1685 186.36 82.0006 186.364 82.7992 186.195C83.2801 186.092 83.7944 185.491 83.9198 186.463C84.0202 187.229 83.2257 187.805 82.8494 187.542C82.0633 186.99 80.9594 187.674 80.1482 186.45H80.144Z" fill="#E3E6EF"/>
<path d="M187.375 279.453C188.864 277.876 190.682 277.073 192.89 277.201C191.088 278.041 189.374 279.079 187.375 279.453Z" fill="#FAFAFB"/>
<path d="M157.654 295.341C158.039 297.309 156.458 298.121 155.312 299.183C155.292 298.829 155.271 298.475 155.25 298.121C156.099 297.235 156.483 295.959 157.654 295.341Z" fill="#FAFAFB"/>
<path d="M155.245 298.125C155.266 298.479 155.287 298.833 155.308 299.187C154.94 300.418 154.472 301.538 152.82 301.32C153.427 300.109 154.192 299.01 155.241 298.125H155.245Z" fill="#BCA097"/>
<path d="M195.269 130.741C195.253 130.568 195.232 130.395 195.215 130.222C196.674 129.526 198.167 128.958 199.84 129.246C198.46 130.173 196.892 130.543 195.269 130.745V130.741Z" fill="#E3E6EF"/>
<path d="M143.203 142.049C144.357 143.198 145.064 144.549 145.123 146.188C144.24 144.915 143.074 143.775 143.203 142.049Z" fill="#FAFAFB"/>
<path d="M160.409 170.373C161.438 169.933 161.58 171.131 162.253 171.349C162.023 171.708 161.844 172.379 161.396 172.206C160.656 171.918 160.418 171.156 160.409 170.373Z" fill="#F1F0F3"/>
<path d="M154.907 90.8655C154.02 91.1909 153.431 90.1202 152.557 90.3878C153.594 89.3418 154.401 89.383 154.907 90.8655Z" fill="#FAFAFB"/>
<path d="M178.005 268.919C178.222 270.159 177.867 270.929 176.416 270.785C176.784 270.031 177.193 269.306 178.005 268.919Z" fill="#FDFDFD"/>
<path d="M176.215 270.99C176.445 272.238 175.797 272.988 174.739 273.503C174.756 272.395 175.663 271.794 176.215 270.99Z" fill="#FDFDFD"/>
<path d="M128.246 50.2158C127.389 50.0429 126.356 50.85 125.667 49.767C126.507 50.0223 127.51 49.3758 128.246 50.2158Z" fill="#FAFAFB"/>
<path d="M205.848 245.739C205.154 246.439 204.305 246.068 203.507 246.08C204.184 245.277 205.062 245.809 205.848 245.739Z" fill="#FDFDFD"/>
<path d="M151.679 99.7646C151.879 99.0892 152.017 98.3356 153.05 98.6856C152.787 99.2869 152.31 99.6204 151.679 99.7646Z" fill="#FAFAFB"/>
<path d="M160.008 169.064C160.372 169.426 160.836 169.76 160.397 170.357C159.648 170.106 160.087 169.508 160.008 169.064Z" fill="#F1F0F3"/>
<path d="M262.844 264.785C262.844 265.357 262.38 265.254 262.033 265.316C262.125 264.875 262.326 264.599 262.844 264.785Z" fill="#C99066"/>
<path d="M204.059 267.667C203.987 267.222 203.946 266.794 204.556 266.687C204.941 267.284 204.393 267.424 204.059 267.667Z" fill="#FAFAFB"/>
<path d="M225.346 216.504C225.388 215.956 225.835 216.105 226.157 216.043C225.965 216.327 225.864 216.776 225.346 216.504Z" fill="#F1F0F3"/>
<path d="M133.293 94.2917C133.126 94.4729 132.95 94.543 132.754 94.3329C132.858 94.2464 132.959 94.16 133.063 94.0735C133.143 94.1435 133.218 94.2176 133.293 94.2917Z" fill="#C88F66"/>
<path d="M87.5785 149.643C87.7123 149.63 87.8419 149.618 87.9757 149.606C87.9172 149.688 87.8545 149.771 87.7959 149.857C87.7207 149.771 87.6412 149.68 87.5618 149.589C87.5618 149.585 87.5785 149.647 87.5785 149.647V149.643Z" fill="#FDFDFD"/>
<path d="M174.781 273.457C174.655 273.626 174.534 273.791 174.409 273.96C174.413 273.708 174.237 273.325 174.781 273.457Z" fill="#FDFDFD"/>
<path d="M225.367 182.629C223.761 183.02 222.515 182.769 221.332 181.373C220.136 179.96 218.572 180.541 218.187 182.324C217.489 185.581 219.191 188.785 222.306 190.074C223.953 190.754 229.159 189.448 230.175 188.032C230.857 187.076 230.69 185.894 230.322 184.955C228.942 181.451 228.168 177.658 225.429 174.755C224.932 174.228 223.736 173.219 224.765 172.502C225.835 171.757 227.198 172.198 227.922 173.441C229.071 175.414 229.979 177.526 231.455 179.314C231.685 179.594 231.781 180.018 232.283 179.952L232.253 179.919C232.249 181.83 233.157 183.527 233.704 185.281C234.365 187.389 233.834 188.962 232.111 190C227.796 192.59 222.841 193.385 218.279 190.367C215.591 188.588 214.478 185.956 214.55 182.979C214.6 180.932 215.875 179.256 217.999 178.572C219.843 177.979 223.414 179.046 224.267 180.401C224.71 181.101 224.99 181.904 225.346 182.658L225.375 182.633L225.367 182.629Z" fill="#332A64"/>
<path d="M201.838 200.579C203.323 199.245 203.724 197.981 204.494 196.997C205.05 196.284 205.932 194.732 206.948 197.005C207.68 198.64 209.708 198.702 211.301 199.08C216.824 200.394 222.457 199.966 228.06 200.011C229.046 200.019 230.029 200.011 231.2 200.011C230.673 201.061 229.879 201.37 229.063 201.358C222.695 201.275 216.293 201.864 209.979 200.505C209.461 200.394 208.955 200.369 208.441 200.131C207.253 199.579 206.062 198.784 204.786 200.246C204.431 200.654 203.335 200.439 201.838 200.579Z" fill="#2C2665"/>
<path d="M212.229 175.822C210.95 176.044 210.427 175.274 210.393 174.001C210.352 172.515 211.113 171.753 212.614 171.708C213.814 171.675 214.721 171.881 214.709 173.425C214.692 175.027 214.069 175.863 212.233 175.822H212.229Z" fill="#2C2665"/>
<path d="M212.083 178.317C208.491 178.099 205.714 175.682 202.348 174.825C205.831 175.319 209.407 175.525 212.083 178.317Z" fill="#332A64"/>
<path d="M237.384 174.014C237.472 175.542 236.794 176.32 235.251 176.271C234.532 176.246 233.487 176.46 233.734 175.266C234.005 173.956 234.44 172.642 236.251 172.61C237.401 172.585 237.434 173.26 237.384 174.018V174.014Z" fill="#2C2665"/>
<path d="M232.283 179.944C234.374 177.465 237.171 177.646 240.031 178.062C237.526 179.009 234.963 179.734 232.254 179.911L232.283 179.944Z" fill="#2C2665"/>
<path d="M225.338 182.649C225.413 182.765 225.488 182.876 225.563 182.991C225.497 182.868 225.43 182.748 225.363 182.625L225.338 182.649Z" fill="#332A64"/>
<path d="M121.209 71.6876C123.701 71.5723 126.135 71.7988 128.481 72.5977C130.621 73.3266 130.881 74.3026 129.212 75.7727C125.198 79.3184 120.26 80.8791 115.075 81.7275C113.524 81.9828 111.897 82.061 110.283 81.7892C109.016 81.5792 107.812 81.3157 107.306 80.0185C106.867 78.8819 107.285 77.9594 108 76.9052C111.233 72.1282 116.2 71.9017 121.205 71.6876H121.209Z" fill="#2C2665"/>
<path d="M106.102 85.6438C105.993 86.8751 105.011 87.5793 104.363 88.4811C102.69 90.8079 102.017 93.5505 101.135 96.1984C100.495 98.1133 101.762 98.8587 103.338 99.5011C108.038 101.416 111.659 99.077 111.358 94.2423C111.312 93.497 111.408 92.6486 110.471 92.3274C109.648 92.0433 108.983 92.3151 108.435 92.9863C108.151 93.3364 107.808 93.6782 107.419 93.8964C106.917 94.1806 106.315 94.1064 105.91 93.7193C105.512 93.3364 105.83 92.8916 106.039 92.4798C106.712 91.1538 109.581 89.976 111.266 90.5072C113.148 91.1002 114.147 92.5127 114.185 94.4441C114.272 99.147 109.021 102.919 104.158 101.696C103.936 101.638 103.727 101.527 103.51 101.461C97.8563 99.7235 97.1873 98.2863 99.5205 92.8751C99.7797 92.2739 100.491 91.6356 99.9345 91.0302C99.4452 90.4949 98.6341 90.9437 97.9692 91.0302C97.5929 91.0796 97.2249 91.3103 96.8653 91.2814C96.259 91.2361 95.4939 91.0673 95.4562 90.3878C95.4186 89.766 96.1545 89.6548 96.6772 89.6466C99.2445 89.6218 101.231 88.51 102.836 86.5951C103.677 85.5944 104.701 85.0219 106.106 85.6438H106.102Z" fill="#2C2665"/>
<path d="M116.125 109.187C113.486 109.195 111.249 107.832 109.088 106.712C107.457 105.868 106.294 105.971 104.848 106.613C102.903 107.474 101.248 108.895 99.0899 109.368C97.6808 109.677 96.3637 109.66 95.7741 108.269C95.1845 106.877 95.657 105.476 97.0871 104.768C98.977 103.833 100.842 103.109 103.179 103.545C106.357 104.138 109.589 103.45 112.776 102.969C115.222 102.598 117.672 102.532 120.068 103.253C122.618 104.023 123.003 105.806 121.009 107.577C119.633 108.796 117.94 109.191 116.125 109.187ZM116.785 107.708C117.605 107.358 118.792 107.593 119.156 106.358C119.441 105.382 118.792 104.789 118.073 104.735C116.1 104.583 114.105 104.599 112.119 104.661C111.521 104.682 111.04 105.341 111.768 105.699C113.365 106.485 115.075 107.041 116.785 107.708ZM103.242 105.431C101.758 105.155 100.357 104.731 99.0732 105.526C98.2787 106.016 98.0613 106.79 98.446 107.474C98.8516 108.19 99.483 107.667 100.001 107.354C101.076 106.7 102.163 106.07 103.242 105.427V105.431Z" fill="#2C2665"/>
<path d="M136.404 81.6039C136.396 84.7542 133.858 86.6362 131.215 85.8043C130.049 85.4378 129.363 84.6513 129.355 83.2799C129.334 80.7638 130.471 78.5936 131.428 76.4192C132.118 74.8502 134.234 75.052 135.008 76.621C135.848 78.3259 136.329 80.1378 136.404 81.6039ZM133.975 82.6169C134.059 80.8338 133.987 79.0548 133.005 78.9271C132.102 78.8077 132.215 80.7226 131.859 81.7274C131.667 82.271 131.696 82.9175 131.734 83.5105C131.771 84.0953 132.173 84.4618 132.787 84.4701C133.377 84.4783 133.845 84.1736 133.954 83.6053C134.054 83.0987 133.975 82.5593 133.975 82.6128V82.6169Z" fill="#2C2665"/>
<path d="M102.882 111.724C105.868 109.244 108.602 109.084 111.517 111.081C111.822 111.291 112.207 111.505 112.111 111.95C112.002 112.465 111.517 112.292 111.17 112.354C111.019 112.378 110.865 112.358 110.71 112.362C109.284 112.387 108.193 111.126 106.842 111.213C105.609 111.291 104.475 112.247 102.878 111.728L102.882 111.724Z" fill="#2C2665"/>
<path d="M124.847 89.2553C122.468 90.8573 116.844 90.9685 114.828 89.453C115.623 88.9671 121.569 88.8518 124.847 89.2553Z" fill="#2C2665"/>
<path d="M100.637 85.6355C100.394 86.7515 99.5538 86.8091 98.6883 86.7803C97.7433 86.7474 96.9112 86.2985 97.0576 85.3308C97.2039 84.3507 98.0736 83.9924 99.1399 84.0294C100.306 84.0706 100.357 84.9231 100.637 85.6355Z" fill="#2C2665"/>
<path d="M116.781 83.5888C117.421 83.6465 118.266 83.4035 118.282 84.4536C118.299 85.6726 117.484 85.9155 116.455 85.8785C115.619 85.8497 114.523 85.9485 114.653 84.7831C114.766 83.7371 115.824 83.5724 116.785 83.5888H116.781Z" fill="#2C2665"/>
<path d="M116.785 107.708C115.075 107.041 113.361 106.485 111.768 105.699C111.04 105.341 111.521 104.678 112.119 104.661C114.101 104.599 116.095 104.579 118.073 104.735C118.792 104.793 119.445 105.382 119.156 106.358C118.792 107.597 117.609 107.358 116.785 107.708Z" fill="#E3E6EF"/>
<path d="M103.242 105.431C102.159 106.074 101.072 106.704 100.001 107.358C99.4828 107.675 98.8514 108.194 98.4458 107.478C98.0569 106.794 98.2785 106.02 99.073 105.53C100.361 104.735 101.762 105.155 103.242 105.435V105.431Z" fill="#E3E6EF"/>
<path d="M133.975 82.6211C133.975 82.5675 134.054 83.107 133.954 83.6135C133.845 84.1777 133.373 84.4866 132.787 84.4783C132.177 84.4701 131.771 84.1036 131.734 83.5188C131.696 82.9258 131.667 82.2834 131.859 81.7357C132.21 80.7309 132.102 78.816 133.005 78.9354C133.983 79.063 134.058 80.8421 133.975 82.6252V82.6211Z" fill="#E3E6EF"/>
</g>
<defs>
<clipPath id="clip0_1_34360">
<rect width="332" height="332" fill="white"/>
</clipPath>
</defs>
</svg>
