<svg width="240" height="96" viewBox="0 0 240 96" fill="none" xmlns="http://www.w3.org/2000/svg">
<rect width="240" height="96" rx="32" fill="white"/>
<path d="M135.264 26C133.965 26 132.87 25.5102 132.005 24.5461C131.146 23.6089 130.667 22.317 130.688 20.9981C130.688 19.5904 131.132 18.3988 132.005 17.4539C132.867 16.4898 133.962 16 135.26 16C136.545 16 137.639 16.4898 138.519 17.4539C139.392 18.4296 139.836 19.6213 139.836 20.9981C139.822 22.4096 139.378 23.6012 138.519 24.5422C137.657 25.5141 136.562 26 135.264 26ZM96.6222 26C95.3522 26 94.2503 25.5179 93.3487 24.5654C92.4544 23.6167 92 22.4173 92 21.0019C92 19.5866 92.4544 18.3872 93.3487 17.4385C94.2324 16.4859 95.3343 16.0039 96.6222 16.0039C97.2519 16.0039 97.8637 16.1388 98.4504 16.4126C99.0264 16.6788 99.495 17.0413 99.8421 17.4848L99.9279 17.5966L98.9584 18.6224L98.8582 18.4952C98.3109 17.7933 97.5775 17.4501 96.6079 17.4501C95.7422 17.4501 94.9873 17.7817 94.3648 18.4373C93.7387 19.0968 93.4203 19.9607 93.4203 21.0058C93.4203 22.0509 93.7387 22.9148 94.3648 23.5742C94.9873 24.2299 95.7422 24.5615 96.6079 24.5615C97.5309 24.5615 98.3073 24.2299 98.9119 23.5742C99.2697 23.1886 99.4915 22.6487 99.5702 21.9661H96.4613V20.5237H100.905L100.923 20.6548C100.955 20.8978 100.987 21.1485 100.987 21.3799C100.987 22.7104 100.615 23.7863 99.8778 24.5808C99.0407 25.5218 97.946 26 96.6222 26ZM148 25.7956H146.63L142.433 18.5569L142.469 19.8604V25.7917H141.099V16.2083H142.662L142.705 16.2815L146.651 23.0999L146.615 21.8002V16.2083H148V25.7956ZM124.967 25.7956H123.579V17.6506H121.172V16.2083H127.372V17.6506H124.964V25.7956H124.967ZM120.041 25.7956H118.657V16.2083H120.041V25.7956ZM112.26 25.7956H110.875V17.6506H108.468V16.2083H114.668V17.6506H112.26V25.7956ZM107.591 25.7802H102.282V16.2083H107.591V17.6506H103.67V20.2808H107.208V21.7077H103.67V24.3378H107.591V25.7802ZM133.021 23.555C133.64 24.2221 134.391 24.5577 135.264 24.5577C136.162 24.5577 136.895 24.2299 137.507 23.555C138.115 22.8993 138.423 22.0393 138.423 21.0019C138.423 19.9645 138.115 19.1007 137.511 18.4489C136.892 17.7817 136.137 17.4462 135.267 17.4462C134.369 17.4462 133.636 17.774 133.028 18.4489C132.42 19.1045 132.112 19.9645 132.112 21.0019C132.112 22.0393 132.416 22.9032 133.021 23.555Z" fill="#808285"/>
<g clip-path="url(#clip0_1_18493)">
<path d="M49.0204 61.3232C54.6969 58.2019 59.0008 55.8239 59.3717 55.6392C60.5579 55.0071 61.7836 53.3348 59.3717 52.036C58.5929 51.6276 54.4 49.3232 49.0204 46.3521L41.5633 53.8929L49.02 61.3232H49.0204Z" fill="#FFD900"/>
<path d="M41.5633 53.8931L17.818 77.856C18.375 77.9301 19.0042 77.782 19.7465 77.3736C21.304 76.5202 37.8148 67.4913 49.0208 61.3249L41.5633 53.8931Z" fill="#F43249"/>
<path d="M41.5633 53.8929L49.02 46.3887C49.02 46.3887 21.4166 31.3049 19.7461 30.4148C19.1176 30.0406 18.4123 29.93 17.7814 30.0406L41.5633 53.8925V53.8929Z" fill="#00EE76"/>
<path d="M41.5633 53.8934L17.781 30.0415C16.8158 30.2648 16 31.1187 16 32.8641V75.0326C16 76.6312 16.6313 77.7824 17.8176 77.893L41.5629 53.893L41.5633 53.8934Z" fill="#00D3FF"/>
<path d="M118.998 49.1366C114.731 49.1366 111.206 52.4425 111.206 56.9753C111.206 61.471 114.694 64.8139 118.998 64.8139C123.302 64.8139 126.789 61.508 126.789 56.9753C126.789 52.4425 123.302 49.1366 118.998 49.1366ZM118.998 61.6947C116.66 61.6947 114.62 59.7251 114.62 56.9403C114.62 54.1168 116.661 52.1859 118.998 52.1859C121.334 52.1859 123.375 54.1168 123.375 56.9403C123.375 59.7251 121.334 61.6947 118.998 61.6947ZM102.042 49.1366C97.7383 49.1366 94.2502 52.4425 94.2502 56.9753C94.2502 61.471 97.7383 64.8139 102.042 64.8139C106.346 64.8139 109.834 61.508 109.834 56.9753C109.834 52.4425 106.346 49.1366 102.042 49.1366H102.042ZM102.042 61.6947C99.7037 61.6947 97.6648 59.7251 97.6648 56.9403C97.6648 54.1168 99.7058 52.1859 102.042 52.1859C104.38 52.1859 106.419 54.1168 106.419 56.9403C106.419 59.7251 104.415 61.6947 102.042 61.6947ZM81.8954 51.5517V54.8576H89.7604C89.5369 56.715 88.9081 58.0895 87.9798 59.019C86.8301 60.1701 85.0491 61.434 81.8954 61.434C77.0342 61.434 73.2882 57.4964 73.2882 52.6293C73.2882 47.7621 77.0362 43.7501 81.8954 43.7501C84.5287 43.7501 86.4222 44.7906 87.8319 46.1285L90.1682 43.7871C88.2012 41.8931 85.5679 40.4446 81.8954 40.4446C75.2532 40.4446 69.6876 45.9048 69.6876 52.5552C69.6876 59.2061 75.2532 64.6663 81.8954 64.6663C85.4939 64.6663 88.1662 63.4781 90.3177 61.2477C92.5066 59.056 93.1745 55.9718 93.1745 53.4831C93.1745 52.7033 93.101 51.9971 92.9884 51.4024L81.8954 51.5517ZM164.337 54.1148C163.706 52.3685 161.703 49.1366 157.695 49.1366C153.687 49.1366 150.385 52.2949 150.385 56.9753C150.385 61.3583 153.687 64.8139 158.066 64.8139C161.628 64.8139 163.669 62.6222 164.521 61.3583L161.888 59.5754C160.997 60.8763 159.81 61.7297 158.066 61.7297C156.322 61.7297 155.098 60.9499 154.318 59.3517L164.669 55.0057L164.337 54.1148ZM153.799 56.7536C153.726 53.7434 156.138 52.1838 157.843 52.1838C159.216 52.1838 160.329 52.8526 160.736 53.8561L153.799 56.7536ZM145.377 64.2945H148.791V41.335H145.377V64.2945ZM139.813 50.883H139.702C138.923 49.9535 137.476 49.1366 135.62 49.1366C131.724 49.1366 128.199 52.5922 128.199 56.9753C128.199 61.3583 131.761 64.7773 135.62 64.7773C137.474 64.7773 138.922 63.9601 139.702 62.9936H139.813V64.1082C139.813 67.1183 138.216 68.7145 135.657 68.7145C133.579 68.7145 132.28 67.192 131.761 65.9281L128.794 67.192C129.646 69.2726 131.91 71.8358 135.657 71.8358C139.663 71.8358 143.04 69.4577 143.04 63.6998V49.6191H139.813V50.883ZM135.917 61.6947C133.579 61.6947 131.613 59.7251 131.613 56.9773C131.613 54.2295 133.581 52.2225 135.917 52.2225C138.218 52.2225 140.073 54.2295 140.073 56.9773C140.071 59.6881 138.216 61.6947 135.917 61.6947ZM180.254 41.3354H172.091V64.2945H175.506V55.6004H180.254C184.039 55.6004 187.748 52.8505 187.748 48.4679C187.748 44.0849 184.039 41.335 180.254 41.335V41.3354ZM180.364 52.4076H175.54V44.5299H180.364C182.887 44.5299 184.371 46.6476 184.371 48.4675C184.336 50.2508 182.889 52.4076 180.364 52.4076ZM201.366 49.0996C198.917 49.0996 196.357 50.1772 195.318 52.6293L198.324 53.8931C198.992 52.6293 200.179 52.2209 201.441 52.2209C203.222 52.2209 205.003 53.298 205.04 55.192V55.4157C204.409 55.0443 203.111 54.5232 201.478 54.5232C198.214 54.5232 194.91 56.3436 194.91 59.6881C194.91 62.7719 197.582 64.7403 200.55 64.7403C202.851 64.7403 204.112 63.6998 204.89 62.4745H205.001V64.2579H208.302V55.4523C208.266 51.4036 205.261 49.0992 201.366 49.0992V49.0996ZM200.958 61.6577C199.845 61.6577 198.286 61.0996 198.286 59.7268C198.286 57.9434 200.214 57.2747 201.884 57.2747C203.368 57.2747 204.073 57.6091 205.001 58.0545C204.741 60.1722 202.923 61.6577 200.958 61.6577ZM220.213 49.6211L216.317 59.54H216.206L212.164 49.6207H208.491L214.575 63.5147L211.124 71.2797H214.685L223.998 49.6207H220.213L220.213 49.6211ZM189.641 64.2945H193.056V41.335H189.641V64.2945Z" fill="#808285"/>
</g>
<defs>
<clipPath id="clip0_1_18493">
<rect width="208" height="48" fill="white" transform="translate(16 30)"/>
</clipPath>
</defs>
</svg>
