<svg width="160" height="160" viewBox="0 0 160 160" fill="none" xmlns="http://www.w3.org/2000/svg">
<g filter="url(#filter0_d_1_11934)">
<path d="M61.8667 92.5333C67.1687 92.5333 71.4667 88.2353 71.4667 82.9333C71.4667 77.6314 67.1687 73.3333 61.8667 73.3333C56.5648 73.3333 52.2667 77.6314 52.2667 82.9333C52.2667 88.2353 56.5648 92.5333 61.8667 92.5333Z" fill="#082666"/>
</g>
<g filter="url(#filter1_d_1_11934)">
<path d="M81.3334 74.9335C96.061 74.9335 108 62.9944 108 48.2668C108 33.5392 96.061 21.6001 81.3334 21.6001C66.6058 21.6001 54.6667 33.5392 54.6667 48.2668C54.6667 62.9944 66.6058 74.9335 81.3334 74.9335Z" fill="#082666"/>
</g>
<path d="M47.9414 131.07C46.9334 131.07 46.0454 130.83 45.2774 130.35C44.5094 129.87 43.9014 129.246 43.4534 128.478V135.942H40.8134V118.278H43.1414V120.534C43.6214 119.782 44.2454 119.182 45.0134 118.734C45.7814 118.286 46.6374 118.062 47.5814 118.062C48.4454 118.062 49.2374 118.238 49.9574 118.59C50.6774 118.926 51.3014 119.398 51.8294 120.006C52.3574 120.614 52.7654 121.31 53.0534 122.094C53.3574 122.862 53.5094 123.678 53.5094 124.542C53.5094 125.742 53.2694 126.838 52.7894 127.83C52.3254 128.822 51.6694 129.614 50.8214 130.206C49.9894 130.782 49.0294 131.07 47.9414 131.07ZM47.0774 128.814C47.6374 128.814 48.1414 128.694 48.5894 128.454C49.0534 128.214 49.4454 127.894 49.7654 127.494C50.1014 127.094 50.3574 126.638 50.5334 126.126C50.7094 125.614 50.7974 125.086 50.7974 124.542C50.7974 123.966 50.7014 123.422 50.5094 122.91C50.3174 122.398 50.0374 121.95 49.6694 121.566C49.3174 121.182 48.9014 120.878 48.4214 120.654C47.9574 120.43 47.4454 120.318 46.8854 120.318C46.5494 120.318 46.1974 120.382 45.8294 120.51C45.4614 120.638 45.1174 120.814 44.7974 121.038C44.4774 121.262 44.1974 121.526 43.9574 121.83C43.7174 122.134 43.5494 122.454 43.4534 122.79V126.078C43.6774 126.59 43.9734 127.054 44.3414 127.47C44.7094 127.87 45.1334 128.198 45.6134 128.454C46.0934 128.694 46.5814 128.814 47.0774 128.814ZM54.9717 127.158C54.9717 126.358 55.1957 125.662 55.6437 125.07C56.1077 124.462 56.7397 123.998 57.5397 123.678C58.3397 123.342 59.2677 123.174 60.3237 123.174C60.8837 123.174 61.4517 123.214 62.0277 123.294C62.6197 123.374 63.1397 123.502 63.5877 123.678V122.886C63.5877 122.006 63.3237 121.318 62.7957 120.822C62.2677 120.326 61.5077 120.078 60.5157 120.078C59.8117 120.078 59.1477 120.206 58.5237 120.462C57.8997 120.702 57.2357 121.046 56.5317 121.494L55.6437 119.718C56.4757 119.158 57.3077 118.742 58.1397 118.47C58.9877 118.198 59.8757 118.062 60.8037 118.062C62.4837 118.062 63.8037 118.51 64.7637 119.406C65.7397 120.286 66.2277 121.542 66.2277 123.174V127.854C66.2277 128.158 66.2757 128.374 66.3717 128.502C66.4837 128.63 66.6677 128.702 66.9237 128.718V130.83C66.6837 130.878 66.4677 130.91 66.2757 130.926C66.0837 130.942 65.9237 130.95 65.7957 130.95C65.2357 130.95 64.8117 130.814 64.5237 130.542C64.2357 130.27 64.0677 129.95 64.0197 129.582L63.9477 128.862C63.4037 129.566 62.7077 130.11 61.8597 130.494C61.0117 130.878 60.1557 131.07 59.2917 131.07C58.4597 131.07 57.7157 130.902 57.0597 130.566C56.4037 130.214 55.8917 129.742 55.5237 129.15C55.1557 128.558 54.9717 127.894 54.9717 127.158ZM62.9637 127.926C63.1557 127.718 63.3077 127.51 63.4197 127.302C63.5317 127.094 63.5877 126.91 63.5877 126.75V125.31C63.1397 125.134 62.6677 125.006 62.1717 124.926C61.6757 124.83 61.1877 124.782 60.7077 124.782C59.7477 124.782 58.9637 124.974 58.3557 125.358C57.7637 125.742 57.4677 126.27 57.4677 126.942C57.4677 127.31 57.5637 127.662 57.7557 127.998C57.9637 128.334 58.2517 128.606 58.6197 128.814C59.0037 129.022 59.4757 129.126 60.0357 129.126C60.6117 129.126 61.1637 129.014 61.6917 128.79C62.2197 128.566 62.6437 128.278 62.9637 127.926ZM68.6386 124.566C68.6386 123.366 68.8786 122.278 69.3586 121.302C69.8546 120.31 70.5266 119.526 71.3746 118.95C72.2226 118.358 73.1986 118.062 74.3026 118.062C75.2626 118.062 76.1266 118.31 76.8946 118.806C77.6786 119.302 78.2866 119.918 78.7186 120.654V113.31H81.3586V127.854C81.3586 128.158 81.4146 128.374 81.5266 128.502C81.6386 128.63 81.8226 128.702 82.0786 128.718V130.83C81.5826 130.91 81.1986 130.95 80.9266 130.95C80.4306 130.95 80.0066 130.806 79.6546 130.518C79.3186 130.23 79.1426 129.886 79.1266 129.486L79.1026 128.55C78.6226 129.35 77.9746 129.974 77.1586 130.422C76.3426 130.854 75.4946 131.07 74.6146 131.07C73.7506 131.07 72.9506 130.902 72.2146 130.566C71.4946 130.23 70.8626 129.758 70.3186 129.15C69.7906 128.542 69.3746 127.846 69.0706 127.062C68.7826 126.278 68.6386 125.446 68.6386 124.566ZM78.7186 126.318V123.03C78.5426 122.518 78.2546 122.062 77.8546 121.662C77.4706 121.246 77.0306 120.918 76.5346 120.678C76.0546 120.438 75.5746 120.318 75.0946 120.318C74.5346 120.318 74.0226 120.438 73.5586 120.678C73.1106 120.918 72.7186 121.238 72.3826 121.638C72.0626 122.038 71.8146 122.494 71.6386 123.006C71.4626 123.518 71.3746 124.054 71.3746 124.614C71.3746 125.19 71.4706 125.734 71.6626 126.246C71.8546 126.742 72.1266 127.19 72.4786 127.59C72.8466 127.974 73.2626 128.278 73.7266 128.502C74.2066 128.71 74.7266 128.814 75.2866 128.814C75.6386 128.814 75.9906 128.75 76.3426 128.622C76.7106 128.494 77.0546 128.318 77.3746 128.094C77.7106 127.87 77.9906 127.606 78.2146 127.302C78.4546 126.998 78.6226 126.67 78.7186 126.318ZM90.3518 131.07C89.3598 131.07 88.4718 130.902 87.6878 130.566C86.9038 130.214 86.2238 129.734 85.6478 129.126C85.0878 128.518 84.6558 127.83 84.3518 127.062C84.0478 126.278 83.8958 125.446 83.8958 124.566C83.8958 123.686 84.0478 122.854 84.3518 122.07C84.6558 121.286 85.0878 120.598 85.6478 120.006C86.2238 119.398 86.9038 118.926 87.6878 118.59C88.4878 118.238 89.3758 118.062 90.3518 118.062C91.3278 118.062 92.2078 118.238 92.9918 118.59C93.7918 118.926 94.4718 119.398 95.0318 120.006C95.6078 120.598 96.0478 121.286 96.3518 122.07C96.6558 122.854 96.8078 123.686 96.8078 124.566C96.8078 125.446 96.6558 126.278 96.3518 127.062C96.0478 127.83 95.6078 128.518 95.0318 129.126C94.4718 129.734 93.7918 130.214 92.9918 130.566C92.2078 130.902 91.3278 131.07 90.3518 131.07ZM86.6078 124.59C86.6078 125.39 86.7758 126.11 87.1118 126.75C87.4478 127.39 87.8958 127.894 88.4558 128.262C89.0158 128.63 89.6478 128.814 90.3518 128.814C91.0398 128.814 91.6638 128.63 92.2238 128.262C92.7998 127.878 93.2558 127.366 93.5918 126.726C93.9278 126.07 94.0958 125.35 94.0958 124.566C94.0958 123.766 93.9278 123.046 93.5918 122.406C93.2558 121.766 92.7998 121.262 92.2238 120.894C91.6638 120.51 91.0398 120.318 90.3518 120.318C89.6478 120.318 89.0158 120.51 88.4558 120.894C87.8958 121.278 87.4478 121.79 87.1118 122.43C86.7758 123.054 86.6078 123.774 86.6078 124.59ZM103.613 131.07C102.557 131.07 101.557 130.902 100.613 130.566C99.6693 130.214 98.8613 129.694 98.1893 129.006L99.1733 127.23C99.8933 127.87 100.613 128.334 101.333 128.622C102.069 128.91 102.797 129.054 103.517 129.054C104.253 129.054 104.853 128.918 105.317 128.646C105.781 128.358 106.013 127.942 106.013 127.398C106.013 126.998 105.893 126.702 105.653 126.51C105.413 126.318 105.061 126.15 104.597 126.006C104.149 125.862 103.605 125.702 102.965 125.526C102.069 125.254 101.317 124.974 100.709 124.686C100.101 124.382 99.6453 124.014 99.3413 123.582C99.0373 123.15 98.8853 122.598 98.8853 121.926C98.8853 121.11 99.0933 120.414 99.5093 119.838C99.9253 119.262 100.501 118.822 101.237 118.518C101.989 118.214 102.853 118.062 103.829 118.062C104.741 118.062 105.581 118.206 106.349 118.494C107.133 118.766 107.821 119.198 108.413 119.79L107.285 121.542C106.725 121.03 106.149 120.654 105.557 120.414C104.981 120.174 104.357 120.054 103.685 120.054C103.301 120.054 102.933 120.102 102.581 120.198C102.229 120.278 101.933 120.438 101.693 120.678C101.469 120.902 101.357 121.222 101.357 121.638C101.357 121.974 101.453 122.246 101.645 122.454C101.837 122.662 102.125 122.838 102.509 122.982C102.893 123.126 103.365 123.286 103.925 123.462C104.901 123.75 105.733 124.038 106.421 124.326C107.109 124.598 107.637 124.958 108.005 125.406C108.389 125.838 108.581 126.438 108.581 127.206C108.581 128.422 108.125 129.374 107.213 130.062C106.317 130.734 105.117 131.07 103.613 131.07ZM116.626 131.07C115.65 131.07 114.762 130.902 113.962 130.566C113.178 130.214 112.498 129.742 111.922 129.15C111.346 128.542 110.898 127.854 110.578 127.086C110.274 126.302 110.122 125.47 110.122 124.59C110.122 123.406 110.394 122.326 110.938 121.35C111.482 120.358 112.242 119.566 113.218 118.974C114.194 118.366 115.338 118.062 116.65 118.062C117.962 118.062 119.09 118.366 120.034 118.974C120.994 119.566 121.738 120.35 122.266 121.326C122.794 122.302 123.058 123.35 123.058 124.47C123.058 124.662 123.05 124.846 123.034 125.022C123.018 125.182 123.002 125.318 122.986 125.43H112.93C112.978 126.166 113.178 126.814 113.53 127.374C113.898 127.918 114.362 128.35 114.922 128.67C115.482 128.974 116.082 129.126 116.722 129.126C117.426 129.126 118.09 128.95 118.714 128.598C119.354 128.246 119.786 127.782 120.01 127.206L122.266 127.854C121.994 128.462 121.578 129.014 121.018 129.51C120.474 129.99 119.826 130.374 119.074 130.662C118.322 130.934 117.506 131.07 116.626 131.07ZM112.858 123.678H120.442C120.394 122.958 120.186 122.326 119.818 121.782C119.466 121.222 119.01 120.79 118.45 120.486C117.906 120.166 117.298 120.006 116.626 120.006C115.97 120.006 115.362 120.166 114.802 120.486C114.258 120.79 113.81 121.222 113.458 121.782C113.106 122.326 112.906 122.958 112.858 123.678Z" fill="#082666"/>
<defs>
<filter id="filter0_d_1_11934" x="48.2667" y="73.3333" width="27.2" height="27.2" filterUnits="userSpaceOnUse" color-interpolation-filters="sRGB">
<feFlood flood-opacity="0" result="BackgroundImageFix"/>
<feColorMatrix in="SourceAlpha" type="matrix" values="0 0 0 0 0 0 0 0 0 0 0 0 0 0 0 0 0 0 127 0" result="hardAlpha"/>
<feOffset dy="4"/>
<feGaussianBlur stdDeviation="2"/>
<feColorMatrix type="matrix" values="0 0 0 0 0 0 0 0 0 0 0 0 0 0 0 0 0 0 0.08 0"/>
<feBlend mode="normal" in2="BackgroundImageFix" result="effect1_dropShadow_1_11934"/>
<feBlend mode="normal" in="SourceGraphic" in2="effect1_dropShadow_1_11934" result="shape"/>
</filter>
<filter id="filter1_d_1_11934" x="44.6667" y="15.6001" width="73.3333" height="73.3333" filterUnits="userSpaceOnUse" color-interpolation-filters="sRGB">
<feFlood flood-opacity="0" result="BackgroundImageFix"/>
<feColorMatrix in="SourceAlpha" type="matrix" values="0 0 0 0 0 0 0 0 0 0 0 0 0 0 0 0 0 0 127 0" result="hardAlpha"/>
<feOffset dy="4"/>
<feGaussianBlur stdDeviation="5"/>
<feColorMatrix type="matrix" values="0 0 0 0 0 0 0 0 0 0 0 0 0 0 0 0 0 0 0.12 0"/>
<feBlend mode="normal" in2="BackgroundImageFix" result="effect1_dropShadow_1_11934"/>
<feBlend mode="normal" in="SourceGraphic" in2="effect1_dropShadow_1_11934" result="shape"/>
</filter>
</defs>
</svg>
